<?xml version="1.0" encoding="us-ascii" standalone="no"?><svg xmlns="http://www.w3.org/2000/svg" xmlns:xlink="http://www.w3.org/1999/xlink" contentStyleType="text/css" height="794px" preserveAspectRatio="none" style="width:3698px;height:794px;background:#FFFFFF;" version="1.1" viewBox="0 0 3698 794" width="3698px" zoomAndPan="magnify"><defs/><g><!--cluster Context Providers--><g id="cluster_Context Providers"><path d="M13.5,399 L154.5,399 A3.75,3.75 0 0 1 157,401.5 L164,422.0146 L375.5,422.0146 A2.5,2.5 0 0 1 378,424.5146 L378,641.5 A2.5,2.5 0 0 1 375.5,644 L13.5,644 A2.5,2.5 0 0 1 11,641.5 L11,401.5 A2.5,2.5 0 0 1 13.5,399 " fill="#FFFFFF" style="stroke:#000000;stroke-width:1.0;"/><line style="stroke:#000000;stroke-width:1.0;" x1="11" x2="164" y1="422.0146" y2="422.0146"/><text fill="#000000" font-family="Verdana" font-size="14" font-weight="bold" lengthAdjust="spacing" textLength="140" x="15" y="415.0752">Context Providers</text></g><!--cluster Main Application--><g id="cluster_Main Application"><path d="M497.5,11 L625.5,11 A3.75,3.75 0 0 1 628,13.5 L635,34.0146 L660.5,34.0146 A2.5,2.5 0 0 1 663,36.5146 L663,215.5 A2.5,2.5 0 0 1 660.5,218 L497.5,218 A2.5,2.5 0 0 1 495,215.5 L495,13.5 A2.5,2.5 0 0 1 497.5,11 " fill="#FFFFFF" style="stroke:#000000;stroke-width:1.0;"/><line style="stroke:#000000;stroke-width:1.0;" x1="495" x2="635" y1="34.0146" y2="34.0146"/><text fill="#000000" font-family="Verdana" font-size="14" font-weight="bold" lengthAdjust="spacing" textLength="127" x="499" y="27.0752">Main Application</text></g><!--cluster UI Components--><g id="cluster_UI Components"><path d="M463.5,251 L586.5,251 A3.75,3.75 0 0 1 589,253.5 L596,274.0146 L968.5,274.0146 A2.5,2.5 0 0 1 971,276.5146 L971,347.5 A2.5,2.5 0 0 1 968.5,350 L463.5,350 A2.5,2.5 0 0 1 461,347.5 L461,253.5 A2.5,2.5 0 0 1 463.5,251 " fill="#FFFFFF" style="stroke:#000000;stroke-width:1.0;"/><line style="stroke:#000000;stroke-width:1.0;" x1="461" x2="596" y1="274.0146" y2="274.0146"/><text fill="#000000" font-family="Verdana" font-size="14" font-weight="bold" lengthAdjust="spacing" textLength="122" x="465" y="267.0752">UI Components</text></g><!--cluster Menu Components--><g id="cluster_Menu Components"><path d="M732.5,399 L878.5,399 A3.75,3.75 0 0 1 881,401.5 L888,422.0146 L1594.5,422.0146 A2.5,2.5 0 0 1 1597,424.5146 L1597,641.5 A2.5,2.5 0 0 1 1594.5,644 L732.5,644 A2.5,2.5 0 0 1 730,641.5 L730,401.5 A2.5,2.5 0 0 1 732.5,399 " fill="#FFFFFF" style="stroke:#000000;stroke-width:1.0;"/><line style="stroke:#000000;stroke-width:1.0;" x1="730" x2="888" y1="422.0146" y2="422.0146"/><text fill="#000000" font-family="Verdana" font-size="14" font-weight="bold" lengthAdjust="spacing" textLength="145" x="734" y="415.0752">Menu Components</text></g><!--cluster Subject Components--><g id="cluster_Subject Components"><path d="M2366.5,399 L2529.5,399 A3.75,3.75 0 0 1 2532,401.5 L2539,422.0146 L2857.5,422.0146 A2.5,2.5 0 0 1 2860,424.5146 L2860,641.5 A2.5,2.5 0 0 1 2857.5,644 L2366.5,644 A2.5,2.5 0 0 1 2364,641.5 L2364,401.5 A2.5,2.5 0 0 1 2366.5,399 " fill="#FFFFFF" style="stroke:#000000;stroke-width:1.0;"/><line style="stroke:#000000;stroke-width:1.0;" x1="2364" x2="2539" y1="422.0146" y2="422.0146"/><text fill="#000000" font-family="Verdana" font-size="14" font-weight="bold" lengthAdjust="spacing" textLength="162" x="2368" y="415.0752">Subject Components</text></g><!--cluster Course Components--><g id="cluster_Course Components"><path d="M2613.5,688 L2772.5,688 A3.75,3.75 0 0 1 2775,690.5 L2782,711.0146 L2782.5,711.0146 A2.5,2.5 0 0 1 2785,713.5146 L2785,784.5 A2.5,2.5 0 0 1 2782.5,787 L2613.5,787 A2.5,2.5 0 0 1 2611,784.5 L2611,690.5 A2.5,2.5 0 0 1 2613.5,688 " fill="#FFFFFF" style="stroke:#000000;stroke-width:1.0;"/><line style="stroke:#000000;stroke-width:1.0;" x1="2611" x2="2782" y1="711.0146" y2="711.0146"/><text fill="#000000" font-family="Verdana" font-size="14" font-weight="bold" lengthAdjust="spacing" textLength="158" x="2615" y="704.0752">Course Components</text></g><!--cluster Timetable Components--><g id="cluster_Timetable Components"><path d="M2886.5,545 L3065.5,545 A3.75,3.75 0 0 1 3068,547.5 L3075,568.0146 L3234.5,568.0146 A2.5,2.5 0 0 1 3237,570.5146 L3237,641.5 A2.5,2.5 0 0 1 3234.5,644 L2886.5,644 A2.5,2.5 0 0 1 2884,641.5 L2884,547.5 A2.5,2.5 0 0 1 2886.5,545 " fill="#FFFFFF" style="stroke:#000000;stroke-width:1.0;"/><line style="stroke:#000000;stroke-width:1.0;" x1="2884" x2="3075" y1="568.0146" y2="568.0146"/><text fill="#000000" font-family="Verdana" font-size="14" font-weight="bold" lengthAdjust="spacing" textLength="178" x="2888" y="561.0752">Timetable Components</text></g><!--cluster Utils & Hooks--><g id="cluster_Utils &amp; Hooks"><path d="M1623.5,545 L1727.5,545 A3.75,3.75 0 0 1 1730,547.5 L1737,568.0146 L2337.5,568.0146 A2.5,2.5 0 0 1 2340,570.5146 L2340,641.5 A2.5,2.5 0 0 1 2337.5,644 L1623.5,644 A2.5,2.5 0 0 1 1621,641.5 L1621,547.5 A2.5,2.5 0 0 1 1623.5,545 " fill="#FFFFFF" style="stroke:#000000;stroke-width:1.0;"/><line style="stroke:#000000;stroke-width:1.0;" x1="1621" x2="1737" y1="568.0146" y2="568.0146"/><text fill="#000000" font-family="Verdana" font-size="14" font-weight="bold" lengthAdjust="spacing" textLength="103" x="1625" y="561.0752">Utils &amp; Hooks</text></g><!--entity TimetableContext--><g id="elem_TimetableContext"><rect fill="#ADD8E6" height="47.0146" rx="2.5" ry="2.5" style="stroke:#000000;stroke-width:1.0;" width="164" x="198" y="581"/><rect fill="#ADD8E6" height="10" style="stroke:#000000;stroke-width:1.0;" width="15" x="342" y="586"/><rect fill="#ADD8E6" height="2" style="stroke:#000000;stroke-width:1.0;" width="4" x="340" y="588"/><rect fill="#ADD8E6" height="2" style="stroke:#000000;stroke-width:1.0;" width="4" x="340" y="592"/><text fill="#000000" font-family="Verdana" font-size="14" lengthAdjust="spacing" textLength="124" x="213" y="615.0752">TimetableContext</text></g><!--entity StateContext--><g id="elem_StateContext"><rect fill="#ADD8E6" height="47.0146" rx="2.5" ry="2.5" style="stroke:#000000;stroke-width:1.0;" width="135" x="27.5" y="581"/><rect fill="#ADD8E6" height="10" style="stroke:#000000;stroke-width:1.0;" width="15" x="142.5" y="586"/><rect fill="#ADD8E6" height="2" style="stroke:#000000;stroke-width:1.0;" width="4" x="140.5" y="588"/><rect fill="#ADD8E6" height="2" style="stroke:#000000;stroke-width:1.0;" width="4" x="140.5" y="592"/><text fill="#000000" font-family="Verdana" font-size="14" lengthAdjust="spacing" textLength="95" x="42.5" y="615.0752">StateContext</text></g><!--entity AppProviders--><g id="elem_AppProviders"><rect fill="#ADD8E6" height="47.0146" rx="2.5" ry="2.5" style="stroke:#000000;stroke-width:1.0;" width="133" x="27.5" y="435"/><rect fill="#ADD8E6" height="10" style="stroke:#000000;stroke-width:1.0;" width="15" x="140.5" y="440"/><rect fill="#ADD8E6" height="2" style="stroke:#000000;stroke-width:1.0;" width="4" x="138.5" y="442"/><rect fill="#ADD8E6" height="2" style="stroke:#000000;stroke-width:1.0;" width="4" x="138.5" y="446"/><text fill="#000000" font-family="Verdana" font-size="14" lengthAdjust="spacing" textLength="93" x="42.5" y="469.0752">AppProviders</text></g><!--entity App--><g id="elem_App"><rect fill="#90EE90" height="47.0146" rx="2.5" ry="2.5" style="stroke:#000000;stroke-width:1.0;" width="68" x="528" y="47"/><rect fill="#90EE90" height="10" style="stroke:#000000;stroke-width:1.0;" width="15" x="576" y="52"/><rect fill="#90EE90" height="2" style="stroke:#000000;stroke-width:1.0;" width="4" x="574" y="54"/><rect fill="#90EE90" height="2" style="stroke:#000000;stroke-width:1.0;" width="4" x="574" y="58"/><text fill="#000000" font-family="Verdana" font-size="14" lengthAdjust="spacing" textLength="28" x="543" y="81.0752">App</text></g><!--entity TimetableApp--><g id="elem_TimetableApp"><rect fill="#90EE90" height="47.0146" rx="2.5" ry="2.5" style="stroke:#000000;stroke-width:1.0;" width="135" x="511.5" y="155"/><rect fill="#90EE90" height="10" style="stroke:#000000;stroke-width:1.0;" width="15" x="626.5" y="160"/><rect fill="#90EE90" height="2" style="stroke:#000000;stroke-width:1.0;" width="4" x="624.5" y="162"/><rect fill="#90EE90" height="2" style="stroke:#000000;stroke-width:1.0;" width="4" x="624.5" y="166"/><text fill="#000000" font-family="Verdana" font-size="14" lengthAdjust="spacing" textLength="95" x="526.5" y="189.0752">TimetableApp</text></g><!--entity Menu--><g id="elem_Menu"><rect fill="#FFFF00" height="47.0146" rx="2.5" ry="2.5" style="stroke:#000000;stroke-width:1.0;" width="77" x="477.5" y="287"/><rect fill="#FFFF00" height="10" style="stroke:#000000;stroke-width:1.0;" width="15" x="534.5" y="292"/><rect fill="#FFFF00" height="2" style="stroke:#000000;stroke-width:1.0;" width="4" x="532.5" y="294"/><rect fill="#FFFF00" height="2" style="stroke:#000000;stroke-width:1.0;" width="4" x="532.5" y="298"/><text fill="#000000" font-family="Verdana" font-size="14" lengthAdjust="spacing" textLength="37" x="492.5" y="321.0752">Menu</text></g><!--entity Subjects--><g id="elem_Subjects"><rect fill="#FFFF00" height="47.0146" rx="2.5" ry="2.5" style="stroke:#000000;stroke-width:1.0;" width="102" x="732" y="287"/><rect fill="#FFFF00" height="10" style="stroke:#000000;stroke-width:1.0;" width="15" x="814" y="292"/><rect fill="#FFFF00" height="2" style="stroke:#000000;stroke-width:1.0;" width="4" x="812" y="294"/><rect fill="#FFFF00" height="2" style="stroke:#000000;stroke-width:1.0;" width="4" x="812" y="298"/><text fill="#000000" font-family="Verdana" font-size="14" lengthAdjust="spacing" textLength="62" x="747" y="321.0752">Subjects</text></g><!--entity Timetable--><g id="elem_Timetable"><rect fill="#FFFF00" height="47.0146" rx="2.5" ry="2.5" style="stroke:#000000;stroke-width:1.0;" width="107" x="589.5" y="287"/><rect fill="#FFFF00" height="10" style="stroke:#000000;stroke-width:1.0;" width="15" x="676.5" y="292"/><rect fill="#FFFF00" height="2" style="stroke:#000000;stroke-width:1.0;" width="4" x="674.5" y="294"/><rect fill="#FFFF00" height="2" style="stroke:#000000;stroke-width:1.0;" width="4" x="674.5" y="298"/><text fill="#000000" font-family="Verdana" font-size="14" lengthAdjust="spacing" textLength="67" x="604.5" y="321.0752">Timetable</text></g><!--entity Footer--><g id="elem_Footer"><rect fill="#FFFF00" height="47.0146" rx="2.5" ry="2.5" style="stroke:#000000;stroke-width:1.0;" width="86" x="869" y="287"/><rect fill="#FFFF00" height="10" style="stroke:#000000;stroke-width:1.0;" width="15" x="935" y="292"/><rect fill="#FFFF00" height="2" style="stroke:#000000;stroke-width:1.0;" width="4" x="933" y="294"/><rect fill="#FFFF00" height="2" style="stroke:#000000;stroke-width:1.0;" width="4" x="933" y="298"/><text fill="#000000" font-family="Verdana" font-size="14" lengthAdjust="spacing" textLength="46" x="884" y="321.0752">Footer</text></g><!--entity SubjectAdder--><g id="elem_SubjectAdder"><rect fill="#FFA500" height="47.0146" rx="2.5" ry="2.5" style="stroke:#000000;stroke-width:1.0;" width="136" x="871" y="435"/><rect fill="#FFA500" height="10" style="stroke:#000000;stroke-width:1.0;" width="15" x="987" y="440"/><rect fill="#FFA500" height="2" style="stroke:#000000;stroke-width:1.0;" width="4" x="985" y="442"/><rect fill="#FFA500" height="2" style="stroke:#000000;stroke-width:1.0;" width="4" x="985" y="446"/><text fill="#000000" font-family="Verdana" font-size="14" lengthAdjust="spacing" textLength="96" x="886" y="469.0752">SubjectAdder</text></g><!--entity ServerQuery--><g id="elem_ServerQuery"><rect fill="#FFA500" height="47.0146" rx="2.5" ry="2.5" style="stroke:#000000;stroke-width:1.0;" width="128" x="1177" y="435"/><rect fill="#FFA500" height="10" style="stroke:#000000;stroke-width:1.0;" width="15" x="1285" y="440"/><rect fill="#FFA500" height="2" style="stroke:#000000;stroke-width:1.0;" width="4" x="1283" y="442"/><rect fill="#FFA500" height="2" style="stroke:#000000;stroke-width:1.0;" width="4" x="1283" y="446"/><text fill="#000000" font-family="Verdana" font-size="14" lengthAdjust="spacing" textLength="88" x="1192" y="469.0752">ServerQuery</text></g><!--entity ImportExport--><g id="elem_ImportExport"><rect fill="#FFA500" height="47.0146" rx="2.5" ry="2.5" style="stroke:#000000;stroke-width:1.0;" width="136" x="1340" y="435"/><rect fill="#FFA500" height="10" style="stroke:#000000;stroke-width:1.0;" width="15" x="1456" y="440"/><rect fill="#FFA500" height="2" style="stroke:#000000;stroke-width:1.0;" width="4" x="1454" y="442"/><rect fill="#FFA500" height="2" style="stroke:#000000;stroke-width:1.0;" width="4" x="1454" y="446"/><text fill="#000000" font-family="Verdana" font-size="14" lengthAdjust="spacing" textLength="96" x="1355" y="469.0752">ImportExport</text></g><!--entity Settings--><g id="elem_Settings"><rect fill="#FFA500" height="47.0146" rx="2.5" ry="2.5" style="stroke:#000000;stroke-width:1.0;" width="99" x="1042.5" y="435"/><rect fill="#FFA500" height="10" style="stroke:#000000;stroke-width:1.0;" width="15" x="1121.5" y="440"/><rect fill="#FFA500" height="2" style="stroke:#000000;stroke-width:1.0;" width="4" x="1119.5" y="442"/><rect fill="#FFA500" height="2" style="stroke:#000000;stroke-width:1.0;" width="4" x="1119.5" y="446"/><text fill="#000000" font-family="Verdana" font-size="14" lengthAdjust="spacing" textLength="59" x="1057.5" y="469.0752">Settings</text></g><!--entity Help--><g id="elem_Help"><rect fill="#FFA500" height="47.0146" rx="2.5" ry="2.5" style="stroke:#000000;stroke-width:1.0;" width="70" x="1511" y="435"/><rect fill="#FFA500" height="10" style="stroke:#000000;stroke-width:1.0;" width="15" x="1561" y="440"/><rect fill="#FFA500" height="2" style="stroke:#000000;stroke-width:1.0;" width="4" x="1559" y="442"/><rect fill="#FFA500" height="2" style="stroke:#000000;stroke-width:1.0;" width="4" x="1559" y="446"/><text fill="#000000" font-family="Verdana" font-size="14" lengthAdjust="spacing" textLength="30" x="1526" y="469.0752">Help</text></g><!--entity Button--><g id="elem_Button"><rect fill="#FFA500" height="47.0146" rx="2.5" ry="2.5" style="stroke:#000000;stroke-width:1.0;" width="89" x="746.5" y="435"/><rect fill="#FFA500" height="10" style="stroke:#000000;stroke-width:1.0;" width="15" x="815.5" y="440"/><rect fill="#FFA500" height="2" style="stroke:#000000;stroke-width:1.0;" width="4" x="813.5" y="442"/><rect fill="#FFA500" height="2" style="stroke:#000000;stroke-width:1.0;" width="4" x="813.5" y="446"/><text fill="#000000" font-family="Verdana" font-size="14" lengthAdjust="spacing" textLength="49" x="761.5" y="469.0752">Button</text></g><!--entity ImportModal--><g id="elem_ImportModal"><rect fill="#FFA500" height="47.0146" rx="2.5" ry="2.5" style="stroke:#000000;stroke-width:1.0;" width="128" x="1177" y="581"/><rect fill="#FFA500" height="10" style="stroke:#000000;stroke-width:1.0;" width="15" x="1285" y="586"/><rect fill="#FFA500" height="2" style="stroke:#000000;stroke-width:1.0;" width="4" x="1283" y="588"/><rect fill="#FFA500" height="2" style="stroke:#000000;stroke-width:1.0;" width="4" x="1283" y="592"/><text fill="#000000" font-family="Verdana" font-size="14" lengthAdjust="spacing" textLength="88" x="1192" y="615.0752">ImportModal</text></g><!--entity Subject--><g id="elem_Subject"><rect fill="#FFC0CB" height="47.0146" rx="2.5" ry="2.5" style="stroke:#000000;stroke-width:1.0;" width="94" x="2484" y="435"/><rect fill="#FFC0CB" height="10" style="stroke:#000000;stroke-width:1.0;" width="15" x="2558" y="440"/><rect fill="#FFC0CB" height="2" style="stroke:#000000;stroke-width:1.0;" width="4" x="2556" y="442"/><rect fill="#FFC0CB" height="2" style="stroke:#000000;stroke-width:1.0;" width="4" x="2556" y="446"/><text fill="#000000" font-family="Verdana" font-size="14" lengthAdjust="spacing" textLength="54" x="2499" y="469.0752">Subject</text></g><!--entity SubjectModal--><g id="elem_SubjectModal"><rect fill="#FFC0CB" height="47.0146" rx="2.5" ry="2.5" style="stroke:#000000;stroke-width:1.0;" width="134" x="2380" y="581"/><rect fill="#FFC0CB" height="10" style="stroke:#000000;stroke-width:1.0;" width="15" x="2494" y="586"/><rect fill="#FFC0CB" height="2" style="stroke:#000000;stroke-width:1.0;" width="4" x="2492" y="588"/><rect fill="#FFC0CB" height="2" style="stroke:#000000;stroke-width:1.0;" width="4" x="2492" y="592"/><text fill="#000000" font-family="Verdana" font-size="14" lengthAdjust="spacing" textLength="94" x="2395" y="615.0752">SubjectModal</text></g><!--entity CourseAdder--><g id="elem_CourseAdder"><rect fill="#FFC0CB" height="47.0146" rx="2.5" ry="2.5" style="stroke:#000000;stroke-width:1.0;" width="132" x="2549" y="581"/><rect fill="#FFC0CB" height="10" style="stroke:#000000;stroke-width:1.0;" width="15" x="2661" y="586"/><rect fill="#FFC0CB" height="2" style="stroke:#000000;stroke-width:1.0;" width="4" x="2659" y="588"/><rect fill="#FFC0CB" height="2" style="stroke:#000000;stroke-width:1.0;" width="4" x="2659" y="592"/><text fill="#000000" font-family="Verdana" font-size="14" lengthAdjust="spacing" textLength="92" x="2564" y="615.0752">CourseAdder</text></g><!--entity CourseTable--><g id="elem_CourseTable"><rect fill="#FFC0CB" height="47.0146" rx="2.5" ry="2.5" style="stroke:#000000;stroke-width:1.0;" width="127" x="2716.5" y="581"/><rect fill="#FFC0CB" height="10" style="stroke:#000000;stroke-width:1.0;" width="15" x="2823.5" y="586"/><rect fill="#FFC0CB" height="2" style="stroke:#000000;stroke-width:1.0;" width="4" x="2821.5" y="588"/><rect fill="#FFC0CB" height="2" style="stroke:#000000;stroke-width:1.0;" width="4" x="2821.5" y="592"/><text fill="#000000" font-family="Verdana" font-size="14" lengthAdjust="spacing" textLength="87" x="2731.5" y="615.0752">CourseTable</text></g><!--entity CourseModal--><g id="elem_CourseModal"><rect fill="#E0FFFF" height="47.0146" rx="2.5" ry="2.5" style="stroke:#000000;stroke-width:1.0;" width="130" x="2633" y="724"/><rect fill="#E0FFFF" height="10" style="stroke:#000000;stroke-width:1.0;" width="15" x="2743" y="729"/><rect fill="#E0FFFF" height="2" style="stroke:#000000;stroke-width:1.0;" width="4" x="2741" y="731"/><rect fill="#E0FFFF" height="2" style="stroke:#000000;stroke-width:1.0;" width="4" x="2741" y="735"/><text fill="#000000" font-family="Verdana" font-size="14" lengthAdjust="spacing" textLength="90" x="2648" y="758.0752">CourseModal</text></g><!--entity SubjectTimetable--><g id="elem_SubjectTimetable"><rect fill="#FFFFE0" height="47.0146" rx="2.5" ry="2.5" style="stroke:#000000;stroke-width:1.0;" width="161" x="2900.5" y="581"/><rect fill="#FFFFE0" height="10" style="stroke:#000000;stroke-width:1.0;" width="15" x="3041.5" y="586"/><rect fill="#FFFFE0" height="2" style="stroke:#000000;stroke-width:1.0;" width="4" x="3039.5" y="588"/><rect fill="#FFFFE0" height="2" style="stroke:#000000;stroke-width:1.0;" width="4" x="3039.5" y="592"/><text fill="#000000" font-family="Verdana" font-size="14" lengthAdjust="spacing" textLength="121" x="2915.5" y="615.0752">SubjectTimetable</text></g><!--entity FullCalendar--><g id="elem_FullCalendar"><rect fill="#FFFFE0" height="47.0146" rx="2.5" ry="2.5" style="stroke:#000000;stroke-width:1.0;" width="124" x="3097" y="581"/><rect fill="#FFFFE0" height="10" style="stroke:#000000;stroke-width:1.0;" width="15" x="3201" y="586"/><rect fill="#FFFFE0" height="2" style="stroke:#000000;stroke-width:1.0;" width="4" x="3199" y="588"/><rect fill="#FFFFE0" height="2" style="stroke:#000000;stroke-width:1.0;" width="4" x="3199" y="592"/><text fill="#000000" font-family="Verdana" font-size="14" lengthAdjust="spacing" textLength="84" x="3112" y="615.0752">FullCalendar</text></g><!--entity useKeyboardShortcuts--><g id="elem_useKeyboardShortcuts"><rect fill="#D3D3D3" height="47.0146" rx="2.5" ry="2.5" style="stroke:#000000;stroke-width:1.0;" width="202" x="2122" y="581"/><rect fill="#D3D3D3" height="10" style="stroke:#000000;stroke-width:1.0;" width="15" x="2304" y="586"/><rect fill="#D3D3D3" height="2" style="stroke:#000000;stroke-width:1.0;" width="4" x="2302" y="588"/><rect fill="#D3D3D3" height="2" style="stroke:#000000;stroke-width:1.0;" width="4" x="2302" y="592"/><text fill="#000000" font-family="Verdana" font-size="14" lengthAdjust="spacing" textLength="162" x="2137" y="615.0752">useKeyboardShortcuts</text></g><!--entity serverApi--><g id="elem_serverApi"><rect fill="#D3D3D3" height="47.0146" rx="2.5" ry="2.5" style="stroke:#000000;stroke-width:1.0;" width="106" x="1637" y="581"/><rect fill="#D3D3D3" height="10" style="stroke:#000000;stroke-width:1.0;" width="15" x="1723" y="586"/><rect fill="#D3D3D3" height="2" style="stroke:#000000;stroke-width:1.0;" width="4" x="1721" y="588"/><rect fill="#D3D3D3" height="2" style="stroke:#000000;stroke-width:1.0;" width="4" x="1721" y="592"/><text fill="#000000" font-family="Verdana" font-size="14" lengthAdjust="spacing" textLength="66" x="1652" y="615.0752">serverApi</text></g><!--entity timetableUtils--><g id="elem_timetableUtils"><rect fill="#D3D3D3" height="47.0146" rx="2.5" ry="2.5" style="stroke:#000000;stroke-width:1.0;" width="134" x="1953" y="581"/><rect fill="#D3D3D3" height="10" style="stroke:#000000;stroke-width:1.0;" width="15" x="2067" y="586"/><rect fill="#D3D3D3" height="2" style="stroke:#000000;stroke-width:1.0;" width="4" x="2065" y="588"/><rect fill="#D3D3D3" height="2" style="stroke:#000000;stroke-width:1.0;" width="4" x="2065" y="592"/><text fill="#000000" font-family="Verdana" font-size="14" lengthAdjust="spacing" textLength="94" x="1968" y="615.0752">timetableUtils</text></g><!--entity CanvasExport--><g id="elem_CanvasExport"><rect fill="#D3D3D3" height="47.0146" rx="2.5" ry="2.5" style="stroke:#000000;stroke-width:1.0;" width="139" x="1778.5" y="581"/><rect fill="#D3D3D3" height="10" style="stroke:#000000;stroke-width:1.0;" width="15" x="1897.5" y="586"/><rect fill="#D3D3D3" height="2" style="stroke:#000000;stroke-width:1.0;" width="4" x="1895.5" y="588"/><rect fill="#D3D3D3" height="2" style="stroke:#000000;stroke-width:1.0;" width="4" x="1895.5" y="592"/><text fill="#000000" font-family="Verdana" font-size="14" lengthAdjust="spacing" textLength="99" x="1793.5" y="615.0752">CanvasExport</text></g><g id="elem_GMN72"><path d="M3482.5,568 L3482.5,641.1973 L3691.5,641.1973 L3691.5,578 L3681.5,568 L3482.5,568 " fill="#FFFFFF" style="stroke:#000000;stroke-width:1.0;"/><path d="M3681.5,568 L3681.5,578 L3691.5,578 L3681.5,568 " fill="#FFFFFF" style="stroke:#000000;stroke-width:1.0;"/><text fill="#000000" font-family="Verdana" font-size="13" lengthAdjust="spacing" textLength="64" x="3488.5" y="586.0698">Manages:</text><text fill="#000000" font-family="Verdana" font-size="13" lengthAdjust="spacing" textLength="91" x="3488.5" y="601.8691">- eventsJSON</text><text fill="#000000" font-family="Verdana" font-size="13" lengthAdjust="spacing" textLength="188" x="3488.5" y="617.6685">- Subject/Course operations</text><text fill="#000000" font-family="Verdana" font-size="13" lengthAdjust="spacing" textLength="170" x="3488.5" y="633.4678">- localStorage integration</text></g><g id="elem_GMN75"><path d="M3256.5,568 L3256.5,641.1973 L3447.5,641.1973 L3447.5,578 L3437.5,568 L3256.5,568 " fill="#FFFFFF" style="stroke:#000000;stroke-width:1.0;"/><path d="M3437.5,568 L3437.5,578 L3447.5,578 L3437.5,568 " fill="#FFFFFF" style="stroke:#000000;stroke-width:1.0;"/><text fill="#000000" font-family="Verdana" font-size="13" lengthAdjust="spacing" textLength="64" x="3262.5" y="586.0698">Manages:</text><text fill="#000000" font-family="Verdana" font-size="13" lengthAdjust="spacing" textLength="142" x="3262.5" y="601.8691">- Application settings</text><text fill="#000000" font-family="Verdana" font-size="13" lengthAdjust="spacing" textLength="120" x="3262.5" y="617.6685">- Current UI state</text><text fill="#000000" font-family="Verdana" font-size="13" lengthAdjust="spacing" textLength="170" x="3262.5" y="633.4678">- localStorage integration</text></g><g id="elem_GMN78"><path d="M2158.5,726.5 L2158.5,768.0986 A0,0 0 0 0 2158.5,768.0986 L2287.5,768.0986 A0,0 0 0 0 2287.5,768.0986 L2287.5,736.5 L2277.5,726.5 L2227,726.5 L2223,628.15 L2219,726.5 L2158.5,726.5 A0,0 0 0 0 2158.5,726.5 " fill="#FFFFFF" style="stroke:#000000;stroke-width:1.0;"/><path d="M2277.5,726.5 L2277.5,736.5 L2287.5,736.5 L2277.5,726.5 " fill="#FFFFFF" style="stroke:#000000;stroke-width:1.0;"/><text fill="#000000" font-family="Verdana" font-size="13" lengthAdjust="spacing" textLength="108" x="2164.5" y="744.5698">Custom hook for</text><text fill="#000000" font-family="Verdana" font-size="13" lengthAdjust="spacing" textLength="101" x="2164.5" y="760.3691">Ctrl+K shortcut</text></g><!--link AppProviders to TimetableContext--><g id="link_AppProviders_TimetableContext"><path d="M123.47,482.32 C158.3,509.28 211.1557,550.1969 245.9257,577.1169 " fill="none" id="AppProviders-to-TimetableContext" style="stroke:#000000;stroke-width:1.0;"/><polygon fill="#000000" points="250.67,580.79,246.0024,572.1174,246.7165,577.729,241.1048,578.4431,250.67,580.79" style="stroke:#000000;stroke-width:1.0;"/></g><!--link AppProviders to StateContext--><g id="link_AppProviders_StateContext"><path d="M94.16,482.32 C94.35,509.28 94.6199,547.8701 94.7999,574.7901 " fill="none" id="AppProviders-to-StateContext" style="stroke:#000000;stroke-width:1.0;"/><polygon fill="#000000" points="94.84,580.79,98.7797,571.7635,94.8066,575.7901,90.7799,571.8169,94.84,580.79" style="stroke:#000000;stroke-width:1.0;"/></g><!--link App to AppProviders--><g id="link_App_AppProviders"><path d="M527.73,77.5 C455.52,91.83 286.28,134.55 188,234 C130.6,292.08 107.3341,384.5962 98.8941,428.8462 " fill="none" id="App-to-AppProviders" style="stroke:#000000;stroke-width:1.0;"/><polygon fill="#000000" points="97.77,434.74,103.3854,426.6488,98.7068,429.8285,95.527,425.1499,97.77,434.74" style="stroke:#000000;stroke-width:1.0;"/></g><!--link App to TimetableApp--><g id="link_App_TimetableApp"><path d="M565.65,94.24 C568.52,112.12 571.5391,130.9958 574.4091,148.8758 " fill="none" id="App-to-TimetableApp" style="stroke:#000000;stroke-width:1.0;"/><polygon fill="#000000" points="575.36,154.8,577.8831,145.2798,574.5676,149.8632,569.9842,146.5477,575.36,154.8" style="stroke:#000000;stroke-width:1.0;"/></g><!--link TimetableApp to Menu--><g id="link_TimetableApp_Menu"><path d="M568.03,202.14 C556.53,225.86 541.1959,257.5003 529.6759,281.2803 " fill="none" id="TimetableApp-to-Menu" style="stroke:#000000;stroke-width:1.0;"/><polygon fill="#000000" points="527.06,286.68,534.5836,280.3243,529.2399,282.1802,527.384,276.8365,527.06,286.68" style="stroke:#000000;stroke-width:1.0;"/></g><!--link TimetableApp to Subjects--><g id="link_TimetableApp_Subjects"><path d="M637.75,202.13 C662.31,212.84 690.54,226.84 714,243 C732.22,255.55 746.0268,268.6324 759.0368,282.5124 " fill="none" id="TimetableApp-to-Subjects" style="stroke:#000000;stroke-width:1.0;"/><polygon fill="#000000" points="763.14,286.89,759.9036,277.5881,759.7206,283.242,754.0667,283.0591,763.14,286.89" style="stroke:#000000;stroke-width:1.0;"/></g><!--link TimetableApp to Timetable--><g id="link_TimetableApp_Timetable"><path d="M590.15,202.14 C601.82,225.86 617.4094,257.5172 629.1194,281.2972 " fill="none" id="TimetableApp-to-Timetable" style="stroke:#000000;stroke-width:1.0;"/><polygon fill="#000000" points="631.77,286.68,631.3826,276.8388,629.5611,282.1944,624.2055,280.3729,631.77,286.68" style="stroke:#000000;stroke-width:1.0;"/></g><!--link TimetableApp to Footer--><g id="link_TimetableApp_Footer"><path d="M646.58,183.89 C704.54,190.2 788.49,205.56 852,243 C870.35,253.82 882.6891,267.2709 893.4991,281.9309 " fill="none" id="TimetableApp-to-Footer" style="stroke:#000000;stroke-width:1.0;"/><polygon fill="#000000" points="897.06,286.76,894.9381,277.1424,894.0926,282.7358,888.4993,281.8903,897.06,286.76" style="stroke:#000000;stroke-width:1.0;"/></g><!--link Menu to SubjectAdder--><g id="link_Menu_SubjectAdder"><path d="M490.08,334.18 C475.75,349.37 463.35,369.06 477,383 C491.62,397.93 833.3,384.04 853,391 C878.27,399.93 897.6609,415.2348 913.7509,430.8248 " fill="none" id="Menu-to-SubjectAdder" style="stroke:#000000;stroke-width:1.0;"/><polygon fill="#000000" points="918.06,435,914.3798,425.8646,914.4691,431.5207,908.813,431.61,918.06,435" style="stroke:#000000;stroke-width:1.0;"/></g><!--link Menu to ServerQuery--><g id="link_Menu_ServerQuery"><path d="M522.97,334.27 C529.41,350.99 540.79,372.54 559,383 C587.91,399.6 1127.65,379.65 1159,391 C1183.47,399.86 1201.8386,415.0568 1217.0686,430.6568 " fill="none" id="Menu-to-ServerQuery" style="stroke:#000000;stroke-width:1.0;"/><polygon fill="#000000" points="1221.26,434.95,1217.835,425.7158,1217.7671,431.3723,1212.1107,431.3044,1221.26,434.95" style="stroke:#000000;stroke-width:1.0;"/></g><!--link Menu to ImportExport--><g id="link_Menu_ImportExport"><path d="M538.28,334.01 C547.93,342.64 559.8,351.87 572,358 C614.09,379.15 628.26,377.12 675,383 C710.72,387.5 1289.04,379.06 1323,391 C1348.1,399.83 1367.2325,415.1125 1383.1025,430.7225 " fill="none" id="Menu-to-ImportExport" style="stroke:#000000;stroke-width:1.0;"/><polygon fill="#000000" points="1387.38,434.93,1383.7687,425.7671,1383.8154,431.4238,1378.1587,431.4705,1387.38,434.93" style="stroke:#000000;stroke-width:1.0;"/></g><!--link Menu to Settings--><g id="link_Menu_Settings"><path d="M509.37,334.04 C506.21,349.96 505.46,370.61 518,383 C528.02,392.9 1012.02,385.53 1025,391 C1046.3,399.97 1060.7831,414.4886 1072.8031,429.9886 " fill="none" id="Menu-to-Settings" style="stroke:#000000;stroke-width:1.0;"/><polygon fill="#000000" points="1076.48,434.73,1074.1256,425.1667,1073.4159,430.7789,1067.8038,430.0692,1076.48,434.73" style="stroke:#000000;stroke-width:1.0;"/></g><!--link Menu to Help--><g id="link_Menu_Help"><path d="M537.07,334.19 C546.79,343.17 559.04,352.63 572,358 C607.46,372.7 620.19,359.34 658,366 C687.41,371.18 693.4,379.04 723,383 C744.23,385.84 1474.8,381.52 1494,391 C1512.53,400.15 1523.4643,414.1785 1532.2043,429.6185 " fill="none" id="Menu-to-Help" style="stroke:#000000;stroke-width:1.0;"/><polygon fill="#000000" points="1535.16,434.84,1534.2075,425.0373,1532.6969,430.4888,1527.2455,428.9782,1535.16,434.84" style="stroke:#000000;stroke-width:1.0;"/></g><!--link Menu to Button--><g id="link_Menu_Button"><path d="M477.35,327.26 C448.17,341.3 416.26,362.7 436,383 C446.96,394.28 704.43,385.06 719,391 C741.22,400.05 756.9192,414.7341 770.0392,430.2041 " fill="none" id="Menu-to-Button" style="stroke:#000000;stroke-width:1.0;"/><polygon fill="#000000" points="773.92,434.78,771.1494,425.3289,770.686,430.9667,765.0481,430.5033,773.92,434.78" style="stroke:#000000;stroke-width:1.0;"/></g><!--link ServerQuery to ImportModal--><g id="link_ServerQuery_ImportModal"><path d="M1241,482.32 C1241,509.28 1241,547.87 1241,574.79 " fill="none" id="ServerQuery-to-ImportModal" style="stroke:#000000;stroke-width:1.0;"/><polygon fill="#000000" points="1241,580.79,1245,571.79,1241,575.79,1237,571.79,1241,580.79" style="stroke:#000000;stroke-width:1.0;"/></g><!--link ImportExport to CanvasExport--><g id="link_ImportExport_CanvasExport"><path d="M1459.93,482.1 C1499.66,498.25 1556.23,518.86 1608,529 C1641.41,535.54 1729.05,525.25 1761,537 C1786.16,546.25 1805.6362,561.3721 1821.9662,576.7821 " fill="none" id="ImportExport-to-CanvasExport" style="stroke:#000000;stroke-width:1.0;"/><polygon fill="#000000" points="1826.33,580.9,1822.5296,571.8139,1822.6935,577.4684,1817.039,577.6323,1826.33,580.9" style="stroke:#000000;stroke-width:1.0;"/></g><!--link Subjects to Subject--><g id="link_Subjects_Subject"><path d="M809.02,334.06 C821.23,343.26 836.49,352.91 852,358 C937.38,386 1570.3,385.75 1660,391 C1974.9,409.45 2347.103,441.2948 2477.853,452.7848 " fill="none" id="Subjects-to-Subject" style="stroke:#000000;stroke-width:1.0;"/><polygon fill="#000000" points="2483.83,453.31,2475.2147,448.5375,2478.8492,452.8723,2474.5144,456.5068,2483.83,453.31" style="stroke:#000000;stroke-width:1.0;"/></g><!--link Subject to SubjectModal--><g id="link_Subject_SubjectModal"><path d="M2517.69,482.32 C2501.96,509.28 2478.9727,548.687 2463.2727,575.607 " fill="none" id="Subject-to-SubjectModal" style="stroke:#000000;stroke-width:1.0;"/><polygon fill="#000000" points="2460.25,580.79,2468.2394,575.0307,2462.769,576.4709,2461.3288,571.0004,2460.25,580.79" style="stroke:#000000;stroke-width:1.0;"/></g><!--link Subject to CourseAdder--><g id="link_Subject_CourseAdder"><path d="M2544.31,482.32 C2560.04,509.28 2583.0273,548.687 2598.7273,575.607 " fill="none" id="Subject-to-CourseAdder" style="stroke:#000000;stroke-width:1.0;"/><polygon fill="#000000" points="2601.75,580.79,2600.6712,571.0004,2599.231,576.4709,2593.7606,575.0307,2601.75,580.79" style="stroke:#000000;stroke-width:1.0;"/></g><!--link Subject to CourseTable--><g id="link_Subject_CourseTable"><path d="M2578.28,477.51 C2612.89,491.58 2660.35,512.78 2699,537 C2719.35,549.75 2735.7639,563.0556 2751.2339,576.7956 " fill="none" id="Subject-to-CourseTable" style="stroke:#000000;stroke-width:1.0;"/><polygon fill="#000000" points="2755.72,580.78,2751.6472,571.8127,2751.9816,577.4597,2746.3347,577.7941,2755.72,580.78" style="stroke:#000000;stroke-width:1.0;"/></g><!--link Subject to SubjectTimetable--><g id="link_Subject_SubjectTimetable"><path d="M2578.23,466.49 C2643.23,477.02 2763.19,499.79 2860,537 C2890.32,548.65 2917.3142,563.4814 2940.8342,577.7914 " fill="none" id="Subject-to-SubjectTimetable" style="stroke:#000000;stroke-width:1.0;"/><polygon fill="#000000" points="2945.96,580.91,2940.3504,572.8148,2941.6885,578.3111,2936.1922,579.6492,2945.96,580.91" style="stroke:#000000;stroke-width:1.0;"/></g><!--link CourseAdder to CourseModal--><g id="link_CourseAdder_CourseModal"><path d="M2628.34,628.15 C2643.82,654.47 2666.1756,692.4397 2681.6556,718.7297 " fill="none" id="CourseAdder-to-CourseModal" style="stroke:#000000;stroke-width:1.0;"/><polygon fill="#000000" points="2684.7,723.9,2683.5803,714.115,2682.163,719.5914,2676.6866,718.1741,2684.7,723.9" style="stroke:#000000;stroke-width:1.0;"/></g><!--link CourseTable to CourseModal--><g id="link_CourseTable_CourseModal"><path d="M2766.83,628.15 C2751.52,654.47 2729.4465,692.4234 2714.1565,718.7134 " fill="none" id="CourseTable-to-CourseModal" style="stroke:#000000;stroke-width:1.0;"/><polygon fill="#000000" points="2711.14,723.9,2719.1225,718.1311,2713.6537,719.5778,2712.207,714.1091,2711.14,723.9" style="stroke:#000000;stroke-width:1.0;"/></g><!--link Timetable to FullCalendar--><g id="link_Timetable_FullCalendar"><path d="M669.9,334.01 C682.71,343.32 698.77,353.08 715,358 C772.03,375.29 2803.1,373.29 2860,391 C2979.79,428.28 3088.0966,529.7189 3133.5766,576.4789 " fill="none" id="Timetable-to-FullCalendar" style="stroke:#000000;stroke-width:1.0;"/><polygon fill="#000000" points="3137.76,580.78,3134.3524,571.5394,3134.2739,577.1957,3128.6176,577.1173,3137.76,580.78" style="stroke:#000000;stroke-width:1.0;"/></g><!--link Timetable to timetableUtils--><g id="link_Timetable_timetableUtils"><path d="M671.57,334.07 C684.2,342.92 699.65,352.31 715,358 C791.13,386.25 815.02,376.97 896,383 C915.42,384.45 1580.81,380.18 1597,391 C1652.46,428.06 1600.86,491.46 1656,529 C1681.64,546.45 1905.83,526.47 1935,537 C1959.85,545.97 1978.815,561.0404 1994.705,576.5404 " fill="none" id="Timetable-to-timetableUtils" style="stroke:#000000;stroke-width:1.0;"/><polygon fill="#000000" points="1999,580.73,1995.3505,571.5822,1995.4208,577.2387,1989.7644,577.3089,1999,580.73" style="stroke:#000000;stroke-width:1.0;"/></g><!--link TimetableApp to useKeyboardShortcuts--><g id="link_TimetableApp_useKeyboardShortcuts"><path d="M646.84,189.27 C725.17,200.84 857.76,221.28 971,243 C1482.34,341.06 1627.1,330.37 2105,537 C2133.81,549.46 2159.5437,563.8922 2182.4637,577.8322 " fill="none" id="TimetableApp-to-useKeyboardShortcuts" style="stroke:#000000;stroke-width:1.0;"/><polygon fill="#000000" points="2187.59,580.95,2181.9791,572.8557,2183.3181,578.3518,2177.822,579.6908,2187.59,580.95" style="stroke:#000000;stroke-width:1.0;"/></g><!--link ServerQuery to serverApi--><g id="link_ServerQuery_serverApi"><path d="M1305.37,477.51 C1311.32,479.07 1317.27,480.59 1323,482 C1417.97,505.39 1441.68,511.97 1538,529 C1564.06,533.61 1572.4,527.24 1597,537 C1622.64,547.18 1643.2824,562.0311 1660.9724,577.0211 " fill="none" id="ServerQuery-to-serverApi" style="stroke:#000000;stroke-width:1.0;"/><polygon fill="#000000" points="1665.55,580.9,1661.2696,572.0299,1661.7354,577.6676,1656.0977,578.1334,1665.55,580.9" style="stroke:#000000;stroke-width:1.0;"/></g><!--link TimetableApp to TimetableContext--><g id="link_TimetableApp_TimetableContext"><path d="M527.55,202.07 C462.61,233.72 353.75,298.01 307,391 C275.26,454.13 275.4085,534.6203 277.7785,575.0103 " fill="none" id="TimetableApp-to-TimetableContext" style="stroke:#000000;stroke-width:1.0;stroke-dasharray:7.0,7.0;"/><polygon fill="#000000" points="278.13,581,281.5959,571.7811,277.8371,576.0086,273.6097,572.2498,278.13,581" style="stroke:#000000;stroke-width:1.0;"/><text fill="#000000" font-family="Verdana" font-size="13" lengthAdjust="spacing" textLength="30" x="322" y="380.0698">uses</text></g><!--link TimetableApp to StateContext--><g id="link_TimetableApp_StateContext"><path d="M511.25,181.75 C454.87,186.74 375.05,201.38 319,243 C219.98,316.52 244.15,377.91 178,482 C155.66,517.14 131.5799,551.8881 114.5199,576.0581 " fill="none" id="TimetableApp-to-StateContext" style="stroke:#000000;stroke-width:1.0;stroke-dasharray:7.0,7.0;"/><polygon fill="#000000" points="111.06,580.96,119.5179,575.9137,113.9433,576.8751,112.982,571.3005,111.06,580.96" style="stroke:#000000;stroke-width:1.0;"/><text fill="#000000" font-family="Verdana" font-size="13" lengthAdjust="spacing" textLength="30" x="231" y="380.0698">uses</text></g><!--link Menu to StateContext--><g id="link_Menu_StateContext"><path d="M477.4,331.21 C459.68,340.87 438.71,353.17 421,366 C333.33,429.51 338.22,483.48 240,529 C215.99,540.13 205.41,526.78 181,537 C156.8,547.13 137.9351,561.7963 121.7151,576.7963 " fill="none" id="Menu-to-StateContext" style="stroke:#000000;stroke-width:1.0;stroke-dasharray:7.0,7.0;"/><polygon fill="#000000" points="117.31,580.87,126.6334,577.6961,120.9809,577.4752,121.2018,571.8227,117.31,580.87" style="stroke:#000000;stroke-width:1.0;"/><text fill="#000000" font-family="Verdana" font-size="13" lengthAdjust="spacing" textLength="30" x="389" y="464.0698">uses</text></g><!--link Subjects to TimetableContext--><g id="link_Subjects_TimetableContext"><path d="M751.54,334.08 C733.52,348.51 711.81,368.66 698,391 C664.35,445.42 704.31,485.93 657,529 C614.7,567.51 465.8533,587.2945 368.2533,596.5345 " fill="none" id="Subjects-to-TimetableContext" style="stroke:#000000;stroke-width:1.0;stroke-dasharray:7.0,7.0;"/><polygon fill="#000000" points="362.28,597.1,371.6169,600.2339,367.2577,596.6287,370.8629,592.2695,362.28,597.1" style="stroke:#000000;stroke-width:1.0;"/><text fill="#000000" font-family="Verdana" font-size="13" lengthAdjust="spacing" textLength="30" x="699" y="464.0698">uses</text></g><!--link Subject to TimetableContext--><g id="link_Subject_TimetableContext"><path d="M2483.82,460.87 C2236.27,468.13 1085.17,503.21 730,537 C600.87,549.29 458.1124,572.1584 368.1224,587.7084 " fill="none" id="Subject-to-TimetableContext" style="stroke:#000000;stroke-width:1.0;stroke-dasharray:7.0,7.0;"/><polygon fill="#000000" points="362.21,588.73,371.7597,591.1391,367.137,587.8786,370.3975,583.256,362.21,588.73" style="stroke:#000000;stroke-width:1.0;"/><text fill="#000000" font-family="Verdana" font-size="13" lengthAdjust="spacing" textLength="30" x="1114" y="526.0698">uses</text></g><!--link Timetable to TimetableContext--><g id="link_Timetable_TimetableContext"><path d="M647.8,334.06 C649.72,349.59 649.29,369.73 638,383 C627.94,394.83 617.34,383.06 604,391 C533.4,433.03 548.86,482.69 481,529 C445.19,553.44 406.0769,569.2804 367.8369,581.2304 " fill="none" id="Timetable-to-TimetableContext" style="stroke:#000000;stroke-width:1.0;stroke-dasharray:7.0,7.0;"/><polygon fill="#000000" points="362.11,583.02,371.8934,584.1534,366.8824,581.5286,369.5072,576.5176,362.11,583.02" style="stroke:#000000;stroke-width:1.0;"/><text fill="#000000" font-family="Verdana" font-size="13" lengthAdjust="spacing" textLength="30" x="605" y="464.0698">uses</text></g><!--link Timetable to StateContext--><g id="link_Timetable_StateContext"><path d="M611.69,334.04 C599.63,342.17 585.5,351.06 572,358 C535.96,376.54 518.44,365.43 487,391 C449.61,421.42 466.33,452.77 428,482 C373.12,523.85 347.72,515.69 280,529 C236.69,537.51 222.17,521.06 181,537 C156.36,546.54 137.3124,561.4106 121.1524,576.6706 " fill="none" id="Timetable-to-StateContext" style="stroke:#000000;stroke-width:1.0;stroke-dasharray:7.0,7.0;"/><polygon fill="#000000" points="116.79,580.79,126.0799,577.5191,120.4253,577.3571,120.5873,571.7026,116.79,580.79" style="stroke:#000000;stroke-width:1.0;"/><text fill="#000000" font-family="Verdana" font-size="13" lengthAdjust="spacing" textLength="30" x="488" y="464.0698">uses</text></g><!--link Settings to StateContext--><g id="link_Settings_StateContext"><path d="M1042.24,477.69 C1036.48,479.35 1030.65,480.84 1025,482 C769.47,534.35 700.44,514.52 440,529 C411.25,530.6 208.1,527.28 181,537 C155.95,545.99 136.7338,561.0901 120.6338,576.5801 " fill="none" id="Settings-to-StateContext" style="stroke:#000000;stroke-width:1.0;stroke-dasharray:7.0,7.0;"/><polygon fill="#000000" points="116.31,580.74,125.5689,577.3826,119.9131,577.2734,120.0223,571.6176,116.31,580.74" style="stroke:#000000;stroke-width:1.0;"/><text fill="#000000" font-family="Verdana" font-size="13" lengthAdjust="spacing" textLength="30" x="836" y="526.0698">uses</text></g><!--link TimetableContext to GMN72--><g id="link_TimetableContext_GMN72"><path d="M362.41,582.53 C455.22,559.01 610.91,523.24 747.5,509.5 C896.75,494.49 3304.15,465.33 3447.5,509.5 C3484.88,521.02 3521.21,546.36 3547.42,567.97 " fill="none" id="TimetableContext-GMN72" style="stroke:#000000;stroke-width:1.0;stroke-dasharray:7.0,7.0;"/></g><!--link StateContext to GMN75--><g id="link_StateContext_GMN75"><path d="M112.06,580.85 C130.4,557.65 161.91,523.75 198.5,509.5 C276.7,479.05 3139.61,483.82 3219.5,509.5 C3255.34,521.02 3289.7,546.21 3314.45,567.76 " fill="none" id="StateContext-GMN75" style="stroke:#000000;stroke-width:1.0;stroke-dasharray:7.0,7.0;"/></g><!--SRC=[bLR9Rjim4BthAzWKw8B2wJs70gdG8cdWBd1oAdAWfOdDcYO9BcwC8lzUagB4HKpQ-633yuPlPZJpXdgXjx0792Wch6a4xdPu0-YavKp3lKRV9J-G7gGwGNyQP3y_hyaUD5vJ22wtw2KbcwrUKmE3nqfZ_JXwBiH4cg4FIVYbpGPPJqewh0bdKtHh6mzj900hSfh1AUdD9MhvNd06JCTwbi2CFNC4IldlK81P_u9Egy8yHIdidpdN8ACnAyIorwA64ETzxqzoYTbcV7mW3o1_69370hcqD59_kdVViqDQ4xPHXVa2g2XC7utMd5MPbxp7D29f7I7V9qgnvmHXkyms4aQWvKOg6CikxTVXwNhxGpQE3gv57v0naEzyTyHvuwV6FP5-sbpFadNOKDfY2gp7ii2p0TE4AlGANN2-Ym6CWYiuhZcM_Mfhdt9dj8f3Ye-3b_9TFnTa3kanDSy_nrlC3bXDOn5HczjhD2fP0lLIKbiYL5F8SB7uK55srIjJTpC8qWEPhuliHOo5G4fBqsaZ8NNFDDiK4lOUNfbLP19e5OsjhC91hZv3fyxYmGpx80qpJ6kE91hDW4oYnP6WqCpg1PfPWZwR9by42Vimx4sn3hn3DWgkmb6tHP5nmwM5tZPHpAbz39Y3gPJhs7LeGfKqwLAJhuM4OOoShOSvRWkD6YzAJOGzj3_LyXmknEQedPoHKLRYrNcgwhlMlIZnL9UU6BtfiTf2ZoXXeD0TbwWBkFrLPYzSHM_B-AUdDTcYCqiAgkgStysZup1-JpZ4UVb7oAdL_vlQipqVIN2w_nvtQfWLFf9kFI9-LzjtRfqkCRCDKMV-pmB1mTqMNrRVlWP3gF1zk9Au03cCMy0fxp1TQNk7shOIIxmPyCPE778PpFB8DsebX-H52AbGQ81Q8wLD4Dbt6-Ledfd4cjjbi_TPrCVOqRL6EQUjau6TpC6c9NrtXLJmZBn_0G00]--></g></svg>