<?xml version="1.0" encoding="us-ascii" standalone="no"?><svg xmlns="http://www.w3.org/2000/svg" xmlns:xlink="http://www.w3.org/1999/xlink" contentStyleType="text/css" height="384px" preserveAspectRatio="none" style="width:1079px;height:384px;background:#FFFFFF;" version="1.1" viewBox="0 0 1079 384" width="1079px" zoomAndPan="magnify"><defs/><g><!--entity Button--><g id="elem_Button"><rect fill="#ECEC0D" height="47.6094" rx="2.5" ry="2.5" style="stroke:#181818;stroke-width:0.5;" width="81" x="7" y="223"/><rect fill="#ECEC0D" height="10" style="stroke:#181818;stroke-width:0.5;" width="15" x="68" y="228"/><rect fill="#ECEC0D" height="2" style="stroke:#181818;stroke-width:0.5;" width="4" x="66" y="230"/><rect fill="#ECEC0D" height="2" style="stroke:#181818;stroke-width:0.5;" width="4" x="66" y="234"/><text fill="#000000" font-family="sans-serif" font-size="14" lengthAdjust="spacing" textLength="41" x="22" y="257.5332">Button</text></g><!--entity Subject--><g id="elem_Subject"><rect fill="#ECEC0D" height="47.6094" rx="2.5" ry="2.5" style="stroke:#181818;stroke-width:0.5;" width="87" x="823" y="223"/><rect fill="#ECEC0D" height="10" style="stroke:#181818;stroke-width:0.5;" width="15" x="890" y="228"/><rect fill="#ECEC0D" height="2" style="stroke:#181818;stroke-width:0.5;" width="4" x="888" y="230"/><rect fill="#ECEC0D" height="2" style="stroke:#181818;stroke-width:0.5;" width="4" x="888" y="234"/><text fill="#000000" font-family="sans-serif" font-size="14" lengthAdjust="spacing" textLength="47" x="838" y="257.5332">Subject</text></g><!--entity CourseModal--><g id="elem_CourseModal"><rect fill="#ECEC0D" height="47.6094" rx="2.5" ry="2.5" style="stroke:#181818;stroke-width:0.5;" width="124" x="660.5" y="331"/><rect fill="#ECEC0D" height="10" style="stroke:#181818;stroke-width:0.5;" width="15" x="764.5" y="336"/><rect fill="#ECEC0D" height="2" style="stroke:#181818;stroke-width:0.5;" width="4" x="762.5" y="338"/><rect fill="#ECEC0D" height="2" style="stroke:#181818;stroke-width:0.5;" width="4" x="762.5" y="342"/><text fill="#000000" font-family="sans-serif" font-size="14" lengthAdjust="spacing" textLength="84" x="675.5" y="365.5332">CourseModal</text></g><!--entity Courses--><g id="elem_Courses"><rect fill="#ECEC0D" height="47.6094" rx="2.5" ry="2.5" style="stroke:#181818;stroke-width:0.5;" width="93" x="820" y="331"/><rect fill="#ECEC0D" height="10" style="stroke:#181818;stroke-width:0.5;" width="15" x="893" y="336"/><rect fill="#ECEC0D" height="2" style="stroke:#181818;stroke-width:0.5;" width="4" x="891" y="338"/><rect fill="#ECEC0D" height="2" style="stroke:#181818;stroke-width:0.5;" width="4" x="891" y="342"/><text fill="#000000" font-family="sans-serif" font-size="14" lengthAdjust="spacing" textLength="53" x="835" y="365.5332">Courses</text></g><!--entity App--><g id="elem_App"><rect fill="#F1F1F1" height="47.6094" rx="2.5" ry="2.5" style="stroke:#181818;stroke-width:0.5;" width="65" x="781" y="7"/><rect fill="#F1F1F1" height="10" style="stroke:#181818;stroke-width:0.5;" width="15" x="826" y="12"/><rect fill="#F1F1F1" height="2" style="stroke:#181818;stroke-width:0.5;" width="4" x="824" y="14"/><rect fill="#F1F1F1" height="2" style="stroke:#181818;stroke-width:0.5;" width="4" x="824" y="18"/><text fill="#000000" font-family="sans-serif" font-size="14" lengthAdjust="spacing" textLength="25" x="796" y="41.5332">App</text></g><!--entity Menu--><g id="elem_Menu"><rect fill="#F1F1F1" height="47.6094" rx="2.5" ry="2.5" style="stroke:#181818;stroke-width:0.5;" width="75" x="461" y="115"/><rect fill="#F1F1F1" height="10" style="stroke:#181818;stroke-width:0.5;" width="15" x="516" y="120"/><rect fill="#F1F1F1" height="2" style="stroke:#181818;stroke-width:0.5;" width="4" x="514" y="122"/><rect fill="#F1F1F1" height="2" style="stroke:#181818;stroke-width:0.5;" width="4" x="514" y="126"/><text fill="#000000" font-family="sans-serif" font-size="14" lengthAdjust="spacing" textLength="35" x="476" y="149.5332">Menu</text></g><!--entity Subjects--><g id="elem_Subjects"><rect fill="#F1F1F1" height="47.6094" rx="2.5" ry="2.5" style="stroke:#181818;stroke-width:0.5;" width="94" x="695.5" y="115"/><rect fill="#F1F1F1" height="10" style="stroke:#181818;stroke-width:0.5;" width="15" x="769.5" y="120"/><rect fill="#F1F1F1" height="2" style="stroke:#181818;stroke-width:0.5;" width="4" x="767.5" y="122"/><rect fill="#F1F1F1" height="2" style="stroke:#181818;stroke-width:0.5;" width="4" x="767.5" y="126"/><text fill="#000000" font-family="sans-serif" font-size="14" lengthAdjust="spacing" textLength="54" x="710.5" y="149.5332">Subjects</text></g><!--entity FullCalendar--><g id="elem_FullCalendar"><rect fill="#F1F1F1" height="47.6094" rx="2.5" ry="2.5" style="stroke:#181818;stroke-width:0.5;" width="121" x="825" y="115"/><rect fill="#F1F1F1" height="10" style="stroke:#181818;stroke-width:0.5;" width="15" x="926" y="120"/><rect fill="#F1F1F1" height="2" style="stroke:#181818;stroke-width:0.5;" width="4" x="924" y="122"/><rect fill="#F1F1F1" height="2" style="stroke:#181818;stroke-width:0.5;" width="4" x="924" y="126"/><text fill="#000000" font-family="sans-serif" font-size="14" lengthAdjust="spacing" textLength="81" x="840" y="149.5332">FullCalendar</text></g><!--entity Footer--><g id="elem_Footer"><rect fill="#F1F1F1" height="47.6094" rx="2.5" ry="2.5" style="stroke:#181818;stroke-width:0.5;" width="82" x="981.5" y="115"/><rect fill="#F1F1F1" height="10" style="stroke:#181818;stroke-width:0.5;" width="15" x="1043.5" y="120"/><rect fill="#F1F1F1" height="2" style="stroke:#181818;stroke-width:0.5;" width="4" x="1041.5" y="122"/><rect fill="#F1F1F1" height="2" style="stroke:#181818;stroke-width:0.5;" width="4" x="1041.5" y="126"/><text fill="#000000" font-family="sans-serif" font-size="14" lengthAdjust="spacing" textLength="42" x="996.5" y="149.5332">Footer</text></g><!--entity SubjectAdder--><g id="elem_SubjectAdder"><rect fill="#F1F1F1" height="47.6094" rx="2.5" ry="2.5" style="stroke:#181818;stroke-width:0.5;" width="125" x="123" y="223"/><rect fill="#F1F1F1" height="10" style="stroke:#181818;stroke-width:0.5;" width="15" x="228" y="228"/><rect fill="#F1F1F1" height="2" style="stroke:#181818;stroke-width:0.5;" width="4" x="226" y="230"/><rect fill="#F1F1F1" height="2" style="stroke:#181818;stroke-width:0.5;" width="4" x="226" y="234"/><text fill="#000000" font-family="sans-serif" font-size="14" lengthAdjust="spacing" textLength="85" x="138" y="257.5332">SubjectAdder</text></g><!--entity ServerQuery--><g id="elem_ServerQuery"><rect fill="#F1F1F1" height="47.6094" rx="2.5" ry="2.5" style="stroke:#181818;stroke-width:0.5;" width="121" x="283" y="223"/><rect fill="#F1F1F1" height="10" style="stroke:#181818;stroke-width:0.5;" width="15" x="384" y="228"/><rect fill="#F1F1F1" height="2" style="stroke:#181818;stroke-width:0.5;" width="4" x="382" y="230"/><rect fill="#F1F1F1" height="2" style="stroke:#181818;stroke-width:0.5;" width="4" x="382" y="234"/><text fill="#000000" font-family="sans-serif" font-size="14" lengthAdjust="spacing" textLength="81" x="298" y="257.5332">ServerQuery</text></g><!--entity ImportExport--><g id="elem_ImportExport"><rect fill="#F1F1F1" height="47.6094" rx="2.5" ry="2.5" style="stroke:#181818;stroke-width:0.5;" width="119" x="439" y="223"/><rect fill="#F1F1F1" height="10" style="stroke:#181818;stroke-width:0.5;" width="15" x="538" y="228"/><rect fill="#F1F1F1" height="2" style="stroke:#181818;stroke-width:0.5;" width="4" x="536" y="230"/><rect fill="#F1F1F1" height="2" style="stroke:#181818;stroke-width:0.5;" width="4" x="536" y="234"/><text fill="#000000" font-family="sans-serif" font-size="14" lengthAdjust="spacing" textLength="79" x="454" y="257.5332">ImportExport</text></g><!--entity Settings--><g id="elem_Settings"><rect fill="#F1F1F1" height="47.6094" rx="2.5" ry="2.5" style="stroke:#181818;stroke-width:0.5;" width="91" x="593" y="223"/><rect fill="#F1F1F1" height="10" style="stroke:#181818;stroke-width:0.5;" width="15" x="664" y="228"/><rect fill="#F1F1F1" height="2" style="stroke:#181818;stroke-width:0.5;" width="4" x="662" y="230"/><rect fill="#F1F1F1" height="2" style="stroke:#181818;stroke-width:0.5;" width="4" x="662" y="234"/><text fill="#000000" font-family="sans-serif" font-size="14" lengthAdjust="spacing" textLength="51" x="608" y="257.5332">Settings</text></g><!--entity Help--><g id="elem_Help"><rect fill="#F1F1F1" height="47.6094" rx="2.5" ry="2.5" style="stroke:#181818;stroke-width:0.5;" width="68" x="719.5" y="223"/><rect fill="#F1F1F1" height="10" style="stroke:#181818;stroke-width:0.5;" width="15" x="767.5" y="228"/><rect fill="#F1F1F1" height="2" style="stroke:#181818;stroke-width:0.5;" width="4" x="765.5" y="230"/><rect fill="#F1F1F1" height="2" style="stroke:#181818;stroke-width:0.5;" width="4" x="765.5" y="234"/><text fill="#000000" font-family="sans-serif" font-size="14" lengthAdjust="spacing" textLength="28" x="734.5" y="257.5332">Help</text></g><!--entity Modal--><g id="elem_Modal"><rect fill="#F1F1F1" height="47.6094" rx="2.5" ry="2.5" style="stroke:#181818;stroke-width:0.5;" width="78" x="304.5" y="331"/><rect fill="#F1F1F1" height="10" style="stroke:#181818;stroke-width:0.5;" width="15" x="362.5" y="336"/><rect fill="#F1F1F1" height="2" style="stroke:#181818;stroke-width:0.5;" width="4" x="360.5" y="338"/><rect fill="#F1F1F1" height="2" style="stroke:#181818;stroke-width:0.5;" width="4" x="360.5" y="342"/><text fill="#000000" font-family="sans-serif" font-size="14" lengthAdjust="spacing" textLength="38" x="319.5" y="365.5332">Modal</text></g><!--entity SubjectModal--><g id="elem_SubjectModal"><rect fill="#F1F1F1" height="47.6094" rx="2.5" ry="2.5" style="stroke:#181818;stroke-width:0.5;" width="125" x="948" y="331"/><rect fill="#F1F1F1" height="10" style="stroke:#181818;stroke-width:0.5;" width="15" x="1053" y="336"/><rect fill="#F1F1F1" height="2" style="stroke:#181818;stroke-width:0.5;" width="4" x="1051" y="338"/><rect fill="#F1F1F1" height="2" style="stroke:#181818;stroke-width:0.5;" width="4" x="1051" y="342"/><text fill="#000000" font-family="sans-serif" font-size="14" lengthAdjust="spacing" textLength="85" x="963" y="365.5332">SubjectModal</text></g><!--link App to Menu--><g id="link_App_Menu"><path d="M780.98,42.94 C722.19,62.73 604.2466,102.4162 541.8766,123.4062 " fill="none" id="App-to-Menu" style="stroke:#181818;stroke-width:1.0;"/><polygon fill="#181818" points="536.19,125.32,545.9958,126.2404,540.9288,123.7252,543.4441,118.6583,536.19,125.32" style="stroke:#181818;stroke-width:1.0;"/></g><!--link App to Subjects--><g id="link_App_Subjects"><path d="M798.09,55 C786.27,72.66 773.3386,91.9546 761.4586,109.6946 " fill="none" id="App-to-Subjects" style="stroke:#181818;stroke-width:1.0;"/><polygon fill="#181818" points="758.12,114.68,766.4514,109.4277,760.9021,110.5255,759.8043,104.9762,758.12,114.68" style="stroke:#181818;stroke-width:1.0;"/></g><!--link App to FullCalendar--><g id="link_App_FullCalendar"><path d="M829.12,55 C841.12,72.66 854.2387,91.9767 866.2887,109.7167 " fill="none" id="App-to-FullCalendar" style="stroke:#181818;stroke-width:1.0;"/><polygon fill="#181818" points="869.66,114.68,867.9118,104.9875,866.8506,110.5439,861.2941,109.4826,869.66,114.68" style="stroke:#181818;stroke-width:1.0;"/></g><!--link App to Footer--><g id="link_App_Footer"><path d="M846.16,48.56 C882.66,67.08 936.4984,94.387 976.1084,114.467 " fill="none" id="App-to-Footer" style="stroke:#181818;stroke-width:1.0;"/><polygon fill="#181818" points="981.46,117.18,975.2412,109.5428,977.0003,114.9192,971.6239,116.6783,981.46,117.18" style="stroke:#181818;stroke-width:1.0;"/></g><!--link Menu to SubjectAdder--><g id="link_Menu_SubjectAdder"><path d="M460.74,152.79 C408.06,170.63 317.5232,201.2961 253.9532,222.8161 " fill="none" id="Menu-to-SubjectAdder" style="stroke:#181818;stroke-width:1.0;"/><polygon fill="#181818" points="248.27,224.74,258.0774,225.6429,253.006,223.1368,255.5122,218.0654,248.27,224.74" style="stroke:#181818;stroke-width:1.0;"/></g><!--link Menu to ServerQuery--><g id="link_Menu_ServerQuery"><path d="M464.87,163 C438.96,180.72 408.2429,201.7235 382.2829,219.4735 " fill="none" id="Menu-to-ServerQuery" style="stroke:#181818;stroke-width:1.0;"/><polygon fill="#181818" points="377.33,222.86,387.0171,221.0822,381.4574,220.0379,382.5017,214.4783,377.33,222.86" style="stroke:#181818;stroke-width:1.0;"/></g><!--link Menu to ImportExport--><g id="link_Menu_ImportExport"><path d="M498.5,163 C498.5,180.66 498.5,198.94 498.5,216.68 " fill="none" id="Menu-to-ImportExport" style="stroke:#181818;stroke-width:1.0;"/><polygon fill="#181818" points="498.5,222.68,502.5,213.68,498.5,217.68,494.5,213.68,498.5,222.68" style="stroke:#181818;stroke-width:1.0;"/></g><!--link Menu to Settings--><g id="link_Menu_Settings"><path d="M528.88,163 C552.2,180.66 579.4865,201.3182 602.9165,219.0582 " fill="none" id="Menu-to-Settings" style="stroke:#181818;stroke-width:1.0;"/><polygon fill="#181818" points="607.7,222.68,602.9393,214.0582,603.7137,219.6618,598.1101,220.4363,607.7,222.68" style="stroke:#181818;stroke-width:1.0;"/></g><!--link Menu to Help--><g id="link_Menu_Help"><path d="M536.05,154.98 C576.89,171.36 644.04,198.55 701.5,223 C707.31,225.47 707.9758,225.7388 713.9458,228.3588 " fill="none" id="Menu-to-Help" style="stroke:#181818;stroke-width:1.0;"/><polygon fill="#181818" points="719.44,230.77,712.8062,223.4904,714.8615,228.7607,709.5912,230.816,719.44,230.77" style="stroke:#181818;stroke-width:1.0;"/></g><!--link Menu to Button--><g id="link_Menu_Button"><path d="M460.85,145.77 C390.25,157.06 233.52,184.4 105.5,223 C99.8,224.72 99.4959,224.6745 93.6959,226.8245 " fill="none" id="Menu-to-Button" style="stroke:#181818;stroke-width:1.0;"/><polygon fill="#181818" points="88.07,228.91,97.8992,229.5324,92.7583,227.1721,95.1186,222.0312,88.07,228.91" style="stroke:#181818;stroke-width:1.0;"/></g><!--link ServerQuery to Modal--><g id="link_ServerQuery_Modal"><path d="M343.5,271 C343.5,288.66 343.5,306.94 343.5,324.68 " fill="none" id="ServerQuery-to-Modal" style="stroke:#181818;stroke-width:1.0;"/><polygon fill="#181818" points="343.5,330.68,347.5,321.68,343.5,325.68,339.5,321.68,343.5,330.68" style="stroke:#181818;stroke-width:1.0;"/></g><!--link Subjects to Subject--><g id="link_Subjects_Subject"><path d="M769.41,163 C790.06,180.66 813.9095,201.041 834.6595,218.781 " fill="none" id="Subjects-to-Subject" style="stroke:#181818;stroke-width:1.0;"/><polygon fill="#181818" points="839.22,222.68,834.9786,213.7912,835.4196,219.4309,829.7799,219.8719,839.22,222.68" style="stroke:#181818;stroke-width:1.0;"/></g><!--link Subject to Courses--><g id="link_Subject_Courses"><path d="M866.5,271 C866.5,288.66 866.5,306.94 866.5,324.68 " fill="none" id="Subject-to-Courses" style="stroke:#181818;stroke-width:1.0;"/><polygon fill="#181818" points="866.5,330.68,870.5,321.68,866.5,325.68,862.5,321.68,866.5,330.68" style="stroke:#181818;stroke-width:1.0;"/></g><!--link Subject to SubjectModal--><g id="link_Subject_SubjectModal"><path d="M897.75,271 C921.73,288.66 949.888,309.3831 973.988,327.1231 " fill="none" id="Subject-to-SubjectModal" style="stroke:#181818;stroke-width:1.0;"/><polygon fill="#181818" points="978.82,330.68,973.9432,322.1233,974.7933,327.7159,969.2007,328.5661,978.82,330.68" style="stroke:#181818;stroke-width:1.0;"/></g><!--link Subject to CourseModal--><g id="link_Subject_CourseModal"><path d="M835.25,271 C811.27,288.66 783.112,309.3831 759.012,327.1231 " fill="none" id="Subject-to-CourseModal" style="stroke:#181818;stroke-width:1.0;"/><polygon fill="#181818" points="754.18,330.68,763.7993,328.5661,758.2067,327.7159,759.0568,322.1233,754.18,330.68" style="stroke:#181818;stroke-width:1.0;"/></g><!--SRC=[RP312i8m38RlVOg2vu5F8CoXw647yLXsg6iGfRQbJKNVtaqZQwQNGhwF_4sYrXdHkquke8T-QOGwvjCLUYn8utDCq7gZxGzD4n6g3g6JLRMIgWMNkn9GQc9mcwrjj0LdTEJ2UuG1YKyGYwYD6HKp4EyG3ndYaulzBVY8cyVupbiGB-wSEDs13PpGUOP9oazeoVT5X9YMOuCMXiJtP7DE5UNzRIBt0W00]--></g></svg>