<?xml version="1.0" encoding="us-ascii" standalone="no"?><svg xmlns="http://www.w3.org/2000/svg" xmlns:xlink="http://www.w3.org/1999/xlink" contentStyleType="text/css" height="469px" preserveAspectRatio="none" style="width:2575px;height:469px;background:#FFFFFF;" version="1.1" viewBox="0 0 2575 469" width="2575px" zoomAndPan="magnify"><defs/><g><!--cluster Menu System--><g id="cluster_Menu System"><path d="M13.5,11 L117.5,11 A3.75,3.75 0 0 1 120,13.5 L127,34.0146 L875.5,34.0146 A2.5,2.5 0 0 1 878,36.5146 L878,336.5 A2.5,2.5 0 0 1 875.5,339 L13.5,339 A2.5,2.5 0 0 1 11,336.5 L11,13.5 A2.5,2.5 0 0 1 13.5,11 " fill="#FFFFFF" style="stroke:#000000;stroke-width:1.0;"/><line style="stroke:#000000;stroke-width:1.0;" x1="11" x2="127" y1="34.0146" y2="34.0146"/><text fill="#000000" font-family="Verdana" font-size="14" font-weight="bold" lengthAdjust="spacing" textLength="103" x="15" y="27.0752">Menu System</text></g><!--cluster Subject Management--><g id="cluster_Subject Management"><path d="M1084.5,11 L1248.5,11 A3.75,3.75 0 0 1 1251,13.5 L1258,34.0146 L1575.5,34.0146 A2.5,2.5 0 0 1 1578,36.5146 L1578,459.5 A2.5,2.5 0 0 1 1575.5,462 L1084.5,462 A2.5,2.5 0 0 1 1082,459.5 L1082,13.5 A2.5,2.5 0 0 1 1084.5,11 " fill="#FFFFFF" style="stroke:#000000;stroke-width:1.0;"/><line style="stroke:#000000;stroke-width:1.0;" x1="1082" x2="1258" y1="34.0146" y2="34.0146"/><text fill="#000000" font-family="Verdana" font-size="14" font-weight="bold" lengthAdjust="spacing" textLength="163" x="1086" y="27.0752">Subject Management</text></g><!--cluster Timetable System--><g id="cluster_Timetable System"><path d="M1921.5,240 L2058.5,240 A3.75,3.75 0 0 1 2061,242.5 L2068,263.0146 L2252.5,263.0146 A2.5,2.5 0 0 1 2255,265.5146 L2255,459.5 A2.5,2.5 0 0 1 2252.5,462 L1921.5,462 A2.5,2.5 0 0 1 1919,459.5 L1919,242.5 A2.5,2.5 0 0 1 1921.5,240 " fill="#FFFFFF" style="stroke:#000000;stroke-width:1.0;"/><line style="stroke:#000000;stroke-width:1.0;" x1="1919" x2="2068" y1="263.0146" y2="263.0146"/><text fill="#000000" font-family="Verdana" font-size="14" font-weight="bold" lengthAdjust="spacing" textLength="136" x="1923" y="256.0752">Timetable System</text></g><!--cluster Table Components--><g id="cluster_Table Components"><path d="M1604.5,363 L1750.5,363 A3.75,3.75 0 0 1 1753,365.5 L1760,386.0146 L1892.5,386.0146 A2.5,2.5 0 0 1 1895,388.5146 L1895,459.5 A2.5,2.5 0 0 1 1892.5,462 L1604.5,462 A2.5,2.5 0 0 1 1602,459.5 L1602,365.5 A2.5,2.5 0 0 1 1604.5,363 " fill="#FFFFFF" style="stroke:#000000;stroke-width:1.0;"/><line style="stroke:#000000;stroke-width:1.0;" x1="1602" x2="1760" y1="386.0146" y2="386.0146"/><text fill="#000000" font-family="Verdana" font-size="14" font-weight="bold" lengthAdjust="spacing" textLength="145" x="1606" y="379.0752">Table Components</text></g><!--entity Menu--><g id="elem_Menu"><rect fill="#FFFF00" height="47.0146" rx="2.5" ry="2.5" style="stroke:#000000;stroke-width:1.0;" width="77" x="543.5" y="47"/><rect fill="#FFFF00" height="10" style="stroke:#000000;stroke-width:1.0;" width="15" x="600.5" y="52"/><rect fill="#FFFF00" height="2" style="stroke:#000000;stroke-width:1.0;" width="4" x="598.5" y="54"/><rect fill="#FFFF00" height="2" style="stroke:#000000;stroke-width:1.0;" width="4" x="598.5" y="58"/><text fill="#000000" font-family="Verdana" font-size="14" lengthAdjust="spacing" textLength="37" x="558.5" y="81.0752">Menu</text></g><!--entity SubjectAdder--><g id="elem_SubjectAdder"><rect fill="#FFA500" height="47.0146" rx="2.5" ry="2.5" style="stroke:#000000;stroke-width:1.0;" width="136" x="27" y="159"/><rect fill="#FFA500" height="10" style="stroke:#000000;stroke-width:1.0;" width="15" x="143" y="164"/><rect fill="#FFA500" height="2" style="stroke:#000000;stroke-width:1.0;" width="4" x="141" y="166"/><rect fill="#FFA500" height="2" style="stroke:#000000;stroke-width:1.0;" width="4" x="141" y="170"/><text fill="#000000" font-family="Verdana" font-size="14" lengthAdjust="spacing" textLength="96" x="42" y="193.0752">SubjectAdder</text></g><!--entity ServerQuery--><g id="elem_ServerQuery"><rect fill="#FFA500" height="47.0146" rx="2.5" ry="2.5" style="stroke:#000000;stroke-width:1.0;" width="128" x="198" y="159"/><rect fill="#FFA500" height="10" style="stroke:#000000;stroke-width:1.0;" width="15" x="306" y="164"/><rect fill="#FFA500" height="2" style="stroke:#000000;stroke-width:1.0;" width="4" x="304" y="166"/><rect fill="#FFA500" height="2" style="stroke:#000000;stroke-width:1.0;" width="4" x="304" y="170"/><text fill="#000000" font-family="Verdana" font-size="14" lengthAdjust="spacing" textLength="88" x="213" y="193.0752">ServerQuery</text></g><!--entity ImportExport--><g id="elem_ImportExport"><rect fill="#FFA500" height="47.0146" rx="2.5" ry="2.5" style="stroke:#000000;stroke-width:1.0;" width="136" x="361" y="159"/><rect fill="#FFA500" height="10" style="stroke:#000000;stroke-width:1.0;" width="15" x="477" y="164"/><rect fill="#FFA500" height="2" style="stroke:#000000;stroke-width:1.0;" width="4" x="475" y="166"/><rect fill="#FFA500" height="2" style="stroke:#000000;stroke-width:1.0;" width="4" x="475" y="170"/><text fill="#000000" font-family="Verdana" font-size="14" lengthAdjust="spacing" textLength="96" x="376" y="193.0752">ImportExport</text></g><!--entity Settings--><g id="elem_Settings"><rect fill="#FFA500" height="47.0146" rx="2.5" ry="2.5" style="stroke:#000000;stroke-width:1.0;" width="99" x="532.5" y="159"/><rect fill="#FFA500" height="10" style="stroke:#000000;stroke-width:1.0;" width="15" x="611.5" y="164"/><rect fill="#FFA500" height="2" style="stroke:#000000;stroke-width:1.0;" width="4" x="609.5" y="166"/><rect fill="#FFA500" height="2" style="stroke:#000000;stroke-width:1.0;" width="4" x="609.5" y="170"/><text fill="#000000" font-family="Verdana" font-size="14" lengthAdjust="spacing" textLength="59" x="547.5" y="193.0752">Settings</text></g><!--entity Help--><g id="elem_Help"><rect fill="#FFA500" height="47.0146" rx="2.5" ry="2.5" style="stroke:#000000;stroke-width:1.0;" width="70" x="667" y="159"/><rect fill="#FFA500" height="10" style="stroke:#000000;stroke-width:1.0;" width="15" x="717" y="164"/><rect fill="#FFA500" height="2" style="stroke:#000000;stroke-width:1.0;" width="4" x="715" y="166"/><rect fill="#FFA500" height="2" style="stroke:#000000;stroke-width:1.0;" width="4" x="715" y="170"/><text fill="#000000" font-family="Verdana" font-size="14" lengthAdjust="spacing" textLength="30" x="682" y="193.0752">Help</text></g><!--entity Button--><g id="elem_Button"><rect fill="#FFA500" height="47.0146" rx="2.5" ry="2.5" style="stroke:#000000;stroke-width:1.0;" width="89" x="772.5" y="159"/><rect fill="#FFA500" height="10" style="stroke:#000000;stroke-width:1.0;" width="15" x="841.5" y="164"/><rect fill="#FFA500" height="2" style="stroke:#000000;stroke-width:1.0;" width="4" x="839.5" y="166"/><rect fill="#FFA500" height="2" style="stroke:#000000;stroke-width:1.0;" width="4" x="839.5" y="170"/><text fill="#000000" font-family="Verdana" font-size="14" lengthAdjust="spacing" textLength="49" x="787.5" y="193.0752">Button</text></g><!--entity ImportModal--><g id="elem_ImportModal"><rect fill="#FFA500" height="47.0146" rx="2.5" ry="2.5" style="stroke:#000000;stroke-width:1.0;" width="128" x="198" y="276"/><rect fill="#FFA500" height="10" style="stroke:#000000;stroke-width:1.0;" width="15" x="306" y="281"/><rect fill="#FFA500" height="2" style="stroke:#000000;stroke-width:1.0;" width="4" x="304" y="283"/><rect fill="#FFA500" height="2" style="stroke:#000000;stroke-width:1.0;" width="4" x="304" y="287"/><text fill="#000000" font-family="Verdana" font-size="14" lengthAdjust="spacing" textLength="88" x="213" y="310.0752">ImportModal</text></g><!--entity Subjects--><g id="elem_Subjects"><rect fill="#FFFF00" height="47.0146" rx="2.5" ry="2.5" style="stroke:#000000;stroke-width:1.0;" width="102" x="1447" y="47"/><rect fill="#FFFF00" height="10" style="stroke:#000000;stroke-width:1.0;" width="15" x="1529" y="52"/><rect fill="#FFFF00" height="2" style="stroke:#000000;stroke-width:1.0;" width="4" x="1527" y="54"/><rect fill="#FFFF00" height="2" style="stroke:#000000;stroke-width:1.0;" width="4" x="1527" y="58"/><text fill="#000000" font-family="Verdana" font-size="14" lengthAdjust="spacing" textLength="62" x="1462" y="81.0752">Subjects</text></g><!--entity Subject--><g id="elem_Subject"><rect fill="#FFC0CB" height="47.0146" rx="2.5" ry="2.5" style="stroke:#000000;stroke-width:1.0;" width="94" x="1451" y="159"/><rect fill="#FFC0CB" height="10" style="stroke:#000000;stroke-width:1.0;" width="15" x="1525" y="164"/><rect fill="#FFC0CB" height="2" style="stroke:#000000;stroke-width:1.0;" width="4" x="1523" y="166"/><rect fill="#FFC0CB" height="2" style="stroke:#000000;stroke-width:1.0;" width="4" x="1523" y="170"/><text fill="#000000" font-family="Verdana" font-size="14" lengthAdjust="spacing" textLength="54" x="1466" y="193.0752">Subject</text></g><!--entity SubjectModal--><g id="elem_SubjectModal"><rect fill="#FFC0CB" height="47.0146" rx="2.5" ry="2.5" style="stroke:#000000;stroke-width:1.0;" width="134" x="1265" y="276"/><rect fill="#FFC0CB" height="10" style="stroke:#000000;stroke-width:1.0;" width="15" x="1379" y="281"/><rect fill="#FFC0CB" height="2" style="stroke:#000000;stroke-width:1.0;" width="4" x="1377" y="283"/><rect fill="#FFC0CB" height="2" style="stroke:#000000;stroke-width:1.0;" width="4" x="1377" y="287"/><text fill="#000000" font-family="Verdana" font-size="14" lengthAdjust="spacing" textLength="94" x="1280" y="310.0752">SubjectModal</text></g><!--entity CourseAdder--><g id="elem_CourseAdder"><rect fill="#FFC0CB" height="47.0146" rx="2.5" ry="2.5" style="stroke:#000000;stroke-width:1.0;" width="132" x="1098" y="276"/><rect fill="#FFC0CB" height="10" style="stroke:#000000;stroke-width:1.0;" width="15" x="1210" y="281"/><rect fill="#FFC0CB" height="2" style="stroke:#000000;stroke-width:1.0;" width="4" x="1208" y="283"/><rect fill="#FFC0CB" height="2" style="stroke:#000000;stroke-width:1.0;" width="4" x="1208" y="287"/><text fill="#000000" font-family="Verdana" font-size="14" lengthAdjust="spacing" textLength="92" x="1113" y="310.0752">CourseAdder</text></g><!--entity CourseTable--><g id="elem_CourseTable"><rect fill="#FFC0CB" height="47.0146" rx="2.5" ry="2.5" style="stroke:#000000;stroke-width:1.0;" width="127" x="1434.5" y="276"/><rect fill="#FFC0CB" height="10" style="stroke:#000000;stroke-width:1.0;" width="15" x="1541.5" y="281"/><rect fill="#FFC0CB" height="2" style="stroke:#000000;stroke-width:1.0;" width="4" x="1539.5" y="283"/><rect fill="#FFC0CB" height="2" style="stroke:#000000;stroke-width:1.0;" width="4" x="1539.5" y="287"/><text fill="#000000" font-family="Verdana" font-size="14" lengthAdjust="spacing" textLength="87" x="1449.5" y="310.0752">CourseTable</text></g><!--entity CourseModal--><g id="elem_CourseModal"><rect fill="#E0FFFF" height="47.0146" rx="2.5" ry="2.5" style="stroke:#000000;stroke-width:1.0;" width="130" x="1265" y="399"/><rect fill="#E0FFFF" height="10" style="stroke:#000000;stroke-width:1.0;" width="15" x="1375" y="404"/><rect fill="#E0FFFF" height="2" style="stroke:#000000;stroke-width:1.0;" width="4" x="1373" y="406"/><rect fill="#E0FFFF" height="2" style="stroke:#000000;stroke-width:1.0;" width="4" x="1373" y="410"/><text fill="#000000" font-family="Verdana" font-size="14" lengthAdjust="spacing" textLength="90" x="1280" y="433.0752">CourseModal</text></g><!--entity Timetable--><g id="elem_Timetable"><rect fill="#FFFF00" height="47.0146" rx="2.5" ry="2.5" style="stroke:#000000;stroke-width:1.0;" width="107" x="2131.5" y="276"/><rect fill="#FFFF00" height="10" style="stroke:#000000;stroke-width:1.0;" width="15" x="2218.5" y="281"/><rect fill="#FFFF00" height="2" style="stroke:#000000;stroke-width:1.0;" width="4" x="2216.5" y="283"/><rect fill="#FFFF00" height="2" style="stroke:#000000;stroke-width:1.0;" width="4" x="2216.5" y="287"/><text fill="#000000" font-family="Verdana" font-size="14" lengthAdjust="spacing" textLength="67" x="2146.5" y="310.0752">Timetable</text></g><!--entity SubjectTimetable--><g id="elem_SubjectTimetable"><rect fill="#FFFFE0" height="47.0146" rx="2.5" ry="2.5" style="stroke:#000000;stroke-width:1.0;" width="161" x="1935.5" y="276"/><rect fill="#FFFFE0" height="10" style="stroke:#000000;stroke-width:1.0;" width="15" x="2076.5" y="281"/><rect fill="#FFFFE0" height="2" style="stroke:#000000;stroke-width:1.0;" width="4" x="2074.5" y="283"/><rect fill="#FFFFE0" height="2" style="stroke:#000000;stroke-width:1.0;" width="4" x="2074.5" y="287"/><text fill="#000000" font-family="Verdana" font-size="14" lengthAdjust="spacing" textLength="121" x="1950.5" y="310.0752">SubjectTimetable</text></g><!--entity FullCalendar--><g id="elem_FullCalendar"><rect fill="#FFFFE0" height="47.0146" rx="2.5" ry="2.5" style="stroke:#000000;stroke-width:1.0;" width="124" x="2113" y="399"/><rect fill="#FFFFE0" height="10" style="stroke:#000000;stroke-width:1.0;" width="15" x="2217" y="404"/><rect fill="#FFFFE0" height="2" style="stroke:#000000;stroke-width:1.0;" width="4" x="2215" y="406"/><rect fill="#FFFFE0" height="2" style="stroke:#000000;stroke-width:1.0;" width="4" x="2215" y="410"/><text fill="#000000" font-family="Verdana" font-size="14" lengthAdjust="spacing" textLength="84" x="2128" y="433.0752">FullCalendar</text></g><!--entity TableHead--><g id="elem_TableHead"><rect fill="#D3D3D3" height="47.0146" rx="2.5" ry="2.5" style="stroke:#000000;stroke-width:1.0;" width="112" x="1767" y="399"/><rect fill="#D3D3D3" height="10" style="stroke:#000000;stroke-width:1.0;" width="15" x="1859" y="404"/><rect fill="#D3D3D3" height="2" style="stroke:#000000;stroke-width:1.0;" width="4" x="1857" y="406"/><rect fill="#D3D3D3" height="2" style="stroke:#000000;stroke-width:1.0;" width="4" x="1857" y="410"/><text fill="#000000" font-family="Verdana" font-size="14" lengthAdjust="spacing" textLength="72" x="1782" y="433.0752">TableHead</text></g><!--entity TableBody--><g id="elem_TableBody"><rect fill="#D3D3D3" height="47.0146" rx="2.5" ry="2.5" style="stroke:#000000;stroke-width:1.0;" width="113" x="1618.5" y="399"/><rect fill="#D3D3D3" height="10" style="stroke:#000000;stroke-width:1.0;" width="15" x="1711.5" y="404"/><rect fill="#D3D3D3" height="2" style="stroke:#000000;stroke-width:1.0;" width="4" x="1709.5" y="406"/><rect fill="#D3D3D3" height="2" style="stroke:#000000;stroke-width:1.0;" width="4" x="1709.5" y="410"/><text fill="#000000" font-family="Verdana" font-size="14" lengthAdjust="spacing" textLength="73" x="1633.5" y="433.0752">TableBody</text></g><g id="elem_GMN43"><path d="M894,49.5 L894,66.5 L620.87,70.5 L894,74.5 L894,91.0986 A0,0 0 0 0 894,91.0986 L1066,91.0986 A0,0 0 0 0 1066,91.0986 L1066,59.5 L1056,49.5 L894,49.5 A0,0 0 0 0 894,49.5 " fill="#FFFFFF" style="stroke:#000000;stroke-width:1.0;"/><path d="M1056,49.5 L1056,59.5 L1066,59.5 L1056,49.5 " fill="#FFFFFF" style="stroke:#000000;stroke-width:1.0;"/><text fill="#000000" font-family="Verdana" font-size="13" lengthAdjust="spacing" textLength="151" x="900" y="67.5698">Dinamikus n&#233;zet v&#225;lt&#225;s</text><text fill="#000000" font-family="Verdana" font-size="13" lengthAdjust="spacing" textLength="149" x="900" y="83.3691">Context API integr&#225;ci&#243;</text></g><g id="elem_GMN46"><path d="M1594.5,154 L1594.5,178.5 L1545.08,182.5 L1594.5,186.5 L1594.5,211.3979 A0,0 0 0 0 1594.5,211.3979 L1769.5,211.3979 A0,0 0 0 0 1769.5,211.3979 L1769.5,164 L1759.5,154 L1594.5,154 A0,0 0 0 0 1594.5,154 " fill="#FFFFFF" style="stroke:#000000;stroke-width:1.0;"/><path d="M1759.5,154 L1759.5,164 L1769.5,164 L1759.5,154 " fill="#FFFFFF" style="stroke:#000000;stroke-width:1.0;"/><text fill="#000000" font-family="Verdana" font-size="13" lengthAdjust="spacing" textLength="154" x="1600.5" y="172.0698">&#214;sszecsukhat&#243; panelek</text><text fill="#000000" font-family="Verdana" font-size="13" lengthAdjust="spacing" textLength="152" x="1600.5" y="187.8691">Friss&#237;t&#233;si funkcionalit&#225;s</text><text fill="#000000" font-family="Verdana" font-size="13" lengthAdjust="spacing" textLength="139" x="1600.5" y="203.6685">Vizu&#225;lis &#225;llapot jelz&#337;k</text></g><g id="elem_GMN49"><path d="M2274,271 L2274,328.3979 L2568,328.3979 L2568,281 L2558,271 L2274,271 " fill="#FFFFFF" style="stroke:#000000;stroke-width:1.0;"/><path d="M2558,271 L2558,281 L2568,281 L2558,271 " fill="#FFFFFF" style="stroke:#000000;stroke-width:1.0;"/><text fill="#000000" font-family="Verdana" font-size="13" lengthAdjust="spacing" textLength="273" x="2280" y="289.0698">&#218;jrafelhaszn&#225;lhat&#243; t&#225;bl&#225;zat komponensek</text><text fill="#000000" font-family="Verdana" font-size="13" lengthAdjust="spacing" textLength="107" x="2280" y="304.8691">CRUD m&#369;veletek</text><text fill="#000000" font-family="Verdana" font-size="13" lengthAdjust="spacing" textLength="127" x="2280" y="320.6685">L&#225;that&#243;s&#225;g kezel&#233;s</text></g><g id="elem_GMN52"><path d="M2272,394 L2272,418.5 L2237.23,422.5 L2272,426.5 L2272,451.3979 A0,0 0 0 0 2272,451.3979 L2436,451.3979 A0,0 0 0 0 2436,451.3979 L2436,404 L2426,394 L2272,394 A0,0 0 0 0 2272,394 " fill="#FFFFFF" style="stroke:#000000;stroke-width:1.0;"/><path d="M2426,394 L2426,404 L2436,404 L2426,394 " fill="#FFFFFF" style="stroke:#000000;stroke-width:1.0;"/><text fill="#000000" font-family="Verdana" font-size="13" lengthAdjust="spacing" textLength="143" x="2278" y="412.0698">Professzion&#225;lis napt&#225;r</text><text fill="#000000" font-family="Verdana" font-size="13" lengthAdjust="spacing" textLength="111" x="2278" y="427.8691">Esem&#233;ny kezel&#233;s</text><text fill="#000000" font-family="Verdana" font-size="13" lengthAdjust="spacing" textLength="112" x="2278" y="443.6685">T&#246;bb n&#233;zet t&#237;pus</text></g><!--link Menu to SubjectAdder--><g id="link_Menu_SubjectAdder"><path d="M543.25,78.05 C471.32,90.53 312.5,119.55 181,154 C175.24,155.51 175.0488,155.4959 169.0988,157.2359 " fill="none" id="Menu-to-SubjectAdder" style="stroke:#000000;stroke-width:1.0;"/><polygon fill="#000000" points="163.34,158.92,173.1009,160.2331,168.139,157.5166,170.8555,152.5547,163.34,158.92" style="stroke:#000000;stroke-width:1.0;"/></g><!--link Menu to ServerQuery--><g id="link_Menu_ServerQuery"><path d="M543.4,84.77 C489.54,103.28 396.8341,135.1495 331.8441,157.4895 " fill="none" id="Menu-to-ServerQuery" style="stroke:#000000;stroke-width:1.0;"/><polygon fill="#000000" points="326.17,159.44,335.9815,160.2971,330.8984,157.8146,333.3809,152.7316,326.17,159.44" style="stroke:#000000;stroke-width:1.0;"/></g><!--link Menu to ImportExport--><g id="link_Menu_ImportExport"><path d="M550.67,94.03 C524.35,112.95 491.8013,136.347 465.4213,155.317 " fill="none" id="Menu-to-ImportExport" style="stroke:#000000;stroke-width:1.0;"/><polygon fill="#000000" points="460.55,158.82,470.1922,156.8131,464.6094,155.9009,465.5216,150.318,460.55,158.82" style="stroke:#000000;stroke-width:1.0;"/></g><!--link Menu to Settings--><g id="link_Menu_Settings"><path d="M582,94.03 C582,112.88 582,133.67 582,152.63 " fill="none" id="Menu-to-Settings" style="stroke:#000000;stroke-width:1.0;"/><polygon fill="#000000" points="582,158.63,586,149.63,582,153.63,578,149.63,582,158.63" style="stroke:#000000;stroke-width:1.0;"/></g><!--link Menu to Help--><g id="link_Menu_Help"><path d="M606.57,94.03 C627.14,112.88 651.9474,135.6153 672.6274,154.5753 " fill="none" id="Menu-to-Help" style="stroke:#000000;stroke-width:1.0;"/><polygon fill="#000000" points="677.05,158.63,673.1193,149.5995,673.3645,155.2511,667.713,155.4963,677.05,158.63" style="stroke:#000000;stroke-width:1.0;"/></g><!--link Menu to Button--><g id="link_Menu_Button"><path d="M620.54,89.54 C662.21,109.05 723.0957,137.5468 766.9857,158.0868 " fill="none" id="Menu-to-Button" style="stroke:#000000;stroke-width:1.0;"/><polygon fill="#000000" points="772.42,160.63,765.964,153.1923,767.8914,158.5107,762.573,160.4381,772.42,160.63" style="stroke:#000000;stroke-width:1.0;"/></g><!--link ServerQuery to ImportModal--><g id="link_ServerQuery_ImportModal"><path d="M262,206.22 C262,226.38 262,249.68 262,269.83 " fill="none" id="ServerQuery-to-ImportModal" style="stroke:#000000;stroke-width:1.0;"/><polygon fill="#000000" points="262,275.83,266,266.83,262,270.83,258,266.83,262,275.83" style="stroke:#000000;stroke-width:1.0;"/></g><!--link Subjects to Subject--><g id="link_Subjects_Subject"><path d="M1498,94.03 C1498,112.88 1498,133.67 1498,152.63 " fill="none" id="Subjects-to-Subject" style="stroke:#000000;stroke-width:1.0;"/><polygon fill="#000000" points="1498,158.63,1502,149.63,1498,153.63,1494,149.63,1498,158.63" style="stroke:#000000;stroke-width:1.0;"/></g><!--link Subject to SubjectModal--><g id="link_Subject_SubjectModal"><path d="M1457.83,206.22 C1444.61,214.05 1429.97,223.09 1417,232 C1397.07,245.68 1380.3084,258.6786 1363.9484,271.9586 " fill="none" id="Subject-to-SubjectModal" style="stroke:#000000;stroke-width:1.0;"/><polygon fill="#000000" points="1359.29,275.74,1368.7986,273.1735,1363.172,272.5888,1363.7567,266.9623,1359.29,275.74" style="stroke:#000000;stroke-width:1.0;"/></g><!--link Subject to CourseAdder--><g id="link_Subject_CourseAdder"><path d="M1450.82,185.98 C1398.98,190.2 1314.29,201.55 1248,232 C1224.68,242.71 1206.4821,257.1123 1190.6121,271.8823 " fill="none" id="Subject-to-CourseAdder" style="stroke:#000000;stroke-width:1.0;"/><polygon fill="#000000" points="1186.22,275.97,1195.5333,272.7665,1189.8801,272.5636,1190.0831,266.9104,1186.22,275.97" style="stroke:#000000;stroke-width:1.0;"/></g><!--link Subject to CourseTable--><g id="link_Subject_CourseTable"><path d="M1498,206.22 C1498,226.38 1498,249.68 1498,269.83 " fill="none" id="Subject-to-CourseTable" style="stroke:#000000;stroke-width:1.0;"/><polygon fill="#000000" points="1498,275.83,1502,266.83,1498,270.83,1494,266.83,1498,275.83" style="stroke:#000000;stroke-width:1.0;"/></g><!--link Subject to SubjectTimetable--><g id="link_Subject_SubjectTimetable"><path d="M1545.29,201.15 C1555.66,204.69 1566.63,208.18 1577,211 C1700.35,244.59 1840.5207,270.1595 1929.2007,284.8495 " fill="none" id="Subject-to-SubjectTimetable" style="stroke:#000000;stroke-width:1.0;"/><polygon fill="#000000" points="1935.12,285.83,1926.8947,280.413,1930.1872,285.0129,1925.5873,288.3054,1935.12,285.83" style="stroke:#000000;stroke-width:1.0;"/></g><!--link CourseAdder to CourseModal--><g id="link_CourseAdder_CourseModal"><path d="M1195.22,323.26 C1224.9,344.89 1264.431,373.7063 1294.071,395.3063 " fill="none" id="CourseAdder-to-CourseModal" style="stroke:#000000;stroke-width:1.0;"/><polygon fill="#000000" points="1298.92,398.84,1294.0023,390.3068,1294.8792,395.8953,1289.2907,396.7721,1298.92,398.84" style="stroke:#000000;stroke-width:1.0;"/></g><!--link CourseTable to CourseModal--><g id="link_CourseTable_CourseModal"><path d="M1466.4,323.26 C1436.36,344.89 1396.3187,373.7334 1366.3287,395.3334 " fill="none" id="CourseTable-to-CourseModal" style="stroke:#000000;stroke-width:1.0;"/><polygon fill="#000000" points="1361.46,398.84,1371.1007,396.8259,1365.5172,395.9178,1366.4252,390.3343,1361.46,398.84" style="stroke:#000000;stroke-width:1.0;"/></g><!--link CourseTable to TableHead--><g id="link_CourseTable_TableHead"><path d="M1561.63,305.21 C1614.27,311.19 1689.75,324.68 1749,355 C1770.07,365.78 1785.6737,379.6953 1799.4437,394.3653 " fill="none" id="CourseTable-to-TableHead" style="stroke:#000000;stroke-width:1.0;"/><polygon fill="#000000" points="1803.55,398.74,1800.307,389.4404,1800.1281,395.0944,1794.474,394.9155,1803.55,398.74" style="stroke:#000000;stroke-width:1.0;"/></g><!--link CourseTable to TableBody--><g id="link_CourseTable_TableBody"><path d="M1531.1,323.02 C1545.51,332.83 1562.6,344.47 1578,355 C1599.24,369.52 1618.1224,382.4556 1636.8524,395.3056 " fill="none" id="CourseTable-to-TableBody" style="stroke:#000000;stroke-width:1.0;"/><polygon fill="#000000" points="1641.8,398.7,1636.6416,390.3101,1637.677,395.8714,1632.1158,396.9068,1641.8,398.7" style="stroke:#000000;stroke-width:1.0;"/></g><!--link Timetable to FullCalendar--><g id="link_Timetable_FullCalendar"><path d="M2183.12,323.26 C2181.33,344.89 2179.1555,371.2605 2177.3655,392.8605 " fill="none" id="Timetable-to-FullCalendar" style="stroke:#000000;stroke-width:1.0;"/><polygon fill="#000000" points="2176.87,398.84,2181.5996,390.2011,2177.2829,393.8571,2173.627,389.5404,2176.87,398.84" style="stroke:#000000;stroke-width:1.0;"/></g><!--link SubjectTimetable to FullCalendar--><g id="link_SubjectTimetable_FullCalendar"><path d="M2045.91,323.26 C2074.33,344.89 2112.0756,373.6062 2140.4556,395.2062 " fill="none" id="SubjectTimetable-to-FullCalendar" style="stroke:#000000;stroke-width:1.0;"/><polygon fill="#000000" points="2145.23,398.84,2140.4909,390.2063,2141.2513,395.8118,2135.6458,396.5722,2145.23,398.84" style="stroke:#000000;stroke-width:1.0;"/></g><!--link CourseTable to GMN49--><g id="link_CourseTable_GMN49"><path d="M1561.8,284.51 C1646.73,265.39 1801.9,233.38 1936.5,221.5 C2003.13,215.62 2171.96,208.15 2237.5,221.5 C2284.14,231 2333.62,252.8 2369.43,270.94 " fill="none" id="CourseTable-GMN49" style="stroke:#000000;stroke-width:1.0;stroke-dasharray:7.0,7.0;"/></g><!--SRC=[ZLGzRzim4DtrAzXqw9I_K21n4YH03QIDswN8G4jdcHP52kJHZLJqHtJfq4rZXWn5WFu18l-hr9T5AZ9G3uRzdk_Tkxidly4jv40AJfc8eeB66Ks1d2n1679NQeJyX7oFY7jzRR1xyhO4pkMt3hepwnt4U9Oae1mb5HKfz1IeFQYF1bGvOMxoGYgyV6ZUNnKXCf7g2NmDl9X0vmPHYbdbfKme7vaVtbYzNxAamdtFGU1XkfxIynCwj60Y2x2XpqWif54QXcrCyHLTSvZ11ntEqYt69HM1vHNB0PlAwJaEnBnZdswL_TzS6SuNb8D8g9hmGU-sxqAwjGgtAptsReXheCbGd2fQUjIvJCg0SghlI1ig1PmYaq9lMQ6ZFbIdf-ydOGePBqi14KHfKj8dAK3R80L8dwCe2WFhgNVdQVmFwPcCC2R77-C-6hFZuxtSXFIJCyzrwJaYEXxR3HAaq5COEWTf_2z-FFTHjhruiwGnhvCrUO5iou8CHZEndVbL92GwuIPMH6xwlwGsTnTCq9nbHXDX7oj0ihSrHrlhbbr8WV20vEpsXZ3tCLMsZfbzZfmkQJHVAH-ks9JRNrfN46kJRIdQPr9G0HowX_XACQtj4zf7pSZ6Y2ns8rFE3hs_iCeuBqmJzyvf8P7iW5SlFxFZtOEJjmv-xnJT0DzINGcdq_bmFTRSrXL5alKFgUvjBJvzlY3vov-zCuezzi7Ms1PgMwSaWmguSttSHRZxHk5MoGsuNRWHkv44BPm9rPAN6dBxACfHkK5NzkzwFHm5xLDXl8x_0000]--></g></svg>