<?xml version="1.0" encoding="us-ascii" standalone="no"?><svg xmlns="http://www.w3.org/2000/svg" xmlns:xlink="http://www.w3.org/1999/xlink" contentStyleType="text/css" height="472px" preserveAspectRatio="none" style="width:1192px;height:472px;background:#FFFFFF;" version="1.1" viewBox="0 0 1192 472" width="1192px" zoomAndPan="magnify"><defs/><g><!--class CourseTable--><g id="elem_CourseTable"><rect codeLine="2" fill="#F1F1F1" height="161.6563" id="CourseTable" rx="2.5" ry="2.5" style="stroke:#181818;stroke-width:0.5;" width="160" x="218" y="7"/><ellipse cx="253.7" cy="23" fill="#ADD1B2" rx="11" ry="11" style="stroke:#181818;stroke-width:1.0;"/><path d="M256.4656,18.875 Q256.6219,18.6563 256.8094,18.5469 Q256.9969,18.4375 257.2156,18.4375 Q257.5906,18.4375 257.825,18.7031 Q258.0594,18.9531 258.0594,19.5625 L258.0594,21.0156 Q258.0594,21.625 257.825,21.8906 Q257.5906,22.1563 257.2156,22.1563 Q256.8719,22.1563 256.6688,21.9531 Q256.4656,21.7656 256.3563,21.25 Q256.3094,20.8906 256.1219,20.7031 Q255.7938,20.3281 255.1844,20.1094 Q254.575,19.8906 253.95,19.8906 Q253.1844,19.8906 252.5438,20.2188 Q251.9188,20.5469 251.4188,21.2969 Q250.9344,22.0469 250.9344,23.0781 L250.9344,24.1719 Q250.9344,25.4063 251.825,26.2344 Q252.7156,27.0469 254.3094,27.0469 Q255.2469,27.0469 255.9031,26.7969 Q256.2938,26.6406 256.7156,26.2031 Q256.9813,25.9375 257.1219,25.8594 Q257.2781,25.7813 257.4813,25.7813 Q257.8094,25.7813 258.0594,26.0469 Q258.325,26.2969 258.325,26.6406 Q258.325,26.9844 257.9813,27.3906 Q257.4813,27.9688 256.6844,28.2969 Q255.6063,28.75 254.3094,28.75 Q252.7938,28.75 251.5906,28.125 Q250.6063,27.625 249.9188,26.5625 Q249.2313,25.4844 249.2313,24.2031 L249.2313,23.0469 Q249.2313,21.7188 249.8406,20.5781 Q250.4656,19.4219 251.5594,18.8125 Q252.6531,18.1875 253.8875,18.1875 Q254.6219,18.1875 255.2625,18.3594 Q255.9188,18.5156 256.4656,18.875 Z " fill="#000000"/><text fill="#000000" font-family="sans-serif" font-size="14" lengthAdjust="spacing" textLength="82" x="272.3" y="28.7285">CourseTable</text><line style="stroke:#181818;stroke-width:0.5;" x1="219" x2="377" y1="39" y2="39"/><ellipse cx="229" cy="74.9141" fill="none" rx="3" ry="3" style="stroke:#038048;stroke-width:1.0;"/><text fill="#000000" font-family="sans-serif" font-size="14" lengthAdjust="spacing" textLength="96" x="238" y="79.1426">Subject subject</text><line style="stroke:#181818;stroke-width:1.0;stroke-dasharray:1.0,2.0;" x1="219" x2="280" y1="55.8047" y2="55.8047"/><text fill="#000000" font-family="sans-serif" font-size="14" lengthAdjust="spacing" textLength="36" x="280" y="61.0332">props</text><line style="stroke:#181818;stroke-width:1.0;stroke-dasharray:1.0,2.0;" x1="316" x2="377" y1="55.8047" y2="55.8047"/><ellipse cx="229" cy="114.1328" fill="#84BE84" rx="3" ry="3" style="stroke:#038048;stroke-width:1.0;"/><text fill="#000000" font-family="sans-serif" font-size="14" lengthAdjust="spacing" textLength="130" x="238" y="118.3613">useTimetable() hook</text><ellipse cx="229" cy="131.7422" fill="#84BE84" rx="3" ry="3" style="stroke:#038048;stroke-width:1.0;"/><text fill="#000000" font-family="sans-serif" font-size="14" lengthAdjust="spacing" textLength="119" x="238" y="135.9707">useSettings() hook</text><line style="stroke:#181818;stroke-width:1.0;stroke-dasharray:1.0,2.0;" x1="219" x2="252" y1="95.0234" y2="95.0234"/><text fill="#000000" font-family="sans-serif" font-size="14" lengthAdjust="spacing" textLength="92" x="252" y="100.252">Context Usage</text><line style="stroke:#181818;stroke-width:1.0;stroke-dasharray:1.0,2.0;" x1="344" x2="377" y1="95.0234" y2="95.0234"/><line style="stroke:#181818;stroke-width:0.5;" x1="219" x2="377" y1="143.0469" y2="143.0469"/><ellipse cx="229" cy="157.3516" fill="#84BE84" rx="3" ry="3" style="stroke:#038048;stroke-width:1.0;"/><text fill="#000000" font-family="sans-serif" font-size="14" lengthAdjust="spacing" textLength="134" x="238" y="161.5801">JSX.Element render()</text></g><!--class CourseModal--><g id="elem_CourseModal"><rect codeLine="12" fill="#F1F1F1" height="236.0938" id="CourseModal" rx="2.5" ry="2.5" style="stroke:#181818;stroke-width:0.5;" width="176" x="7" y="229"/><ellipse cx="49" cy="245" fill="#ADD1B2" rx="11" ry="11" style="stroke:#181818;stroke-width:1.0;"/><path d="M51.7656,240.875 Q51.9219,240.6563 52.1094,240.5469 Q52.2969,240.4375 52.5156,240.4375 Q52.8906,240.4375 53.125,240.7031 Q53.3594,240.9531 53.3594,241.5625 L53.3594,243.0156 Q53.3594,243.625 53.125,243.8906 Q52.8906,244.1563 52.5156,244.1563 Q52.1719,244.1563 51.9688,243.9531 Q51.7656,243.7656 51.6563,243.25 Q51.6094,242.8906 51.4219,242.7031 Q51.0938,242.3281 50.4844,242.1094 Q49.875,241.8906 49.25,241.8906 Q48.4844,241.8906 47.8438,242.2188 Q47.2188,242.5469 46.7188,243.2969 Q46.2344,244.0469 46.2344,245.0781 L46.2344,246.1719 Q46.2344,247.4063 47.125,248.2344 Q48.0156,249.0469 49.6094,249.0469 Q50.5469,249.0469 51.2031,248.7969 Q51.5938,248.6406 52.0156,248.2031 Q52.2813,247.9375 52.4219,247.8594 Q52.5781,247.7813 52.7813,247.7813 Q53.1094,247.7813 53.3594,248.0469 Q53.625,248.2969 53.625,248.6406 Q53.625,248.9844 53.2813,249.3906 Q52.7813,249.9688 51.9844,250.2969 Q50.9063,250.75 49.6094,250.75 Q48.0938,250.75 46.8906,250.125 Q45.9063,249.625 45.2188,248.5625 Q44.5313,247.4844 44.5313,246.2031 L44.5313,245.0469 Q44.5313,243.7188 45.1406,242.5781 Q45.7656,241.4219 46.8594,240.8125 Q47.9531,240.1875 49.1875,240.1875 Q49.9219,240.1875 50.5625,240.3594 Q51.2188,240.5156 51.7656,240.875 Z " fill="#000000"/><text fill="#000000" font-family="sans-serif" font-size="14" lengthAdjust="spacing" textLength="84" x="69" y="250.7285">CourseModal</text><line style="stroke:#181818;stroke-width:0.5;" x1="8" x2="182" y1="261" y2="261"/><ellipse cx="18" cy="296.9141" fill="none" rx="3" ry="3" style="stroke:#038048;stroke-width:1.0;"/><text fill="#000000" font-family="sans-serif" font-size="14" lengthAdjust="spacing" textLength="96" x="27" y="301.1426">Subject subject</text><ellipse cx="18" cy="314.5234" fill="none" rx="3" ry="3" style="stroke:#038048;stroke-width:1.0;"/><text fill="#000000" font-family="sans-serif" font-size="14" lengthAdjust="spacing" textLength="93" x="27" y="318.752">string courseId</text><line style="stroke:#181818;stroke-width:1.0;stroke-dasharray:1.0,2.0;" x1="8" x2="77" y1="277.8047" y2="277.8047"/><text fill="#000000" font-family="sans-serif" font-size="14" lengthAdjust="spacing" textLength="36" x="77" y="283.0332">props</text><line style="stroke:#181818;stroke-width:1.0;stroke-dasharray:1.0,2.0;" x1="113" x2="182" y1="277.8047" y2="277.8047"/><ellipse cx="18" cy="353.7422" fill="#84BE84" rx="3" ry="3" style="stroke:#038048;stroke-width:1.0;"/><text fill="#000000" font-family="sans-serif" font-size="14" lengthAdjust="spacing" textLength="130" x="27" y="357.9707">useTimetable() hook</text><ellipse cx="18" cy="371.3516" fill="#84BE84" rx="3" ry="3" style="stroke:#038048;stroke-width:1.0;"/><text fill="#000000" font-family="sans-serif" font-size="14" lengthAdjust="spacing" textLength="119" x="27" y="375.5801">useSettings() hook</text><line style="stroke:#181818;stroke-width:1.0;stroke-dasharray:1.0,2.0;" x1="8" x2="49" y1="334.6328" y2="334.6328"/><text fill="#000000" font-family="sans-serif" font-size="14" lengthAdjust="spacing" textLength="92" x="49" y="339.8613">Context Usage</text><line style="stroke:#181818;stroke-width:1.0;stroke-dasharray:1.0,2.0;" x1="141" x2="182" y1="334.6328" y2="334.6328"/><ellipse cx="18" cy="410.5703" fill="none" rx="3" ry="3" style="stroke:#038048;stroke-width:1.0;"/><text fill="#000000" font-family="sans-serif" font-size="14" lengthAdjust="spacing" textLength="93" x="27" y="414.7988">Course course</text><line style="stroke:#181818;stroke-width:1.0;stroke-dasharray:1.0,2.0;" x1="8" x2="64" y1="391.4609" y2="391.4609"/><text fill="#000000" font-family="sans-serif" font-size="14" lengthAdjust="spacing" textLength="62" x="64" y="396.6895">computed</text><line style="stroke:#181818;stroke-width:1.0;stroke-dasharray:1.0,2.0;" x1="126" x2="182" y1="391.4609" y2="391.4609"/><line style="stroke:#181818;stroke-width:0.5;" x1="8" x2="182" y1="421.875" y2="421.875"/><ellipse cx="18" cy="436.1797" fill="#84BE84" rx="3" ry="3" style="stroke:#038048;stroke-width:1.0;"/><text fill="#000000" font-family="sans-serif" font-size="14" lengthAdjust="spacing" textLength="150" x="27" y="440.4082">void handleSave(event)</text><ellipse cx="18" cy="453.7891" fill="#84BE84" rx="3" ry="3" style="stroke:#038048;stroke-width:1.0;"/><text fill="#000000" font-family="sans-serif" font-size="14" lengthAdjust="spacing" textLength="134" x="27" y="458.0176">JSX.Element render()</text></g><!--class CourseAdder--><g id="elem_CourseAdder"><rect codeLine="26" fill="#F1F1F1" height="161.6563" id="CourseAdder" rx="2.5" ry="2.5" style="stroke:#181818;stroke-width:0.5;" width="187" x="770.5" y="7"/><ellipse cx="817.75" cy="23" fill="#ADD1B2" rx="11" ry="11" style="stroke:#181818;stroke-width:1.0;"/><path d="M820.5156,18.875 Q820.6719,18.6563 820.8594,18.5469 Q821.0469,18.4375 821.2656,18.4375 Q821.6406,18.4375 821.875,18.7031 Q822.1094,18.9531 822.1094,19.5625 L822.1094,21.0156 Q822.1094,21.625 821.875,21.8906 Q821.6406,22.1563 821.2656,22.1563 Q820.9219,22.1563 820.7188,21.9531 Q820.5156,21.7656 820.4063,21.25 Q820.3594,20.8906 820.1719,20.7031 Q819.8438,20.3281 819.2344,20.1094 Q818.625,19.8906 818,19.8906 Q817.2344,19.8906 816.5938,20.2188 Q815.9688,20.5469 815.4688,21.2969 Q814.9844,22.0469 814.9844,23.0781 L814.9844,24.1719 Q814.9844,25.4063 815.875,26.2344 Q816.7656,27.0469 818.3594,27.0469 Q819.2969,27.0469 819.9531,26.7969 Q820.3438,26.6406 820.7656,26.2031 Q821.0313,25.9375 821.1719,25.8594 Q821.3281,25.7813 821.5313,25.7813 Q821.8594,25.7813 822.1094,26.0469 Q822.375,26.2969 822.375,26.6406 Q822.375,26.9844 822.0313,27.3906 Q821.5313,27.9688 820.7344,28.2969 Q819.6563,28.75 818.3594,28.75 Q816.8438,28.75 815.6406,28.125 Q814.6563,27.625 813.9688,26.5625 Q813.2813,25.4844 813.2813,24.2031 L813.2813,23.0469 Q813.2813,21.7188 813.8906,20.5781 Q814.5156,19.4219 815.6094,18.8125 Q816.7031,18.1875 817.9375,18.1875 Q818.6719,18.1875 819.3125,18.3594 Q819.9688,18.5156 820.5156,18.875 Z " fill="#000000"/><text fill="#000000" font-family="sans-serif" font-size="14" lengthAdjust="spacing" textLength="84" x="838.25" y="28.7285">CourseAdder</text><line style="stroke:#181818;stroke-width:0.5;" x1="771.5" x2="956.5" y1="39" y2="39"/><ellipse cx="781.5" cy="74.9141" fill="none" rx="3" ry="3" style="stroke:#038048;stroke-width:1.0;"/><text fill="#000000" font-family="sans-serif" font-size="14" lengthAdjust="spacing" textLength="108" x="790.5" y="79.1426">number subjectId</text><line style="stroke:#181818;stroke-width:1.0;stroke-dasharray:1.0,2.0;" x1="771.5" x2="846" y1="55.8047" y2="55.8047"/><text fill="#000000" font-family="sans-serif" font-size="14" lengthAdjust="spacing" textLength="36" x="846" y="61.0332">props</text><line style="stroke:#181818;stroke-width:1.0;stroke-dasharray:1.0,2.0;" x1="882" x2="956.5" y1="55.8047" y2="55.8047"/><ellipse cx="781.5" cy="114.1328" fill="#84BE84" rx="3" ry="3" style="stroke:#038048;stroke-width:1.0;"/><text fill="#000000" font-family="sans-serif" font-size="14" lengthAdjust="spacing" textLength="130" x="790.5" y="118.3613">useTimetable() hook</text><line style="stroke:#181818;stroke-width:1.0;stroke-dasharray:1.0,2.0;" x1="771.5" x2="818" y1="95.0234" y2="95.0234"/><text fill="#000000" font-family="sans-serif" font-size="14" lengthAdjust="spacing" textLength="92" x="818" y="100.252">Context Usage</text><line style="stroke:#181818;stroke-width:1.0;stroke-dasharray:1.0,2.0;" x1="910" x2="956.5" y1="95.0234" y2="95.0234"/><line style="stroke:#181818;stroke-width:0.5;" x1="771.5" x2="956.5" y1="125.4375" y2="125.4375"/><ellipse cx="781.5" cy="139.7422" fill="#84BE84" rx="3" ry="3" style="stroke:#038048;stroke-width:1.0;"/><text fill="#000000" font-family="sans-serif" font-size="14" lengthAdjust="spacing" textLength="161" x="790.5" y="143.9707">void handleSubmit(event)</text><ellipse cx="781.5" cy="157.3516" fill="#84BE84" rx="3" ry="3" style="stroke:#038048;stroke-width:1.0;"/><text fill="#000000" font-family="sans-serif" font-size="14" lengthAdjust="spacing" textLength="134" x="790.5" y="161.5801">JSX.Element render()</text></g><!--class TableHead--><g id="elem_TableHead"><rect codeLine="36" fill="#F1F1F1" height="104.8281" id="TableHead" rx="2.5" ry="2.5" style="stroke:#181818;stroke-width:0.5;" width="160" x="218" y="294.5"/><ellipse cx="259.55" cy="310.5" fill="#ADD1B2" rx="11" ry="11" style="stroke:#181818;stroke-width:1.0;"/><path d="M262.3156,306.375 Q262.4719,306.1563 262.6594,306.0469 Q262.8469,305.9375 263.0656,305.9375 Q263.4406,305.9375 263.675,306.2031 Q263.9094,306.4531 263.9094,307.0625 L263.9094,308.5156 Q263.9094,309.125 263.675,309.3906 Q263.4406,309.6563 263.0656,309.6563 Q262.7219,309.6563 262.5188,309.4531 Q262.3156,309.2656 262.2063,308.75 Q262.1594,308.3906 261.9719,308.2031 Q261.6438,307.8281 261.0344,307.6094 Q260.425,307.3906 259.8,307.3906 Q259.0344,307.3906 258.3938,307.7188 Q257.7688,308.0469 257.2688,308.7969 Q256.7844,309.5469 256.7844,310.5781 L256.7844,311.6719 Q256.7844,312.9063 257.675,313.7344 Q258.5656,314.5469 260.1594,314.5469 Q261.0969,314.5469 261.7531,314.2969 Q262.1438,314.1406 262.5656,313.7031 Q262.8313,313.4375 262.9719,313.3594 Q263.1281,313.2813 263.3313,313.2813 Q263.6594,313.2813 263.9094,313.5469 Q264.175,313.7969 264.175,314.1406 Q264.175,314.4844 263.8313,314.8906 Q263.3313,315.4688 262.5344,315.7969 Q261.4563,316.25 260.1594,316.25 Q258.6438,316.25 257.4406,315.625 Q256.4563,315.125 255.7688,314.0625 Q255.0813,312.9844 255.0813,311.7031 L255.0813,310.5469 Q255.0813,309.2188 255.6906,308.0781 Q256.3156,306.9219 257.4094,306.3125 Q258.5031,305.6875 259.7375,305.6875 Q260.4719,305.6875 261.1125,305.8594 Q261.7688,306.0156 262.3156,306.375 Z " fill="#000000"/><text fill="#000000" font-family="sans-serif" font-size="14" lengthAdjust="spacing" textLength="69" x="279.45" y="316.2285">TableHead</text><line style="stroke:#181818;stroke-width:0.5;" x1="219" x2="377" y1="326.5" y2="326.5"/><ellipse cx="229" cy="362.4141" fill="none" rx="3" ry="3" style="stroke:#038048;stroke-width:1.0;"/><text fill="#000000" font-family="sans-serif" font-size="14" lengthAdjust="spacing" textLength="90" x="238" y="366.6426">Array headers</text><line style="stroke:#181818;stroke-width:1.0;stroke-dasharray:1.0,2.0;" x1="219" x2="280" y1="343.3047" y2="343.3047"/><text fill="#000000" font-family="sans-serif" font-size="14" lengthAdjust="spacing" textLength="36" x="280" y="348.5332">props</text><line style="stroke:#181818;stroke-width:1.0;stroke-dasharray:1.0,2.0;" x1="316" x2="377" y1="343.3047" y2="343.3047"/><line style="stroke:#181818;stroke-width:0.5;" x1="219" x2="377" y1="373.7188" y2="373.7188"/><ellipse cx="229" cy="388.0234" fill="#84BE84" rx="3" ry="3" style="stroke:#038048;stroke-width:1.0;"/><text fill="#000000" font-family="sans-serif" font-size="14" lengthAdjust="spacing" textLength="134" x="238" y="392.252">JSX.Element render()</text></g><!--class TableBody--><g id="elem_TableBody"><rect codeLine="43" fill="#F1F1F1" height="192.875" id="TableBody" rx="2.5" ry="2.5" style="stroke:#181818;stroke-width:0.5;" width="190" x="413" y="250.5"/><ellipse cx="469.75" cy="266.5" fill="#ADD1B2" rx="11" ry="11" style="stroke:#181818;stroke-width:1.0;"/><path d="M472.5156,262.375 Q472.6719,262.1563 472.8594,262.0469 Q473.0469,261.9375 473.2656,261.9375 Q473.6406,261.9375 473.875,262.2031 Q474.1094,262.4531 474.1094,263.0625 L474.1094,264.5156 Q474.1094,265.125 473.875,265.3906 Q473.6406,265.6563 473.2656,265.6563 Q472.9219,265.6563 472.7188,265.4531 Q472.5156,265.2656 472.4063,264.75 Q472.3594,264.3906 472.1719,264.2031 Q471.8438,263.8281 471.2344,263.6094 Q470.625,263.3906 470,263.3906 Q469.2344,263.3906 468.5938,263.7188 Q467.9688,264.0469 467.4688,264.7969 Q466.9844,265.5469 466.9844,266.5781 L466.9844,267.6719 Q466.9844,268.9063 467.875,269.7344 Q468.7656,270.5469 470.3594,270.5469 Q471.2969,270.5469 471.9531,270.2969 Q472.3438,270.1406 472.7656,269.7031 Q473.0313,269.4375 473.1719,269.3594 Q473.3281,269.2813 473.5313,269.2813 Q473.8594,269.2813 474.1094,269.5469 Q474.375,269.7969 474.375,270.1406 Q474.375,270.4844 474.0313,270.8906 Q473.5313,271.4688 472.7344,271.7969 Q471.6563,272.25 470.3594,272.25 Q468.8438,272.25 467.6406,271.625 Q466.6563,271.125 465.9688,270.0625 Q465.2813,268.9844 465.2813,267.7031 L465.2813,266.5469 Q465.2813,265.2188 465.8906,264.0781 Q466.5156,262.9219 467.6094,262.3125 Q468.7031,261.6875 469.9375,261.6875 Q470.6719,261.6875 471.3125,261.8594 Q471.9688,262.0156 472.5156,262.375 Z " fill="#000000"/><text fill="#000000" font-family="sans-serif" font-size="14" lengthAdjust="spacing" textLength="68" x="490.25" y="272.2285">TableBody</text><line style="stroke:#181818;stroke-width:0.5;" x1="414" x2="602" y1="282.5" y2="282.5"/><ellipse cx="424" cy="318.4141" fill="none" rx="3" ry="3" style="stroke:#038048;stroke-width:1.0;"/><text fill="#000000" font-family="sans-serif" font-size="14" lengthAdjust="spacing" textLength="66" x="433" y="322.6426">Array data</text><ellipse cx="424" cy="336.0234" fill="none" rx="3" ry="3" style="stroke:#038048;stroke-width:1.0;"/><text fill="#000000" font-family="sans-serif" font-size="14" lengthAdjust="spacing" textLength="90" x="433" y="340.252">Array headers</text><ellipse cx="424" cy="353.6328" fill="none" rx="3" ry="3" style="stroke:#038048;stroke-width:1.0;"/><text fill="#000000" font-family="sans-serif" font-size="14" lengthAdjust="spacing" textLength="94" x="433" y="357.8613">function onEdit</text><ellipse cx="424" cy="371.2422" fill="none" rx="3" ry="3" style="stroke:#038048;stroke-width:1.0;"/><text fill="#000000" font-family="sans-serif" font-size="14" lengthAdjust="spacing" textLength="111" x="433" y="375.4707">function onDelete</text><ellipse cx="424" cy="388.8516" fill="none" rx="3" ry="3" style="stroke:#038048;stroke-width:1.0;"/><text fill="#000000" font-family="sans-serif" font-size="14" lengthAdjust="spacing" textLength="164" x="433" y="393.0801">function onToggleVisibility</text><ellipse cx="424" cy="406.4609" fill="none" rx="3" ry="3" style="stroke:#038048;stroke-width:1.0;"/><text fill="#000000" font-family="sans-serif" font-size="14" lengthAdjust="spacing" textLength="109" x="433" y="410.6895">function onSelect</text><line style="stroke:#181818;stroke-width:1.0;stroke-dasharray:1.0,2.0;" x1="414" x2="490" y1="299.3047" y2="299.3047"/><text fill="#000000" font-family="sans-serif" font-size="14" lengthAdjust="spacing" textLength="36" x="490" y="304.5332">props</text><line style="stroke:#181818;stroke-width:1.0;stroke-dasharray:1.0,2.0;" x1="526" x2="602" y1="299.3047" y2="299.3047"/><line style="stroke:#181818;stroke-width:0.5;" x1="414" x2="602" y1="417.7656" y2="417.7656"/><ellipse cx="424" cy="432.0703" fill="#84BE84" rx="3" ry="3" style="stroke:#038048;stroke-width:1.0;"/><text fill="#000000" font-family="sans-serif" font-size="14" lengthAdjust="spacing" textLength="134" x="433" y="436.2988">JSX.Element render()</text></g><g id="elem_GMN10"><path d="M413,58.5 L413,84 L378.05,88 L413,92 L413,117.5547 A0,0 0 0 0 413,117.5547 L735,117.5547 A0,0 0 0 0 735,117.5547 L735,68.5 L725,58.5 L413,58.5 A0,0 0 0 0 413,58.5 " fill="#FEFFDD" style="stroke:#181818;stroke-width:0.5;"/><path d="M725,58.5 L725,68.5 L735,68.5 L725,58.5 " fill="#FEFFDD" style="stroke:#181818;stroke-width:0.5;"/><text fill="#000000" font-family="sans-serif" font-size="13" lengthAdjust="spacing" textLength="215" x="419" y="76.9951">Lecser&#233;li a r&#233;gi Courses komponenst</text><text fill="#000000" font-family="sans-serif" font-size="13" lengthAdjust="spacing" textLength="301" x="419" y="93.3467">&#218;jrafelhaszn&#225;lhat&#243; t&#225;bl&#225;zat komponenseket haszn&#225;l</text><text fill="#000000" font-family="sans-serif" font-size="13" lengthAdjust="spacing" textLength="130" x="419" y="109.6982">Context API integr&#225;ci&#243;</text></g><g id="elem_GMN13"><path d="M992.5,66.5 L992.5,84 L957.6,88 L992.5,92 L992.5,109.2031 A0,0 0 0 0 992.5,109.2031 L1185.5,109.2031 A0,0 0 0 0 1185.5,109.2031 L1185.5,76.5 L1175.5,66.5 L992.5,66.5 A0,0 0 0 0 992.5,66.5 " fill="#FEFFDD" style="stroke:#181818;stroke-width:0.5;"/><path d="M1175.5,66.5 L1175.5,76.5 L1185.5,76.5 L1175.5,66.5 " fill="#FEFFDD" style="stroke:#181818;stroke-width:0.5;"/><text fill="#000000" font-family="sans-serif" font-size="13" lengthAdjust="spacing" textLength="172" x="998.5" y="84.9951">&#368;rlap komponens &#250;j kurzusok</text><text fill="#000000" font-family="sans-serif" font-size="13" lengthAdjust="spacing" textLength="170" x="998.5" y="101.3467">hozz&#225;ad&#225;s&#225;hoz a t&#225;rgyakhoz</text></g><!--reverse link CourseTable to TableHead--><g id="link_CourseTable_TableHead"><path codeLine="55" d="M298,181.26 C298,222.06 298,258.44 298,294.26 " fill="none" id="CourseTable-backto-TableHead" style="stroke:#181818;stroke-width:1.0;"/><polygon fill="none" points="298,169.26,294,175.26,298,181.26,302,175.26,298,169.26" style="stroke:#181818;stroke-width:1.0;"/></g><!--reverse link CourseTable to TableBody--><g id="link_CourseTable_TableBody"><path codeLine="56" d="M371.1723,178.5528 C392.1123,204.1828 407.91,223.51 429.66,250.13 " fill="none" id="CourseTable-backto-TableBody" style="stroke:#181818;stroke-width:1.0;"/><polygon fill="none" points="363.58,169.26,364.2786,176.4372,371.1723,178.5528,370.4738,171.3756,363.58,169.26" style="stroke:#181818;stroke-width:1.0;"/></g><!--reverse link CourseTable to CourseModal--><g id="link_CourseTable_CourseModal"><path codeLine="57" d="M227.164,178.6784 C210.884,199.2984 200.5,212.44 183.21,234.33 " fill="none" id="CourseTable-backto-CourseModal" style="stroke:#181818;stroke-width:1.0;"/><polygon fill="none" points="234.6,169.26,227.7425,171.4905,227.164,178.6784,234.0214,176.4479,234.6,169.26" style="stroke:#181818;stroke-width:1.0;"/><text fill="#000000" font-family="sans-serif" font-size="13" lengthAdjust="spacing" textLength="32" x="190.8629" y="222.9729">many</text></g><!--SRC=[hLF1Yjim4BtxAuOz9OJDFwJRXMvfeU1jwMsHhOcjM9Q2D0grIt-aDnzxA-ojLz7_wiHni4iIbfJw8alpzEQzuIdNmdkuiy5vV1IPHlYQ07_B9MoTtNh-wVSBI4EsmPp07zOZwiuQmYy47xqeS4G7fbCrqfvoDeVIscgif4YaJE6dXQUdeVus_RoyrrYZ8N1e9BhPFFcM9Fb4wNihXRvAwG8yEUu9UK_m8F-tVgRARRqDX79aEQWTUlvjSsULX58OgJ4LEvpXZWtFhvZ1IlBnnHcOK6TS7aRmptRFoWrPhUWQmNsmtg2G5-Mkd1CDb0n1vw_9Gq_zoihc1MefI5pijO1rC3afQy2QUwdezFGrQYGyFN-qHQ7na_8gKrfHSuf8-UOGmXSzJT-XlRqT1tU-ilTzKhcfXMbkfWybIOmb1AUAai2kfw-zr_CESuyk_j0A1F1Qg07YeU98MuF67mp4xnidrgXBuLiJErufFWF5BjEnQmMDUAoGu0ZhxnwJj_hm08f_2nUxNCNdXFt3Nk1vcNtCUuBVFvqMsx45n5yRg89hWn_IMjgsZPsGiVEnumtROMskQ4J5kx7H7m00]--></g></svg>