<?xml version="1.0" encoding="us-ascii" standalone="no"?><svg xmlns="http://www.w3.org/2000/svg" xmlns:xlink="http://www.w3.org/1999/xlink" contentStyleType="text/css" height="511px" preserveAspectRatio="none" style="width:588px;height:511px;background:#FFFFFF;" version="1.1" viewBox="0 0 588 511" width="588px" zoomAndPan="magnify"><defs/><g><rect fill="#F1F1F1" height="108.0469" rx="5" ry="5" style="stroke:#F1F1F1;stroke-width:1.5;" width="164" x="10" y="273.2188"/><text fill="#000000" font-family="sans-serif" font-size="14" font-weight="bold" lengthAdjust="spacing" textLength="13" x="15" y="289.752">id</text><text fill="#000000" font-family="sans-serif" font-size="14" lengthAdjust="spacing" textLength="8" x="82" y="289.752">1</text><line style="stroke:#000000;stroke-width:1.0;" x1="77" x2="77" y1="273.2188" y2="294.8281"/><line style="stroke:#000000;stroke-width:1.0;" x1="10" x2="174" y1="294.8281" y2="294.8281"/><text fill="#000000" font-family="sans-serif" font-size="14" font-weight="bold" lengthAdjust="spacing" textLength="35" x="15" y="311.3613">code</text><text fill="#000000" font-family="sans-serif" font-size="14" lengthAdjust="spacing" textLength="87" x="82" y="311.3613">IP-1234ABCD</text><line style="stroke:#000000;stroke-width:1.0;" x1="77" x2="77" y1="294.8281" y2="316.4375"/><line style="stroke:#000000;stroke-width:1.0;" x1="10" x2="174" y1="316.4375" y2="316.4375"/><text fill="#000000" font-family="sans-serif" font-size="14" font-weight="bold" lengthAdjust="spacing" textLength="38" x="15" y="332.9707">name</text><text fill="#000000" font-family="sans-serif" font-size="14" lengthAdjust="spacing" textLength="81" x="82" y="332.9707">Teszt t&#225;rgy I.</text><line style="stroke:#000000;stroke-width:1.0;" x1="77" x2="77" y1="316.4375" y2="338.0469"/><line style="stroke:#000000;stroke-width:1.0;" x1="10" x2="174" y1="338.0469" y2="338.0469"/><text fill="#000000" font-family="sans-serif" font-size="14" font-weight="bold" lengthAdjust="spacing" textLength="57" x="15" y="354.5801">courses</text><text fill="#000000" font-family="sans-serif" font-size="14" lengthAdjust="spacing" textLength="12" x="82" y="354.5801">&#160;&#160;&#160;</text><line style="stroke:#000000;stroke-width:1.0;" x1="77" x2="77" y1="338.0469" y2="359.6563"/><line style="stroke:#000000;stroke-width:1.0;" x1="10" x2="174" y1="359.6563" y2="359.6563"/><text fill="#000000" font-family="sans-serif" font-size="14" font-weight="bold" lengthAdjust="spacing" textLength="43" x="15" y="376.1895">status</text><text fill="#000000" font-family="sans-serif" font-size="14" lengthAdjust="spacing" textLength="12" x="82" y="376.1895">&#160;&#160;&#160;</text><line style="stroke:#000000;stroke-width:1.0;" x1="77" x2="77" y1="359.6563" y2="381.2656"/><rect fill="none" height="108.0469" rx="5" ry="5" style="stroke:#000000;stroke-width:1.5;" width="164" x="10" y="273.2188"/><rect fill="#F1F1F1" height="43.2188" rx="5" ry="5" style="stroke:#F1F1F1;stroke-width:1.5;" width="22" x="269.5" y="286.6328"/><text fill="#000000" font-family="sans-serif" font-size="14" lengthAdjust="spacing" textLength="12" x="274.5" y="303.166">&#160;&#160;&#160;</text><line style="stroke:#000000;stroke-width:1.0;" x1="269.5" x2="291.5" y1="308.2422" y2="308.2422"/><text fill="#000000" font-family="sans-serif" font-size="14" lengthAdjust="spacing" textLength="12" x="274.5" y="324.7754">&#160;&#160;&#160;</text><rect fill="none" height="43.2188" rx="5" ry="5" style="stroke:#000000;stroke-width:1.5;" width="22" x="269.5" y="286.6328"/><rect fill="#F1F1F1" height="194.4844" rx="5" ry="5" style="stroke:#F1F1F1;stroke-width:1.5;" width="189" x="387" y="10"/><text fill="#000000" font-family="sans-serif" font-size="14" font-weight="bold" lengthAdjust="spacing" textLength="13" x="392" y="26.5332">id</text><text fill="#000000" font-family="sans-serif" font-size="14" lengthAdjust="spacing" textLength="8" x="471" y="26.5332">1</text><line style="stroke:#000000;stroke-width:1.0;" x1="466" x2="466" y1="10" y2="31.6094"/><line style="stroke:#000000;stroke-width:1.0;" x1="387" x2="576" y1="31.6094" y2="31.6094"/><text fill="#000000" font-family="sans-serif" font-size="14" font-weight="bold" lengthAdjust="spacing" textLength="49" x="392" y="48.1426">course</text><text fill="#000000" font-family="sans-serif" font-size="14" lengthAdjust="spacing" textLength="16" x="471" y="48.1426">90</text><line style="stroke:#000000;stroke-width:1.0;" x1="466" x2="466" y1="31.6094" y2="53.2188"/><line style="stroke:#000000;stroke-width:1.0;" x1="387" x2="576" y1="53.2188" y2="53.2188"/><text fill="#000000" font-family="sans-serif" font-size="14" font-weight="bold" lengthAdjust="spacing" textLength="30" x="392" y="69.752">type</text><text fill="#000000" font-family="sans-serif" font-size="14" lengthAdjust="spacing" textLength="51" x="471" y="69.752">El&#337;ad&#225;s</text><line style="stroke:#000000;stroke-width:1.0;" x1="466" x2="466" y1="53.2188" y2="74.8281"/><line style="stroke:#000000;stroke-width:1.0;" x1="387" x2="576" y1="74.8281" y2="74.8281"/><text fill="#000000" font-family="sans-serif" font-size="14" font-weight="bold" lengthAdjust="spacing" textLength="69" x="392" y="91.3613">instructor</text><text fill="#000000" font-family="sans-serif" font-size="14" lengthAdjust="spacing" textLength="68" x="471" y="91.3613">P&#233;lda B&#233;la</text><line style="stroke:#000000;stroke-width:1.0;" x1="466" x2="466" y1="74.8281" y2="96.4375"/><line style="stroke:#000000;stroke-width:1.0;" x1="387" x2="576" y1="96.4375" y2="96.4375"/><text fill="#000000" font-family="sans-serif" font-size="14" font-weight="bold" lengthAdjust="spacing" textLength="24" x="392" y="112.9707">day</text><text fill="#000000" font-family="sans-serif" font-size="14" lengthAdjust="spacing" textLength="44" x="471" y="112.9707">P&#233;ntek</text><line style="stroke:#000000;stroke-width:1.0;" x1="466" x2="466" y1="96.4375" y2="118.0469"/><line style="stroke:#000000;stroke-width:1.0;" x1="387" x2="576" y1="118.0469" y2="118.0469"/><text fill="#000000" font-family="sans-serif" font-size="14" font-weight="bold" lengthAdjust="spacing" textLength="65" x="392" y="134.5801">startTime</text><text fill="#000000" font-family="sans-serif" font-size="14" lengthAdjust="spacing" textLength="36" x="471" y="134.5801">12:00</text><line style="stroke:#000000;stroke-width:1.0;" x1="466" x2="466" y1="118.0469" y2="139.6563"/><line style="stroke:#000000;stroke-width:1.0;" x1="387" x2="576" y1="139.6563" y2="139.6563"/><text fill="#000000" font-family="sans-serif" font-size="14" font-weight="bold" lengthAdjust="spacing" textLength="60" x="392" y="156.1895">endTime</text><text fill="#000000" font-family="sans-serif" font-size="14" lengthAdjust="spacing" textLength="36" x="471" y="156.1895">14:00</text><line style="stroke:#000000;stroke-width:1.0;" x1="466" x2="466" y1="139.6563" y2="161.2656"/><line style="stroke:#000000;stroke-width:1.0;" x1="387" x2="576" y1="161.2656" y2="161.2656"/><text fill="#000000" font-family="sans-serif" font-size="14" font-weight="bold" lengthAdjust="spacing" textLength="40" x="392" y="177.7988">notes</text><text fill="#000000" font-family="sans-serif" font-size="14" lengthAdjust="spacing" textLength="100" x="471" y="177.7988">Erasmus kurzus</text><line style="stroke:#000000;stroke-width:1.0;" x1="466" x2="466" y1="161.2656" y2="182.875"/><line style="stroke:#000000;stroke-width:1.0;" x1="387" x2="576" y1="182.875" y2="182.875"/><text fill="#000000" font-family="sans-serif" font-size="14" font-weight="bold" lengthAdjust="spacing" textLength="37" x="392" y="199.4082">show</text><text fill="#000000" font-family="sans-serif" font-size="14" lengthAdjust="spacing" textLength="46" x="471" y="199.4082">&#9744; false</text><line style="stroke:#000000;stroke-width:1.0;" x1="466" x2="466" y1="182.875" y2="204.4844"/><rect fill="none" height="194.4844" rx="5" ry="5" style="stroke:#000000;stroke-width:1.5;" width="189" x="387" y="10"/><rect fill="#F1F1F1" height="194.4844" rx="5" ry="5" style="stroke:#F1F1F1;stroke-width:1.5;" width="150" x="406.5" y="222"/><text fill="#000000" font-family="sans-serif" font-size="14" font-weight="bold" lengthAdjust="spacing" textLength="13" x="411.5" y="238.5332">id</text><text fill="#000000" font-family="sans-serif" font-size="14" lengthAdjust="spacing" textLength="8" x="490.5" y="238.5332">2</text><line style="stroke:#000000;stroke-width:1.0;" x1="485.5" x2="485.5" y1="222" y2="243.6094"/><line style="stroke:#000000;stroke-width:1.0;" x1="406.5" x2="556.5" y1="243.6094" y2="243.6094"/><text fill="#000000" font-family="sans-serif" font-size="14" font-weight="bold" lengthAdjust="spacing" textLength="49" x="411.5" y="260.1426">course</text><text fill="#000000" font-family="sans-serif" font-size="14" lengthAdjust="spacing" textLength="8" x="490.5" y="260.1426">1</text><line style="stroke:#000000;stroke-width:1.0;" x1="485.5" x2="485.5" y1="243.6094" y2="265.2188"/><line style="stroke:#000000;stroke-width:1.0;" x1="406.5" x2="556.5" y1="265.2188" y2="265.2188"/><text fill="#000000" font-family="sans-serif" font-size="14" font-weight="bold" lengthAdjust="spacing" textLength="30" x="411.5" y="281.752">type</text><text fill="#000000" font-family="sans-serif" font-size="14" lengthAdjust="spacing" textLength="61" x="490.5" y="281.752">Gyakorlat</text><line style="stroke:#000000;stroke-width:1.0;" x1="485.5" x2="485.5" y1="265.2188" y2="286.8281"/><line style="stroke:#000000;stroke-width:1.0;" x1="406.5" x2="556.5" y1="286.8281" y2="286.8281"/><text fill="#000000" font-family="sans-serif" font-size="14" font-weight="bold" lengthAdjust="spacing" textLength="69" x="411.5" y="303.3613">instructor</text><text fill="#000000" font-family="sans-serif" font-size="14" lengthAdjust="spacing" textLength="59" x="490.5" y="303.3613">Teszt Dia</text><line style="stroke:#000000;stroke-width:1.0;" x1="485.5" x2="485.5" y1="286.8281" y2="308.4375"/><line style="stroke:#000000;stroke-width:1.0;" x1="406.5" x2="556.5" y1="308.4375" y2="308.4375"/><text fill="#000000" font-family="sans-serif" font-size="14" font-weight="bold" lengthAdjust="spacing" textLength="24" x="411.5" y="324.9707">day</text><text fill="#000000" font-family="sans-serif" font-size="14" lengthAdjust="spacing" textLength="44" x="490.5" y="324.9707">Szerda</text><line style="stroke:#000000;stroke-width:1.0;" x1="485.5" x2="485.5" y1="308.4375" y2="330.0469"/><line style="stroke:#000000;stroke-width:1.0;" x1="406.5" x2="556.5" y1="330.0469" y2="330.0469"/><text fill="#000000" font-family="sans-serif" font-size="14" font-weight="bold" lengthAdjust="spacing" textLength="65" x="411.5" y="346.5801">startTime</text><text fill="#000000" font-family="sans-serif" font-size="14" lengthAdjust="spacing" textLength="36" x="490.5" y="346.5801">10:00</text><line style="stroke:#000000;stroke-width:1.0;" x1="485.5" x2="485.5" y1="330.0469" y2="351.6563"/><line style="stroke:#000000;stroke-width:1.0;" x1="406.5" x2="556.5" y1="351.6563" y2="351.6563"/><text fill="#000000" font-family="sans-serif" font-size="14" font-weight="bold" lengthAdjust="spacing" textLength="60" x="411.5" y="368.1895">endTime</text><text fill="#000000" font-family="sans-serif" font-size="14" lengthAdjust="spacing" textLength="36" x="490.5" y="368.1895">12:00</text><line style="stroke:#000000;stroke-width:1.0;" x1="485.5" x2="485.5" y1="351.6563" y2="373.2656"/><line style="stroke:#000000;stroke-width:1.0;" x1="406.5" x2="556.5" y1="373.2656" y2="373.2656"/><text fill="#000000" font-family="sans-serif" font-size="14" font-weight="bold" lengthAdjust="spacing" textLength="40" x="411.5" y="389.7988">notes</text><text fill="#000000" font-family="sans-serif" font-size="14" lengthAdjust="spacing" textLength="4" x="490.5" y="389.7988">&#160;</text><line style="stroke:#000000;stroke-width:1.0;" x1="485.5" x2="485.5" y1="373.2656" y2="394.875"/><line style="stroke:#000000;stroke-width:1.0;" x1="406.5" x2="556.5" y1="394.875" y2="394.875"/><text fill="#000000" font-family="sans-serif" font-size="14" font-weight="bold" lengthAdjust="spacing" textLength="37" x="411.5" y="411.4082">show</text><text fill="#000000" font-family="sans-serif" font-size="14" lengthAdjust="spacing" textLength="41" x="490.5" y="411.4082">&#9745; true</text><line style="stroke:#000000;stroke-width:1.0;" x1="485.5" x2="485.5" y1="394.875" y2="416.4844"/><rect fill="none" height="194.4844" rx="5" ry="5" style="stroke:#000000;stroke-width:1.5;" width="150" x="406.5" y="222"/><rect fill="#F1F1F1" height="64.8281" rx="5" ry="5" style="stroke:#F1F1F1;stroke-width:1.5;" width="139" x="211" y="379.7422"/><text fill="#000000" font-family="sans-serif" font-size="14" font-weight="bold" lengthAdjust="spacing" textLength="36" x="216" y="396.2754">color</text><text fill="#000000" font-family="sans-serif" font-size="14" lengthAdjust="spacing" textLength="58" x="287" y="396.2754">#0E2F90</text><line style="stroke:#000000;stroke-width:1.0;" x1="282" x2="282" y1="379.7422" y2="401.3516"/><line style="stroke:#000000;stroke-width:1.0;" x1="211" x2="350" y1="401.3516" y2="401.3516"/><text fill="#000000" font-family="sans-serif" font-size="14" font-weight="bold" lengthAdjust="spacing" textLength="37" x="216" y="417.8848">show</text><text fill="#000000" font-family="sans-serif" font-size="14" lengthAdjust="spacing" textLength="41" x="287" y="417.8848">&#9745; true</text><line style="stroke:#000000;stroke-width:1.0;" x1="282" x2="282" y1="401.3516" y2="422.9609"/><line style="stroke:#000000;stroke-width:1.0;" x1="211" x2="350" y1="422.9609" y2="422.9609"/><text fill="#000000" font-family="sans-serif" font-size="14" font-weight="bold" lengthAdjust="spacing" textLength="61" x="216" y="439.4941">choosen</text><text fill="#000000" font-family="sans-serif" font-size="14" lengthAdjust="spacing" textLength="12" x="287" y="439.4941">&#160;&#160;&#160;</text><line style="stroke:#000000;stroke-width:1.0;" x1="282" x2="282" y1="422.9609" y2="444.5703"/><rect fill="none" height="64.8281" rx="5" ry="5" style="stroke:#000000;stroke-width:1.5;" width="139" x="211" y="379.7422"/><rect fill="#F1F1F1" height="64.8281" rx="5" ry="5" style="stroke:#F1F1F1;stroke-width:1.5;" width="94" x="434.5" y="434.7422"/><text fill="#000000" font-family="sans-serif" font-size="14" font-weight="bold" lengthAdjust="spacing" textLength="66" x="439.5" y="451.2754">Gyakorlat</text><text fill="#000000" font-family="sans-serif" font-size="14" lengthAdjust="spacing" textLength="8" x="515.5" y="451.2754">1</text><line style="stroke:#000000;stroke-width:1.0;" x1="510.5" x2="510.5" y1="434.7422" y2="456.3516"/><line style="stroke:#000000;stroke-width:1.0;" x1="434.5" x2="528.5" y1="456.3516" y2="456.3516"/><text fill="#000000" font-family="sans-serif" font-size="14" font-weight="bold" lengthAdjust="spacing" textLength="55" x="439.5" y="472.8848">El&#337;ad&#225;s</text><text fill="#000000" font-family="sans-serif" font-size="14" lengthAdjust="spacing" textLength="8" x="515.5" y="472.8848">0</text><line style="stroke:#000000;stroke-width:1.0;" x1="510.5" x2="510.5" y1="456.3516" y2="477.9609"/><line style="stroke:#000000;stroke-width:1.0;" x1="434.5" x2="528.5" y1="477.9609" y2="477.9609"/><text fill="#000000" font-family="sans-serif" font-size="14" font-weight="bold" lengthAdjust="spacing" textLength="43" x="439.5" y="494.4941">Egy&#233;b</text><text fill="#000000" font-family="sans-serif" font-size="14" lengthAdjust="spacing" textLength="8" x="515.5" y="494.4941">0</text><line style="stroke:#000000;stroke-width:1.0;" x1="510.5" x2="510.5" y1="477.9609" y2="499.5703"/><rect fill="none" height="64.8281" rx="5" ry="5" style="stroke:#000000;stroke-width:1.5;" width="94" x="434.5" y="434.7422"/><path d="M280,297.2422 L293,297.2422 C300.0093,297.2422 342.289,254.9091 384.9804,210.2073 " fill="none" style="stroke:#000000;stroke-width:1.0;stroke-dasharray:3.0,3.0;"/><path d="M387.1646,212.2897 L386.5422,208.5692 L382.7962,208.1249 L390.1864,204.7468 L387.1646,212.2897 " fill="#000000" style="stroke:#000000;stroke-width:1.0;"/><ellipse cx="280" cy="297.2422" fill="#000000" rx="3" ry="3" style="stroke:#000000;stroke-width:1.0;"/><path d="M280,319.2422 L293,319.2422 C327.7489,319.2422 366.1107,319.2422 399.0703,319.2422 " fill="none" style="stroke:#000000;stroke-width:1.0;stroke-dasharray:3.0,3.0;"/><path d="M399.0703,322.3695 L401.4158,319.2422 L399.0703,316.1149 L406.8885,319.2422 L399.0703,322.3695 " fill="#000000" style="stroke:#000000;stroke-width:1.0;"/><ellipse cx="280" cy="319.2422" fill="#000000" rx="3" ry="3" style="stroke:#000000;stroke-width:1.0;"/><path d="M162,349.2422 L175,349.2422 C208.0856,349.2422 243.2663,331.3601 263.3446,319.2151 " fill="none" style="stroke:#000000;stroke-width:1.0;stroke-dasharray:3.0,3.0;"/><path d="M264.9518,321.7927 L265.2778,318.0098 L261.7375,316.6376 L269.7886,315.1973 L264.9518,321.7927 " fill="#000000" style="stroke:#000000;stroke-width:1.0;"/><ellipse cx="162" cy="349.2422" fill="#000000" rx="3" ry="3" style="stroke:#000000;stroke-width:1.0;"/><path d="M338,434.2422 L351,434.2422 C376.6338,434.2422 404.2609,440.3445 427.4268,447.301 " fill="none" style="stroke:#000000;stroke-width:1.0;stroke-dasharray:3.0,3.0;"/><path d="M426.5141,450.2435 L429.6338,447.9855 L428.3396,444.3584 L434.7833,449.5829 L426.5141,450.2435 " fill="#000000" style="stroke:#000000;stroke-width:1.0;"/><ellipse cx="338" cy="434.2422" fill="#000000" rx="3" ry="3" style="stroke:#000000;stroke-width:1.0;"/><path d="M162,370.2422 L175,370.2422 C187.8837,370.2422 201.0615,373.0019 213.5361,377.1064 " fill="none" style="stroke:#000000;stroke-width:1.0;stroke-dasharray:3.0,3.0;"/><path d="M212.5116,380.0088 L215.7129,377.8748 L214.5607,374.204 L220.7922,379.6678 L212.5116,380.0088 " fill="#000000" style="stroke:#000000;stroke-width:1.0;"/><ellipse cx="162" cy="370.2422" fill="#000000" rx="3" ry="3" style="stroke:#000000;stroke-width:1.0;"/><!--SRC=[TPFDRk8m4CVlVefHzW9IGKcQhhOvTO7G3u64bj1BjGUJk24bs9K_M8MAX-WZzDZdGFjUdIGqeQ9SdCpyn-FvZSTNIbEfdvJWeCpyYKLQaHS2OAMnvODpLln68cPeMBUJZkEUUxzx_O5L2fokIY5aQgD1xzvaaiDjrzhlCb8nXVe3cW0lvVebSsbMSUYwj6kVpf_Bn47s_vN6kpTbrLBAbPOcqa8M0PFTUnPJwE67DZ4npVSYrspP-4lMCAsATbpVjXkDyRXMl2yA5xh4i099rSeeM1gvCGSbgONuX_eZpHGhVTkpRuZTOsBd2FWwfqiXCwfF0LUj7gJ7jDCDap4z1MkVX7M_Xpt2moBsTBZ-BQyOZz2cYAv84IohglnX1-xmyZFjOOQz9re8eHYljy8X-c5ZcWdmePcF8Cbtx_F2LLUq9LjoXLp5A1CooIZNi_48raog58VRwRgswtNFM-72m93DmRa0r_OzxCi5z8CG2hbDMjUJqTe5XJSKCOXJR7qwDnepjCaTNLFuOxZ6plbGMArmt8PfyEc4WAzJAVYASKtkxiTL4Dm8FNqMkWp-wNLwgOOfarWOt8_9W3rIasdSYgyivOaFit3O-KL6b2U69dZGmf2-m0DaxiFDx0C0]--></g></svg>