<?xml version="1.0" encoding="us-ascii" standalone="no"?><svg xmlns="http://www.w3.org/2000/svg" xmlns:xlink="http://www.w3.org/1999/xlink" contentStyleType="text/css" height="555px" preserveAspectRatio="none" style="width:579px;height:555px;background:#FFFFFF;" version="1.1" viewBox="0 0 579 555" width="579px" zoomAndPan="magnify"><defs/><g><rect fill="#F1F1F1" height="108.0469" rx="5" ry="5" style="stroke:#F1F1F1;stroke-width:1.5;" width="164" x="10" y="309.0234"/><text fill="#000000" font-family="sans-serif" font-size="14" font-weight="bold" lengthAdjust="spacing" textLength="13" x="15" y="325.5566">id</text><text fill="#000000" font-family="sans-serif" font-size="14" lengthAdjust="spacing" textLength="8" x="82" y="325.5566">1</text><line style="stroke:#000000;stroke-width:1.0;" x1="77" x2="77" y1="309.0234" y2="330.6328"/><line style="stroke:#000000;stroke-width:1.0;" x1="10" x2="174" y1="330.6328" y2="330.6328"/><text fill="#000000" font-family="sans-serif" font-size="14" font-weight="bold" lengthAdjust="spacing" textLength="35" x="15" y="347.166">code</text><text fill="#000000" font-family="sans-serif" font-size="14" lengthAdjust="spacing" textLength="87" x="82" y="347.166">IP-1234ABCD</text><line style="stroke:#000000;stroke-width:1.0;" x1="77" x2="77" y1="330.6328" y2="352.2422"/><line style="stroke:#000000;stroke-width:1.0;" x1="10" x2="174" y1="352.2422" y2="352.2422"/><text fill="#000000" font-family="sans-serif" font-size="14" font-weight="bold" lengthAdjust="spacing" textLength="38" x="15" y="368.7754">name</text><text fill="#000000" font-family="sans-serif" font-size="14" lengthAdjust="spacing" textLength="81" x="82" y="368.7754">Teszt t&#225;rgy I.</text><line style="stroke:#000000;stroke-width:1.0;" x1="77" x2="77" y1="352.2422" y2="373.8516"/><line style="stroke:#000000;stroke-width:1.0;" x1="10" x2="174" y1="373.8516" y2="373.8516"/><text fill="#000000" font-family="sans-serif" font-size="14" font-weight="bold" lengthAdjust="spacing" textLength="57" x="15" y="390.3848">courses</text><text fill="#000000" font-family="sans-serif" font-size="14" lengthAdjust="spacing" textLength="12" x="82" y="390.3848">&#160;&#160;&#160;</text><line style="stroke:#000000;stroke-width:1.0;" x1="77" x2="77" y1="373.8516" y2="395.4609"/><line style="stroke:#000000;stroke-width:1.0;" x1="10" x2="174" y1="395.4609" y2="395.4609"/><text fill="#000000" font-family="sans-serif" font-size="14" font-weight="bold" lengthAdjust="spacing" textLength="43" x="15" y="411.9941">status</text><text fill="#000000" font-family="sans-serif" font-size="14" lengthAdjust="spacing" textLength="12" x="82" y="411.9941">&#160;&#160;&#160;</text><line style="stroke:#000000;stroke-width:1.0;" x1="77" x2="77" y1="395.4609" y2="417.0703"/><rect fill="none" height="108.0469" rx="5" ry="5" style="stroke:#000000;stroke-width:1.5;" width="164" x="10" y="309.0234"/><rect fill="#F1F1F1" height="43.2188" rx="5" ry="5" style="stroke:#F1F1F1;stroke-width:1.5;" width="22" x="265" y="319.4375"/><text fill="#000000" font-family="sans-serif" font-size="14" lengthAdjust="spacing" textLength="12" x="270" y="335.9707">&#160;&#160;&#160;</text><line style="stroke:#000000;stroke-width:1.0;" x1="265" x2="287" y1="341.0469" y2="341.0469"/><text fill="#000000" font-family="sans-serif" font-size="14" lengthAdjust="spacing" textLength="12" x="270" y="357.5801">&#160;&#160;&#160;</text><rect fill="none" height="43.2188" rx="5" ry="5" style="stroke:#000000;stroke-width:1.5;" width="22" x="265" y="319.4375"/><rect fill="#F1F1F1" height="216.0938" rx="5" ry="5" style="stroke:#F1F1F1;stroke-width:1.5;" width="189" x="378" y="10"/><text fill="#000000" font-family="sans-serif" font-size="14" font-weight="bold" lengthAdjust="spacing" textLength="13" x="383" y="26.5332">id</text><text fill="#000000" font-family="sans-serif" font-size="14" lengthAdjust="spacing" textLength="8" x="462" y="26.5332">1</text><line style="stroke:#000000;stroke-width:1.0;" x1="457" x2="457" y1="10" y2="31.6094"/><line style="stroke:#000000;stroke-width:1.0;" x1="378" x2="567" y1="31.6094" y2="31.6094"/><text fill="#000000" font-family="sans-serif" font-size="14" font-weight="bold" lengthAdjust="spacing" textLength="49" x="383" y="48.1426">course</text><text fill="#000000" font-family="sans-serif" font-size="14" lengthAdjust="spacing" textLength="16" x="462" y="48.1426">90</text><line style="stroke:#000000;stroke-width:1.0;" x1="457" x2="457" y1="31.6094" y2="53.2188"/><line style="stroke:#000000;stroke-width:1.0;" x1="378" x2="567" y1="53.2188" y2="53.2188"/><text fill="#000000" font-family="sans-serif" font-size="14" font-weight="bold" lengthAdjust="spacing" textLength="30" x="383" y="69.752">type</text><text fill="#000000" font-family="sans-serif" font-size="14" lengthAdjust="spacing" textLength="51" x="462" y="69.752">El&#337;ad&#225;s</text><line style="stroke:#000000;stroke-width:1.0;" x1="457" x2="457" y1="53.2188" y2="74.8281"/><line style="stroke:#000000;stroke-width:1.0;" x1="378" x2="567" y1="74.8281" y2="74.8281"/><text fill="#000000" font-family="sans-serif" font-size="14" font-weight="bold" lengthAdjust="spacing" textLength="69" x="383" y="91.3613">instructor</text><text fill="#000000" font-family="sans-serif" font-size="14" lengthAdjust="spacing" textLength="68" x="462" y="91.3613">P&#233;lda B&#233;la</text><line style="stroke:#000000;stroke-width:1.0;" x1="457" x2="457" y1="74.8281" y2="96.4375"/><line style="stroke:#000000;stroke-width:1.0;" x1="378" x2="567" y1="96.4375" y2="96.4375"/><text fill="#000000" font-family="sans-serif" font-size="14" font-weight="bold" lengthAdjust="spacing" textLength="56" x="383" y="112.9707">location</text><text fill="#000000" font-family="sans-serif" font-size="14" lengthAdjust="spacing" textLength="37" x="462" y="112.9707">2-123</text><line style="stroke:#000000;stroke-width:1.0;" x1="457" x2="457" y1="96.4375" y2="118.0469"/><line style="stroke:#000000;stroke-width:1.0;" x1="378" x2="567" y1="118.0469" y2="118.0469"/><text fill="#000000" font-family="sans-serif" font-size="14" font-weight="bold" lengthAdjust="spacing" textLength="24" x="383" y="134.5801">day</text><text fill="#000000" font-family="sans-serif" font-size="14" lengthAdjust="spacing" textLength="44" x="462" y="134.5801">P&#233;ntek</text><line style="stroke:#000000;stroke-width:1.0;" x1="457" x2="457" y1="118.0469" y2="139.6563"/><line style="stroke:#000000;stroke-width:1.0;" x1="378" x2="567" y1="139.6563" y2="139.6563"/><text fill="#000000" font-family="sans-serif" font-size="14" font-weight="bold" lengthAdjust="spacing" textLength="65" x="383" y="156.1895">startTime</text><text fill="#000000" font-family="sans-serif" font-size="14" lengthAdjust="spacing" textLength="36" x="462" y="156.1895">12:00</text><line style="stroke:#000000;stroke-width:1.0;" x1="457" x2="457" y1="139.6563" y2="161.2656"/><line style="stroke:#000000;stroke-width:1.0;" x1="378" x2="567" y1="161.2656" y2="161.2656"/><text fill="#000000" font-family="sans-serif" font-size="14" font-weight="bold" lengthAdjust="spacing" textLength="60" x="383" y="177.7988">endTime</text><text fill="#000000" font-family="sans-serif" font-size="14" lengthAdjust="spacing" textLength="36" x="462" y="177.7988">14:00</text><line style="stroke:#000000;stroke-width:1.0;" x1="457" x2="457" y1="161.2656" y2="182.875"/><line style="stroke:#000000;stroke-width:1.0;" x1="378" x2="567" y1="182.875" y2="182.875"/><text fill="#000000" font-family="sans-serif" font-size="14" font-weight="bold" lengthAdjust="spacing" textLength="40" x="383" y="199.4082">notes</text><text fill="#000000" font-family="sans-serif" font-size="14" lengthAdjust="spacing" textLength="100" x="462" y="199.4082">Erasmus kurzus</text><line style="stroke:#000000;stroke-width:1.0;" x1="457" x2="457" y1="182.875" y2="204.4844"/><line style="stroke:#000000;stroke-width:1.0;" x1="378" x2="567" y1="204.4844" y2="204.4844"/><text fill="#000000" font-family="sans-serif" font-size="14" font-weight="bold" lengthAdjust="spacing" textLength="37" x="383" y="221.0176">show</text><text fill="#000000" font-family="sans-serif" font-size="14" lengthAdjust="spacing" textLength="46" x="462" y="221.0176">&#9744; false</text><line style="stroke:#000000;stroke-width:1.0;" x1="457" x2="457" y1="204.4844" y2="226.0938"/><rect fill="none" height="216.0938" rx="5" ry="5" style="stroke:#000000;stroke-width:1.5;" width="189" x="378" y="10"/><rect fill="#F1F1F1" height="216.0938" rx="5" ry="5" style="stroke:#F1F1F1;stroke-width:1.5;" width="150" x="397.5" y="244"/><text fill="#000000" font-family="sans-serif" font-size="14" font-weight="bold" lengthAdjust="spacing" textLength="13" x="402.5" y="260.5332">id</text><text fill="#000000" font-family="sans-serif" font-size="14" lengthAdjust="spacing" textLength="8" x="481.5" y="260.5332">2</text><line style="stroke:#000000;stroke-width:1.0;" x1="476.5" x2="476.5" y1="244" y2="265.6094"/><line style="stroke:#000000;stroke-width:1.0;" x1="397.5" x2="547.5" y1="265.6094" y2="265.6094"/><text fill="#000000" font-family="sans-serif" font-size="14" font-weight="bold" lengthAdjust="spacing" textLength="49" x="402.5" y="282.1426">course</text><text fill="#000000" font-family="sans-serif" font-size="14" lengthAdjust="spacing" textLength="8" x="481.5" y="282.1426">1</text><line style="stroke:#000000;stroke-width:1.0;" x1="476.5" x2="476.5" y1="265.6094" y2="287.2188"/><line style="stroke:#000000;stroke-width:1.0;" x1="397.5" x2="547.5" y1="287.2188" y2="287.2188"/><text fill="#000000" font-family="sans-serif" font-size="14" font-weight="bold" lengthAdjust="spacing" textLength="30" x="402.5" y="303.752">type</text><text fill="#000000" font-family="sans-serif" font-size="14" lengthAdjust="spacing" textLength="61" x="481.5" y="303.752">Gyakorlat</text><line style="stroke:#000000;stroke-width:1.0;" x1="476.5" x2="476.5" y1="287.2188" y2="308.8281"/><line style="stroke:#000000;stroke-width:1.0;" x1="397.5" x2="547.5" y1="308.8281" y2="308.8281"/><text fill="#000000" font-family="sans-serif" font-size="14" font-weight="bold" lengthAdjust="spacing" textLength="69" x="402.5" y="325.3613">instructor</text><text fill="#000000" font-family="sans-serif" font-size="14" lengthAdjust="spacing" textLength="59" x="481.5" y="325.3613">Teszt Dia</text><line style="stroke:#000000;stroke-width:1.0;" x1="476.5" x2="476.5" y1="308.8281" y2="330.4375"/><line style="stroke:#000000;stroke-width:1.0;" x1="397.5" x2="547.5" y1="330.4375" y2="330.4375"/><text fill="#000000" font-family="sans-serif" font-size="14" font-weight="bold" lengthAdjust="spacing" textLength="56" x="402.5" y="346.9707">location</text><text fill="#000000" font-family="sans-serif" font-size="14" lengthAdjust="spacing" textLength="37" x="481.5" y="346.9707">1-456</text><line style="stroke:#000000;stroke-width:1.0;" x1="476.5" x2="476.5" y1="330.4375" y2="352.0469"/><line style="stroke:#000000;stroke-width:1.0;" x1="397.5" x2="547.5" y1="352.0469" y2="352.0469"/><text fill="#000000" font-family="sans-serif" font-size="14" font-weight="bold" lengthAdjust="spacing" textLength="24" x="402.5" y="368.5801">day</text><text fill="#000000" font-family="sans-serif" font-size="14" lengthAdjust="spacing" textLength="44" x="481.5" y="368.5801">Szerda</text><line style="stroke:#000000;stroke-width:1.0;" x1="476.5" x2="476.5" y1="352.0469" y2="373.6563"/><line style="stroke:#000000;stroke-width:1.0;" x1="397.5" x2="547.5" y1="373.6563" y2="373.6563"/><text fill="#000000" font-family="sans-serif" font-size="14" font-weight="bold" lengthAdjust="spacing" textLength="65" x="402.5" y="390.1895">startTime</text><text fill="#000000" font-family="sans-serif" font-size="14" lengthAdjust="spacing" textLength="36" x="481.5" y="390.1895">10:00</text><line style="stroke:#000000;stroke-width:1.0;" x1="476.5" x2="476.5" y1="373.6563" y2="395.2656"/><line style="stroke:#000000;stroke-width:1.0;" x1="397.5" x2="547.5" y1="395.2656" y2="395.2656"/><text fill="#000000" font-family="sans-serif" font-size="14" font-weight="bold" lengthAdjust="spacing" textLength="60" x="402.5" y="411.7988">endTime</text><text fill="#000000" font-family="sans-serif" font-size="14" lengthAdjust="spacing" textLength="36" x="481.5" y="411.7988">12:00</text><line style="stroke:#000000;stroke-width:1.0;" x1="476.5" x2="476.5" y1="395.2656" y2="416.875"/><line style="stroke:#000000;stroke-width:1.0;" x1="397.5" x2="547.5" y1="416.875" y2="416.875"/><text fill="#000000" font-family="sans-serif" font-size="14" font-weight="bold" lengthAdjust="spacing" textLength="40" x="402.5" y="433.4082">notes</text><text fill="#000000" font-family="sans-serif" font-size="14" lengthAdjust="spacing" textLength="4" x="481.5" y="433.4082">&#160;</text><line style="stroke:#000000;stroke-width:1.0;" x1="476.5" x2="476.5" y1="416.875" y2="438.4844"/><line style="stroke:#000000;stroke-width:1.0;" x1="397.5" x2="547.5" y1="438.4844" y2="438.4844"/><text fill="#000000" font-family="sans-serif" font-size="14" font-weight="bold" lengthAdjust="spacing" textLength="37" x="402.5" y="455.0176">show</text><text fill="#000000" font-family="sans-serif" font-size="14" lengthAdjust="spacing" textLength="41" x="481.5" y="455.0176">&#9745; true</text><line style="stroke:#000000;stroke-width:1.0;" x1="476.5" x2="476.5" y1="438.4844" y2="460.0938"/><rect fill="none" height="216.0938" rx="5" ry="5" style="stroke:#000000;stroke-width:1.5;" width="150" x="397.5" y="244"/><rect fill="#F1F1F1" height="64.8281" rx="5" ry="5" style="stroke:#F1F1F1;stroke-width:1.5;" width="130" x="211" y="418.5469"/><text fill="#000000" font-family="sans-serif" font-size="14" font-weight="bold" lengthAdjust="spacing" textLength="36" x="216" y="435.0801">color</text><text fill="#000000" font-family="sans-serif" font-size="14" lengthAdjust="spacing" textLength="58" x="278" y="435.0801">#0E2F90</text><line style="stroke:#000000;stroke-width:1.0;" x1="273" x2="273" y1="418.5469" y2="440.1563"/><line style="stroke:#000000;stroke-width:1.0;" x1="211" x2="341" y1="440.1563" y2="440.1563"/><text fill="#000000" font-family="sans-serif" font-size="14" font-weight="bold" lengthAdjust="spacing" textLength="37" x="216" y="456.6895">show</text><text fill="#000000" font-family="sans-serif" font-size="14" lengthAdjust="spacing" textLength="41" x="278" y="456.6895">&#9745; true</text><line style="stroke:#000000;stroke-width:1.0;" x1="273" x2="273" y1="440.1563" y2="461.7656"/><line style="stroke:#000000;stroke-width:1.0;" x1="211" x2="341" y1="461.7656" y2="461.7656"/><text fill="#000000" font-family="sans-serif" font-size="14" font-weight="bold" lengthAdjust="spacing" textLength="52" x="216" y="478.2988">chosen</text><text fill="#000000" font-family="sans-serif" font-size="14" lengthAdjust="spacing" textLength="12" x="278" y="478.2988">&#160;&#160;&#160;</text><line style="stroke:#000000;stroke-width:1.0;" x1="273" x2="273" y1="461.7656" y2="483.375"/><rect fill="none" height="64.8281" rx="5" ry="5" style="stroke:#000000;stroke-width:1.5;" width="130" x="211" y="418.5469"/><rect fill="#F1F1F1" height="64.8281" rx="5" ry="5" style="stroke:#F1F1F1;stroke-width:1.5;" width="102" x="421.5" y="478.5469"/><text fill="#000000" font-family="sans-serif" font-size="14" font-weight="bold" lengthAdjust="spacing" textLength="66" x="426.5" y="495.0801">Gyakorlat</text><text fill="#000000" font-family="sans-serif" font-size="14" lengthAdjust="spacing" textLength="8" x="502.5" y="495.0801">1</text><line style="stroke:#000000;stroke-width:1.0;" x1="497.5" x2="497.5" y1="478.5469" y2="500.1563"/><line style="stroke:#000000;stroke-width:1.0;" x1="421.5" x2="523.5" y1="500.1563" y2="500.1563"/><text fill="#000000" font-family="sans-serif" font-size="14" font-weight="bold" lengthAdjust="spacing" textLength="55" x="426.5" y="516.6895">El&#337;ad&#225;s</text><text fill="#000000" font-family="sans-serif" font-size="14" lengthAdjust="spacing" textLength="16" x="502.5" y="516.6895">90</text><line style="stroke:#000000;stroke-width:1.0;" x1="497.5" x2="497.5" y1="500.1563" y2="521.7656"/><line style="stroke:#000000;stroke-width:1.0;" x1="421.5" x2="523.5" y1="521.7656" y2="521.7656"/><text fill="#000000" font-family="sans-serif" font-size="14" font-weight="bold" lengthAdjust="spacing" textLength="43" x="426.5" y="538.2988">Egy&#233;b</text><text fill="#000000" font-family="sans-serif" font-size="14" lengthAdjust="spacing" textLength="8" x="502.5" y="538.2988">0</text><line style="stroke:#000000;stroke-width:1.0;" x1="497.5" x2="497.5" y1="521.7656" y2="543.375"/><rect fill="none" height="64.8281" rx="5" ry="5" style="stroke:#000000;stroke-width:1.5;" width="102" x="421.5" y="478.5469"/><path d="M276.5,331.0469 L276.5,318.0469 C276.5,256.8154 323.9396,207.378 372.0811,172.9734 " fill="none" style="stroke:#000000;stroke-width:1.0;stroke-dasharray:3.0,3.0;"/><path d="M373.8138,175.4442 L373.9342,171.6739 L370.3484,170.5025 L378.2583,168.6417 L373.8138,175.4442 " fill="#000000" style="stroke:#000000;stroke-width:1.0;"/><ellipse cx="276.5" cy="331.0469" fill="#000000" rx="3" ry="3" style="stroke:#000000;stroke-width:1.0;"/><path d="M275.5,352.0469 L288.5,352.0469 C321.8273,352.0469 358.5594,352.0469 390.3482,352.0469 " fill="none" style="stroke:#000000;stroke-width:1.0;stroke-dasharray:3.0,3.0;"/><path d="M390.3482,355.0652 L392.6119,352.0469 L390.3482,349.0286 L397.894,352.0469 L390.3482,355.0652 " fill="#000000" style="stroke:#000000;stroke-width:1.0;"/><ellipse cx="275.5" cy="352.0469" fill="#000000" rx="3" ry="3" style="stroke:#000000;stroke-width:1.0;"/><path d="M162,385.0469 L175,385.0469 C206.8611,385.0469 239.9945,366.2603 259.134,353.2385 " fill="none" style="stroke:#000000;stroke-width:1.0;stroke-dasharray:3.0,3.0;"/><path d="M260.8641,355.703 L260.9823,351.9409 L257.4038,350.774 L265.2952,348.9132 L260.8641,355.703 " fill="#000000" style="stroke:#000000;stroke-width:1.0;"/><ellipse cx="162" cy="385.0469" fill="#000000" rx="3" ry="3" style="stroke:#000000;stroke-width:1.0;"/><path d="M329,473.0469 L342,473.0469 C366.4003,473.0469 392.3793,479.2906 414.6481,486.7163 " fill="none" style="stroke:#000000;stroke-width:1.0;stroke-dasharray:3.0,3.0;"/><path d="M413.6697,489.5535 L416.776,487.4501 L415.6265,483.879 L421.7412,489.1623 L413.6697,489.5535 " fill="#000000" style="stroke:#000000;stroke-width:1.0;"/><ellipse cx="329" cy="473.0469" fill="#000000" rx="3" ry="3" style="stroke:#000000;stroke-width:1.0;"/><path d="M162,406.0469 L175,406.0469 C189.4073,406.0469 204.0417,409.9468 217.5209,415.4504 " fill="none" style="stroke:#000000;stroke-width:1.0;stroke-dasharray:3.0,3.0;"/><path d="M216.316,418.2248 L219.6017,416.354 L218.7257,412.6759 L224.457,418.4624 L216.316,418.2248 " fill="#000000" style="stroke:#000000;stroke-width:1.0;"/><ellipse cx="162" cy="406.0469" fill="#000000" rx="3" ry="3" style="stroke:#000000;stroke-width:1.0;"/><!--SRC=[TPFDRk8m4CVlVefHzW9IGKaQgcrENI3qGo2X9VHIxS4aBgG4k_87gr3n47s47liSQDzh9mabgO2Bavd_Z3tpy_X6QIhrYn8Sb9czi4WhyaO0h2IsV70kyjz8n0mDwtxSSjnBxrUtrxSAWTDL8OHCRJJetOUSPt3VjlPPHYgcK7z24-2jMB_jN9XbNBxDjMqTl3fxBNn1-k-TnhiFLKa9LrgQI0kP1untdsbCeOiVMiMa8g8w4JoFSFEgAoccsJwFQxQi_0M8C2axSbpVhbN3U7nGl6yA5xheqGeaLIkZO6danjIgLGln5_LdcYfM-BON9t2u9t0unpHkCxeKCgNw78to9lh96HHEo-jS7Q6OR9YCwJaIzbaIxcaIHxrZVVlMSVrJ30SUeKqUNMB0hjEoWHzsu0uEWr3VOU-95a8nViY4EfJwM5M3uyErNRddsUvpXZxxKD6MRCaDzfK_0aB6AULwEXh2cac5sC1fkxRhjIyRuSB0WCt0wO1h-nvowK0l226NcwHnEnwkNL1uVH63EC5RIMOc1zya3tHDuRVX6idva5kDSDI4IV3bX82l4oduYd5D7Xv7PH3S2Jrv5Re8ll9QtKJ3X4ai31v7fC-UgKarfkBxJFZSXsauQFqaGyhdXixne8KXFO47oCo7k-b_]--></g></svg>