<?xml version="1.0" encoding="us-ascii" standalone="no"?><svg xmlns="http://www.w3.org/2000/svg" xmlns:xlink="http://www.w3.org/1999/xlink" contentStyleType="text/css" height="1607px" preserveAspectRatio="none" style="width:936px;height:1607px;background:#FFFFFF;" version="1.1" viewBox="0 0 936 1607" width="936px" zoomAndPan="magnify"><defs/><g><!--cluster ?rarend-tervez? rendszer--><g id="cluster_&#211;rarend-tervez&#337; rendszer"><rect fill="#FFFFFF" height="1244" rx="2.5" ry="2.5" style="stroke:#000000;stroke-width:1.0;" width="565" x="155" y="100.5"/><text fill="#000000" font-family="Verdana" font-size="14" font-weight="bold" lengthAdjust="spacing" textLength="202" x="336.5" y="116.5752">&#211;rarend-tervez&#337; rendszer</text></g><!--cluster T?rgy kezel?s--><g id="cluster_T&#225;rgy kezel&#233;s"><path d="M191.5,339.5 L298.5,339.5 A3.75,3.75 0 0 1 301,342 L308,362.5146 L682,362.5146 A2.5,2.5 0 0 1 684.5,365.0146 L684.5,607 A2.5,2.5 0 0 1 682,609.5 L191.5,609.5 A2.5,2.5 0 0 1 189,607 L189,342 A2.5,2.5 0 0 1 191.5,339.5 " fill="#FFFFFF" style="stroke:#000000;stroke-width:1.0;"/><line style="stroke:#000000;stroke-width:1.0;" x1="189" x2="308" y1="362.5146" y2="362.5146"/><text fill="#000000" font-family="Verdana" font-size="14" font-weight="bold" lengthAdjust="spacing" textLength="106" x="193" y="355.5752">T&#225;rgy kezel&#233;s</text></g><!--cluster Kurzus kezel?s--><g id="cluster_Kurzus kezel&#233;s"><path d="M460,633.5 L576,633.5 A3.75,3.75 0 0 1 578.5,636 L585.5,656.5146 L673,656.5146 A2.5,2.5 0 0 1 675.5,659.0146 L675.5,1020 A2.5,2.5 0 0 1 673,1022.5 L460,1022.5 A2.5,2.5 0 0 1 457.5,1020 L457.5,636 A2.5,2.5 0 0 1 460,633.5 " fill="#FFFFFF" style="stroke:#000000;stroke-width:1.0;"/><line style="stroke:#000000;stroke-width:1.0;" x1="457.5" x2="585.5" y1="656.5146" y2="656.5146"/><text fill="#000000" font-family="Verdana" font-size="14" font-weight="bold" lengthAdjust="spacing" textLength="115" x="461.5" y="649.5752">Kurzus kezel&#233;s</text></g><!--cluster ?rarend kezel?s--><g id="cluster_&#211;rarend kezel&#233;s"><path d="M439.5,1046.5 L565.5,1046.5 A3.75,3.75 0 0 1 568,1049 L575,1069.5146 L693.5,1069.5146 A2.5,2.5 0 0 1 696,1072.0146 L696,1318 A2.5,2.5 0 0 1 693.5,1320.5 L439.5,1320.5 A2.5,2.5 0 0 1 437,1318 L437,1049 A2.5,2.5 0 0 1 439.5,1046.5 " fill="#FFFFFF" style="stroke:#000000;stroke-width:1.0;"/><line style="stroke:#000000;stroke-width:1.0;" x1="437" x2="575" y1="1069.5146" y2="1069.5146"/><text fill="#000000" font-family="Verdana" font-size="14" font-weight="bold" lengthAdjust="spacing" textLength="125" x="441" y="1062.5752">&#211;rarend kezel&#233;s</text></g><!--cluster Rendszer be?ll?t?sok--><g id="cluster_Rendszer be&#225;ll&#237;t&#225;sok"><path d="M181.5,144.5 L341.5,144.5 A3.75,3.75 0 0 1 344,147 L351,167.5146 L406.5,167.5146 A2.5,2.5 0 0 1 409,170.0146 L409,313 A2.5,2.5 0 0 1 406.5,315.5 L181.5,315.5 A2.5,2.5 0 0 1 179,313 L179,147 A2.5,2.5 0 0 1 181.5,144.5 " fill="#FFFFFF" style="stroke:#000000;stroke-width:1.0;"/><line style="stroke:#000000;stroke-width:1.0;" x1="179" x2="351" y1="167.5146" y2="167.5146"/><text fill="#000000" font-family="Verdana" font-size="14" font-weight="bold" lengthAdjust="spacing" textLength="159" x="183" y="160.5752">Rendszer be&#225;ll&#237;t&#225;sok</text></g><g id="elem_TC"><ellipse cx="294.0578" cy="416.7116" fill="#FFFFFF" rx="84.0578" ry="19.2116" style="stroke:#000000;stroke-width:1.0;"/><text fill="#000000" font-family="Verdana" font-size="14" lengthAdjust="spacing" textLength="126" x="231.0578" y="420.2794">T&#225;rgy l&#233;trehoz&#225;sa</text></g><g id="elem_UC1"><ellipse cx="566.6222" cy="402.5726" fill="#FFFFFF" rx="100.6222" ry="27.0726" style="stroke:#000000;stroke-width:1.0;"/><text fill="#000000" font-family="Verdana" font-size="14" lengthAdjust="spacing" textLength="126" x="501.6098" y="398.1294">T&#225;rgy l&#233;trehoz&#225;sa</text><text fill="#000000" font-family="Verdana" font-size="14" lengthAdjust="spacing" textLength="73" x="528.1098" y="415.144">(manu&#225;lis)</text></g><g id="elem_UC2"><ellipse cx="293.7882" cy="573.6576" fill="#FFFFFF" rx="88.7882" ry="20.1576" style="stroke:#000000;stroke-width:1.0;"/><text fill="#000000" font-family="Verdana" font-size="14" lengthAdjust="spacing" textLength="137" x="225.2882" y="577.2255">T&#225;rgy szerkeszt&#233;se</text></g><g id="elem_UC3"><ellipse cx="294.1728" cy="501.5346" fill="#FFFFFF" rx="70.6728" ry="16.5346" style="stroke:#000000;stroke-width:1.0;"/><text fill="#000000" font-family="Verdana" font-size="14" lengthAdjust="spacing" textLength="93" x="245.3179" y="505.6837">T&#225;rgy t&#246;rl&#233;se</text></g><g id="elem_UC4"><ellipse cx="566.4838" cy="573.2968" fill="#FFFFFF" rx="84.4838" ry="19.2968" style="stroke:#000000;stroke-width:1.0;"/><text fill="#000000" font-family="Verdana" font-size="14" lengthAdjust="spacing" textLength="127" x="502.9838" y="576.8646">T&#225;rgy lek&#233;rdez&#233;se</text></g><g id="elem_UC5"><ellipse cx="566.5592" cy="491.578" fill="#FFFFFF" rx="102.0592" ry="27.078" style="stroke:#000000;stroke-width:1.0;"/><text fill="#000000" font-family="Verdana" font-size="14" lengthAdjust="spacing" textLength="128" x="500.0362" y="487.2518">T&#225;rgy hozz&#225;ad&#225;sa</text><text fill="#000000" font-family="Verdana" font-size="14" lengthAdjust="spacing" textLength="95" x="516.5362" y="504.2664">lek&#233;rdez&#233;sb&#337;l</text></g><g id="elem_UC6"><ellipse cx="566.7228" cy="986.7446" fill="#FFFFFF" rx="89.2228" ry="20.2446" style="stroke:#000000;stroke-width:1.0;"/><text fill="#000000" font-family="Verdana" font-size="14" lengthAdjust="spacing" textLength="138" x="497.7228" y="990.3124">Kurzus hozz&#225;ad&#225;sa</text></g><g id="elem_UC7"><ellipse cx="566.6644" cy="761.5329" fill="#FFFFFF" rx="93.1644" ry="21.0329" style="stroke:#000000;stroke-width:1.0;"/><text fill="#000000" font-family="Verdana" font-size="14" lengthAdjust="spacing" textLength="147" x="493.1644" y="765.1007">Kurzus szerkeszt&#233;se</text></g><g id="elem_UC8"><ellipse cx="566.5256" cy="687.3051" fill="#FFFFFF" rx="74.5256" ry="17.3051" style="stroke:#000000;stroke-width:1.0;"/><text fill="#000000" font-family="Verdana" font-size="14" lengthAdjust="spacing" textLength="103" x="514.7046" y="690.9597">Kurzus t&#246;rl&#233;se</text></g><g id="elem_UC9"><ellipse cx="566.658" cy="838.3316" fill="#FFFFFF" rx="89.658" ry="20.3316" style="stroke:#000000;stroke-width:1.0;"/><text fill="#000000" font-family="Verdana" font-size="14" lengthAdjust="spacing" textLength="139" x="497.158" y="841.8995">Kurzus kiv&#225;laszt&#225;sa</text></g><g id="elem_UC10"><ellipse cx="566.4305" cy="912.2861" fill="#FFFFFF" rx="79.4305" ry="18.2861" style="stroke:#000000;stroke-width:1.0;"/><text fill="#000000" font-family="Verdana" font-size="14" lengthAdjust="spacing" textLength="115" x="508.9305" y="915.854">Kurzus elrejt&#233;se</text></g><g id="elem_UC11"><ellipse cx="566.6561" cy="1193.3312" fill="#FFFFFF" rx="97.1561" ry="21.8312" style="stroke:#000000;stroke-width:1.0;"/><text fill="#000000" font-family="Verdana" font-size="14" lengthAdjust="spacing" textLength="156" x="488.6561" y="1196.8991">&#211;rarend megtekint&#233;se</text></g><g id="elem_UC12"><ellipse cx="566.6101" cy="1277.6281" fill="#FFFFFF" rx="113.6101" ry="27.1281" style="stroke:#000000;stroke-width:1.0;"/><text fill="#000000" font-family="Verdana" font-size="14" lengthAdjust="spacing" textLength="144" x="491.6101" y="1273.4084">&#211;rarend export&#225;l&#225;sa</text><text fill="#000000" font-family="Verdana" font-size="14" lengthAdjust="spacing" textLength="49" x="539.1101" y="1290.423">(JSON)</text></g><g id="elem_UC13"><ellipse cx="566.388" cy="1109.6252" fill="#FFFFFF" rx="112.888" ry="27.1252" style="stroke:#000000;stroke-width:1.0;"/><text fill="#000000" font-family="Verdana" font-size="14" lengthAdjust="spacing" textLength="143" x="491.888" y="1105.4055">&#211;rarend import&#225;l&#225;sa</text><text fill="#000000" font-family="Verdana" font-size="14" lengthAdjust="spacing" textLength="49" x="538.888" y="1122.4202">(JSON)</text></g><g id="elem_UC14"><ellipse cx="293.9446" cy="202.6889" fill="#FFFFFF" rx="98.9446" ry="22.1889" style="stroke:#000000;stroke-width:1.0;"/><text fill="#000000" font-family="Verdana" font-size="14" lengthAdjust="spacing" textLength="160" x="213.9446" y="206.2568">Be&#225;ll&#237;t&#225;sok m&#243;dos&#237;t&#225;sa</text></g><g id="elem_UC15"><ellipse cx="293.8543" cy="279.5709" fill="#FFFFFF" rx="88.3543" ry="20.0709" style="stroke:#000000;stroke-width:1.0;"/><text fill="#000000" font-family="Verdana" font-size="14" lengthAdjust="spacing" textLength="136" x="225.8543" y="283.1387">S&#250;g&#243; megtekint&#233;se</text></g><!--entity Student--><g id="elem_Student"><ellipse cx="73" cy="1532.5" fill="#FFFFFF" rx="8" ry="8" style="stroke:#000000;stroke-width:1.0;"/><path d="M73,1540.5 L73,1567.5 M60,1548.5 L86,1548.5 M73,1567.5 L60,1582.5 M73,1567.5 L86,1582.5 " fill="none" style="stroke:#000000;stroke-width:1.0;"/><text fill="#000000" font-family="Verdana" font-size="14" lengthAdjust="spacing" textLength="124" x="11" y="1598.5752">Egyetemi hallgat&#243;</text></g><!--entity API--><g id="elem_API"><ellipse cx="294" cy="1369.5" fill="#FFFFFF" rx="8" ry="8" style="stroke:#000000;stroke-width:1.0;"/><path d="M294,1377.5 L294,1404.5 M281,1385.5 L307,1385.5 M294,1404.5 L281,1419.5 M294,1404.5 L307,1419.5 " fill="none" style="stroke:#000000;stroke-width:1.0;"/><text fill="#000000" font-family="Verdana" font-size="14" lengthAdjust="spacing" textLength="126" x="231" y="1435.5752">ELTE Tanrend API</text></g><g id="elem_GMN48"><path d="M747.5,552.5 L747.5,569.5 L651.3,573.5 L747.5,577.5 L747.5,594.0986 A0,0 0 0 0 747.5,594.0986 L921.5,594.0986 A0,0 0 0 0 921.5,594.0986 L921.5,562.5 L911.5,552.5 L747.5,552.5 A0,0 0 0 0 747.5,552.5 " fill="#FFFFFF" style="stroke:#000000;stroke-width:1.0;"/><path d="M911.5,552.5 L911.5,562.5 L921.5,562.5 L911.5,552.5 " fill="#FFFFFF" style="stroke:#000000;stroke-width:1.0;"/><text fill="#000000" font-family="Verdana" font-size="13" lengthAdjust="spacing" textLength="153" x="753.5" y="570.5698">T&#225;rgy neve/k&#243;dja vagy</text><text fill="#000000" font-family="Verdana" font-size="13" lengthAdjust="spacing" textLength="132" x="753.5" y="586.3691">oktat&#243; neve alapj&#225;n</text></g><g id="elem_GMN51"><path d="M740,794 L740,834.5 L656.11,838.5 L740,842.5 L740,882.9966 A0,0 0 0 0 740,882.9966 L929,882.9966 A0,0 0 0 0 929,882.9966 L929,804 L919,794 L740,794 A0,0 0 0 0 740,794 " fill="#FFFFFF" style="stroke:#000000;stroke-width:1.0;"/><path d="M919,794 L919,804 L929,804 L919,794 " fill="#FFFFFF" style="stroke:#000000;stroke-width:1.0;"/><text fill="#000000" font-family="Verdana" font-size="13" lengthAdjust="spacing" textLength="152" x="746" y="812.0698">Kiv&#225;laszt&#225;s t&#237;pusa f&#252;gg</text><text fill="#000000" font-family="Verdana" font-size="13" lengthAdjust="spacing" textLength="138" x="746" y="827.8691">a t&#225;rgy be&#225;ll&#237;t&#225;s&#225;t&#243;l:</text><text fill="#000000" font-family="Verdana" font-size="13" lengthAdjust="spacing" textLength="83" x="746" y="843.6685">- Egy kurzus</text><text fill="#000000" font-family="Verdana" font-size="13" lengthAdjust="spacing" textLength="168" x="746" y="859.4678">- T&#237;pusonk&#233;nt egy kurzus</text><text fill="#000000" font-family="Verdana" font-size="13" lengthAdjust="spacing" textLength="105" x="746" y="875.2671">- Minden kurzus</text></g><g id="elem_GMN54"><path d="M474,11 L474,84.1973 L659,84.1973 L659,21 L649,11 L474,11 " fill="#FFFFFF" style="stroke:#000000;stroke-width:1.0;"/><path d="M649,11 L649,21 L659,21 L649,11 " fill="#FFFFFF" style="stroke:#000000;stroke-width:1.0;"/><text fill="#000000" font-family="Verdana" font-size="13" lengthAdjust="spacing" textLength="157" x="480" y="29.0698">- Megjelen&#337; inform&#225;ci&#243;k</text><text fill="#000000" font-family="Verdana" font-size="13" lengthAdjust="spacing" textLength="138" x="480" y="44.8691">- &#211;rarend be&#225;ll&#237;t&#225;sok</text><text fill="#000000" font-family="Verdana" font-size="13" lengthAdjust="spacing" textLength="164" x="480" y="60.6685">- Szombat megjelen&#237;t&#233;se</text><text fill="#000000" font-family="Verdana" font-size="13" lengthAdjust="spacing" textLength="104" x="480" y="76.4678">- Id&#337;intervallum</text></g><!--link Student to UC1--><g id="link_Student_UC1"><path d="M31,1523.37 C31,1319.32 31,386.5 31,386.5 C31,386.5 329.76,386.5 479.46,386.5 " fill="none" id="Student-to-UC1" style="stroke:#000000;stroke-width:1.0;"/><polygon fill="#000000" points="485.46,386.5,476.46,382.5,480.46,386.5,476.46,390.5,485.46,386.5" style="stroke:#000000;stroke-width:1.0;"/></g><!--link Student to UC2--><g id="link_Student_UC2"><path d="M135.33,1562.5 C174.63,1562.5 218,1562.5 218,1562.5 C218,1562.5 218,695.64 218,589.94 " fill="none" id="Student-to-UC2" style="stroke:#000000;stroke-width:1.0;"/><polygon fill="#000000" points="218,583.94,214,592.94,218,588.94,222,592.94,218,583.94" style="stroke:#000000;stroke-width:1.0;"/></g><!--link Student to UC3--><g id="link_Student_UC3"><path d="M50,1523.48 C50,1332.06 50,501.5 50,501.5 C50,501.5 145.36,501.5 217.43,501.5 " fill="none" id="Student-to-UC3" style="stroke:#000000;stroke-width:1.0;"/><polygon fill="#000000" points="223.43,501.5,214.43,497.5,218.43,501.5,214.43,505.5,223.43,501.5" style="stroke:#000000;stroke-width:1.0;"/></g><!--link Student to UC4--><g id="link_Student_UC4"><path d="M135.23,1582 C227.03,1582 388,1582 388,1582 C388,1582 388,580 388,580 C388,580 433.12,580 480.65,580 " fill="none" id="Student-to-UC4" style="stroke:#000000;stroke-width:1.0;"/><polygon fill="#000000" points="486.65,580,477.65,576,481.65,580,477.65,584,486.65,580" style="stroke:#000000;stroke-width:1.0;"/></g><!--link Student to UC5--><g id="link_Student_UC5"><path d="M40,1523.27 C40,1328.87 40,478.17 40,478.17 C40,478.17 321.73,478.17 471.78,478.17 " fill="none" id="Student-to-UC5" style="stroke:#000000;stroke-width:1.0;"/><polygon fill="#000000" points="477.78,478.17,468.78,474.17,472.78,478.17,468.78,482.17,477.78,478.17" style="stroke:#000000;stroke-width:1.0;"/></g><!--link Student to UC6--><g id="link_Student_UC6"><path d="M97,1523.36 C97,1393.72 97,986.5 97,986.5 C97,986.5 335.19,986.5 471.36,986.5 " fill="none" id="Student-to-UC6" style="stroke:#000000;stroke-width:1.0;"/><polygon fill="#000000" points="477.36,986.5,468.36,982.5,472.36,986.5,468.36,990.5,477.36,986.5" style="stroke:#000000;stroke-width:1.0;"/></g><!--link Student to UC7--><g id="link_Student_UC7"><path d="M69,1523.32 C69,1362.51 69,761.5 69,761.5 C69,761.5 323.16,761.5 467.22,761.5 " fill="none" id="Student-to-UC7" style="stroke:#000000;stroke-width:1.0;"/><polygon fill="#000000" points="473.22,761.5,464.22,757.5,468.22,761.5,464.22,765.5,473.22,761.5" style="stroke:#000000;stroke-width:1.0;"/></g><!--link Student to UC8--><g id="link_Student_UC8"><path d="M59,1523.47 C59,1354.34 59,693.33 59,693.33 C59,693.33 350.87,693.33 490.2,693.33 " fill="none" id="Student-to-UC8" style="stroke:#000000;stroke-width:1.0;"/><polygon fill="#000000" points="496.2,693.33,487.2,689.33,491.2,693.33,487.2,697.33,496.2,693.33" style="stroke:#000000;stroke-width:1.0;"/></g><!--link Student to UC9--><g id="link_Student_UC9"><path d="M78,1523.32 C78,1372.58 78,838.5 78,838.5 C78,838.5 329.88,838.5 470.9,838.5 " fill="none" id="Student-to-UC9" style="stroke:#000000;stroke-width:1.0;"/><polygon fill="#000000" points="476.9,838.5,467.9,834.5,471.9,838.5,467.9,842.5,476.9,838.5" style="stroke:#000000;stroke-width:1.0;"/></g><!--link Student to UC10--><g id="link_Student_UC10"><path d="M88,1523.3 C88,1382.77 88,912.5 88,912.5 C88,912.5 344.88,912.5 480.95,912.5 " fill="none" id="Student-to-UC10" style="stroke:#000000;stroke-width:1.0;"/><polygon fill="#000000" points="486.95,912.5,477.95,908.5,481.95,912.5,477.95,916.5,486.95,912.5" style="stroke:#000000;stroke-width:1.0;"/></g><!--link Student to UC11--><g id="link_Student_UC11"><path d="M116,1523.36 C116,1428.39 116,1193.5 116,1193.5 C116,1193.5 330.87,1193.5 463.3,1193.5 " fill="none" id="Student-to-UC11" style="stroke:#000000;stroke-width:1.0;"/><polygon fill="#000000" points="469.3,1193.5,460.3,1189.5,464.3,1193.5,460.3,1197.5,469.3,1193.5" style="stroke:#000000;stroke-width:1.0;"/></g><!--link Student to UC12--><g id="link_Student_UC12"><path d="M126,1523.47 C126,1445.42 126,1277.5 126,1277.5 C126,1277.5 316.26,1277.5 446.77,1277.5 " fill="none" id="Student-to-UC12" style="stroke:#000000;stroke-width:1.0;"/><polygon fill="#000000" points="452.77,1277.5,443.77,1273.5,447.77,1277.5,443.77,1281.5,452.77,1277.5" style="stroke:#000000;stroke-width:1.0;"/></g><!--link Student to UC13--><g id="link_Student_UC13"><path d="M107,1523.49 C107,1413.6 107,1109.5 107,1109.5 C107,1109.5 311.15,1109.5 447.21,1109.5 " fill="none" id="Student-to-UC13" style="stroke:#000000;stroke-width:1.0;"/><polygon fill="#000000" points="453.21,1109.5,444.21,1105.5,448.21,1109.5,444.21,1113.5,453.21,1109.5" style="stroke:#000000;stroke-width:1.0;"/></g><!--link Student to UC14--><g id="link_Student_UC14"><path d="M135.01,1543 C167.25,1543 200,1543 200,1543 C200,1543 200,321.22 200,215.71 " fill="none" id="Student-to-UC14" style="stroke:#000000;stroke-width:1.0;"/><polygon fill="#000000" points="200,209.71,196,218.71,200,214.71,204,218.71,200,209.71" style="stroke:#000000;stroke-width:1.0;"/></g><!--link Student to UC15--><g id="link_Student_UC15"><path d="M21,1523.4 C21,1308.38 21,279.5 21,279.5 C21,279.5 119.65,279.5 199.36,279.5 " fill="none" id="Student-to-UC15" style="stroke:#000000;stroke-width:1.0;"/><polygon fill="#000000" points="205.36,279.5,196.36,275.5,200.36,279.5,196.36,283.5,205.36,279.5" style="stroke:#000000;stroke-width:1.0;"/></g><!--link API to UC4--><g id="link_API_UC4"><path d="M357.14,1399.5 C373.2,1399.5 386,1399.5 386,1399.5 C386,1399.5 386,567 386,567 C386,567 432.45,567 480.8,567 " fill="none" id="API-to-UC4" style="stroke:#000000;stroke-width:1.0;"/><polygon fill="#000000" points="486.8,567,477.8,563,481.8,567,477.8,571,486.8,567" style="stroke:#000000;stroke-width:1.0;"/><text fill="#000000" font-family="Verdana" font-size="13" lengthAdjust="spacing" textLength="160" x="225" y="961.3498">szolg&#225;ltatja az adatokat</text></g><!--reverse link TC to UC1--><g id="link_TC_UC1"><path d="M387.54,408.17 C418.02,408.17 435.59,408.17 468.06,408.17 " fill="none" id="TC-backto-UC1" style="stroke:#000000;stroke-width:1.0;"/><polygon fill="none" points="369.54,408.17,387.54,414.17,387.54,402.17,369.54,408.17" style="stroke:#000000;stroke-width:1.0;"/></g><!--reverse link TC to UC5--><g id="link_TC_UC5"><path d="M372,441.67 C372,456.53 372,471.33 372,471.33 C372,471.33 442.39,471.33 498.47,471.33 " fill="none" id="TC-backto-UC5" style="stroke:#000000;stroke-width:1.0;"/><polygon fill="none" points="372,423.67,366,441.67,378,441.67,372,423.67" style="stroke:#000000;stroke-width:1.0;"/></g><!--link UC3 to UC8--><g id="link_UC3_UC8"><path d="M364.75,501.5 C379.67,501.5 391,501.5 391,501.5 C391,501.5 391,681.67 391,681.67 C391,681.67 441.3,681.67 490.13,681.67 " fill="none" id="UC3-to-UC8" style="stroke:#000000;stroke-width:1.0;stroke-dasharray:7.0,7.0;"/><polygon fill="#000000" points="496.13,681.67,487.13,677.67,491.13,681.67,487.13,685.67,496.13,681.67" style="stroke:#000000;stroke-width:1.0;"/><text fill="#000000" font-family="Verdana" font-size="13" lengthAdjust="spacing" textLength="62" x="328" y="645.0898">&#171;include&#187;</text></g><!--link UC13 to UC1--><g id="link_UC13_UC1"><path d="M459,1100.77 C459,1020.82 459,418.83 459,418.83 C459,418.83 464.71,418.83 480.4,418.83 " fill="none" id="UC13-to-UC1" style="stroke:#000000;stroke-width:1.0;stroke-dasharray:7.0,7.0;"/><polygon fill="#000000" points="486.4,418.83,477.4,414.83,481.4,418.83,477.4,422.83,486.4,418.83" style="stroke:#000000;stroke-width:1.0;"/><text fill="#000000" font-family="Verdana" font-size="13" lengthAdjust="spacing" textLength="62" x="396" y="760.1698">&#171;include&#187;</text></g><!--link UC13 to UC6--><g id="link_UC13_UC6"><path d="M567,1082.2 C567,1059.41 567,1033.44 567,1012.84 " fill="none" id="UC13-to-UC6" style="stroke:#000000;stroke-width:1.0;stroke-dasharray:7.0,7.0;"/><polygon fill="#000000" points="567,1006.84,563,1015.84,567,1011.84,571,1015.84,567,1006.84" style="stroke:#000000;stroke-width:1.0;"/><text fill="#000000" font-family="Verdana" font-size="13" lengthAdjust="spacing" textLength="62" x="504" y="1041.5898">&#171;include&#187;</text></g><!--link UC5 to UC6--><g id="link_UC5_UC6"><path d="M664,499.68 C664,564.04 664,986.5 664,986.5 C664,986.5 666.85,986.5 661.69,986.5 " fill="none" id="UC5-to-UC6" style="stroke:#000000;stroke-width:1.0;stroke-dasharray:7.0,7.0;"/><polygon fill="#000000" points="655.69,986.5,664.69,990.5,660.69,986.5,664.69,982.5,655.69,986.5" style="stroke:#000000;stroke-width:1.0;"/><text fill="#000000" font-family="Verdana" font-size="13" lengthAdjust="spacing" textLength="62" x="665" y="761.3198">&#171;include&#187;</text></g><!--link UC4 to UC5--><g id="link_UC4_UC5"><path d="M567,553.65 C567,543.13 567,536.05 567,524.6 " fill="none" id="UC4-to-UC5" style="stroke:#000000;stroke-width:1.0;stroke-dasharray:7.0,7.0;"/><polygon fill="#000000" points="567,518.6,563,527.6,567,523.6,571,527.6,567,518.6" style="stroke:#000000;stroke-width:1.0;"/><text fill="#000000" font-family="Verdana" font-size="13" lengthAdjust="spacing" textLength="61" x="505" y="550.1998">&#171;extend&#187;</text></g><!--link UC14 to GMN54--><g id="link_UC14_GMN54"><path d="M393.33,202.5 C471.39,202.5 567,202.5 567,202.5 C567,202.5 567,130.07 567,84.23 " fill="none" id="UC14-GMN54" style="stroke:#000000;stroke-width:1.0;stroke-dasharray:7.0,7.0;"/></g><!--SRC=[ZLMzRjj03Dxr51SlRGUtLXBd3q60Dl2Gfd-etQqBOz6ohDETS3eRiTeyHD0dy9WXau4EHRT3tgkyi_mZnJAgmJAF7ybFdqXgJmynGPPoY8JtWksb2i8468Uf76kM9QX1WETbSIHIK90m7WdKqnIPL7eeAMIBAvLyQesILyW0CqoPtsgLpXM8s9wVj3oFuq0pBPcAmg5cGQImhoCfF0_wMYhMw8HJr9X4R0YSXw3DlC4WOrqz3b3e5Uf3hyDw81IAWBtzSkKmTFSycmz4o94rp2y55j3Kg2QOFzqpQsKvgWRxuJ6wKkZ741AqPsOgdB8OS-Jc8LlwxJNEi0_P6aD-hN0eSpFBmDNjNVuV-BjucO0OcncFibSkyjkbNnjgUSQOvPhuO87UhqLhyrln3UH1FIMCpOCACDz07zQYYJfnXs31VpFsvkcU5-5j5txdVikwNezLFivswrfWDYiLUOzgmTl4EQv5LyKvgKN6qOHU3zZ4QngdjN3a2aUR7FnMhHJBRjmjnWgLOAYH9gYKtTyHWBSfpIknBrhjVVVpfrMNxUy8Z98TWGUrp_Erc2LsWnJBpQELJCPRd-fT2S8ICmzajZ2N8ljRUh1h_eHclbsAPS_TURHghY7jPvA3fkImtXmJu5wnE5YpUU76hMplL-o3YdrOiTiL-wXY7rViaufzMkNJgXvK6VfLYdwLerybITfiQi8WjwknQTMW-_B9s1bDaUGXlHaDUWGM1e6L4FHpJNLvGMR8lTubE__PR3fLr_zTxIlHvyI8nUiS7edBNZjDgFBvURI0N5nuzf4M7h_MS_JCqzxkeEATM-t6h5JxS05lEpWwX4KBgR7u5Cd1QX4Mkq_W1D_4rAiapWJ2gVF9MDlMSau67DAHcGdF5hIvdcTSB8_hpRr2OZwcumpOmFmDG-TV2RmvJ6P6XVYP0pHPnyhlravnq7DPfA2LJAyUg-wFaQ2UM9xL4om6Zm8m7257GT_9I0oaIioi7vbvNBXN-w8yxuMtcylaXdejAP9ODqrhuRqAdkvfVkapJACvJjPi_W40]--></g></svg>