<?xml version="1.0" encoding="us-ascii" standalone="no"?><svg xmlns="http://www.w3.org/2000/svg" xmlns:xlink="http://www.w3.org/1999/xlink" contentStyleType="text/css" height="1771px" preserveAspectRatio="none" style="width:936px;height:1771px;background:#FFFFFF;" version="1.1" viewBox="0 0 936 1771" width="936px" zoomAndPan="magnify"><defs/><g><!--cluster ?rarend-tervez? rendszer--><g id="cluster_&#211;rarend-tervez&#337; rendszer"><rect fill="#FFFFFF" height="1478" rx="2.5" ry="2.5" style="stroke:#000000;stroke-width:1.0;" width="565" x="155" y="193.5"/><text fill="#000000" font-family="Verdana" font-size="14" font-weight="bold" lengthAdjust="spacing" textLength="202" x="336.5" y="209.5752">&#211;rarend-tervez&#337; rendszer</text></g><!--cluster T?rgy kezel?s--><g id="cluster_T&#225;rgy kezel&#233;s"><path d="M191.5,507.5 L298.5,507.5 A3.75,3.75 0 0 1 301,510 L308,530.5146 L682,530.5146 A2.5,2.5 0 0 1 684.5,533.0146 L684.5,845 A2.5,2.5 0 0 1 682,847.5 L191.5,847.5 A2.5,2.5 0 0 1 189,845 L189,510 A2.5,2.5 0 0 1 191.5,507.5 " fill="#FFFFFF" style="stroke:#000000;stroke-width:1.0;"/><line style="stroke:#000000;stroke-width:1.0;" x1="189" x2="308" y1="530.5146" y2="530.5146"/><text fill="#000000" font-family="Verdana" font-size="14" font-weight="bold" lengthAdjust="spacing" textLength="106" x="193" y="523.5752">T&#225;rgy kezel&#233;s</text></g><!--cluster Kurzus kezel?s--><g id="cluster_Kurzus kezel&#233;s"><path d="M460,871.5 L576,871.5 A3.75,3.75 0 0 1 578.5,874 L585.5,894.5146 L673,894.5146 A2.5,2.5 0 0 1 675.5,897.0146 L675.5,1258 A2.5,2.5 0 0 1 673,1260.5 L460,1260.5 A2.5,2.5 0 0 1 457.5,1258 L457.5,874 A2.5,2.5 0 0 1 460,871.5 " fill="#FFFFFF" style="stroke:#000000;stroke-width:1.0;"/><line style="stroke:#000000;stroke-width:1.0;" x1="457.5" x2="585.5" y1="894.5146" y2="894.5146"/><text fill="#000000" font-family="Verdana" font-size="14" font-weight="bold" lengthAdjust="spacing" textLength="115" x="461.5" y="887.5752">Kurzus kezel&#233;s</text></g><!--cluster ?rarend kezel?s--><g id="cluster_&#211;rarend kezel&#233;s"><path d="M439.5,1284.5 L565.5,1284.5 A3.75,3.75 0 0 1 568,1287 L575,1307.5146 L693.5,1307.5146 A2.5,2.5 0 0 1 696,1310.0146 L696,1645 A2.5,2.5 0 0 1 693.5,1647.5 L439.5,1647.5 A2.5,2.5 0 0 1 437,1645 L437,1287 A2.5,2.5 0 0 1 439.5,1284.5 " fill="#FFFFFF" style="stroke:#000000;stroke-width:1.0;"/><line style="stroke:#000000;stroke-width:1.0;" x1="437" x2="575" y1="1307.5146" y2="1307.5146"/><text fill="#000000" font-family="Verdana" font-size="14" font-weight="bold" lengthAdjust="spacing" textLength="125" x="441" y="1300.5752">&#211;rarend kezel&#233;s</text></g><!--cluster Rendszer be?ll?t?sok--><g id="cluster_Rendszer be&#225;ll&#237;t&#225;sok"><path d="M181.5,237.5 L341.5,237.5 A3.75,3.75 0 0 1 344,240 L351,260.5146 L406.5,260.5146 A2.5,2.5 0 0 1 409,263.0146 L409,481 A2.5,2.5 0 0 1 406.5,483.5 L181.5,483.5 A2.5,2.5 0 0 1 179,481 L179,240 A2.5,2.5 0 0 1 181.5,237.5 " fill="#FFFFFF" style="stroke:#000000;stroke-width:1.0;"/><line style="stroke:#000000;stroke-width:1.0;" x1="179" x2="351" y1="260.5146" y2="260.5146"/><text fill="#000000" font-family="Verdana" font-size="14" font-weight="bold" lengthAdjust="spacing" textLength="159" x="183" y="253.5752">Rendszer be&#225;ll&#237;t&#225;sok</text></g><!--cluster N?zet kezel?s--><g id="cluster_N&#233;zet kezel&#233;s"><path d="M185.5,897.5 L290.5,897.5 A3.75,3.75 0 0 1 293,900 L300,920.5146 L402.5,920.5146 A2.5,2.5 0 0 1 405,923.0146 L405,1076 A2.5,2.5 0 0 1 402.5,1078.5 L185.5,1078.5 A2.5,2.5 0 0 1 183,1076 L183,900 A2.5,2.5 0 0 1 185.5,897.5 " fill="#FFFFFF" style="stroke:#000000;stroke-width:1.0;"/><line style="stroke:#000000;stroke-width:1.0;" x1="183" x2="300" y1="920.5146" y2="920.5146"/><text fill="#000000" font-family="Verdana" font-size="14" font-weight="bold" lengthAdjust="spacing" textLength="104" x="187" y="913.5752">N&#233;zet kezel&#233;s</text></g><g id="elem_TC"><ellipse cx="294.0578" cy="615.7116" fill="#FFFFFF" rx="84.0578" ry="19.2116" style="stroke:#000000;stroke-width:1.0;"/><text fill="#000000" font-family="Verdana" font-size="14" lengthAdjust="spacing" textLength="126" x="231.0578" y="619.2794">T&#225;rgy l&#233;trehoz&#225;sa</text></g><g id="elem_UC1"><ellipse cx="566.6222" cy="659.5726" fill="#FFFFFF" rx="100.6222" ry="27.0726" style="stroke:#000000;stroke-width:1.0;"/><text fill="#000000" font-family="Verdana" font-size="14" lengthAdjust="spacing" textLength="126" x="501.6098" y="655.1294">T&#225;rgy l&#233;trehoz&#225;sa</text><text fill="#000000" font-family="Verdana" font-size="14" lengthAdjust="spacing" textLength="73" x="528.1098" y="672.144">(manu&#225;lis)</text></g><g id="elem_UC2"><ellipse cx="293.7882" cy="742.6576" fill="#FFFFFF" rx="88.7882" ry="20.1576" style="stroke:#000000;stroke-width:1.0;"/><text fill="#000000" font-family="Verdana" font-size="14" lengthAdjust="spacing" textLength="137" x="225.2882" y="746.2255">T&#225;rgy szerkeszt&#233;se</text></g><g id="elem_UC3"><ellipse cx="294.1728" cy="814.5346" fill="#FFFFFF" rx="70.6728" ry="16.5346" style="stroke:#000000;stroke-width:1.0;"/><text fill="#000000" font-family="Verdana" font-size="14" lengthAdjust="spacing" textLength="93" x="245.3179" y="818.6837">T&#225;rgy t&#246;rl&#233;se</text></g><g id="elem_UC4"><ellipse cx="566.4838" cy="811.2968" fill="#FFFFFF" rx="84.4838" ry="19.2968" style="stroke:#000000;stroke-width:1.0;"/><text fill="#000000" font-family="Verdana" font-size="14" lengthAdjust="spacing" textLength="127" x="502.9838" y="814.8646">T&#225;rgy lek&#233;rdez&#233;se</text></g><g id="elem_UC5"><ellipse cx="566.5592" cy="570.578" fill="#FFFFFF" rx="102.0592" ry="27.078" style="stroke:#000000;stroke-width:1.0;"/><text fill="#000000" font-family="Verdana" font-size="14" lengthAdjust="spacing" textLength="128" x="500.0362" y="566.2518">T&#225;rgy hozz&#225;ad&#225;sa</text><text fill="#000000" font-family="Verdana" font-size="14" lengthAdjust="spacing" textLength="95" x="516.5362" y="583.2664">lek&#233;rdez&#233;sb&#337;l</text></g><g id="elem_UC16"><ellipse cx="566.5484" cy="739.7097" fill="#FFFFFF" rx="76.5484" ry="17.7097" style="stroke:#000000;stroke-width:1.0;"/><text fill="#000000" font-family="Verdana" font-size="14" lengthAdjust="spacing" textLength="108" x="512.5484" y="743.2775">T&#225;rgy friss&#237;t&#233;se</text></g><g id="elem_UC6"><ellipse cx="566.7228" cy="1224.7446" fill="#FFFFFF" rx="89.2228" ry="20.2446" style="stroke:#000000;stroke-width:1.0;"/><text fill="#000000" font-family="Verdana" font-size="14" lengthAdjust="spacing" textLength="138" x="497.7228" y="1228.3124">Kurzus hozz&#225;ad&#225;sa</text></g><g id="elem_UC7"><ellipse cx="566.6644" cy="999.5329" fill="#FFFFFF" rx="93.1644" ry="21.0329" style="stroke:#000000;stroke-width:1.0;"/><text fill="#000000" font-family="Verdana" font-size="14" lengthAdjust="spacing" textLength="147" x="493.1644" y="1003.1007">Kurzus szerkeszt&#233;se</text></g><g id="elem_UC8"><ellipse cx="566.5256" cy="925.3051" fill="#FFFFFF" rx="74.5256" ry="17.3051" style="stroke:#000000;stroke-width:1.0;"/><text fill="#000000" font-family="Verdana" font-size="14" lengthAdjust="spacing" textLength="103" x="514.7046" y="928.9597">Kurzus t&#246;rl&#233;se</text></g><g id="elem_UC9"><ellipse cx="566.658" cy="1076.3316" fill="#FFFFFF" rx="89.658" ry="20.3316" style="stroke:#000000;stroke-width:1.0;"/><text fill="#000000" font-family="Verdana" font-size="14" lengthAdjust="spacing" textLength="139" x="497.158" y="1079.8995">Kurzus kiv&#225;laszt&#225;sa</text></g><g id="elem_UC10"><ellipse cx="566.4305" cy="1150.2861" fill="#FFFFFF" rx="79.4305" ry="18.2861" style="stroke:#000000;stroke-width:1.0;"/><text fill="#000000" font-family="Verdana" font-size="14" lengthAdjust="spacing" textLength="115" x="508.9305" y="1153.854">Kurzus elrejt&#233;se</text></g><g id="elem_UC11"><ellipse cx="566.6561" cy="1342.3312" fill="#FFFFFF" rx="97.1561" ry="21.8312" style="stroke:#000000;stroke-width:1.0;"/><text fill="#000000" font-family="Verdana" font-size="14" lengthAdjust="spacing" textLength="156" x="488.6561" y="1345.8991">&#211;rarend megtekint&#233;se</text></g><g id="elem_UC12"><ellipse cx="566.6101" cy="1426.6281" fill="#FFFFFF" rx="113.6101" ry="27.1281" style="stroke:#000000;stroke-width:1.0;"/><text fill="#000000" font-family="Verdana" font-size="14" lengthAdjust="spacing" textLength="144" x="491.6101" y="1422.4084">&#211;rarend export&#225;l&#225;sa</text><text fill="#000000" font-family="Verdana" font-size="14" lengthAdjust="spacing" textLength="49" x="539.1101" y="1439.423">(JSON)</text></g><g id="elem_UC13"><ellipse cx="566.388" cy="1604.6252" fill="#FFFFFF" rx="112.888" ry="27.1252" style="stroke:#000000;stroke-width:1.0;"/><text fill="#000000" font-family="Verdana" font-size="14" lengthAdjust="spacing" textLength="143" x="491.888" y="1600.4055">&#211;rarend import&#225;l&#225;sa</text><text fill="#000000" font-family="Verdana" font-size="14" lengthAdjust="spacing" textLength="49" x="538.888" y="1617.4202">(JSON)</text></g><g id="elem_UC17"><ellipse cx="566.6101" cy="1515.6281" fill="#FFFFFF" rx="113.6101" ry="27.1281" style="stroke:#000000;stroke-width:1.0;"/><text fill="#000000" font-family="Verdana" font-size="14" lengthAdjust="spacing" textLength="144" x="491.6101" y="1511.4084">&#211;rarend export&#225;l&#225;sa</text><text fill="#000000" font-family="Verdana" font-size="14" lengthAdjust="spacing" textLength="41" x="543.1101" y="1528.423">(PNG)</text></g><g id="elem_UC14"><ellipse cx="293.9446" cy="295.6889" fill="#FFFFFF" rx="98.9446" ry="22.1889" style="stroke:#000000;stroke-width:1.0;"/><text fill="#000000" font-family="Verdana" font-size="14" lengthAdjust="spacing" textLength="160" x="213.9446" y="299.2568">Be&#225;ll&#237;t&#225;sok m&#243;dos&#237;t&#225;sa</text></g><g id="elem_UC15"><ellipse cx="293.8543" cy="447.5709" fill="#FFFFFF" rx="88.3543" ry="20.0709" style="stroke:#000000;stroke-width:1.0;"/><text fill="#000000" font-family="Verdana" font-size="14" lengthAdjust="spacing" textLength="136" x="225.8543" y="451.1387">S&#250;g&#243; megtekint&#233;se</text></g><g id="elem_UC18"><ellipse cx="294.1962" cy="372.6392" fill="#FFFFFF" rx="86.1962" ry="19.6392" style="stroke:#000000;stroke-width:1.0;"/><text fill="#000000" font-family="Verdana" font-size="14" lengthAdjust="spacing" textLength="131" x="228.6962" y="376.2071">Billenty&#369;parancsok</text></g><g id="elem_UC19"><ellipse cx="294.1962" cy="953.6392" fill="#FFFFFF" rx="86.1962" ry="19.6392" style="stroke:#000000;stroke-width:1.0;"/><text fill="#000000" font-family="Verdana" font-size="14" lengthAdjust="spacing" textLength="131" x="228.6962" y="957.2071">Lista/napt&#225;r v&#225;lt&#225;s</text></g><g id="elem_UC20"><ellipse cx="293.9239" cy="1035.5624" fill="#FFFFFF" rx="94.9239" ry="27.0624" style="stroke:#000000;stroke-width:1.0;"/><text fill="#000000" font-family="Verdana" font-size="14" lengthAdjust="spacing" textLength="118" x="234.8754" y="1030.6356">Kurzus r&#233;szletek</text><text fill="#000000" font-family="Verdana" font-size="14" lengthAdjust="spacing" textLength="96" x="245.8754" y="1047.6503">megjelen&#237;t&#233;se</text></g><!--entity Student--><g id="elem_Student"><ellipse cx="73" cy="1696.5" fill="#FFFFFF" rx="8" ry="8" style="stroke:#000000;stroke-width:1.0;"/><path d="M73,1704.5 L73,1731.5 M60,1712.5 L86,1712.5 M73,1731.5 L60,1746.5 M73,1731.5 L86,1746.5 " fill="none" style="stroke:#000000;stroke-width:1.0;"/><text fill="#000000" font-family="Verdana" font-size="14" lengthAdjust="spacing" textLength="124" x="11" y="1762.5752">Egyetemi hallgat&#243;</text></g><!--entity API--><g id="elem_API"><ellipse cx="294" cy="1696.5" fill="#FFFFFF" rx="8" ry="8" style="stroke:#000000;stroke-width:1.0;"/><path d="M294,1704.5 L294,1731.5 M281,1712.5 L307,1712.5 M294,1731.5 L281,1746.5 M294,1731.5 L307,1746.5 " fill="none" style="stroke:#000000;stroke-width:1.0;"/><text fill="#000000" font-family="Verdana" font-size="14" lengthAdjust="spacing" textLength="126" x="231" y="1762.5752">ELTE Tanrend API</text></g><g id="elem_GMN63"><path d="M747.5,783 L747.5,814 L646.18,818 L747.5,822 L747.5,840.3979 A0,0 0 0 0 747.5,840.3979 L921.5,840.3979 A0,0 0 0 0 921.5,840.3979 L921.5,793 L911.5,783 L747.5,783 A0,0 0 0 0 747.5,783 " fill="#FFFFFF" style="stroke:#000000;stroke-width:1.0;"/><path d="M911.5,783 L911.5,793 L921.5,793 L911.5,783 " fill="#FFFFFF" style="stroke:#000000;stroke-width:1.0;"/><text fill="#000000" font-family="Verdana" font-size="13" lengthAdjust="spacing" textLength="153" x="753.5" y="801.0698">T&#225;rgy neve/k&#243;dja vagy</text><text fill="#000000" font-family="Verdana" font-size="13" lengthAdjust="spacing" textLength="132" x="753.5" y="816.8691">oktat&#243; neve alapj&#225;n</text><text fill="#000000" font-family="Verdana" font-size="13" lengthAdjust="spacing" textLength="147" x="753.5" y="832.6685">Context API haszn&#225;lat</text></g><g id="elem_GMN66"><path d="M740,1032 L740,1072.5 L656.11,1076.5 L740,1080.5 L740,1120.9966 A0,0 0 0 0 740,1120.9966 L929,1120.9966 A0,0 0 0 0 929,1120.9966 L929,1042 L919,1032 L740,1032 A0,0 0 0 0 740,1032 " fill="#FFFFFF" style="stroke:#000000;stroke-width:1.0;"/><path d="M919,1032 L919,1042 L929,1042 L919,1032 " fill="#FFFFFF" style="stroke:#000000;stroke-width:1.0;"/><text fill="#000000" font-family="Verdana" font-size="13" lengthAdjust="spacing" textLength="152" x="746" y="1050.0698">Kiv&#225;laszt&#225;s t&#237;pusa f&#252;gg</text><text fill="#000000" font-family="Verdana" font-size="13" lengthAdjust="spacing" textLength="138" x="746" y="1065.8691">a t&#225;rgy be&#225;ll&#237;t&#225;s&#225;t&#243;l:</text><text fill="#000000" font-family="Verdana" font-size="13" lengthAdjust="spacing" textLength="83" x="746" y="1081.6685">- Egy kurzus</text><text fill="#000000" font-family="Verdana" font-size="13" lengthAdjust="spacing" textLength="168" x="746" y="1097.4678">- T&#237;pusonk&#233;nt egy kurzus</text><text fill="#000000" font-family="Verdana" font-size="13" lengthAdjust="spacing" textLength="105" x="746" y="1113.2671">- Minden kurzus</text></g><g id="elem_GMN69"><path d="M474,11 L474,99.9966 L659,99.9966 L659,21 L649,11 L474,11 " fill="#FFFFFF" style="stroke:#000000;stroke-width:1.0;"/><path d="M649,11 L649,21 L659,21 L649,11 " fill="#FFFFFF" style="stroke:#000000;stroke-width:1.0;"/><text fill="#000000" font-family="Verdana" font-size="13" lengthAdjust="spacing" textLength="157" x="480" y="29.0698">- Megjelen&#337; inform&#225;ci&#243;k</text><text fill="#000000" font-family="Verdana" font-size="13" lengthAdjust="spacing" textLength="138" x="480" y="44.8691">- &#211;rarend be&#225;ll&#237;t&#225;sok</text><text fill="#000000" font-family="Verdana" font-size="13" lengthAdjust="spacing" textLength="164" x="480" y="60.6685">- Szombat megjelen&#237;t&#233;se</text><text fill="#000000" font-family="Verdana" font-size="13" lengthAdjust="spacing" textLength="104" x="480" y="76.4678">- Id&#337;intervallum</text><text fill="#000000" font-family="Verdana" font-size="13" lengthAdjust="spacing" textLength="114" x="480" y="92.2671">- Tant&#225;rgy n&#233;zet</text></g><g id="elem_GMN72"><path d="M778.5,1494.5 L778.5,1511.5 L680.16,1515.5 L778.5,1519.5 L778.5,1536.0986 A0,0 0 0 0 778.5,1536.0986 L890.5,1536.0986 A0,0 0 0 0 890.5,1536.0986 L890.5,1504.5 L880.5,1494.5 L778.5,1494.5 A0,0 0 0 0 778.5,1494.5 " fill="#FFFFFF" style="stroke:#000000;stroke-width:1.0;"/><path d="M880.5,1494.5 L880.5,1504.5 L890.5,1504.5 L880.5,1494.5 " fill="#FFFFFF" style="stroke:#000000;stroke-width:1.0;"/><text fill="#000000" font-family="Verdana" font-size="13" lengthAdjust="spacing" textLength="88" x="784.5" y="1512.5698">Canvas alap&#250;</text><text fill="#000000" font-family="Verdana" font-size="13" lengthAdjust="spacing" textLength="91" x="784.5" y="1528.3691">k&#233;pexport&#225;l&#225;s</text></g><g id="elem_GMN75"><path d="M464.5,135.5 L464.5,177.0986 L668.5,177.0986 L668.5,145.5 L658.5,135.5 L464.5,135.5 " fill="#FFFFFF" style="stroke:#000000;stroke-width:1.0;"/><path d="M658.5,135.5 L658.5,145.5 L668.5,145.5 L658.5,135.5 " fill="#FFFFFF" style="stroke:#000000;stroke-width:1.0;"/><text fill="#000000" font-family="Verdana" font-size="13" lengthAdjust="spacing" textLength="176" x="470.5" y="153.5698">Ctrl+K: Lista/napt&#225;r v&#225;lt&#225;s</text><text fill="#000000" font-family="Verdana" font-size="13" lengthAdjust="spacing" textLength="183" x="470.5" y="169.3691">Custom hook implement&#225;ci&#243;</text></g><!--link Student to UC1--><g id="link_Student_UC1"><path d="M42,1687.3 C42,1494.98 42,660.5 42,660.5 C42,660.5 307.69,660.5 459.99,660.5 " fill="none" id="Student-to-UC1" style="stroke:#000000;stroke-width:1.0;"/><polygon fill="#000000" points="465.99,660.5,456.99,656.5,460.99,660.5,456.99,664.5,465.99,660.5" style="stroke:#000000;stroke-width:1.0;"/></g><!--link Student to UC2--><g id="link_Student_UC2"><path d="M49,1687.32 C49,1504.31 49,742.5 49,742.5 C49,742.5 128.8,742.5 198.86,742.5 " fill="none" id="Student-to-UC2" style="stroke:#000000;stroke-width:1.0;"/><polygon fill="#000000" points="204.86,742.5,195.86,738.5,199.86,742.5,195.86,746.5,204.86,742.5" style="stroke:#000000;stroke-width:1.0;"/></g><!--link Student to UC3--><g id="link_Student_UC3"><path d="M61,1687.31 C61,1512.75 61,814.5 61,814.5 C61,814.5 148.88,814.5 217.46,814.5 " fill="none" id="Student-to-UC3" style="stroke:#000000;stroke-width:1.0;"/><polygon fill="#000000" points="223.46,814.5,214.46,810.5,218.46,814.5,214.46,818.5,223.46,814.5" style="stroke:#000000;stroke-width:1.0;"/></g><!--link Student to UC4--><g id="link_Student_UC4"><path d="M67,1687.35 C67,1515.39 67,835.5 67,835.5 C67,835.5 487,835.5 487,835.5 C487,835.5 487,831.41 487,824.31 " fill="none" id="Student-to-UC4" style="stroke:#000000;stroke-width:1.0;"/><polygon fill="#000000" points="487,818.31,483,827.31,487,823.31,491,827.31,487,818.31" style="stroke:#000000;stroke-width:1.0;"/></g><!--link Student to UC5--><g id="link_Student_UC5"><path d="M36,1687.25 C36,1483.59 36,556.75 36,556.75 C36,556.75 321.84,556.75 472.6,556.75 " fill="none" id="Student-to-UC5" style="stroke:#000000;stroke-width:1.0;"/><polygon fill="#000000" points="478.6,556.75,469.6,552.75,473.6,556.75,469.6,560.75,478.6,556.75" style="stroke:#000000;stroke-width:1.0;"/></g><!--link Student to UC6--><g id="link_Student_UC6"><path d="M104,1687.22 C104,1570.06 104,1231.17 104,1231.17 C104,1231.17 343.14,1231.17 476.48,1231.17 " fill="none" id="Student-to-UC6" style="stroke:#000000;stroke-width:1.0;"/><polygon fill="#000000" points="482.48,1231.17,473.48,1227.17,477.48,1231.17,473.48,1235.17,482.48,1231.17" style="stroke:#000000;stroke-width:1.0;"/></g><!--link Student to UC7--><g id="link_Student_UC7"><path d="M86,1687.35 C86,1535.45 86,993.5 86,993.5 C86,993.5 332.29,993.5 471.25,993.5 " fill="none" id="Student-to-UC7" style="stroke:#000000;stroke-width:1.0;"/><polygon fill="#000000" points="477.25,993.5,468.25,989.5,472.25,993.5,468.25,997.5,477.25,993.5" style="stroke:#000000;stroke-width:1.0;"/></g><!--link Student to UC8--><g id="link_Student_UC8"><path d="M73,1687.32 C73,1526.47 73,925.33 73,925.33 C73,925.33 347.86,925.33 485.82,925.33 " fill="none" id="Student-to-UC8" style="stroke:#000000;stroke-width:1.0;"/><polygon fill="#000000" points="491.82,925.33,482.82,921.33,486.82,925.33,482.82,929.33,491.82,925.33" style="stroke:#000000;stroke-width:1.0;"/></g><!--link Student to UC9--><g id="link_Student_UC9"><path d="M92,1687.5 C92,1547.67 92,1079.75 92,1079.75 C92,1079.75 334.8,1079.75 472.08,1079.75 " fill="none" id="Student-to-UC9" style="stroke:#000000;stroke-width:1.0;"/><polygon fill="#000000" points="478.08,1079.75,469.08,1075.75,473.08,1079.75,469.08,1083.75,478.08,1079.75" style="stroke:#000000;stroke-width:1.0;"/></g><!--link Student to UC10--><g id="link_Student_UC10"><path d="M98,1687.36 C98,1557.72 98,1150.5 98,1150.5 C98,1150.5 347.02,1150.5 480.76,1150.5 " fill="none" id="Student-to-UC10" style="stroke:#000000;stroke-width:1.0;"/><polygon fill="#000000" points="486.76,1150.5,477.76,1146.5,481.76,1150.5,477.76,1154.5,486.76,1150.5" style="stroke:#000000;stroke-width:1.0;"/></g><!--link Student to UC11--><g id="link_Student_UC11"><path d="M111,1687.21 C111,1589.34 111,1342.5 111,1342.5 C111,1342.5 329.57,1342.5 463.34,1342.5 " fill="none" id="Student-to-UC11" style="stroke:#000000;stroke-width:1.0;"/><polygon fill="#000000" points="469.34,1342.5,460.34,1338.5,464.34,1342.5,460.34,1346.5,469.34,1342.5" style="stroke:#000000;stroke-width:1.0;"/></g><!--link Student to UC12--><g id="link_Student_UC12"><path d="M117,1687.28 C117,1605.96 117,1426.5 117,1426.5 C117,1426.5 313.62,1426.5 446.78,1426.5 " fill="none" id="Student-to-UC12" style="stroke:#000000;stroke-width:1.0;"/><polygon fill="#000000" points="452.78,1426.5,443.78,1422.5,447.78,1426.5,443.78,1430.5,452.78,1426.5" style="stroke:#000000;stroke-width:1.0;"/></g><!--link Student to UC13--><g id="link_Student_UC13"><path d="M129,1687.3 C129,1654.66 129,1613.5 129,1613.5 C129,1613.5 324.24,1613.5 453.76,1613.5 " fill="none" id="Student-to-UC13" style="stroke:#000000;stroke-width:1.0;"/><polygon fill="#000000" points="459.76,1613.5,450.76,1609.5,454.76,1613.5,450.76,1617.5,459.76,1613.5" style="stroke:#000000;stroke-width:1.0;"/></g><!--link Student to UC14--><g id="link_Student_UC14"><path d="M18,1687.48 C18,1458.13 18,295.5 18,295.5 C18,295.5 109.62,295.5 188.75,295.5 " fill="none" id="Student-to-UC14" style="stroke:#000000;stroke-width:1.0;"/><polygon fill="#000000" points="194.75,295.5,185.75,291.5,189.75,295.5,185.75,299.5,194.75,295.5" style="stroke:#000000;stroke-width:1.0;"/></g><!--link Student to UC15--><g id="link_Student_UC15"><path d="M30,1687.17 C30,1472.06 30,447.5 30,447.5 C30,447.5 122.66,447.5 199.36,447.5 " fill="none" id="Student-to-UC15" style="stroke:#000000;stroke-width:1.0;"/><polygon fill="#000000" points="205.36,447.5,196.36,443.5,200.36,447.5,196.36,451.5,205.36,447.5" style="stroke:#000000;stroke-width:1.0;"/></g><!--link Student to UC16--><g id="link_Student_UC16"><path d="M55,1687.35 C55,1509.63 55,787.5 55,787.5 C55,787.5 541,787.5 541,787.5 C541,787.5 541,775.9 541,762.02 " fill="none" id="Student-to-UC16" style="stroke:#000000;stroke-width:1.0;"/><polygon fill="#000000" points="541,756.02,537,765.02,541,761.02,545,765.02,541,756.02" style="stroke:#000000;stroke-width:1.0;"/></g><!--link Student to UC17--><g id="link_Student_UC17"><path d="M123,1687.31 C123,1626.29 123,1515.5 123,1515.5 C123,1515.5 315.46,1515.5 446.86,1515.5 " fill="none" id="Student-to-UC17" style="stroke:#000000;stroke-width:1.0;"/><polygon fill="#000000" points="452.86,1515.5,443.86,1511.5,447.86,1515.5,443.86,1519.5,452.86,1515.5" style="stroke:#000000;stroke-width:1.0;"/></g><!--link Student to UC18--><g id="link_Student_UC18"><path d="M24,1687.44 C24,1465.44 24,372.5 24,372.5 C24,372.5 122.81,372.5 201.83,372.5 " fill="none" id="Student-to-UC18" style="stroke:#000000;stroke-width:1.0;"/><polygon fill="#000000" points="207.83,372.5,198.83,368.5,202.83,372.5,198.83,376.5,207.83,372.5" style="stroke:#000000;stroke-width:1.0;"/></g><!--link Student to UC19--><g id="link_Student_UC19"><path d="M80,1687.37 C80,1530.23 80,953.5 80,953.5 C80,953.5 142.42,953.5 201.88,953.5 " fill="none" id="Student-to-UC19" style="stroke:#000000;stroke-width:1.0;"/><polygon fill="#000000" points="207.88,953.5,198.88,949.5,202.88,953.5,198.88,957.5,207.88,953.5" style="stroke:#000000;stroke-width:1.0;"/></g><!--link Student to UC20--><g id="link_Student_UC20"><path d="M135.28,1726.5 C173.44,1726.5 215,1726.5 215,1726.5 C215,1726.5 215,1157.63 215,1056.58 " fill="none" id="Student-to-UC20" style="stroke:#000000;stroke-width:1.0;"/><polygon fill="#000000" points="215,1050.58,211,1059.58,215,1055.58,219,1059.58,215,1050.58" style="stroke:#000000;stroke-width:1.0;"/></g><!--link API to UC4--><g id="link_API_UC4"><path d="M357.4,1739.5 C394.06,1739.5 433,1739.5 433,1739.5 C433,1739.5 433,814.5 433,814.5 C433,814.5 449.89,814.5 476.71,814.5 " fill="none" id="API-to-UC4" style="stroke:#000000;stroke-width:1.0;"/><polygon fill="#000000" points="482.71,814.5,473.71,810.5,477.71,814.5,473.71,818.5,482.71,814.5" style="stroke:#000000;stroke-width:1.0;"/><text fill="#000000" font-family="Verdana" font-size="13" lengthAdjust="spacing" textLength="160" x="272" y="1304.0198">szolg&#225;ltatja az adatokat</text></g><!--link API to UC16--><g id="link_API_UC16"><path d="M357.37,1713.5 C389.99,1713.5 423,1713.5 423,1713.5 C423,1713.5 423,739.75 423,739.75 C423,739.75 449.59,739.75 483.71,739.75 " fill="none" id="API-to-UC16" style="stroke:#000000;stroke-width:1.0;"/><polygon fill="#000000" points="489.71,739.75,480.71,735.75,484.71,739.75,480.71,743.75,489.71,739.75" style="stroke:#000000;stroke-width:1.0;"/><text fill="#000000" font-family="Verdana" font-size="13" lengthAdjust="spacing" textLength="106" x="316" y="1240.1598">friss&#237;tett adatok</text></g><!--reverse link TC to UC1--><g id="link_TC_UC1"><path d="M294,652.85 C294,652.85 396.82,647.5 476.14,647.5 " fill="none" id="TC-backto-UC1" style="stroke:#000000;stroke-width:1.0;"/><polygon fill="none" points="294,634.85,288,652.85,300,652.85,294,634.85" style="stroke:#000000;stroke-width:1.0;"/></g><!--reverse link TC to UC5--><g id="link_TC_UC5"><path d="M294,578.37 C294,578.37 397.14,583.25 476.52,583.25 " fill="none" id="TC-backto-UC5" style="stroke:#000000;stroke-width:1.0;"/><polygon fill="none" points="294,596.37,300,578.37,288,578.37,294,596.37" style="stroke:#000000;stroke-width:1.0;"/></g><!--link UC3 to UC8--><g id="link_UC3_UC8"><path d="M294,831.37 C294,860.39 294,916.67 294,916.67 C294,916.67 415.34,916.67 495.92,916.67 " fill="none" id="UC3-to-UC8" style="stroke:#000000;stroke-width:1.0;stroke-dasharray:7.0,7.0;"/><polygon fill="#000000" points="501.92,916.67,492.92,912.67,496.92,916.67,492.92,920.67,501.92,916.67" style="stroke:#000000;stroke-width:1.0;"/><text fill="#000000" font-family="Verdana" font-size="13" lengthAdjust="spacing" textLength="62" x="292.31" y="930.7398">&#171;include&#187;</text></g><!--link UC13 to UC1--><g id="link_UC13_UC1"><path d="M459.91,1595.5 C449.67,1595.5 443,1595.5 443,1595.5 C443,1595.5 443,673.5 443,673.5 C443,673.5 453.47,673.5 474.39,673.5 " fill="none" id="UC13-to-UC1" style="stroke:#000000;stroke-width:1.0;stroke-dasharray:7.0,7.0;"/><polygon fill="#000000" points="480.39,673.5,471.39,669.5,475.39,673.5,471.39,677.5,480.39,673.5" style="stroke:#000000;stroke-width:1.0;"/><text fill="#000000" font-family="Verdana" font-size="13" lengthAdjust="spacing" textLength="62" x="380" y="1138.3298">&#171;include&#187;</text></g><!--link UC13 to UC6--><g id="link_UC13_UC6"><path d="M679.57,1604.5 C697.35,1604.5 710,1604.5 710,1604.5 C710,1604.5 710,1224.5 710,1224.5 C710,1224.5 690.93,1224.5 661.75,1224.5 " fill="none" id="UC13-to-UC6" style="stroke:#000000;stroke-width:1.0;stroke-dasharray:7.0,7.0;"/><polygon fill="#000000" points="655.75,1224.5,664.75,1228.5,660.75,1224.5,664.75,1220.5,655.75,1224.5" style="stroke:#000000;stroke-width:1.0;"/><text fill="#000000" font-family="Verdana" font-size="13" lengthAdjust="spacing" textLength="62" x="711" y="1416.6598">&#171;include&#187;</text></g><!--link UC5 to UC6--><g id="link_UC5_UC6"><path d="M464.48,570 C461.01,570 459,570 459,570 C459,570 459,1217.83 459,1217.83 C459,1217.83 462.73,1217.83 476.33,1217.83 " fill="none" id="UC5-to-UC6" style="stroke:#000000;stroke-width:1.0;stroke-dasharray:7.0,7.0;"/><polygon fill="#000000" points="482.33,1217.83,473.33,1213.83,477.33,1217.83,473.33,1221.83,482.33,1217.83" style="stroke:#000000;stroke-width:1.0;"/><text fill="#000000" font-family="Verdana" font-size="13" lengthAdjust="spacing" textLength="62" x="396" y="916.9098">&#171;include&#187;</text></g><!--link UC16 to UC4--><g id="link_UC16_UC4"><path d="M592,756.2 C592,767.17 592,775.53 592,786.86 " fill="none" id="UC16-to-UC4" style="stroke:#000000;stroke-width:1.0;stroke-dasharray:7.0,7.0;"/><polygon fill="#000000" points="592,792.86,596,783.86,592,787.86,588,783.86,592,792.86" style="stroke:#000000;stroke-width:1.0;"/><text fill="#000000" font-family="Verdana" font-size="13" lengthAdjust="spacing" textLength="62" x="529" y="788.5998">&#171;include&#187;</text></g><!--link UC4 to UC5--><g id="link_UC4_UC5"><path d="M646.21,805 C662.61,805 675,805 675,805 C675,805 675,570.5 675,570.5 C675,570.5 678.61,570.5 674.54,570.5 " fill="none" id="UC4-to-UC5" style="stroke:#000000;stroke-width:1.0;stroke-dasharray:7.0,7.0;"/><polygon fill="#000000" points="668.54,570.5,677.54,574.5,673.54,570.5,677.54,566.5,668.54,570.5" style="stroke:#000000;stroke-width:1.0;"/><text fill="#000000" font-family="Verdana" font-size="13" lengthAdjust="spacing" textLength="61" x="613" y="712.9798">&#171;extend&#187;</text></g><!--link UC14 to UC19--><g id="link_UC14_UC19"><path d="M393.08,295.5 C404.97,295.5 413,295.5 413,295.5 C413,295.5 413,940 413,940 C413,940 391.08,940 362.29,940 " fill="none" id="UC14-to-UC19" style="stroke:#000000;stroke-width:1.0;stroke-dasharray:7.0,7.0;"/><polygon fill="#000000" points="356.29,940,365.29,944,361.29,940,365.29,936,356.29,940" style="stroke:#000000;stroke-width:1.0;"/><text fill="#000000" font-family="Verdana" font-size="13" lengthAdjust="spacing" textLength="61" x="351" y="650.2198">&#171;extend&#187;</text></g><!--link UC18 to UC19--><g id="link_UC18_UC19"><path d="M375.21,379 C391.12,379 403,379 403,379 C403,379 403,937 403,937 C403,937 375.7,937 345.91,937 " fill="none" id="UC18-to-UC19" style="stroke:#000000;stroke-width:1.0;stroke-dasharray:7.0,7.0;"/><polygon fill="#000000" points="339.91,937,348.91,941,344.91,937,348.91,933,339.91,937" style="stroke:#000000;stroke-width:1.0;"/><text fill="#000000" font-family="Verdana" font-size="13" lengthAdjust="spacing" textLength="61" x="341" y="689.7198">&#171;extend&#187;</text></g><!--link UC14 to GMN69--><g id="link_UC14_GMN69"><path d="M294,273.35 C294,213.94 294,55.5 294,55.5 C294,55.5 394.87,55.5 473.86,55.5 " fill="none" id="UC14-GMN69" style="stroke:#000000;stroke-width:1.0;stroke-dasharray:7.0,7.0;"/></g><!--link UC18 to GMN75--><g id="link_UC18_GMN75"><path d="M375.17,366 C455.64,366 567,366 567,366 C567,366 567,231 567,177.74 " fill="none" id="UC18-GMN75" style="stroke:#000000;stroke-width:1.0;stroke-dasharray:7.0,7.0;"/></g><!--SRC=[bLR1RkCs4BthAxYvjCN2krOIEquG1EWQGP5ccrqqxcql4tiiAw98WQIDjThzYA1Vu6CEUoW2zB3eJSX_TKZ9jiHOHkk3xU6y6JtE31_roimmHPPnY4Nm7NkLAOXIO1oMScwOJj60W23GIImoK90o7WiqomoPL6OcAMI7AvDyQOs6LyW9QinOsEqsrXM8nAuFka70SMgOaKp5qSomIQnmR68fWW36HYfsS1ajqM0Qinbm7e4fdWuOQ7PhvXCKPeDwFxfa8n0AnOJz-F7AOUWt26m-4157Tb3ygS02EWRL0lFd1sOjdQCwOBy7Z3uPZ1E823egLYfQiWHpvCMZNlljPwvn37gB8RzHE9DviTBWdZiQ_ZVm9_5z2c9Uh7YiVt2Hlmt3rb3BCq6T6-A35Vgm5MsAlnMl8O_QAM5IFAe9vZNqSIkQg1Dtc9Jywx5tpm-y2k-rXazLh7NnjRw7iE_GNzntimlNSvNFzVukL9WwhofnlnMygvGdhMY_b8DMP18lg9bW4szfdBR2aIkyRvIYsrgAzUpkByO6bM9aaCvR8tku9m0_PtIwYNqrc3_VVhZPpEJXdi0utHDuz3-U-F7cfqtSIMiTVgrEBBj32kLsb5PQ9ZkhyQu1OMdnD96wDDVD2NTC-ctnBIgUTfTmnsI_Ypad9Le-_sN5JOmTcn8zQDt6JV6OezdVpFUnDl1MG4Q45REJPPclSxUFbQA4EIVHJ3u9siGz4htcaJjSpzcNW7Jv6Z8YpS5GZM0himlWGQMohDEvSDhKj0yz-yYpZpsxvzbzppxnx85dd_fyklw2pp3qAOO-nz0d6VeiGvzcwFCCVQAXpvGANYyqWznUJXrROlfTbukTaJ997jbEWxa72uE9xGkO6Yxi4t0jf6XCXNdPIjEyn3JoO3HavtzqEgwPs_yz6tibnfmuisIR8w2UiZUk5VJ8y_EuX5nS1BQIfITizVHVU7fj3jhIctK9wXwYTVdPEDbhi3ekuJq7HuSeyrIEyFI5Px3R4mXfi7hvaDFDrLTTLm8N-3OXtQ1cB21QEfzCZ3qVpic0GtPVh8Jp3AKmbDdsbiwHpeMz3KnW-Tl7l7nOUOYlwzS6TUrhDjV0fiK_KUJycqxMDQzO4GT-vW0TTcdxx8v_jJ1oMQIW-vcc47ttBx6WyLoljHEiz942AY6XbwPOJALAYzKuBfwIohrHzQOiLzxRNAPtDFQU6bNUgydp0yailPEHzCpJzGP0LBiMJYltaIolYo681ScRxKZnpQtGvhFwDRClHwdLGwFuw-ipjbjxIyXS6vdI2mUTCRhyEBrBMwQs6jly_m80]--></g></svg>