<?xml version="1.0" encoding="us-ascii" standalone="no"?><svg xmlns="http://www.w3.org/2000/svg" xmlns:xlink="http://www.w3.org/1999/xlink" contentStyleType="text/css" height="981px" preserveAspectRatio="none" style="width:1004px;height:981px;background:#FFFFFF;" version="1.1" viewBox="0 0 1004 981" width="1004px" zoomAndPan="magnify"><defs/><g><!--class Subjects--><g id="elem_Subjects"><rect codeLine="2" fill="#F1F1F1" height="122.4375" id="Subjects" rx="2.5" ry="2.5" style="stroke:#181818;stroke-width:0.5;" width="160" x="511" y="7"/><ellipse cx="559.75" cy="23" fill="#ADD1B2" rx="11" ry="11" style="stroke:#181818;stroke-width:1.0;"/><path d="M562.5156,18.875 Q562.6719,18.6563 562.8594,18.5469 Q563.0469,18.4375 563.2656,18.4375 Q563.6406,18.4375 563.875,18.7031 Q564.1094,18.9531 564.1094,19.5625 L564.1094,21.0156 Q564.1094,21.625 563.875,21.8906 Q563.6406,22.1563 563.2656,22.1563 Q562.9219,22.1563 562.7188,21.9531 Q562.5156,21.7656 562.4063,21.25 Q562.3594,20.8906 562.1719,20.7031 Q561.8438,20.3281 561.2344,20.1094 Q560.625,19.8906 560,19.8906 Q559.2344,19.8906 558.5938,20.2188 Q557.9688,20.5469 557.4688,21.2969 Q556.9844,22.0469 556.9844,23.0781 L556.9844,24.1719 Q556.9844,25.4063 557.875,26.2344 Q558.7656,27.0469 560.3594,27.0469 Q561.2969,27.0469 561.9531,26.7969 Q562.3438,26.6406 562.7656,26.2031 Q563.0313,25.9375 563.1719,25.8594 Q563.3281,25.7813 563.5313,25.7813 Q563.8594,25.7813 564.1094,26.0469 Q564.375,26.2969 564.375,26.6406 Q564.375,26.9844 564.0313,27.3906 Q563.5313,27.9688 562.7344,28.2969 Q561.6563,28.75 560.3594,28.75 Q558.8438,28.75 557.6406,28.125 Q556.6563,27.625 555.9688,26.5625 Q555.2813,25.4844 555.2813,24.2031 L555.2813,23.0469 Q555.2813,21.7188 555.8906,20.5781 Q556.5156,19.4219 557.6094,18.8125 Q558.7031,18.1875 559.9375,18.1875 Q560.6719,18.1875 561.3125,18.3594 Q561.9688,18.5156 562.5156,18.875 Z " fill="#000000"/><text fill="#000000" font-family="sans-serif" font-size="14" lengthAdjust="spacing" textLength="54" x="580.25" y="28.7285">Subjects</text><line style="stroke:#181818;stroke-width:0.5;" x1="512" x2="670" y1="39" y2="39"/><ellipse cx="522" cy="74.9141" fill="#84BE84" rx="3" ry="3" style="stroke:#038048;stroke-width:1.0;"/><text fill="#000000" font-family="sans-serif" font-size="14" lengthAdjust="spacing" textLength="130" x="531" y="79.1426">useTimetable() hook</text><ellipse cx="522" cy="92.5234" fill="#84BE84" rx="3" ry="3" style="stroke:#038048;stroke-width:1.0;"/><text fill="#000000" font-family="sans-serif" font-size="14" lengthAdjust="spacing" textLength="119" x="531" y="96.752">useSettings() hook</text><line style="stroke:#181818;stroke-width:1.0;stroke-dasharray:1.0,2.0;" x1="512" x2="545" y1="55.8047" y2="55.8047"/><text fill="#000000" font-family="sans-serif" font-size="14" lengthAdjust="spacing" textLength="92" x="545" y="61.0332">Context Usage</text><line style="stroke:#181818;stroke-width:1.0;stroke-dasharray:1.0,2.0;" x1="637" x2="670" y1="55.8047" y2="55.8047"/><line style="stroke:#181818;stroke-width:0.5;" x1="512" x2="670" y1="103.8281" y2="103.8281"/><rect fill="#F24D5C" height="6" style="stroke:#C82930;stroke-width:1.0;" width="6" x="519" y="115.1328"/><text fill="#000000" font-family="sans-serif" font-size="14" lengthAdjust="spacing" textLength="134" x="531" y="122.3613">JSX.Element render()</text></g><!--class Subject--><g id="elem_Subject"><rect codeLine="10" fill="#F1F1F1" height="306.5313" id="Subject" rx="2.5" ry="2.5" style="stroke:#181818;stroke-width:0.5;" width="175" x="503.5" y="189"/><ellipse cx="563.25" cy="205" fill="#ADD1B2" rx="11" ry="11" style="stroke:#181818;stroke-width:1.0;"/><path d="M566.0156,200.875 Q566.1719,200.6563 566.3594,200.5469 Q566.5469,200.4375 566.7656,200.4375 Q567.1406,200.4375 567.375,200.7031 Q567.6094,200.9531 567.6094,201.5625 L567.6094,203.0156 Q567.6094,203.625 567.375,203.8906 Q567.1406,204.1563 566.7656,204.1563 Q566.4219,204.1563 566.2188,203.9531 Q566.0156,203.7656 565.9063,203.25 Q565.8594,202.8906 565.6719,202.7031 Q565.3438,202.3281 564.7344,202.1094 Q564.125,201.8906 563.5,201.8906 Q562.7344,201.8906 562.0938,202.2188 Q561.4688,202.5469 560.9688,203.2969 Q560.4844,204.0469 560.4844,205.0781 L560.4844,206.1719 Q560.4844,207.4063 561.375,208.2344 Q562.2656,209.0469 563.8594,209.0469 Q564.7969,209.0469 565.4531,208.7969 Q565.8438,208.6406 566.2656,208.2031 Q566.5313,207.9375 566.6719,207.8594 Q566.8281,207.7813 567.0313,207.7813 Q567.3594,207.7813 567.6094,208.0469 Q567.875,208.2969 567.875,208.6406 Q567.875,208.9844 567.5313,209.3906 Q567.0313,209.9688 566.2344,210.2969 Q565.1563,210.75 563.8594,210.75 Q562.3438,210.75 561.1406,210.125 Q560.1563,209.625 559.4688,208.5625 Q558.7813,207.4844 558.7813,206.2031 L558.7813,205.0469 Q558.7813,203.7188 559.3906,202.5781 Q560.0156,201.4219 561.1094,200.8125 Q562.2031,200.1875 563.4375,200.1875 Q564.1719,200.1875 564.8125,200.3594 Q565.4688,200.5156 566.0156,200.875 Z " fill="#000000"/><text fill="#000000" font-family="sans-serif" font-size="14" lengthAdjust="spacing" textLength="47" x="583.75" y="210.7285">Subject</text><line style="stroke:#181818;stroke-width:0.5;" x1="504.5" x2="677.5" y1="221" y2="221"/><ellipse cx="514.5" cy="256.9141" fill="none" rx="3" ry="3" style="stroke:#038048;stroke-width:1.0;"/><text fill="#000000" font-family="sans-serif" font-size="14" lengthAdjust="spacing" textLength="96" x="523.5" y="261.1426">Subject subject</text><line style="stroke:#181818;stroke-width:1.0;stroke-dasharray:1.0,2.0;" x1="504.5" x2="573" y1="237.8047" y2="237.8047"/><text fill="#000000" font-family="sans-serif" font-size="14" lengthAdjust="spacing" textLength="36" x="573" y="243.0332">props</text><line style="stroke:#181818;stroke-width:1.0;stroke-dasharray:1.0,2.0;" x1="609" x2="677.5" y1="237.8047" y2="237.8047"/><ellipse cx="514.5" cy="296.1328" fill="#84BE84" rx="3" ry="3" style="stroke:#038048;stroke-width:1.0;"/><text fill="#000000" font-family="sans-serif" font-size="14" lengthAdjust="spacing" textLength="130" x="523.5" y="300.3613">useTimetable() hook</text><ellipse cx="514.5" cy="313.7422" fill="#84BE84" rx="3" ry="3" style="stroke:#038048;stroke-width:1.0;"/><text fill="#000000" font-family="sans-serif" font-size="14" lengthAdjust="spacing" textLength="119" x="523.5" y="317.9707">useSettings() hook</text><line style="stroke:#181818;stroke-width:1.0;stroke-dasharray:1.0,2.0;" x1="504.5" x2="545" y1="277.0234" y2="277.0234"/><text fill="#000000" font-family="sans-serif" font-size="14" lengthAdjust="spacing" textLength="92" x="545" y="282.252">Context Usage</text><line style="stroke:#181818;stroke-width:1.0;stroke-dasharray:1.0,2.0;" x1="637" x2="677.5" y1="277.0234" y2="277.0234"/><ellipse cx="514.5" cy="352.9609" fill="none" rx="3" ry="3" style="stroke:#038048;stroke-width:1.0;"/><text fill="#000000" font-family="sans-serif" font-size="14" lengthAdjust="spacing" textLength="100" x="523.5" y="357.1895">boolean isOpen</text><ellipse cx="514.5" cy="370.5703" fill="none" rx="3" ry="3" style="stroke:#038048;stroke-width:1.0;"/><text fill="#000000" font-family="sans-serif" font-size="14" lengthAdjust="spacing" textLength="134" x="523.5" y="374.7988">boolean isRefreshing</text><line style="stroke:#181818;stroke-width:1.0;stroke-dasharray:1.0,2.0;" x1="504.5" x2="575.5" y1="333.8516" y2="333.8516"/><text fill="#000000" font-family="sans-serif" font-size="14" lengthAdjust="spacing" textLength="31" x="575.5" y="339.0801">state</text><line style="stroke:#181818;stroke-width:1.0;stroke-dasharray:1.0,2.0;" x1="606.5" x2="677.5" y1="333.8516" y2="333.8516"/><line style="stroke:#181818;stroke-width:0.5;" x1="504.5" x2="677.5" y1="381.875" y2="381.875"/><ellipse cx="514.5" cy="396.1797" fill="#84BE84" rx="3" ry="3" style="stroke:#038048;stroke-width:1.0;"/><text fill="#000000" font-family="sans-serif" font-size="14" lengthAdjust="spacing" textLength="136" x="523.5" y="400.4082">async updateButton()</text><ellipse cx="514.5" cy="413.7891" fill="#84BE84" rx="3" ry="3" style="stroke:#038048;stroke-width:1.0;"/><text fill="#000000" font-family="sans-serif" font-size="14" lengthAdjust="spacing" textLength="149" x="523.5" y="418.0176">void editButton(subject)</text><ellipse cx="514.5" cy="431.3984" fill="#84BE84" rx="3" ry="3" style="stroke:#038048;stroke-width:1.0;"/><text fill="#000000" font-family="sans-serif" font-size="14" lengthAdjust="spacing" textLength="133" x="523.5" y="435.627">void handleChange()</text><ellipse cx="514.5" cy="449.0078" fill="#84BE84" rx="3" ry="3" style="stroke:#038048;stroke-width:1.0;"/><text fill="#000000" font-family="sans-serif" font-size="14" lengthAdjust="spacing" textLength="109" x="523.5" y="453.2363">string getStatus()</text><ellipse cx="514.5" cy="466.6172" fill="#84BE84" rx="3" ry="3" style="stroke:#038048;stroke-width:1.0;"/><text fill="#000000" font-family="sans-serif" font-size="14" lengthAdjust="spacing" textLength="95" x="523.5" y="470.8457">string getIcon()</text><ellipse cx="514.5" cy="484.2266" fill="#84BE84" rx="3" ry="3" style="stroke:#038048;stroke-width:1.0;"/><text fill="#000000" font-family="sans-serif" font-size="14" lengthAdjust="spacing" textLength="134" x="523.5" y="488.4551">JSX.Element render()</text></g><!--class SubjectModal--><g id="elem_SubjectModal"><rect codeLine="28" fill="#F1F1F1" height="161.6563" id="SubjectModal" rx="2.5" ry="2.5" style="stroke:#181818;stroke-width:0.5;" width="176" x="395" y="556"/><ellipse cx="436.55" cy="572" fill="#ADD1B2" rx="11" ry="11" style="stroke:#181818;stroke-width:1.0;"/><path d="M439.3156,567.875 Q439.4719,567.6563 439.6594,567.5469 Q439.8469,567.4375 440.0656,567.4375 Q440.4406,567.4375 440.675,567.7031 Q440.9094,567.9531 440.9094,568.5625 L440.9094,570.0156 Q440.9094,570.625 440.675,570.8906 Q440.4406,571.1563 440.0656,571.1563 Q439.7219,571.1563 439.5188,570.9531 Q439.3156,570.7656 439.2063,570.25 Q439.1594,569.8906 438.9719,569.7031 Q438.6438,569.3281 438.0344,569.1094 Q437.425,568.8906 436.8,568.8906 Q436.0344,568.8906 435.3938,569.2188 Q434.7688,569.5469 434.2688,570.2969 Q433.7844,571.0469 433.7844,572.0781 L433.7844,573.1719 Q433.7844,574.4063 434.675,575.2344 Q435.5656,576.0469 437.1594,576.0469 Q438.0969,576.0469 438.7531,575.7969 Q439.1438,575.6406 439.5656,575.2031 Q439.8313,574.9375 439.9719,574.8594 Q440.1281,574.7813 440.3313,574.7813 Q440.6594,574.7813 440.9094,575.0469 Q441.175,575.2969 441.175,575.6406 Q441.175,575.9844 440.8313,576.3906 Q440.3313,576.9688 439.5344,577.2969 Q438.4563,577.75 437.1594,577.75 Q435.6438,577.75 434.4406,577.125 Q433.4563,576.625 432.7688,575.5625 Q432.0813,574.4844 432.0813,573.2031 L432.0813,572.0469 Q432.0813,570.7188 432.6906,569.5781 Q433.3156,568.4219 434.4094,567.8125 Q435.5031,567.1875 436.7375,567.1875 Q437.4719,567.1875 438.1125,567.3594 Q438.7688,567.5156 439.3156,567.875 Z " fill="#000000"/><text fill="#000000" font-family="sans-serif" font-size="14" lengthAdjust="spacing" textLength="85" x="456.45" y="577.7285">SubjectModal</text><line style="stroke:#181818;stroke-width:0.5;" x1="396" x2="570" y1="588" y2="588"/><ellipse cx="406" cy="623.9141" fill="none" rx="3" ry="3" style="stroke:#038048;stroke-width:1.0;"/><text fill="#000000" font-family="sans-serif" font-size="14" lengthAdjust="spacing" textLength="96" x="415" y="628.1426">Subject subject</text><line style="stroke:#181818;stroke-width:1.0;stroke-dasharray:1.0,2.0;" x1="396" x2="465" y1="604.8047" y2="604.8047"/><text fill="#000000" font-family="sans-serif" font-size="14" lengthAdjust="spacing" textLength="36" x="465" y="610.0332">props</text><line style="stroke:#181818;stroke-width:1.0;stroke-dasharray:1.0,2.0;" x1="501" x2="570" y1="604.8047" y2="604.8047"/><ellipse cx="406" cy="663.1328" fill="#84BE84" rx="3" ry="3" style="stroke:#038048;stroke-width:1.0;"/><text fill="#000000" font-family="sans-serif" font-size="14" lengthAdjust="spacing" textLength="130" x="415" y="667.3613">useTimetable() hook</text><line style="stroke:#181818;stroke-width:1.0;stroke-dasharray:1.0,2.0;" x1="396" x2="437" y1="644.0234" y2="644.0234"/><text fill="#000000" font-family="sans-serif" font-size="14" lengthAdjust="spacing" textLength="92" x="437" y="649.252">Context Usage</text><line style="stroke:#181818;stroke-width:1.0;stroke-dasharray:1.0,2.0;" x1="529" x2="570" y1="644.0234" y2="644.0234"/><line style="stroke:#181818;stroke-width:0.5;" x1="396" x2="570" y1="674.4375" y2="674.4375"/><ellipse cx="406" cy="688.7422" fill="#84BE84" rx="3" ry="3" style="stroke:#038048;stroke-width:1.0;"/><text fill="#000000" font-family="sans-serif" font-size="14" lengthAdjust="spacing" textLength="150" x="415" y="692.9707">void handleSave(event)</text><ellipse cx="406" cy="706.3516" fill="#84BE84" rx="3" ry="3" style="stroke:#038048;stroke-width:1.0;"/><text fill="#000000" font-family="sans-serif" font-size="14" lengthAdjust="spacing" textLength="134" x="415" y="710.5801">JSX.Element render()</text></g><!--class SubjectTimetable--><g id="elem_SubjectTimetable"><rect codeLine="38" fill="#F1F1F1" height="144.0469" id="SubjectTimetable" rx="2.5" ry="2.5" style="stroke:#181818;stroke-width:0.5;" width="160" x="7" y="565"/><ellipse cx="30.55" cy="581" fill="#ADD1B2" rx="11" ry="11" style="stroke:#181818;stroke-width:1.0;"/><path d="M33.3156,576.875 Q33.4719,576.6563 33.6594,576.5469 Q33.8469,576.4375 34.0656,576.4375 Q34.4406,576.4375 34.675,576.7031 Q34.9094,576.9531 34.9094,577.5625 L34.9094,579.0156 Q34.9094,579.625 34.675,579.8906 Q34.4406,580.1563 34.0656,580.1563 Q33.7219,580.1563 33.5188,579.9531 Q33.3156,579.7656 33.2063,579.25 Q33.1594,578.8906 32.9719,578.7031 Q32.6438,578.3281 32.0344,578.1094 Q31.425,577.8906 30.8,577.8906 Q30.0344,577.8906 29.3938,578.2188 Q28.7688,578.5469 28.2688,579.2969 Q27.7844,580.0469 27.7844,581.0781 L27.7844,582.1719 Q27.7844,583.4063 28.675,584.2344 Q29.5656,585.0469 31.1594,585.0469 Q32.0969,585.0469 32.7531,584.7969 Q33.1438,584.6406 33.5656,584.2031 Q33.8313,583.9375 33.9719,583.8594 Q34.1281,583.7813 34.3313,583.7813 Q34.6594,583.7813 34.9094,584.0469 Q35.175,584.2969 35.175,584.6406 Q35.175,584.9844 34.8313,585.3906 Q34.3313,585.9688 33.5344,586.2969 Q32.4563,586.75 31.1594,586.75 Q29.6438,586.75 28.4406,586.125 Q27.4563,585.625 26.7688,584.5625 Q26.0813,583.4844 26.0813,582.2031 L26.0813,581.0469 Q26.0813,579.7188 26.6906,578.5781 Q27.3156,577.4219 28.4094,576.8125 Q29.5031,576.1875 30.7375,576.1875 Q31.4719,576.1875 32.1125,576.3594 Q32.7688,576.5156 33.3156,576.875 Z " fill="#000000"/><text fill="#000000" font-family="sans-serif" font-size="14" lengthAdjust="spacing" textLength="109" x="46.45" y="586.7285">SubjectTimetable</text><line style="stroke:#181818;stroke-width:0.5;" x1="8" x2="166" y1="597" y2="597"/><ellipse cx="18" cy="632.9141" fill="none" rx="3" ry="3" style="stroke:#038048;stroke-width:1.0;"/><text fill="#000000" font-family="sans-serif" font-size="14" lengthAdjust="spacing" textLength="96" x="27" y="637.1426">Subject subject</text><line style="stroke:#181818;stroke-width:1.0;stroke-dasharray:1.0,2.0;" x1="8" x2="69" y1="613.8047" y2="613.8047"/><text fill="#000000" font-family="sans-serif" font-size="14" lengthAdjust="spacing" textLength="36" x="69" y="619.0332">props</text><line style="stroke:#181818;stroke-width:1.0;stroke-dasharray:1.0,2.0;" x1="105" x2="166" y1="613.8047" y2="613.8047"/><ellipse cx="18" cy="672.1328" fill="#84BE84" rx="3" ry="3" style="stroke:#038048;stroke-width:1.0;"/><text fill="#000000" font-family="sans-serif" font-size="14" lengthAdjust="spacing" textLength="119" x="27" y="676.3613">useSettings() hook</text><line style="stroke:#181818;stroke-width:1.0;stroke-dasharray:1.0,2.0;" x1="8" x2="41" y1="653.0234" y2="653.0234"/><text fill="#000000" font-family="sans-serif" font-size="14" lengthAdjust="spacing" textLength="92" x="41" y="658.252">Context Usage</text><line style="stroke:#181818;stroke-width:1.0;stroke-dasharray:1.0,2.0;" x1="133" x2="166" y1="653.0234" y2="653.0234"/><line style="stroke:#181818;stroke-width:0.5;" x1="8" x2="166" y1="683.4375" y2="683.4375"/><ellipse cx="18" cy="697.7422" fill="#84BE84" rx="3" ry="3" style="stroke:#038048;stroke-width:1.0;"/><text fill="#000000" font-family="sans-serif" font-size="14" lengthAdjust="spacing" textLength="134" x="27" y="701.9707">JSX.Element render()</text></g><!--class CourseAdder--><g id="elem_CourseAdder"><rect codeLine="47" fill="#F1F1F1" height="161.6563" id="CourseAdder" rx="2.5" ry="2.5" style="stroke:#181818;stroke-width:0.5;" width="187" x="606.5" y="556"/><ellipse cx="653.75" cy="572" fill="#ADD1B2" rx="11" ry="11" style="stroke:#181818;stroke-width:1.0;"/><path d="M656.5156,567.875 Q656.6719,567.6563 656.8594,567.5469 Q657.0469,567.4375 657.2656,567.4375 Q657.6406,567.4375 657.875,567.7031 Q658.1094,567.9531 658.1094,568.5625 L658.1094,570.0156 Q658.1094,570.625 657.875,570.8906 Q657.6406,571.1563 657.2656,571.1563 Q656.9219,571.1563 656.7188,570.9531 Q656.5156,570.7656 656.4063,570.25 Q656.3594,569.8906 656.1719,569.7031 Q655.8438,569.3281 655.2344,569.1094 Q654.625,568.8906 654,568.8906 Q653.2344,568.8906 652.5938,569.2188 Q651.9688,569.5469 651.4688,570.2969 Q650.9844,571.0469 650.9844,572.0781 L650.9844,573.1719 Q650.9844,574.4063 651.875,575.2344 Q652.7656,576.0469 654.3594,576.0469 Q655.2969,576.0469 655.9531,575.7969 Q656.3438,575.6406 656.7656,575.2031 Q657.0313,574.9375 657.1719,574.8594 Q657.3281,574.7813 657.5313,574.7813 Q657.8594,574.7813 658.1094,575.0469 Q658.375,575.2969 658.375,575.6406 Q658.375,575.9844 658.0313,576.3906 Q657.5313,576.9688 656.7344,577.2969 Q655.6563,577.75 654.3594,577.75 Q652.8438,577.75 651.6406,577.125 Q650.6563,576.625 649.9688,575.5625 Q649.2813,574.4844 649.2813,573.2031 L649.2813,572.0469 Q649.2813,570.7188 649.8906,569.5781 Q650.5156,568.4219 651.6094,567.8125 Q652.7031,567.1875 653.9375,567.1875 Q654.6719,567.1875 655.3125,567.3594 Q655.9688,567.5156 656.5156,567.875 Z " fill="#000000"/><text fill="#000000" font-family="sans-serif" font-size="14" lengthAdjust="spacing" textLength="84" x="674.25" y="577.7285">CourseAdder</text><line style="stroke:#181818;stroke-width:0.5;" x1="607.5" x2="792.5" y1="588" y2="588"/><ellipse cx="617.5" cy="623.9141" fill="none" rx="3" ry="3" style="stroke:#038048;stroke-width:1.0;"/><text fill="#000000" font-family="sans-serif" font-size="14" lengthAdjust="spacing" textLength="108" x="626.5" y="628.1426">number subjectId</text><line style="stroke:#181818;stroke-width:1.0;stroke-dasharray:1.0,2.0;" x1="607.5" x2="682" y1="604.8047" y2="604.8047"/><text fill="#000000" font-family="sans-serif" font-size="14" lengthAdjust="spacing" textLength="36" x="682" y="610.0332">props</text><line style="stroke:#181818;stroke-width:1.0;stroke-dasharray:1.0,2.0;" x1="718" x2="792.5" y1="604.8047" y2="604.8047"/><ellipse cx="617.5" cy="663.1328" fill="#84BE84" rx="3" ry="3" style="stroke:#038048;stroke-width:1.0;"/><text fill="#000000" font-family="sans-serif" font-size="14" lengthAdjust="spacing" textLength="130" x="626.5" y="667.3613">useTimetable() hook</text><line style="stroke:#181818;stroke-width:1.0;stroke-dasharray:1.0,2.0;" x1="607.5" x2="654" y1="644.0234" y2="644.0234"/><text fill="#000000" font-family="sans-serif" font-size="14" lengthAdjust="spacing" textLength="92" x="654" y="649.252">Context Usage</text><line style="stroke:#181818;stroke-width:1.0;stroke-dasharray:1.0,2.0;" x1="746" x2="792.5" y1="644.0234" y2="644.0234"/><line style="stroke:#181818;stroke-width:0.5;" x1="607.5" x2="792.5" y1="674.4375" y2="674.4375"/><ellipse cx="617.5" cy="688.7422" fill="#84BE84" rx="3" ry="3" style="stroke:#038048;stroke-width:1.0;"/><text fill="#000000" font-family="sans-serif" font-size="14" lengthAdjust="spacing" textLength="161" x="626.5" y="692.9707">void handleSubmit(event)</text><ellipse cx="617.5" cy="706.3516" fill="#84BE84" rx="3" ry="3" style="stroke:#038048;stroke-width:1.0;"/><text fill="#000000" font-family="sans-serif" font-size="14" lengthAdjust="spacing" textLength="134" x="626.5" y="710.5801">JSX.Element render()</text></g><!--class CourseTable--><g id="elem_CourseTable"><rect codeLine="57" fill="#F1F1F1" height="161.6563" id="CourseTable" rx="2.5" ry="2.5" style="stroke:#181818;stroke-width:0.5;" width="160" x="829" y="556"/><ellipse cx="864.7" cy="572" fill="#ADD1B2" rx="11" ry="11" style="stroke:#181818;stroke-width:1.0;"/><path d="M867.4656,567.875 Q867.6219,567.6563 867.8094,567.5469 Q867.9969,567.4375 868.2156,567.4375 Q868.5906,567.4375 868.825,567.7031 Q869.0594,567.9531 869.0594,568.5625 L869.0594,570.0156 Q869.0594,570.625 868.825,570.8906 Q868.5906,571.1563 868.2156,571.1563 Q867.8719,571.1563 867.6688,570.9531 Q867.4656,570.7656 867.3563,570.25 Q867.3094,569.8906 867.1219,569.7031 Q866.7938,569.3281 866.1844,569.1094 Q865.575,568.8906 864.95,568.8906 Q864.1844,568.8906 863.5438,569.2188 Q862.9188,569.5469 862.4188,570.2969 Q861.9344,571.0469 861.9344,572.0781 L861.9344,573.1719 Q861.9344,574.4063 862.825,575.2344 Q863.7156,576.0469 865.3094,576.0469 Q866.2469,576.0469 866.9031,575.7969 Q867.2938,575.6406 867.7156,575.2031 Q867.9813,574.9375 868.1219,574.8594 Q868.2781,574.7813 868.4813,574.7813 Q868.8094,574.7813 869.0594,575.0469 Q869.325,575.2969 869.325,575.6406 Q869.325,575.9844 868.9813,576.3906 Q868.4813,576.9688 867.6844,577.2969 Q866.6063,577.75 865.3094,577.75 Q863.7938,577.75 862.5906,577.125 Q861.6063,576.625 860.9188,575.5625 Q860.2313,574.4844 860.2313,573.2031 L860.2313,572.0469 Q860.2313,570.7188 860.8406,569.5781 Q861.4656,568.4219 862.5594,567.8125 Q863.6531,567.1875 864.8875,567.1875 Q865.6219,567.1875 866.2625,567.3594 Q866.9188,567.5156 867.4656,567.875 Z " fill="#000000"/><text fill="#000000" font-family="sans-serif" font-size="14" lengthAdjust="spacing" textLength="82" x="883.3" y="577.7285">CourseTable</text><line style="stroke:#181818;stroke-width:0.5;" x1="830" x2="988" y1="588" y2="588"/><ellipse cx="840" cy="623.9141" fill="none" rx="3" ry="3" style="stroke:#038048;stroke-width:1.0;"/><text fill="#000000" font-family="sans-serif" font-size="14" lengthAdjust="spacing" textLength="96" x="849" y="628.1426">Subject subject</text><line style="stroke:#181818;stroke-width:1.0;stroke-dasharray:1.0,2.0;" x1="830" x2="891" y1="604.8047" y2="604.8047"/><text fill="#000000" font-family="sans-serif" font-size="14" lengthAdjust="spacing" textLength="36" x="891" y="610.0332">props</text><line style="stroke:#181818;stroke-width:1.0;stroke-dasharray:1.0,2.0;" x1="927" x2="988" y1="604.8047" y2="604.8047"/><ellipse cx="840" cy="663.1328" fill="#84BE84" rx="3" ry="3" style="stroke:#038048;stroke-width:1.0;"/><text fill="#000000" font-family="sans-serif" font-size="14" lengthAdjust="spacing" textLength="130" x="849" y="667.3613">useTimetable() hook</text><ellipse cx="840" cy="680.7422" fill="#84BE84" rx="3" ry="3" style="stroke:#038048;stroke-width:1.0;"/><text fill="#000000" font-family="sans-serif" font-size="14" lengthAdjust="spacing" textLength="119" x="849" y="684.9707">useSettings() hook</text><line style="stroke:#181818;stroke-width:1.0;stroke-dasharray:1.0,2.0;" x1="830" x2="863" y1="644.0234" y2="644.0234"/><text fill="#000000" font-family="sans-serif" font-size="14" lengthAdjust="spacing" textLength="92" x="863" y="649.252">Context Usage</text><line style="stroke:#181818;stroke-width:1.0;stroke-dasharray:1.0,2.0;" x1="955" x2="988" y1="644.0234" y2="644.0234"/><line style="stroke:#181818;stroke-width:0.5;" x1="830" x2="988" y1="692.0469" y2="692.0469"/><ellipse cx="840" cy="706.3516" fill="#84BE84" rx="3" ry="3" style="stroke:#038048;stroke-width:1.0;"/><text fill="#000000" font-family="sans-serif" font-size="14" lengthAdjust="spacing" textLength="134" x="849" y="710.5801">JSX.Element render()</text></g><!--class CourseModal--><g id="elem_CourseModal"><rect codeLine="67" fill="#F1F1F1" height="196.875" id="CourseModal" rx="2.5" ry="2.5" style="stroke:#181818;stroke-width:0.5;" width="176" x="821" y="778"/><ellipse cx="863" cy="794" fill="#ADD1B2" rx="11" ry="11" style="stroke:#181818;stroke-width:1.0;"/><path d="M865.7656,789.875 Q865.9219,789.6563 866.1094,789.5469 Q866.2969,789.4375 866.5156,789.4375 Q866.8906,789.4375 867.125,789.7031 Q867.3594,789.9531 867.3594,790.5625 L867.3594,792.0156 Q867.3594,792.625 867.125,792.8906 Q866.8906,793.1563 866.5156,793.1563 Q866.1719,793.1563 865.9688,792.9531 Q865.7656,792.7656 865.6563,792.25 Q865.6094,791.8906 865.4219,791.7031 Q865.0938,791.3281 864.4844,791.1094 Q863.875,790.8906 863.25,790.8906 Q862.4844,790.8906 861.8438,791.2188 Q861.2188,791.5469 860.7188,792.2969 Q860.2344,793.0469 860.2344,794.0781 L860.2344,795.1719 Q860.2344,796.4063 861.125,797.2344 Q862.0156,798.0469 863.6094,798.0469 Q864.5469,798.0469 865.2031,797.7969 Q865.5938,797.6406 866.0156,797.2031 Q866.2813,796.9375 866.4219,796.8594 Q866.5781,796.7813 866.7813,796.7813 Q867.1094,796.7813 867.3594,797.0469 Q867.625,797.2969 867.625,797.6406 Q867.625,797.9844 867.2813,798.3906 Q866.7813,798.9688 865.9844,799.2969 Q864.9063,799.75 863.6094,799.75 Q862.0938,799.75 860.8906,799.125 Q859.9063,798.625 859.2188,797.5625 Q858.5313,796.4844 858.5313,795.2031 L858.5313,794.0469 Q858.5313,792.7188 859.1406,791.5781 Q859.7656,790.4219 860.8594,789.8125 Q861.9531,789.1875 863.1875,789.1875 Q863.9219,789.1875 864.5625,789.3594 Q865.2188,789.5156 865.7656,789.875 Z " fill="#000000"/><text fill="#000000" font-family="sans-serif" font-size="14" lengthAdjust="spacing" textLength="84" x="883" y="799.7285">CourseModal</text><line style="stroke:#181818;stroke-width:0.5;" x1="822" x2="996" y1="810" y2="810"/><ellipse cx="832" cy="845.9141" fill="none" rx="3" ry="3" style="stroke:#038048;stroke-width:1.0;"/><text fill="#000000" font-family="sans-serif" font-size="14" lengthAdjust="spacing" textLength="96" x="841" y="850.1426">Subject subject</text><ellipse cx="832" cy="863.5234" fill="none" rx="3" ry="3" style="stroke:#038048;stroke-width:1.0;"/><text fill="#000000" font-family="sans-serif" font-size="14" lengthAdjust="spacing" textLength="93" x="841" y="867.752">string courseId</text><line style="stroke:#181818;stroke-width:1.0;stroke-dasharray:1.0,2.0;" x1="822" x2="891" y1="826.8047" y2="826.8047"/><text fill="#000000" font-family="sans-serif" font-size="14" lengthAdjust="spacing" textLength="36" x="891" y="832.0332">props</text><line style="stroke:#181818;stroke-width:1.0;stroke-dasharray:1.0,2.0;" x1="927" x2="996" y1="826.8047" y2="826.8047"/><ellipse cx="832" cy="902.7422" fill="#84BE84" rx="3" ry="3" style="stroke:#038048;stroke-width:1.0;"/><text fill="#000000" font-family="sans-serif" font-size="14" lengthAdjust="spacing" textLength="130" x="841" y="906.9707">useTimetable() hook</text><ellipse cx="832" cy="920.3516" fill="#84BE84" rx="3" ry="3" style="stroke:#038048;stroke-width:1.0;"/><text fill="#000000" font-family="sans-serif" font-size="14" lengthAdjust="spacing" textLength="119" x="841" y="924.5801">useSettings() hook</text><line style="stroke:#181818;stroke-width:1.0;stroke-dasharray:1.0,2.0;" x1="822" x2="863" y1="883.6328" y2="883.6328"/><text fill="#000000" font-family="sans-serif" font-size="14" lengthAdjust="spacing" textLength="92" x="863" y="888.8613">Context Usage</text><line style="stroke:#181818;stroke-width:1.0;stroke-dasharray:1.0,2.0;" x1="955" x2="996" y1="883.6328" y2="883.6328"/><line style="stroke:#181818;stroke-width:0.5;" x1="822" x2="996" y1="931.6563" y2="931.6563"/><ellipse cx="832" cy="945.9609" fill="#84BE84" rx="3" ry="3" style="stroke:#038048;stroke-width:1.0;"/><text fill="#000000" font-family="sans-serif" font-size="14" lengthAdjust="spacing" textLength="150" x="841" y="950.1895">void handleSave(event)</text><ellipse cx="832" cy="963.5703" fill="#84BE84" rx="3" ry="3" style="stroke:#038048;stroke-width:1.0;"/><text fill="#000000" font-family="sans-serif" font-size="14" lengthAdjust="spacing" textLength="134" x="841" y="967.7988">JSX.Element render()</text></g><g id="elem_GMN15"><path d="M714,313 L714,338.5 L678.75,342.5 L714,346.5 L714,372.0547 A0,0 0 0 0 714,372.0547 L936,372.0547 A0,0 0 0 0 936,372.0547 L936,323 L926,313 L714,313 A0,0 0 0 0 714,313 " fill="#FEFFDD" style="stroke:#181818;stroke-width:0.5;"/><path d="M926,313 L926,323 L936,323 L926,313 " fill="#FEFFDD" style="stroke:#181818;stroke-width:0.5;"/><text fill="#000000" font-family="sans-serif" font-size="13" lengthAdjust="spacing" textLength="186" x="720" y="331.4951">Modern funkcion&#225;lis komponens</text><text fill="#000000" font-family="sans-serif" font-size="13" lengthAdjust="spacing" textLength="174" x="720" y="347.8467">hook-okkal &#233;s Context API-val</text><text fill="#000000" font-family="sans-serif" font-size="13" lengthAdjust="spacing" textLength="201" x="720" y="364.1982">Friss&#237;t&#233;si funkcionalit&#225;s hozz&#225;adva</text></g><g id="elem_GMN18"><path d="M202.5,615.5 L202.5,633 L167.33,637 L202.5,641 L202.5,658.2031 A0,0 0 0 0 202.5,658.2031 L359.5,658.2031 A0,0 0 0 0 359.5,658.2031 L359.5,625.5 L349.5,615.5 L202.5,615.5 A0,0 0 0 0 202.5,615.5 " fill="#FEFFDD" style="stroke:#181818;stroke-width:0.5;"/><path d="M349.5,615.5 L349.5,625.5 L359.5,625.5 L349.5,615.5 " fill="#FEFFDD" style="stroke:#181818;stroke-width:0.5;"/><text fill="#000000" font-family="sans-serif" font-size="13" lengthAdjust="spacing" textLength="136" x="208.5" y="633.9951">Alternat&#237;v &#243;rarend n&#233;zet</text><text fill="#000000" font-family="sans-serif" font-size="13" lengthAdjust="spacing" textLength="106" x="208.5" y="650.3467">egyedi t&#225;rgyakhoz</text></g><!--reverse link Subjects to Subject--><g id="link_Subjects_Subject"><path codeLine="79" d="M591,141.14 C591,159.16 591,167.8 591,188.98 " fill="none" id="Subjects-backto-Subject" style="stroke:#181818;stroke-width:1.0;"/><polygon fill="none" points="591,129.14,587,135.14,591,141.14,595,135.14,591,129.14" style="stroke:#181818;stroke-width:1.0;"/><text fill="#000000" font-family="sans-serif" font-size="13" lengthAdjust="spacing" textLength="32" x="558.175" y="178.1679">many</text></g><!--reverse link Subject to SubjectModal--><g id="link_Subject_SubjectModal"><path codeLine="80" d="M530.4722,507.4367 C522.8522,528.0667 519.45,537.28 512.56,555.93 " fill="none" id="Subject-backto-SubjectModal" style="stroke:#181818;stroke-width:1.0;"/><polygon fill="none" points="534.63,496.18,528.7989,500.4224,530.4722,507.4367,536.3033,503.1943,534.63,496.18" style="stroke:#181818;stroke-width:1.0;"/></g><!--reverse link Subject to SubjectTimetable--><g id="link_Subject_SubjectTimetable"><path codeLine="81" d="M492.5124,388.0987 C408.2824,427.5387 289.58,486.97 185,556 C179.04,559.93 173.02,564.16 167.04,568.53 " fill="none" id="Subject-backto-SubjectTimetable" style="stroke:#181818;stroke-width:1.0;"/><polygon fill="none" points="503.38,383.01,496.25,381.9318,492.5124,388.0987,499.6424,389.1769,503.38,383.01" style="stroke:#181818;stroke-width:1.0;"/></g><!--reverse link Subject to CourseAdder--><g id="link_Subject_CourseAdder"><path codeLine="82" d="M652.0862,507.4224 C659.7862,528.0524 663.21,537.28 670.16,555.93 " fill="none" id="Subject-backto-CourseAdder" style="stroke:#181818;stroke-width:1.0;"/><polygon fill="none" points="647.89,496.18,646.2406,503.1999,652.0862,507.4224,653.7356,500.4025,647.89,496.18" style="stroke:#181818;stroke-width:1.0;"/></g><!--reverse link Subject to CourseTable--><g id="link_Subject_CourseTable"><path codeLine="83" d="M687.0516,488.011 C692.5916,493.901 690.1,490.78 696,496 C739.18,534.2 762.87,524.27 811,556 C816.96,559.93 822.99,564.15 828.97,568.52 " fill="none" id="Subject-backto-CourseTable" style="stroke:#181818;stroke-width:1.0;"/><polygon fill="none" points="678.83,479.27,680.0271,486.381,687.0516,488.011,685.8545,480.9,678.83,479.27" style="stroke:#181818;stroke-width:1.0;"/></g><!--reverse link CourseTable to CourseModal--><g id="link_CourseTable_CourseModal"><path codeLine="84" d="M909,730.08 C909,749.2 909,757.82 909,777.65 " fill="none" id="CourseTable-backto-CourseModal" style="stroke:#181818;stroke-width:1.0;"/><polygon fill="none" points="909,718.08,905,724.08,909,730.08,913,724.08,909,718.08" style="stroke:#181818;stroke-width:1.0;"/><text fill="#000000" font-family="sans-serif" font-size="13" lengthAdjust="spacing" textLength="32" x="875.775" y="766.9827">many</text></g><!--SRC=[jPJ1Rjim38RlVWgYfnI5ymvfi04PC6oeEs2tGhOPHxCj6I9jB1dsC3dsqDCUmIyssabi5KtN9iXy4S1V8Z_-efKKYWYYElw12HFy2a2-wHJcrZ3-PFX6AaC9zF4Rg0dlTOciuW8drx2oDX-L29croSWN7Xxw9OHFqVVfXm9BD0mEJOfkSXty3eB41nZhLyvMDDOzwBHRBqqfgOWLUobYQmjK1ZHzgT2y2DxXqY6j98_VvGqeMfi4wYgLPBSripNIvKvgh4u1Kytx-BwLP_9AcRJ0kImP3WU9dTI133aInfgE28l4A_Gkfp_RL1N_sUx15Q-tI3KumKROJi8TybyE-H_J-XRKtDQES9PA-5KUKvUno7kSHNf93-kur7oAYplW-yiQUDP3y3xIqwTp-1kIFi7PVh_DVzOm3m-i3KEuAfLPNntQE6YzvF-TnuI1-PdepUEHU7_jWJy27eJdTn0OAq-WqzbAZYy7lgupsO3EmB8sUQAjQRU59iXjMLc3XlejdLEXpNEvkFQH1jzdNnTX8ycxBH-T9cgVM7Gzv5A5vdPBSdwpQRSgRLGWna77yWhHQ4ANT5Qme2bkdnfe_pZb-jFjumPtw9YjvTK5gU6ojSgbp9Z_Bm00]--></g></svg>