<?xml version="1.0" encoding="us-ascii" standalone="no"?><svg xmlns="http://www.w3.org/2000/svg" xmlns:xlink="http://www.w3.org/1999/xlink" contentStyleType="text/css" height="853px" preserveAspectRatio="none" style="width:1319px;height:853px;background:#FFFFFF;" version="1.1" viewBox="0 0 1319 853" width="1319px" zoomAndPan="magnify"><defs/><g><!--class Subjects--><g id="elem_Subjects"><rect codeLine="2" fill="#F1F1F1" height="220.0938" id="Subjects" rx="2.5" ry="2.5" style="stroke:#181818;stroke-width:0.5;" width="679" x="320" y="7"/><ellipse cx="628.25" cy="23" fill="#ADD1B2" rx="11" ry="11" style="stroke:#181818;stroke-width:1.0;"/><path d="M631.0156,18.875 Q631.1719,18.6563 631.3594,18.5469 Q631.5469,18.4375 631.7656,18.4375 Q632.1406,18.4375 632.375,18.7031 Q632.6094,18.9531 632.6094,19.5625 L632.6094,21.0156 Q632.6094,21.625 632.375,21.8906 Q632.1406,22.1563 631.7656,22.1563 Q631.4219,22.1563 631.2188,21.9531 Q631.0156,21.7656 630.9063,21.25 Q630.8594,20.8906 630.6719,20.7031 Q630.3438,20.3281 629.7344,20.1094 Q629.125,19.8906 628.5,19.8906 Q627.7344,19.8906 627.0938,20.2188 Q626.4688,20.5469 625.9688,21.2969 Q625.4844,22.0469 625.4844,23.0781 L625.4844,24.1719 Q625.4844,25.4063 626.375,26.2344 Q627.2656,27.0469 628.8594,27.0469 Q629.7969,27.0469 630.4531,26.7969 Q630.8438,26.6406 631.2656,26.2031 Q631.5313,25.9375 631.6719,25.8594 Q631.8281,25.7813 632.0313,25.7813 Q632.3594,25.7813 632.6094,26.0469 Q632.875,26.2969 632.875,26.6406 Q632.875,26.9844 632.5313,27.3906 Q632.0313,27.9688 631.2344,28.2969 Q630.1563,28.75 628.8594,28.75 Q627.3438,28.75 626.1406,28.125 Q625.1563,27.625 624.4688,26.5625 Q623.7813,25.4844 623.7813,24.2031 L623.7813,23.0469 Q623.7813,21.7188 624.3906,20.5781 Q625.0156,19.4219 626.1094,18.8125 Q627.2031,18.1875 628.4375,18.1875 Q629.1719,18.1875 629.8125,18.3594 Q630.4688,18.5156 631.0156,18.875 Z " fill="#000000"/><text fill="#000000" font-family="sans-serif" font-size="14" lengthAdjust="spacing" textLength="54" x="648.75" y="28.7285">Subjects</text><line style="stroke:#181818;stroke-width:0.5;" x1="321" x2="998" y1="39" y2="39"/><ellipse cx="331" cy="74.9141" fill="none" rx="3" ry="3" style="stroke:#038048;stroke-width:1.0;"/><text fill="#000000" font-family="sans-serif" font-size="14" lengthAdjust="spacing" textLength="111" x="340" y="79.1426">Subject[] subjects</text><ellipse cx="331" cy="92.5234" fill="#84BE84" rx="3" ry="3" style="stroke:#038048;stroke-width:1.0;"/><text fill="#000000" font-family="sans-serif" font-size="14" lengthAdjust="spacing" textLength="384" x="340" y="96.752">void subjectUpdater(id, newCode, newName, newColor, type)</text><ellipse cx="331" cy="110.1328" fill="#84BE84" rx="3" ry="3" style="stroke:#038048;stroke-width:1.0;"/><text fill="#000000" font-family="sans-serif" font-size="14" lengthAdjust="spacing" textLength="153" x="340" y="114.3613">void subjectRemover(id)</text><ellipse cx="331" cy="127.7422" fill="#84BE84" rx="3" ry="3" style="stroke:#038048;stroke-width:1.0;"/><text fill="#000000" font-family="sans-serif" font-size="14" lengthAdjust="spacing" textLength="170" x="340" y="131.9707">void subjectShow(id, show)</text><ellipse cx="331" cy="145.3516" fill="#84BE84" rx="3" ry="3" style="stroke:#038048;stroke-width:1.0;"/><text fill="#000000" font-family="sans-serif" font-size="14" lengthAdjust="spacing" textLength="579" x="340" y="149.5801">void courseAdder(subjectId, code, type, instructor, location, day, startTime, endTime, notes)</text><ellipse cx="331" cy="162.9609" fill="#84BE84" rx="3" ry="3" style="stroke:#038048;stroke-width:1.0;"/><text fill="#000000" font-family="sans-serif" font-size="14" lengthAdjust="spacing" textLength="258" x="340" y="167.1895">void courseRemover(subjectId, courseId)</text><ellipse cx="331" cy="180.5703" fill="#84BE84" rx="3" ry="3" style="stroke:#038048;stroke-width:1.0;"/><text fill="#000000" font-family="sans-serif" font-size="14" lengthAdjust="spacing" textLength="653" x="340" y="184.7988">void courseUpdater(subjectId, courseId, code, type, instructor, location, day, startTime, endTime, notes)</text><ellipse cx="331" cy="198.1797" fill="#84BE84" rx="3" ry="3" style="stroke:#038048;stroke-width:1.0;"/><text fill="#000000" font-family="sans-serif" font-size="14" lengthAdjust="spacing" textLength="275" x="340" y="202.4082">void courseShow(subjectId, courseId, show)</text><ellipse cx="331" cy="215.7891" fill="none" rx="3" ry="3" style="stroke:#038048;stroke-width:1.0;"/><text fill="#000000" font-family="sans-serif" font-size="14" lengthAdjust="spacing" textLength="88" x="340" y="220.0176">JSON settings</text><line style="stroke:#181818;stroke-width:1.0;stroke-dasharray:1.0,2.0;" x1="321" x2="641.5" y1="55.8047" y2="55.8047"/><text fill="#000000" font-family="sans-serif" font-size="14" lengthAdjust="spacing" textLength="36" x="641.5" y="61.0332">props</text><line style="stroke:#181818;stroke-width:1.0;stroke-dasharray:1.0,2.0;" x1="677.5" x2="998" y1="55.8047" y2="55.8047"/></g><!--class Subject--><g id="elem_Subject"><rect codeLine="15" fill="#F1F1F1" height="316.1406" id="Subject" rx="2.5" ry="2.5" style="stroke:#181818;stroke-width:0.5;" width="679" x="320" y="287"/><ellipse cx="631.75" cy="303" fill="#ADD1B2" rx="11" ry="11" style="stroke:#181818;stroke-width:1.0;"/><path d="M634.5156,298.875 Q634.6719,298.6563 634.8594,298.5469 Q635.0469,298.4375 635.2656,298.4375 Q635.6406,298.4375 635.875,298.7031 Q636.1094,298.9531 636.1094,299.5625 L636.1094,301.0156 Q636.1094,301.625 635.875,301.8906 Q635.6406,302.1563 635.2656,302.1563 Q634.9219,302.1563 634.7188,301.9531 Q634.5156,301.7656 634.4063,301.25 Q634.3594,300.8906 634.1719,300.7031 Q633.8438,300.3281 633.2344,300.1094 Q632.625,299.8906 632,299.8906 Q631.2344,299.8906 630.5938,300.2188 Q629.9688,300.5469 629.4688,301.2969 Q628.9844,302.0469 628.9844,303.0781 L628.9844,304.1719 Q628.9844,305.4063 629.875,306.2344 Q630.7656,307.0469 632.3594,307.0469 Q633.2969,307.0469 633.9531,306.7969 Q634.3438,306.6406 634.7656,306.2031 Q635.0313,305.9375 635.1719,305.8594 Q635.3281,305.7813 635.5313,305.7813 Q635.8594,305.7813 636.1094,306.0469 Q636.375,306.2969 636.375,306.6406 Q636.375,306.9844 636.0313,307.3906 Q635.5313,307.9688 634.7344,308.2969 Q633.6563,308.75 632.3594,308.75 Q630.8438,308.75 629.6406,308.125 Q628.6563,307.625 627.9688,306.5625 Q627.2813,305.4844 627.2813,304.2031 L627.2813,303.0469 Q627.2813,301.7188 627.8906,300.5781 Q628.5156,299.4219 629.6094,298.8125 Q630.7031,298.1875 631.9375,298.1875 Q632.6719,298.1875 633.3125,298.3594 Q633.9688,298.5156 634.5156,298.875 Z " fill="#000000"/><text fill="#000000" font-family="sans-serif" font-size="14" lengthAdjust="spacing" textLength="47" x="652.25" y="308.7285">Subject</text><line style="stroke:#181818;stroke-width:0.5;" x1="321" x2="998" y1="319" y2="319"/><ellipse cx="331" cy="354.9141" fill="none" rx="3" ry="3" style="stroke:#038048;stroke-width:1.0;"/><text fill="#000000" font-family="sans-serif" font-size="14" lengthAdjust="spacing" textLength="96" x="340" y="359.1426">Subject subject</text><rect fill="#F24D5C" height="6" style="stroke:#C82930;stroke-width:1.0;" width="6" x="328" y="369.5234"/><text fill="#000000" font-family="sans-serif" font-size="14" lengthAdjust="spacing" textLength="384" x="340" y="376.752">void subjectUpdater(id, newCode, newName, newColor, type)</text><rect fill="#F24D5C" height="6" style="stroke:#C82930;stroke-width:1.0;" width="6" x="328" y="387.1328"/><text fill="#000000" font-family="sans-serif" font-size="14" lengthAdjust="spacing" textLength="153" x="340" y="394.3613">void subjectRemover(id)</text><rect fill="#F24D5C" height="6" style="stroke:#C82930;stroke-width:1.0;" width="6" x="328" y="404.7422"/><text fill="#000000" font-family="sans-serif" font-size="14" lengthAdjust="spacing" textLength="170" x="340" y="411.9707">void subjectShow(id, show)</text><rect fill="#F24D5C" height="6" style="stroke:#C82930;stroke-width:1.0;" width="6" x="328" y="422.3516"/><text fill="#000000" font-family="sans-serif" font-size="14" lengthAdjust="spacing" textLength="579" x="340" y="429.5801">void courseAdder(subjectId, code, type, instructor, location, day, startTime, endTime, notes)</text><ellipse cx="331" cy="442.9609" fill="#84BE84" rx="3" ry="3" style="stroke:#038048;stroke-width:1.0;"/><text fill="#000000" font-family="sans-serif" font-size="14" lengthAdjust="spacing" textLength="258" x="340" y="447.1895">void courseRemover(subjectId, courseId)</text><ellipse cx="331" cy="460.5703" fill="#84BE84" rx="3" ry="3" style="stroke:#038048;stroke-width:1.0;"/><text fill="#000000" font-family="sans-serif" font-size="14" lengthAdjust="spacing" textLength="653" x="340" y="464.7988">void courseUpdater(subjectId, courseId, code, type, instructor, location, day, startTime, endTime, notes)</text><ellipse cx="331" cy="478.1797" fill="#84BE84" rx="3" ry="3" style="stroke:#038048;stroke-width:1.0;"/><text fill="#000000" font-family="sans-serif" font-size="14" lengthAdjust="spacing" textLength="275" x="340" y="482.4082">void courseShow(subjectId, courseId, show)</text><ellipse cx="331" cy="495.7891" fill="none" rx="3" ry="3" style="stroke:#038048;stroke-width:1.0;"/><text fill="#000000" font-family="sans-serif" font-size="14" lengthAdjust="spacing" textLength="88" x="340" y="500.0176">JSON settings</text><line style="stroke:#181818;stroke-width:1.0;stroke-dasharray:1.0,2.0;" x1="321" x2="641.5" y1="335.8047" y2="335.8047"/><text fill="#000000" font-family="sans-serif" font-size="14" lengthAdjust="spacing" textLength="36" x="641.5" y="341.0332">props</text><line style="stroke:#181818;stroke-width:1.0;stroke-dasharray:1.0,2.0;" x1="677.5" x2="998" y1="335.8047" y2="335.8047"/><line style="stroke:#181818;stroke-width:0.5;" x1="321" x2="998" y1="507.0938" y2="507.0938"/><rect fill="#F24D5C" height="6" style="stroke:#C82930;stroke-width:1.0;" width="6" x="328" y="518.3984"/><text fill="#000000" font-family="sans-serif" font-size="14" lengthAdjust="spacing" textLength="170" x="340" y="525.627">void updateButton(subject)</text><rect fill="#F24D5C" height="6" style="stroke:#C82930;stroke-width:1.0;" width="6" x="328" y="536.0078"/><text fill="#000000" font-family="sans-serif" font-size="14" lengthAdjust="spacing" textLength="133" x="340" y="543.2363">void handleChange()</text><rect fill="#F24D5C" height="6" style="stroke:#C82930;stroke-width:1.0;" width="6" x="328" y="553.6172"/><text fill="#000000" font-family="sans-serif" font-size="14" lengthAdjust="spacing" textLength="161" x="340" y="560.8457">void handleSubmit(event)</text><rect fill="#F24D5C" height="6" style="stroke:#C82930;stroke-width:1.0;" width="6" x="328" y="571.2266"/><text fill="#000000" font-family="sans-serif" font-size="14" lengthAdjust="spacing" textLength="100" x="340" y="578.4551">void getStatus()</text><rect fill="#F24D5C" height="6" style="stroke:#C82930;stroke-width:1.0;" width="6" x="328" y="588.8359"/><text fill="#000000" font-family="sans-serif" font-size="14" lengthAdjust="spacing" textLength="95" x="340" y="596.0645">string getIcon()</text></g><!--class SubjectModal--><g id="elem_SubjectModal"><rect codeLine="34" fill="#F1F1F1" height="122.4375" id="SubjectModal" rx="2.5" ry="2.5" style="stroke:#181818;stroke-width:0.5;" width="635" x="7" y="693.5"/><ellipse cx="277.75" cy="709.5" fill="#ADD1B2" rx="11" ry="11" style="stroke:#181818;stroke-width:1.0;"/><path d="M280.5156,705.375 Q280.6719,705.1563 280.8594,705.0469 Q281.0469,704.9375 281.2656,704.9375 Q281.6406,704.9375 281.875,705.2031 Q282.1094,705.4531 282.1094,706.0625 L282.1094,707.5156 Q282.1094,708.125 281.875,708.3906 Q281.6406,708.6563 281.2656,708.6563 Q280.9219,708.6563 280.7188,708.4531 Q280.5156,708.2656 280.4063,707.75 Q280.3594,707.3906 280.1719,707.2031 Q279.8438,706.8281 279.2344,706.6094 Q278.625,706.3906 278,706.3906 Q277.2344,706.3906 276.5938,706.7188 Q275.9688,707.0469 275.4688,707.7969 Q274.9844,708.5469 274.9844,709.5781 L274.9844,710.6719 Q274.9844,711.9063 275.875,712.7344 Q276.7656,713.5469 278.3594,713.5469 Q279.2969,713.5469 279.9531,713.2969 Q280.3438,713.1406 280.7656,712.7031 Q281.0313,712.4375 281.1719,712.3594 Q281.3281,712.2813 281.5313,712.2813 Q281.8594,712.2813 282.1094,712.5469 Q282.375,712.7969 282.375,713.1406 Q282.375,713.4844 282.0313,713.8906 Q281.5313,714.4688 280.7344,714.7969 Q279.6563,715.25 278.3594,715.25 Q276.8438,715.25 275.6406,714.625 Q274.6563,714.125 273.9688,713.0625 Q273.2813,711.9844 273.2813,710.7031 L273.2813,709.5469 Q273.2813,708.2188 273.8906,707.0781 Q274.5156,705.9219 275.6094,705.3125 Q276.7031,704.6875 277.9375,704.6875 Q278.6719,704.6875 279.3125,704.8594 Q279.9688,705.0156 280.5156,705.375 Z " fill="#000000"/><text fill="#000000" font-family="sans-serif" font-size="14" lengthAdjust="spacing" textLength="85" x="298.25" y="715.2285">SubjectModal</text><line style="stroke:#181818;stroke-width:0.5;" x1="8" x2="641" y1="725.5" y2="725.5"/><rect fill="none" height="6" style="stroke:#C82930;stroke-width:1.0;" width="6" x="15" y="758.4141"/><text fill="#000000" font-family="sans-serif" font-size="14" lengthAdjust="spacing" textLength="96" x="27" y="765.6426">Subject subject</text><rect fill="#F24D5C" height="6" style="stroke:#C82930;stroke-width:1.0;" width="6" x="15" y="776.0234"/><text fill="#000000" font-family="sans-serif" font-size="14" lengthAdjust="spacing" textLength="609" x="27" y="783.252">void updater(subjectId, courseId, code, type, instructor, location, day, startTime, endTime, notes)</text><line style="stroke:#181818;stroke-width:1.0;stroke-dasharray:1.0,2.0;" x1="8" x2="306.5" y1="742.3047" y2="742.3047"/><text fill="#000000" font-family="sans-serif" font-size="14" lengthAdjust="spacing" textLength="36" x="306.5" y="747.5332">props</text><line style="stroke:#181818;stroke-width:1.0;stroke-dasharray:1.0,2.0;" x1="342.5" x2="641" y1="742.3047" y2="742.3047"/><line style="stroke:#181818;stroke-width:0.5;" x1="8" x2="641" y1="790.3281" y2="790.3281"/><rect fill="#F24D5C" height="6" style="stroke:#C82930;stroke-width:1.0;" width="6" x="15" y="801.6328"/><text fill="#000000" font-family="sans-serif" font-size="14" lengthAdjust="spacing" textLength="150" x="27" y="808.8613">void handleSave(event)</text></g><!--class CourseModal--><g id="elem_CourseModal"><rect codeLine="42" fill="#F1F1F1" height="183.2656" id="CourseModal" rx="2.5" ry="2.5" style="stroke:#181818;stroke-width:0.5;" width="635" x="677" y="663"/><ellipse cx="948.25" cy="679" fill="#ADD1B2" rx="11" ry="11" style="stroke:#181818;stroke-width:1.0;"/><path d="M951.0156,674.875 Q951.1719,674.6563 951.3594,674.5469 Q951.5469,674.4375 951.7656,674.4375 Q952.1406,674.4375 952.375,674.7031 Q952.6094,674.9531 952.6094,675.5625 L952.6094,677.0156 Q952.6094,677.625 952.375,677.8906 Q952.1406,678.1563 951.7656,678.1563 Q951.4219,678.1563 951.2188,677.9531 Q951.0156,677.7656 950.9063,677.25 Q950.8594,676.8906 950.6719,676.7031 Q950.3438,676.3281 949.7344,676.1094 Q949.125,675.8906 948.5,675.8906 Q947.7344,675.8906 947.0938,676.2188 Q946.4688,676.5469 945.9688,677.2969 Q945.4844,678.0469 945.4844,679.0781 L945.4844,680.1719 Q945.4844,681.4063 946.375,682.2344 Q947.2656,683.0469 948.8594,683.0469 Q949.7969,683.0469 950.4531,682.7969 Q950.8438,682.6406 951.2656,682.2031 Q951.5313,681.9375 951.6719,681.8594 Q951.8281,681.7813 952.0313,681.7813 Q952.3594,681.7813 952.6094,682.0469 Q952.875,682.2969 952.875,682.6406 Q952.875,682.9844 952.5313,683.3906 Q952.0313,683.9688 951.2344,684.2969 Q950.1563,684.75 948.8594,684.75 Q947.3438,684.75 946.1406,684.125 Q945.1563,683.625 944.4688,682.5625 Q943.7813,681.4844 943.7813,680.2031 L943.7813,679.0469 Q943.7813,677.7188 944.3906,676.5781 Q945.0156,675.4219 946.1094,674.8125 Q947.2031,674.1875 948.4375,674.1875 Q949.1719,674.1875 949.8125,674.3594 Q950.4688,674.5156 951.0156,674.875 Z " fill="#000000"/><text fill="#000000" font-family="sans-serif" font-size="14" lengthAdjust="spacing" textLength="84" x="968.75" y="684.7285">CourseModal</text><line style="stroke:#181818;stroke-width:0.5;" x1="678" x2="1311" y1="695" y2="695"/><rect fill="none" height="6" style="stroke:#C82930;stroke-width:1.0;" width="6" x="685" y="727.9141"/><text fill="#000000" font-family="sans-serif" font-size="14" lengthAdjust="spacing" textLength="96" x="697" y="735.1426">Subject subject</text><rect fill="none" height="6" style="stroke:#C82930;stroke-width:1.0;" width="6" x="685" y="745.5234"/><text fill="#000000" font-family="sans-serif" font-size="14" lengthAdjust="spacing" textLength="101" x="697" y="752.752">string course_id</text><rect fill="#F24D5C" height="6" style="stroke:#C82930;stroke-width:1.0;" width="6" x="685" y="763.1328"/><text fill="#000000" font-family="sans-serif" font-size="14" lengthAdjust="spacing" textLength="609" x="697" y="770.3613">void updater(subjectId, courseId, code, type, instructor, location, day, startTime, endTime, notes)</text><rect fill="none" height="6" style="stroke:#C82930;stroke-width:1.0;" width="6" x="685" y="780.7422"/><text fill="#000000" font-family="sans-serif" font-size="14" lengthAdjust="spacing" textLength="88" x="697" y="787.9707">JSON settings</text><line style="stroke:#181818;stroke-width:1.0;stroke-dasharray:1.0,2.0;" x1="678" x2="976.5" y1="711.8047" y2="711.8047"/><text fill="#000000" font-family="sans-serif" font-size="14" lengthAdjust="spacing" textLength="36" x="976.5" y="717.0332">props</text><line style="stroke:#181818;stroke-width:1.0;stroke-dasharray:1.0,2.0;" x1="1012.5" x2="1311" y1="711.8047" y2="711.8047"/><line style="stroke:#181818;stroke-width:0.5;" x1="678" x2="1311" y1="795.0469" y2="795.0469"/><rect fill="none" height="6" style="stroke:#C82930;stroke-width:1.0;" width="6" x="685" y="806.3516"/><text fill="#000000" font-family="sans-serif" font-size="14" lengthAdjust="spacing" textLength="93" x="697" y="813.5801">Course course</text><line style="stroke:#181818;stroke-width:0.5;" x1="678" x2="1311" y1="820.6563" y2="820.6563"/><rect fill="#F24D5C" height="6" style="stroke:#C82930;stroke-width:1.0;" width="6" x="685" y="831.9609"/><text fill="#000000" font-family="sans-serif" font-size="14" lengthAdjust="spacing" textLength="150" x="697" y="839.1895">void handleSave(event)</text></g><!--reverse link Subjects to Subject--><g id="link_Subjects_Subject"><path codeLine="54" d="M659.5,239.01 C659.5,258.26 659.5,266.64 659.5,286.9 " fill="none" id="Subjects-backto-Subject" style="stroke:#181818;stroke-width:1.0;"/><polygon fill="none" points="659.5,227.01,655.5,233.01,659.5,239.01,663.5,233.01,659.5,227.01" style="stroke:#181818;stroke-width:1.0;"/><text fill="#000000" font-family="sans-serif" font-size="13" lengthAdjust="spacing" textLength="32" x="626.725" y="276.3548">many</text></g><!--reverse link Subject to SubjectModal--><g id="link_Subject_SubjectModal"><path codeLine="55" d="M479.2306,611.4657 C444.3006,643.5357 418.44,667.27 390.04,693.34 " fill="none" id="Subject-backto-SubjectModal" style="stroke:#181818;stroke-width:1.0;"/><polygon fill="none" points="488.07,603.35,480.9451,604.4614,479.2306,611.4657,486.3555,610.3543,488.07,603.35" style="stroke:#181818;stroke-width:1.0;"/></g><!--reverse link Subject to CourseModal--><g id="link_Subject_CourseModal"><path codeLine="56" d="M839.7697,611.4654 C861.9797,631.8554 875.26,644.05 895.73,662.84 " fill="none" id="Subject-backto-CourseModal" style="stroke:#181818;stroke-width:1.0;"/><polygon fill="none" points="830.93,603.35,832.6447,610.3543,839.7697,611.4654,838.055,604.4611,830.93,603.35" style="stroke:#181818;stroke-width:1.0;"/><text fill="#000000" font-family="sans-serif" font-size="13" lengthAdjust="spacing" textLength="32" x="854.2256" y="652.0856">many</text></g><!--SRC=[xLN1Rjf04BtlLunoCYf6X98eujI6aWO4QHH3BbM55kyMjZAxbdVM4QhwxnqlDiAgIwf6wQbSMC-ysJVlpLYE4sujH6xrJSPeuJi3-dKwa6OcjNJmpsygmESlO4jecSYD4bLiaGgECWkKQ8EMJqCZf3_SyQqi8ud9se2xLBOQwX_arkI-lYaRRSoJlzhIeGQ8ZSkiV2y4rPRWCU5Ypr-GjK5fYvcBiQ1FJCnH6Tq6mNTq7V8CvwfeKMgnFsY3qZPmL1tMM8h4M3IWApyQqA_IdNUeaUpOiadqwGwiH5HwRTaFnkBZ5NXk0wff-6Zuml679ySVFZV-yF_uNph-8hPS7hlfVDVN3j7ewhQQtHkkHIA7zBUMGKE65cMhC92vrFN2jSG8EJfxg2BPr4MH6CV4rlfb6sT6yEGtAncUMadt-jxNRIkryrnMoWzQXfxuRwIK_kmxNohnZnM6fvPbhwha_5D33jyP4uPmjkLwTrP9ht8-TJp-MgAiERAKlQFM6RjFkCR5R0hqVbfI2EUTNhVNxxmDvXi7Dt85vnVGwmxwtK7t0eQZEHJf5Wi-ta_p7bYwC9OWL67voXKUjTY4vnmUd4OoPW35Kp2VjI0QLK4OwLnbHcz97viyplOWk3KOfGOz-B8VNYk4I6RK63pEs0VvbRi4gPI6HBOEO36_2Q_ObDudnzT4j76Cz6dCTWEuNVm4]--></g></svg>