<?xml version="1.0" encoding="us-ascii" standalone="no"?><svg xmlns="http://www.w3.org/2000/svg" xmlns:xlink="http://www.w3.org/1999/xlink" contentStyleType="text/css" height="234px" preserveAspectRatio="none" style="width:502px;height:234px;background:#FFFFFF;" version="1.1" viewBox="0 0 502 234" width="502px" zoomAndPan="magnify"><defs/><g><rect fill="#F1F1F1" height="43.2188" rx="5" ry="5" style="stroke:#F1F1F1;stroke-width:1.5;" width="120" x="10" y="137.0234"/><text fill="#000000" font-family="sans-serif" font-size="14" font-weight="bold" lengthAdjust="spacing" textLength="57" x="15" y="153.5566">settings</text><text fill="#000000" font-family="sans-serif" font-size="14" lengthAdjust="spacing" textLength="12" x="113" y="153.5566">&#160;&#160;&#160;</text><line style="stroke:#000000;stroke-width:1.0;" x1="108" x2="108" y1="137.0234" y2="158.6328"/><line style="stroke:#000000;stroke-width:1.0;" x1="10" x2="130" y1="158.6328" y2="158.6328"/><text fill="#000000" font-family="sans-serif" font-size="14" font-weight="bold" lengthAdjust="spacing" textLength="88" x="15" y="175.166">currentState</text><text fill="#000000" font-family="sans-serif" font-size="14" lengthAdjust="spacing" textLength="12" x="113" y="175.166">&#160;&#160;&#160;</text><line style="stroke:#000000;stroke-width:1.0;" x1="108" x2="108" y1="158.6328" y2="180.2422"/><rect fill="none" height="43.2188" rx="5" ry="5" style="stroke:#000000;stroke-width:1.5;" width="120" x="10" y="137.0234"/><rect fill="#F1F1F1" height="86.4375" rx="5" ry="5" style="stroke:#F1F1F1;stroke-width:1.5;" width="151" x="167" y="74.4141"/><text fill="#000000" font-family="sans-serif" font-size="14" font-weight="bold" lengthAdjust="spacing" textLength="37" x="172" y="90.9473">show</text><text fill="#000000" font-family="sans-serif" font-size="14" lengthAdjust="spacing" textLength="12" x="267" y="90.9473">&#160;&#160;&#160;</text><line style="stroke:#000000;stroke-width:1.0;" x1="262" x2="262" y1="74.4141" y2="96.0234"/><line style="stroke:#000000;stroke-width:1.0;" x1="167" x2="318" y1="96.0234" y2="96.0234"/><text fill="#000000" font-family="sans-serif" font-size="14" font-weight="bold" lengthAdjust="spacing" textLength="60" x="172" y="112.5566">saturday</text><text fill="#000000" font-family="sans-serif" font-size="14" lengthAdjust="spacing" textLength="46" x="267" y="112.5566">&#9744; false</text><line style="stroke:#000000;stroke-width:1.0;" x1="262" x2="262" y1="96.0234" y2="117.6328"/><line style="stroke:#000000;stroke-width:1.0;" x1="167" x2="318" y1="117.6328" y2="117.6328"/><text fill="#000000" font-family="sans-serif" font-size="14" font-weight="bold" lengthAdjust="spacing" textLength="26" x="172" y="134.166">slot</text><text fill="#000000" font-family="sans-serif" font-size="14" lengthAdjust="spacing" textLength="16" x="267" y="134.166">20</text><line style="stroke:#000000;stroke-width:1.0;" x1="262" x2="262" y1="117.6328" y2="139.2422"/><line style="stroke:#000000;stroke-width:1.0;" x1="167" x2="318" y1="139.2422" y2="139.2422"/><text fill="#000000" font-family="sans-serif" font-size="14" font-weight="bold" lengthAdjust="spacing" textLength="85" x="172" y="155.7754">subjectView</text><text fill="#000000" font-family="sans-serif" font-size="14" lengthAdjust="spacing" textLength="17" x="267" y="155.7754">list</text><line style="stroke:#000000;stroke-width:1.0;" x1="262" x2="262" y1="139.2422" y2="160.8516"/><rect fill="none" height="86.4375" rx="5" ry="5" style="stroke:#000000;stroke-width:1.5;" width="151" x="167" y="74.4141"/><rect fill="#F1F1F1" height="151.2656" rx="5" ry="5" style="stroke:#F1F1F1;stroke-width:1.5;" width="135" x="355" y="10"/><text fill="#000000" font-family="sans-serif" font-size="14" font-weight="bold" lengthAdjust="spacing" textLength="38" x="360" y="26.5332">name</text><text fill="#000000" font-family="sans-serif" font-size="14" lengthAdjust="spacing" textLength="41" x="439" y="26.5332">&#9745; true</text><line style="stroke:#000000;stroke-width:1.0;" x1="434" x2="434" y1="10" y2="31.6094"/><line style="stroke:#000000;stroke-width:1.0;" x1="355" x2="490" y1="31.6094" y2="31.6094"/><text fill="#000000" font-family="sans-serif" font-size="14" font-weight="bold" lengthAdjust="spacing" textLength="35" x="360" y="48.1426">code</text><text fill="#000000" font-family="sans-serif" font-size="14" lengthAdjust="spacing" textLength="46" x="439" y="48.1426">&#9744; false</text><line style="stroke:#000000;stroke-width:1.0;" x1="434" x2="434" y1="31.6094" y2="53.2188"/><line style="stroke:#000000;stroke-width:1.0;" x1="355" x2="490" y1="53.2188" y2="53.2188"/><text fill="#000000" font-family="sans-serif" font-size="14" font-weight="bold" lengthAdjust="spacing" textLength="30" x="360" y="69.752">time</text><text fill="#000000" font-family="sans-serif" font-size="14" lengthAdjust="spacing" textLength="41" x="439" y="69.752">&#9745; true</text><line style="stroke:#000000;stroke-width:1.0;" x1="434" x2="434" y1="53.2188" y2="74.8281"/><line style="stroke:#000000;stroke-width:1.0;" x1="355" x2="490" y1="74.8281" y2="74.8281"/><text fill="#000000" font-family="sans-serif" font-size="14" font-weight="bold" lengthAdjust="spacing" textLength="30" x="360" y="91.3613">type</text><text fill="#000000" font-family="sans-serif" font-size="14" lengthAdjust="spacing" textLength="46" x="439" y="91.3613">&#9744; false</text><line style="stroke:#000000;stroke-width:1.0;" x1="434" x2="434" y1="74.8281" y2="96.4375"/><line style="stroke:#000000;stroke-width:1.0;" x1="355" x2="490" y1="96.4375" y2="96.4375"/><text fill="#000000" font-family="sans-serif" font-size="14" font-weight="bold" lengthAdjust="spacing" textLength="69" x="360" y="112.9707">instructor</text><text fill="#000000" font-family="sans-serif" font-size="14" lengthAdjust="spacing" textLength="41" x="439" y="112.9707">&#9745; true</text><line style="stroke:#000000;stroke-width:1.0;" x1="434" x2="434" y1="96.4375" y2="118.0469"/><line style="stroke:#000000;stroke-width:1.0;" x1="355" x2="490" y1="118.0469" y2="118.0469"/><text fill="#000000" font-family="sans-serif" font-size="14" font-weight="bold" lengthAdjust="spacing" textLength="56" x="360" y="134.5801">location</text><text fill="#000000" font-family="sans-serif" font-size="14" lengthAdjust="spacing" textLength="41" x="439" y="134.5801">&#9745; true</text><line style="stroke:#000000;stroke-width:1.0;" x1="434" x2="434" y1="118.0469" y2="139.6563"/><line style="stroke:#000000;stroke-width:1.0;" x1="355" x2="490" y1="139.6563" y2="139.6563"/><text fill="#000000" font-family="sans-serif" font-size="14" font-weight="bold" lengthAdjust="spacing" textLength="40" x="360" y="156.1895">notes</text><text fill="#000000" font-family="sans-serif" font-size="14" lengthAdjust="spacing" textLength="46" x="439" y="156.1895">&#9744; false</text><line style="stroke:#000000;stroke-width:1.0;" x1="434" x2="434" y1="139.6563" y2="161.2656"/><rect fill="none" height="151.2656" rx="5" ry="5" style="stroke:#000000;stroke-width:1.5;" width="135" x="355" y="10"/><rect fill="#F1F1F1" height="43.2188" rx="5" ry="5" style="stroke:#F1F1F1;stroke-width:1.5;" width="145" x="170" y="179.0234"/><text fill="#000000" font-family="sans-serif" font-size="14" font-weight="bold" lengthAdjust="spacing" textLength="39" x="175" y="195.5566">menu</text><text fill="#000000" font-family="sans-serif" font-size="14" lengthAdjust="spacing" textLength="68" x="242" y="195.5566">Hozz&#225;ad&#225;s</text><line style="stroke:#000000;stroke-width:1.0;" x1="237" x2="237" y1="179.0234" y2="200.6328"/><line style="stroke:#000000;stroke-width:1.0;" x1="170" x2="315" y1="200.6328" y2="200.6328"/><text fill="#000000" font-family="sans-serif" font-size="14" font-weight="bold" lengthAdjust="spacing" textLength="57" x="175" y="217.166">settings</text><text fill="#000000" font-family="sans-serif" font-size="14" lengthAdjust="spacing" textLength="32" x="242" y="217.166">show</text><line style="stroke:#000000;stroke-width:1.0;" x1="237" x2="237" y1="200.6328" y2="222.2422"/><rect fill="none" height="43.2188" rx="5" ry="5" style="stroke:#000000;stroke-width:1.5;" width="145" x="170" y="179.0234"/><path d="M306,85.6328 L319,85.6328 C328.242,85.6328 337.9505,85.6328 347.5604,85.6328 " fill="none" style="stroke:#000000;stroke-width:1.0;stroke-dasharray:3.0,3.0;"/><path d="M347.5604,88.7028 L349.863,85.6328 L347.5604,82.5628 L355.2355,85.6328 L347.5604,88.7028 " fill="#000000" style="stroke:#000000;stroke-width:1.0;"/><ellipse cx="306" cy="85.6328" fill="#000000" rx="3" ry="3" style="stroke:#000000;stroke-width:1.0;"/><path d="M118,147.6328 L131,147.6328 C140.5445,147.6328 150.3956,146.5863 160.106,144.8843 " fill="none" style="stroke:#000000;stroke-width:1.0;stroke-dasharray:3.0,3.0;"/><path d="M160.6752,147.8406 L162.3233,144.4575 L159.5369,141.928 L167.4968,143.4614 L160.6752,147.8406 " fill="#000000" style="stroke:#000000;stroke-width:1.0;"/><ellipse cx="118" cy="147.6328" fill="#000000" rx="3" ry="3" style="stroke:#000000;stroke-width:1.0;"/><path d="M118,169.6328 L131,169.6328 C147.0769,169.6328 163.997,172.6868 179.647,176.8777 " fill="none" style="stroke:#000000;stroke-width:1.0;stroke-dasharray:3.0,3.0;"/><path d="M178.7909,179.9063 L181.9184,177.5198 L180.5031,173.8491 L187.2184,179.018 L178.7909,179.9063 " fill="#000000" style="stroke:#000000;stroke-width:1.0;"/><ellipse cx="118" cy="169.6328" fill="#000000" rx="3" ry="3" style="stroke:#000000;stroke-width:1.0;"/><!--SRC=[TLBBRi8m4BpxArOvWGGef51LEQ5IA494GatWRX83Hi56zZeLL7mCtyAFrIQY3ItuPC_ix6FMFOrKuKPB0VQ6Z7mHiCVJ396BbVP2A94INSlF6-I22hfb5aLbMEEMIMNcc2NDzLyA-ICHxdUFH5neAqXHgllINAOKkHJtMI6HwMlc7-hOgCn7qQYCxl-NztGkqSA1NyNCOiDId7FcNF5ohj4ZbPnUQfHY0cFdxAsJMoQCqupauN0-qUnyqburyw_zfUbbMd8aFIOojov2fZaLE8icK32bxT3GRWL-q6azrPArWI5RGBjh-mqxVkXteJz8mD5rKdkVJee0j3GgPP3PfXLV66TRdOnfGU732BUT4DohbaHrY0TN40QYu4eAsp-IyJmgWs0aCTv9l0G_Tvgl725coZO6yuYyiIKrELgf_GzsgX1coR3vGYPKh0nTsK9hG_hI5b3x44QpRm00]--></g></svg>