<?xml version="1.0" encoding="us-ascii" standalone="no"?><svg xmlns="http://www.w3.org/2000/svg" xmlns:xlink="http://www.w3.org/1999/xlink" contentStyleType="text/css" height="666px" preserveAspectRatio="none" style="width:1412px;height:666px;background:#FFFFFF;" version="1.1" viewBox="0 0 1412 666" width="1412px" zoomAndPan="magnify"><defs/><g><!--class App--><g id="elem_App"><rect codeLine="2" fill="#F1F1F1" height="83.2188" id="App" rx="2.5" ry="2.5" style="stroke:#181818;stroke-width:0.5;" width="167" x="527" y="7"/><ellipse cx="593.75" cy="23" fill="#ADD1B2" rx="11" ry="11" style="stroke:#181818;stroke-width:1.0;"/><path d="M596.5156,18.875 Q596.6719,18.6563 596.8594,18.5469 Q597.0469,18.4375 597.2656,18.4375 Q597.6406,18.4375 597.875,18.7031 Q598.1094,18.9531 598.1094,19.5625 L598.1094,21.0156 Q598.1094,21.625 597.875,21.8906 Q597.6406,22.1563 597.2656,22.1563 Q596.9219,22.1563 596.7188,21.9531 Q596.5156,21.7656 596.4063,21.25 Q596.3594,20.8906 596.1719,20.7031 Q595.8438,20.3281 595.2344,20.1094 Q594.625,19.8906 594,19.8906 Q593.2344,19.8906 592.5938,20.2188 Q591.9688,20.5469 591.4688,21.2969 Q590.9844,22.0469 590.9844,23.0781 L590.9844,24.1719 Q590.9844,25.4063 591.875,26.2344 Q592.7656,27.0469 594.3594,27.0469 Q595.2969,27.0469 595.9531,26.7969 Q596.3438,26.6406 596.7656,26.2031 Q597.0313,25.9375 597.1719,25.8594 Q597.3281,25.7813 597.5313,25.7813 Q597.8594,25.7813 598.1094,26.0469 Q598.375,26.2969 598.375,26.6406 Q598.375,26.9844 598.0313,27.3906 Q597.5313,27.9688 596.7344,28.2969 Q595.6563,28.75 594.3594,28.75 Q592.8438,28.75 591.6406,28.125 Q590.6563,27.625 589.9688,26.5625 Q589.2813,25.4844 589.2813,24.2031 L589.2813,23.0469 Q589.2813,21.7188 589.8906,20.5781 Q590.5156,19.4219 591.6094,18.8125 Q592.7031,18.1875 593.9375,18.1875 Q594.6719,18.1875 595.3125,18.3594 Q595.9688,18.5156 596.5156,18.875 Z " fill="#000000"/><text fill="#000000" font-family="sans-serif" font-size="14" lengthAdjust="spacing" textLength="25" x="614.25" y="28.7285">App</text><line style="stroke:#181818;stroke-width:0.5;" x1="528" x2="693" y1="39" y2="39"/><ellipse cx="538" cy="53.3047" fill="none" rx="3" ry="3" style="stroke:#038048;stroke-width:1.0;"/><text fill="#000000" font-family="sans-serif" font-size="14" lengthAdjust="spacing" textLength="141" x="547" y="57.5332">AppProviders provider</text><line style="stroke:#181818;stroke-width:0.5;" x1="528" x2="693" y1="64.6094" y2="64.6094"/><ellipse cx="538" cy="78.9141" fill="#84BE84" rx="3" ry="3" style="stroke:#038048;stroke-width:1.0;"/><text fill="#000000" font-family="sans-serif" font-size="14" lengthAdjust="spacing" textLength="134" x="547" y="83.1426">JSX.Element render()</text></g><!--class TimetableApp--><g id="elem_TimetableApp"><rect codeLine="7" fill="#F1F1F1" height="100.8281" id="TimetableApp" rx="2.5" ry="2.5" style="stroke:#181818;stroke-width:0.5;" width="272" x="340.5" y="151"/><ellipse cx="428.75" cy="167" fill="#ADD1B2" rx="11" ry="11" style="stroke:#181818;stroke-width:1.0;"/><path d="M431.5156,162.875 Q431.6719,162.6563 431.8594,162.5469 Q432.0469,162.4375 432.2656,162.4375 Q432.6406,162.4375 432.875,162.7031 Q433.1094,162.9531 433.1094,163.5625 L433.1094,165.0156 Q433.1094,165.625 432.875,165.8906 Q432.6406,166.1563 432.2656,166.1563 Q431.9219,166.1563 431.7188,165.9531 Q431.5156,165.7656 431.4063,165.25 Q431.3594,164.8906 431.1719,164.7031 Q430.8438,164.3281 430.2344,164.1094 Q429.625,163.8906 429,163.8906 Q428.2344,163.8906 427.5938,164.2188 Q426.9688,164.5469 426.4688,165.2969 Q425.9844,166.0469 425.9844,167.0781 L425.9844,168.1719 Q425.9844,169.4063 426.875,170.2344 Q427.7656,171.0469 429.3594,171.0469 Q430.2969,171.0469 430.9531,170.7969 Q431.3438,170.6406 431.7656,170.2031 Q432.0313,169.9375 432.1719,169.8594 Q432.3281,169.7813 432.5313,169.7813 Q432.8594,169.7813 433.1094,170.0469 Q433.375,170.2969 433.375,170.6406 Q433.375,170.9844 433.0313,171.3906 Q432.5313,171.9688 431.7344,172.2969 Q430.6563,172.75 429.3594,172.75 Q427.8438,172.75 426.6406,172.125 Q425.6563,171.625 424.9688,170.5625 Q424.2813,169.4844 424.2813,168.2031 L424.2813,167.0469 Q424.2813,165.7188 424.8906,164.5781 Q425.5156,163.4219 426.6094,162.8125 Q427.7031,162.1875 428.9375,162.1875 Q429.6719,162.1875 430.3125,162.3594 Q430.9688,162.5156 431.5156,162.875 Z " fill="#000000"/><text fill="#000000" font-family="sans-serif" font-size="14" lengthAdjust="spacing" textLength="87" x="449.25" y="172.7285">TimetableApp</text><line style="stroke:#181818;stroke-width:0.5;" x1="341.5" x2="611.5" y1="183" y2="183"/><line style="stroke:#181818;stroke-width:0.5;" x1="341.5" x2="611.5" y1="191" y2="191"/><ellipse cx="351.5" cy="205.3047" fill="#84BE84" rx="3" ry="3" style="stroke:#038048;stroke-width:1.0;"/><text fill="#000000" font-family="sans-serif" font-size="14" lengthAdjust="spacing" textLength="154" x="360.5" y="209.5332">useKeyboardShortcuts()</text><ellipse cx="351.5" cy="222.9141" fill="#84BE84" rx="3" ry="3" style="stroke:#038048;stroke-width:1.0;"/><text fill="#000000" font-family="sans-serif" font-size="14" lengthAdjust="spacing" textLength="246" x="360.5" y="227.1426">async exportTimetableAsPNGHandler()</text><ellipse cx="351.5" cy="240.5234" fill="#84BE84" rx="3" ry="3" style="stroke:#038048;stroke-width:1.0;"/><text fill="#000000" font-family="sans-serif" font-size="14" lengthAdjust="spacing" textLength="134" x="360.5" y="244.752">JSX.Element render()</text></g><!--class TimetableContext--><g id="elem_TimetableContext"><rect codeLine="13" fill="#F1F1F1" height="329.75" id="TimetableContext" rx="2.5" ry="2.5" style="stroke:#181818;stroke-width:0.5;" width="676" x="518.5" y="330"/><ellipse cx="797.25" cy="346" fill="#ADD1B2" rx="11" ry="11" style="stroke:#181818;stroke-width:1.0;"/><path d="M800.0156,341.875 Q800.1719,341.6563 800.3594,341.5469 Q800.5469,341.4375 800.7656,341.4375 Q801.1406,341.4375 801.375,341.7031 Q801.6094,341.9531 801.6094,342.5625 L801.6094,344.0156 Q801.6094,344.625 801.375,344.8906 Q801.1406,345.1563 800.7656,345.1563 Q800.4219,345.1563 800.2188,344.9531 Q800.0156,344.7656 799.9063,344.25 Q799.8594,343.8906 799.6719,343.7031 Q799.3438,343.3281 798.7344,343.1094 Q798.125,342.8906 797.5,342.8906 Q796.7344,342.8906 796.0938,343.2188 Q795.4688,343.5469 794.9688,344.2969 Q794.4844,345.0469 794.4844,346.0781 L794.4844,347.1719 Q794.4844,348.4063 795.375,349.2344 Q796.2656,350.0469 797.8594,350.0469 Q798.7969,350.0469 799.4531,349.7969 Q799.8438,349.6406 800.2656,349.2031 Q800.5313,348.9375 800.6719,348.8594 Q800.8281,348.7813 801.0313,348.7813 Q801.3594,348.7813 801.6094,349.0469 Q801.875,349.2969 801.875,349.6406 Q801.875,349.9844 801.5313,350.3906 Q801.0313,350.9688 800.2344,351.2969 Q799.1563,351.75 797.8594,351.75 Q796.3438,351.75 795.1406,351.125 Q794.1563,350.625 793.4688,349.5625 Q792.7813,348.4844 792.7813,347.2031 L792.7813,346.0469 Q792.7813,344.7188 793.3906,343.5781 Q794.0156,342.4219 795.1094,341.8125 Q796.2031,341.1875 797.4375,341.1875 Q798.1719,341.1875 798.8125,341.3594 Q799.4688,341.5156 800.0156,341.875 Z " fill="#000000"/><text fill="#000000" font-family="sans-serif" font-size="14" lengthAdjust="spacing" textLength="110" x="817.75" y="351.7285">TimetableContext</text><line style="stroke:#181818;stroke-width:0.5;" x1="519.5" x2="1193.5" y1="362" y2="362"/><ellipse cx="529.5" cy="376.3047" fill="none" rx="3" ry="3" style="stroke:#038048;stroke-width:1.0;"/><text fill="#000000" font-family="sans-serif" font-size="14" lengthAdjust="spacing" textLength="115" x="538.5" y="380.5332">Array eventsJSON</text><ellipse cx="529.5" cy="393.9141" fill="none" rx="3" ry="3" style="stroke:#038048;stroke-width:1.0;"/><text fill="#000000" font-family="sans-serif" font-size="14" lengthAdjust="spacing" textLength="105" x="538.5" y="398.1426">Ref timetableRef</text><line style="stroke:#181818;stroke-width:0.5;" x1="519.5" x2="1193.5" y1="405.2188" y2="405.2188"/><ellipse cx="529.5" cy="419.5234" fill="#84BE84" rx="3" ry="3" style="stroke:#038048;stroke-width:1.0;"/><text fill="#000000" font-family="sans-serif" font-size="14" lengthAdjust="spacing" textLength="179" x="538.5" y="423.752">string getRandomHexColor()</text><ellipse cx="529.5" cy="437.1328" fill="#84BE84" rx="3" ry="3" style="stroke:#038048;stroke-width:1.0;"/><text fill="#000000" font-family="sans-serif" font-size="14" lengthAdjust="spacing" textLength="166" x="538.5" y="441.3613">number getNewSubjectId()</text><ellipse cx="529.5" cy="454.7422" fill="#84BE84" rx="3" ry="3" style="stroke:#038048;stroke-width:1.0;"/><text fill="#000000" font-family="sans-serif" font-size="14" lengthAdjust="spacing" textLength="210" x="538.5" y="458.9707">number getNewCourseId(subject)</text><ellipse cx="529.5" cy="472.3516" fill="#84BE84" rx="3" ry="3" style="stroke:#038048;stroke-width:1.0;"/><text fill="#000000" font-family="sans-serif" font-size="14" lengthAdjust="spacing" textLength="185" x="538.5" y="476.5801">void addSubject(code, name)</text><ellipse cx="529.5" cy="489.9609" fill="#84BE84" rx="3" ry="3" style="stroke:#038048;stroke-width:1.0;"/><text fill="#000000" font-family="sans-serif" font-size="14" lengthAdjust="spacing" textLength="145" x="538.5" y="494.1895">void removeSubject(id)</text><ellipse cx="529.5" cy="507.5703" fill="#84BE84" rx="3" ry="3" style="stroke:#038048;stroke-width:1.0;"/><text fill="#000000" font-family="sans-serif" font-size="14" lengthAdjust="spacing" textLength="380" x="538.5" y="511.7988">void updateSubject(id, newCode, newName, newColor, type)</text><ellipse cx="529.5" cy="525.1797" fill="#84BE84" rx="3" ry="3" style="stroke:#038048;stroke-width:1.0;"/><text fill="#000000" font-family="sans-serif" font-size="14" lengthAdjust="spacing" textLength="216" x="538.5" y="529.4082">void updateShowSubject(id, show)</text><ellipse cx="529.5" cy="542.7891" fill="#84BE84" rx="3" ry="3" style="stroke:#038048;stroke-width:1.0;"/><text fill="#000000" font-family="sans-serif" font-size="14" lengthAdjust="spacing" textLength="568" x="538.5" y="547.0176">void addCourse(subjectId, code, type, instructor, location, day, startTime, endTime, notes)</text><ellipse cx="529.5" cy="560.3984" fill="#84BE84" rx="3" ry="3" style="stroke:#038048;stroke-width:1.0;"/><text fill="#000000" font-family="sans-serif" font-size="14" lengthAdjust="spacing" textLength="251" x="538.5" y="564.627">void removeCourse(subjectId, courseId)</text><ellipse cx="529.5" cy="578.0078" fill="#84BE84" rx="3" ry="3" style="stroke:#038048;stroke-width:1.0;"/><text fill="#000000" font-family="sans-serif" font-size="14" lengthAdjust="spacing" textLength="650" x="538.5" y="582.2363">void updateCourse(subjectId, courseId, code, type, instructor, location, day, startTime, endTime, notes)</text><ellipse cx="529.5" cy="595.6172" fill="#84BE84" rx="3" ry="3" style="stroke:#038048;stroke-width:1.0;"/><text fill="#000000" font-family="sans-serif" font-size="14" lengthAdjust="spacing" textLength="322" x="538.5" y="599.8457">void updateShowCourse(subjectId, courseId, show)</text><ellipse cx="529.5" cy="613.2266" fill="#84BE84" rx="3" ry="3" style="stroke:#038048;stroke-width:1.0;"/><text fill="#000000" font-family="sans-serif" font-size="14" lengthAdjust="spacing" textLength="315" x="538.5" y="617.4551">void setChoosenCourse(subjectId, courseId, type)</text><ellipse cx="529.5" cy="630.8359" fill="#84BE84" rx="3" ry="3" style="stroke:#038048;stroke-width:1.0;"/><text fill="#000000" font-family="sans-serif" font-size="14" lengthAdjust="spacing" textLength="263" x="538.5" y="635.0645">void importFromArrays(subjects, courses)</text><ellipse cx="529.5" cy="648.4453" fill="#84BE84" rx="3" ry="3" style="stroke:#038048;stroke-width:1.0;"/><text fill="#000000" font-family="sans-serif" font-size="14" lengthAdjust="spacing" textLength="318" x="538.5" y="652.6738">async refreshSubjectCourses(subjectId, semester)</text></g><!--class StateContext--><g id="elem_StateContext"><rect codeLine="32" fill="#F1F1F1" height="118.4375" id="StateContext" rx="2.5" ry="2.5" style="stroke:#181818;stroke-width:0.5;" width="273" x="7" y="436"/><ellipse cx="98.75" cy="452" fill="#ADD1B2" rx="11" ry="11" style="stroke:#181818;stroke-width:1.0;"/><path d="M101.5156,447.875 Q101.6719,447.6563 101.8594,447.5469 Q102.0469,447.4375 102.2656,447.4375 Q102.6406,447.4375 102.875,447.7031 Q103.1094,447.9531 103.1094,448.5625 L103.1094,450.0156 Q103.1094,450.625 102.875,450.8906 Q102.6406,451.1563 102.2656,451.1563 Q101.9219,451.1563 101.7188,450.9531 Q101.5156,450.7656 101.4063,450.25 Q101.3594,449.8906 101.1719,449.7031 Q100.8438,449.3281 100.2344,449.1094 Q99.625,448.8906 99,448.8906 Q98.2344,448.8906 97.5938,449.2188 Q96.9688,449.5469 96.4688,450.2969 Q95.9844,451.0469 95.9844,452.0781 L95.9844,453.1719 Q95.9844,454.4063 96.875,455.2344 Q97.7656,456.0469 99.3594,456.0469 Q100.2969,456.0469 100.9531,455.7969 Q101.3438,455.6406 101.7656,455.2031 Q102.0313,454.9375 102.1719,454.8594 Q102.3281,454.7813 102.5313,454.7813 Q102.8594,454.7813 103.1094,455.0469 Q103.375,455.2969 103.375,455.6406 Q103.375,455.9844 103.0313,456.3906 Q102.5313,456.9688 101.7344,457.2969 Q100.6563,457.75 99.3594,457.75 Q97.8438,457.75 96.6406,457.125 Q95.6563,456.625 94.9688,455.5625 Q94.2813,454.4844 94.2813,453.2031 L94.2813,452.0469 Q94.2813,450.7188 94.8906,449.5781 Q95.5156,448.4219 96.6094,447.8125 Q97.7031,447.1875 98.9375,447.1875 Q99.6719,447.1875 100.3125,447.3594 Q100.9688,447.5156 101.5156,447.875 Z " fill="#000000"/><text fill="#000000" font-family="sans-serif" font-size="14" lengthAdjust="spacing" textLength="81" x="119.25" y="457.7285">StateContext</text><line style="stroke:#181818;stroke-width:0.5;" x1="8" x2="279" y1="468" y2="468"/><ellipse cx="18" cy="482.3047" fill="none" rx="3" ry="3" style="stroke:#038048;stroke-width:1.0;"/><text fill="#000000" font-family="sans-serif" font-size="14" lengthAdjust="spacing" textLength="76" x="27" y="486.5332">Object state</text><ellipse cx="18" cy="499.9141" fill="none" rx="3" ry="3" style="stroke:#038048;stroke-width:1.0;"/><text fill="#000000" font-family="sans-serif" font-size="14" lengthAdjust="spacing" textLength="94" x="27" y="504.1426">Object settings</text><line style="stroke:#181818;stroke-width:0.5;" x1="8" x2="279" y1="511.2188" y2="511.2188"/><ellipse cx="18" cy="525.5234" fill="#84BE84" rx="3" ry="3" style="stroke:#038048;stroke-width:1.0;"/><text fill="#000000" font-family="sans-serif" font-size="14" lengthAdjust="spacing" textLength="229" x="27" y="529.752">void updateState(type, event, value)</text><ellipse cx="18" cy="543.1328" fill="#84BE84" rx="3" ry="3" style="stroke:#038048;stroke-width:1.0;"/><text fill="#000000" font-family="sans-serif" font-size="14" lengthAdjust="spacing" textLength="247" x="27" y="547.3613">void updateSettings(type, event, value)</text></g><!--class AppProviders--><g id="elem_AppProviders"><rect codeLine="39" fill="#F1F1F1" height="100.8281" id="AppProviders" rx="2.5" ry="2.5" style="stroke:#181818;stroke-width:0.5;" width="196" x="647.5" y="151"/><ellipse cx="698.75" cy="167" fill="#ADD1B2" rx="11" ry="11" style="stroke:#181818;stroke-width:1.0;"/><path d="M701.5156,162.875 Q701.6719,162.6563 701.8594,162.5469 Q702.0469,162.4375 702.2656,162.4375 Q702.6406,162.4375 702.875,162.7031 Q703.1094,162.9531 703.1094,163.5625 L703.1094,165.0156 Q703.1094,165.625 702.875,165.8906 Q702.6406,166.1563 702.2656,166.1563 Q701.9219,166.1563 701.7188,165.9531 Q701.5156,165.7656 701.4063,165.25 Q701.3594,164.8906 701.1719,164.7031 Q700.8438,164.3281 700.2344,164.1094 Q699.625,163.8906 699,163.8906 Q698.2344,163.8906 697.5938,164.2188 Q696.9688,164.5469 696.4688,165.2969 Q695.9844,166.0469 695.9844,167.0781 L695.9844,168.1719 Q695.9844,169.4063 696.875,170.2344 Q697.7656,171.0469 699.3594,171.0469 Q700.2969,171.0469 700.9531,170.7969 Q701.3438,170.6406 701.7656,170.2031 Q702.0313,169.9375 702.1719,169.8594 Q702.3281,169.7813 702.5313,169.7813 Q702.8594,169.7813 703.1094,170.0469 Q703.375,170.2969 703.375,170.6406 Q703.375,170.9844 703.0313,171.3906 Q702.5313,171.9688 701.7344,172.2969 Q700.6563,172.75 699.3594,172.75 Q697.8438,172.75 696.6406,172.125 Q695.6563,171.625 694.9688,170.5625 Q694.2813,169.4844 694.2813,168.2031 L694.2813,167.0469 Q694.2813,165.7188 694.8906,164.5781 Q695.5156,163.4219 696.6094,162.8125 Q697.7031,162.1875 698.9375,162.1875 Q699.6719,162.1875 700.3125,162.3594 Q700.9688,162.5156 701.5156,162.875 Z " fill="#000000"/><text fill="#000000" font-family="sans-serif" font-size="14" lengthAdjust="spacing" textLength="85" x="719.25" y="172.7285">AppProviders</text><line style="stroke:#181818;stroke-width:0.5;" x1="648.5" x2="842.5" y1="183" y2="183"/><ellipse cx="658.5" cy="197.3047" fill="none" rx="3" ry="3" style="stroke:#038048;stroke-width:1.0;"/><text fill="#000000" font-family="sans-serif" font-size="14" lengthAdjust="spacing" textLength="170" x="667.5" y="201.5332">TimetableProvider wrapper</text><ellipse cx="658.5" cy="214.9141" fill="none" rx="3" ry="3" style="stroke:#038048;stroke-width:1.0;"/><text fill="#000000" font-family="sans-serif" font-size="14" lengthAdjust="spacing" textLength="141" x="667.5" y="219.1426">StateProvider wrapper</text><line style="stroke:#181818;stroke-width:0.5;" x1="648.5" x2="842.5" y1="226.2188" y2="226.2188"/><ellipse cx="658.5" cy="240.5234" fill="#84BE84" rx="3" ry="3" style="stroke:#038048;stroke-width:1.0;"/><text fill="#000000" font-family="sans-serif" font-size="14" lengthAdjust="spacing" textLength="134" x="667.5" y="244.752">JSX.Element render()</text></g><g id="elem_GMN13"><path d="M1230,465.5 L1230,491 L1194.6,495 L1230,499 L1230,524.5547 A0,0 0 0 0 1230,524.5547 L1405,524.5547 A0,0 0 0 0 1405,524.5547 L1405,475.5 L1395,465.5 L1230,465.5 A0,0 0 0 0 1230,465.5 " fill="#FEFFDD" style="stroke:#181818;stroke-width:0.5;"/><path d="M1395,465.5 L1395,475.5 L1405,475.5 L1395,465.5 " fill="#FEFFDD" style="stroke:#181818;stroke-width:0.5;"/><text fill="#000000" font-family="sans-serif" font-size="13" lengthAdjust="spacing" textLength="117" x="1236" y="483.9951">Modern Context API</text><text fill="#000000" font-family="sans-serif" font-size="13" lengthAdjust="spacing" textLength="132" x="1236" y="500.3467">localStorage integr&#225;ci&#243;</text><text fill="#000000" font-family="sans-serif" font-size="13" lengthAdjust="spacing" textLength="154" x="1236" y="516.6982">Funkcion&#225;lis megk&#246;zel&#237;t&#233;s</text></g><g id="elem_GMN16"><path d="M315.5,465.5 L315.5,491 L280.25,495 L315.5,499 L315.5,524.5547 A0,0 0 0 0 315.5,524.5547 L483.5,524.5547 A0,0 0 0 0 483.5,524.5547 L483.5,475.5 L473.5,465.5 L315.5,465.5 A0,0 0 0 0 315.5,465.5 " fill="#FEFFDD" style="stroke:#181818;stroke-width:0.5;"/><path d="M473.5,465.5 L473.5,475.5 L483.5,475.5 L473.5,465.5 " fill="#FEFFDD" style="stroke:#181818;stroke-width:0.5;"/><text fill="#000000" font-family="sans-serif" font-size="13" lengthAdjust="spacing" textLength="141" x="321.5" y="483.9951">Elk&#252;l&#246;n&#237;tett felel&#337;ss&#233;gek</text><text fill="#000000" font-family="sans-serif" font-size="13" lengthAdjust="spacing" textLength="120" x="321.5" y="500.3467">Be&#225;ll&#237;t&#225;sok kezel&#233;se</text><text fill="#000000" font-family="sans-serif" font-size="13" lengthAdjust="spacing" textLength="147" x="321.5" y="516.6982">Jelenlegi &#225;llapot k&#246;vet&#233;se</text></g><!--link App to AppProviders--><g id="link_App_AppProviders"><path codeLine="45" d="M647.03,90.36 C663.74,109.05 679.6921,126.886 697.2421,146.526 " fill="none" id="App-to-AppProviders" style="stroke:#181818;stroke-width:1.0;"/><polygon fill="#181818" points="701.24,151,698.2258,141.6237,697.9084,147.2717,692.2605,146.9543,701.24,151" style="stroke:#181818;stroke-width:1.0;"/></g><!--link AppProviders to TimetableContext--><g id="link_AppProviders_TimetableContext"><path codeLine="46" d="M764.46,252.28 C772.85,274.31 781.1054,296.0025 791.8554,324.2425 " fill="none" id="AppProviders-to-TimetableContext" style="stroke:#181818;stroke-width:1.0;"/><polygon fill="#181818" points="793.99,329.85,794.5265,320.0158,792.2112,325.1771,787.0498,322.8619,793.99,329.85" style="stroke:#181818;stroke-width:1.0;"/></g><!--link AppProviders to StateContext--><g id="link_AppProviders_StateContext"><path codeLine="47" d="M703.04,252.16 C684.56,270.39 661.43,289.2 636.5,300 C497.72,360.16 433.53,263.86 297.5,330 C249.38,353.4 212.2308,393.8982 184.7708,430.9782 " fill="none" id="AppProviders-to-StateContext" style="stroke:#181818;stroke-width:1.0;"/><polygon fill="#181818" points="181.2,435.8,189.7707,430.9479,184.1757,431.7819,183.3417,426.1868,181.2,435.8" style="stroke:#181818;stroke-width:1.0;"/></g><!--link App to TimetableApp--><g id="link_App_TimetableApp"><path codeLine="48" d="M574.24,90.36 C557.65,109.05 541.8314,126.8713 524.4114,146.5113 " fill="none" id="App-to-TimetableApp" style="stroke:#181818;stroke-width:1.0;"/><polygon fill="#181818" points="520.43,151,529.3945,146.9211,523.7478,147.2594,523.4095,141.6127,520.43,151" style="stroke:#181818;stroke-width:1.0;"/></g><!--link TimetableApp to TimetableContext--><g id="link_TimetableApp_TimetableContext"><path codeLine="49" d="M541.39,252.28 C570.12,274.31 600.9495,297.9579 637.7595,326.1979 " fill="none" id="TimetableApp-to-TimetableContext" style="stroke:#181818;stroke-width:1.0;stroke-dasharray:7.0,7.0;"/><polygon fill="#181818" points="642.52,329.85,637.8141,321.1982,638.553,326.8066,632.9446,327.5454,642.52,329.85" style="stroke:#181818;stroke-width:1.0;"/><text fill="#000000" font-family="sans-serif" font-size="13" lengthAdjust="spacing" textLength="28" x="599.5" y="296.4951">uses</text></g><!--link TimetableApp to StateContext--><g id="link_TimetableApp_StateContext"><path codeLine="50" d="M399.98,252.06 C367.29,274.47 329.4,302.14 297.5,330 C260.14,362.63 225.9359,398.7653 196.9259,431.4053 " fill="none" id="TimetableApp-to-StateContext" style="stroke:#181818;stroke-width:1.0;stroke-dasharray:7.0,7.0;"/><polygon fill="#181818" points="192.94,435.89,201.9087,431.8203,196.2616,432.1528,195.9291,426.5057,192.94,435.89" style="stroke:#181818;stroke-width:1.0;"/><text fill="#000000" font-family="sans-serif" font-size="13" lengthAdjust="spacing" textLength="28" x="355.5" y="296.4951">uses</text></g><!--SRC=[hLIzRjj03Dxr51nJrCa3T2YG6acJ57M2k4FNiqJBgaztmf6ounPzY3v2nWoT2cJg9lIzoZlzH8gKJlKaan-_xplUaR5MH71Q5F0j0lczXglbvvCpZJaQ1eScGNVqgaa9xCRPNIOnWgBvYhv7KHnOFcKvibffxDELX1_miBBA9SkDTHoNJ1sXeeE90UyAIJnLqytY_OKoYUv9JxeQAy-jORpZJltKENK0t4aPNIsl5qtu5jV0ROtyQSB4BZCffCYt8c_p2xoRMssVN9WoNw7pW0Nkb-Ng2yPycKodvxPqX9Ab6jU2TZPBG2L9KtuKsmHdO5IE0uJ3tEwm1MN985aMYU9UKkgzO232_KAuceYOdm4V2fmgtzXzduBa_tEJzI7Q8rmAghRhAMUG6UbO6RCNqJPMd5apWqGTX8nLVQKpaDkgFunbf8b3JedKlPjm_JBuFtjxQjA_94TD8-Jvnbf2yw-oqPLakP-1SsVpy6IfBQEsYeOput3ja3RD_TLIrDSYcHLYTBqfMNBett12haE5xmdZnF5z-AZkQ9YY6UoKBZllRJKoo-JG146JcUJed0qMI-ki6-es1NkdYa8sJfqFtbx8lRGk_6OwFdux48m6wZxxV9sC4VrMTgJz_HSDbk79oPWKtlZTI6FWu9eQKEJV9xWitJ3OzTYWF_L7UVtEG5jvUdCPmlxnwwNCWKfHfe8nTTLzd5M_GlQyDDjOHgEwrnb1ZkcsUloAklh9rGD5qham6S_r1yVtD6TwM_tMrQEHGhbnMAD6_US7KVMGuZP0tg5e1E9xiblOefTveFhHNGdUQ4mpy21LM0OniaCEYCx6Nm00]--></g></svg>