<?xml version="1.0" encoding="us-ascii" standalone="no"?><svg xmlns="http://www.w3.org/2000/svg" xmlns:xlink="http://www.w3.org/1999/xlink" contentStyleType="text/css" height="456px" preserveAspectRatio="none" style="width:697px;height:456px;background:#FFFFFF;" version="1.1" viewBox="0 0 697 456" width="697px" zoomAndPan="magnify"><defs/><g><!--class App--><g id="elem_App"><rect codeLine="2" fill="#F1F1F1" height="435.4063" id="App" rx="2.5" ry="2.5" style="stroke:#181818;stroke-width:0.5;" width="676" x="7" y="7"/><ellipse cx="328.25" cy="23" fill="#ADD1B2" rx="11" ry="11" style="stroke:#181818;stroke-width:1.0;"/><path d="M331.0156,18.875 Q331.1719,18.6563 331.3594,18.5469 Q331.5469,18.4375 331.7656,18.4375 Q332.1406,18.4375 332.375,18.7031 Q332.6094,18.9531 332.6094,19.5625 L332.6094,21.0156 Q332.6094,21.625 332.375,21.8906 Q332.1406,22.1563 331.7656,22.1563 Q331.4219,22.1563 331.2188,21.9531 Q331.0156,21.7656 330.9063,21.25 Q330.8594,20.8906 330.6719,20.7031 Q330.3438,20.3281 329.7344,20.1094 Q329.125,19.8906 328.5,19.8906 Q327.7344,19.8906 327.0938,20.2188 Q326.4688,20.5469 325.9688,21.2969 Q325.4844,22.0469 325.4844,23.0781 L325.4844,24.1719 Q325.4844,25.4063 326.375,26.2344 Q327.2656,27.0469 328.8594,27.0469 Q329.7969,27.0469 330.4531,26.7969 Q330.8438,26.6406 331.2656,26.2031 Q331.5313,25.9375 331.6719,25.8594 Q331.8281,25.7813 332.0313,25.7813 Q332.3594,25.7813 332.6094,26.0469 Q332.875,26.2969 332.875,26.6406 Q332.875,26.9844 332.5313,27.3906 Q332.0313,27.9688 331.2344,28.2969 Q330.1563,28.75 328.8594,28.75 Q327.3438,28.75 326.1406,28.125 Q325.1563,27.625 324.4688,26.5625 Q323.7813,25.4844 323.7813,24.2031 L323.7813,23.0469 Q323.7813,21.7188 324.3906,20.5781 Q325.0156,19.4219 326.1094,18.8125 Q327.2031,18.1875 328.4375,18.1875 Q329.1719,18.1875 329.8125,18.3594 Q330.4688,18.5156 331.0156,18.875 Z " fill="#000000"/><text fill="#000000" font-family="sans-serif" font-size="14" lengthAdjust="spacing" textLength="25" x="348.75" y="28.7285">App</text><line style="stroke:#181818;stroke-width:0.5;" x1="8" x2="682" y1="39" y2="39"/><ellipse cx="18" cy="53.3047" fill="none" rx="3" ry="3" style="stroke:#038048;stroke-width:1.0;"/><text fill="#000000" font-family="sans-serif" font-size="14" lengthAdjust="spacing" textLength="116" x="27" y="57.5332">JSON eventsJSON</text><ellipse cx="18" cy="70.9141" fill="none" rx="3" ry="3" style="stroke:#038048;stroke-width:1.0;"/><text fill="#000000" font-family="sans-serif" font-size="14" lengthAdjust="spacing" textLength="88" x="27" y="75.1426">JSON settings</text><rect fill="none" height="6" style="stroke:#C82930;stroke-width:1.0;" width="6" x="15" y="85.5234"/><text fill="#000000" font-family="sans-serif" font-size="14" lengthAdjust="spacing" textLength="81" x="27" y="92.752">JSON events</text><line style="stroke:#181818;stroke-width:0.5;" x1="8" x2="682" y1="99.8281" y2="99.8281"/><rect fill="#F24D5C" height="6" style="stroke:#C82930;stroke-width:1.0;" width="6" x="15" y="111.1328"/><text fill="#000000" font-family="sans-serif" font-size="14" lengthAdjust="spacing" textLength="166" x="27" y="118.3613">number getNewSubjectId()</text><rect fill="#F24D5C" height="6" style="stroke:#C82930;stroke-width:1.0;" width="6" x="15" y="128.7422"/><text fill="#000000" font-family="sans-serif" font-size="14" lengthAdjust="spacing" textLength="210" x="27" y="135.9707">number getNewCourseId(subject)</text><ellipse cx="18" cy="149.3516" fill="#84BE84" rx="3" ry="3" style="stroke:#038048;stroke-width:1.0;"/><text fill="#000000" font-family="sans-serif" font-size="14" lengthAdjust="spacing" textLength="185" x="27" y="153.5801">void addSubject(code, name)</text><ellipse cx="18" cy="166.9609" fill="#84BE84" rx="3" ry="3" style="stroke:#038048;stroke-width:1.0;"/><text fill="#000000" font-family="sans-serif" font-size="14" lengthAdjust="spacing" textLength="145" x="27" y="171.1895">void removeSubject(id)</text><ellipse cx="18" cy="184.5703" fill="#84BE84" rx="3" ry="3" style="stroke:#038048;stroke-width:1.0;"/><text fill="#000000" font-family="sans-serif" font-size="14" lengthAdjust="spacing" textLength="380" x="27" y="188.7988">void updateSubject(id, newCode, newName, newColor, type)</text><ellipse cx="18" cy="202.1797" fill="#84BE84" rx="3" ry="3" style="stroke:#038048;stroke-width:1.0;"/><text fill="#000000" font-family="sans-serif" font-size="14" lengthAdjust="spacing" textLength="216" x="27" y="206.4082">void updateShowSubject(id, show)</text><rect fill="#F24D5C" height="6" style="stroke:#C82930;stroke-width:1.0;" width="6" x="15" y="216.7891"/><text fill="#000000" font-family="sans-serif" font-size="14" lengthAdjust="spacing" textLength="263" x="27" y="224.0176">Date getDateOfThisWeeksDay(dayName)</text><rect fill="#F24D5C" height="6" style="stroke:#C82930;stroke-width:1.0;" width="6" x="15" y="234.3984"/><text fill="#000000" font-family="sans-serif" font-size="14" lengthAdjust="spacing" textLength="233" x="27" y="241.627">boolean isDisplayed(subject, course)</text><rect fill="#F24D5C" height="6" style="stroke:#C82930;stroke-width:1.0;" width="6" x="15" y="252.0078"/><text fill="#000000" font-family="sans-serif" font-size="14" lengthAdjust="spacing" textLength="228" x="27" y="259.2363">boolean isChoosen(subject, course)</text><rect fill="#F24D5C" height="6" style="stroke:#C82930;stroke-width:1.0;" width="6" x="15" y="269.6172"/><text fill="#000000" font-family="sans-serif" font-size="14" lengthAdjust="spacing" textLength="185" x="27" y="276.8457">Course[] setCourses(subject)</text><rect fill="#F24D5C" height="6" style="stroke:#C82930;stroke-width:1.0;" width="6" x="15" y="287.2266"/><text fill="#000000" font-family="sans-serif" font-size="14" lengthAdjust="spacing" textLength="315" x="27" y="294.4551">void setChoosenCourse(subjectId, courseId, type)</text><ellipse cx="18" cy="307.8359" fill="#84BE84" rx="3" ry="3" style="stroke:#038048;stroke-width:1.0;"/><text fill="#000000" font-family="sans-serif" font-size="14" lengthAdjust="spacing" textLength="568" x="27" y="312.0645">void addCourse(subjectId, code, type, instructor, location, day, startTime, endTime, notes)</text><ellipse cx="18" cy="325.4453" fill="#84BE84" rx="3" ry="3" style="stroke:#038048;stroke-width:1.0;"/><text fill="#000000" font-family="sans-serif" font-size="14" lengthAdjust="spacing" textLength="251" x="27" y="329.6738">void removeCourse(subjectId, courseId)</text><ellipse cx="18" cy="343.0547" fill="#84BE84" rx="3" ry="3" style="stroke:#038048;stroke-width:1.0;"/><text fill="#000000" font-family="sans-serif" font-size="14" lengthAdjust="spacing" textLength="650" x="27" y="347.2832">void updateCourse(subjectId, courseId, code, type, instructor, location, day, startTime, endTime, notes)</text><ellipse cx="18" cy="360.6641" fill="#84BE84" rx="3" ry="3" style="stroke:#038048;stroke-width:1.0;"/><text fill="#000000" font-family="sans-serif" font-size="14" lengthAdjust="spacing" textLength="322" x="27" y="364.8926">void updateShowCourse(subjectId, courseId, show)</text><ellipse cx="18" cy="378.2734" fill="#84BE84" rx="3" ry="3" style="stroke:#038048;stroke-width:1.0;"/><text fill="#000000" font-family="sans-serif" font-size="14" lengthAdjust="spacing" textLength="247" x="27" y="382.502">void updateSettings(type, event, value)</text><rect fill="#F24D5C" height="6" style="stroke:#C82930;stroke-width:1.0;" width="6" x="15" y="392.8828"/><text fill="#000000" font-family="sans-serif" font-size="14" lengthAdjust="spacing" textLength="179" x="27" y="400.1113">string getRandomHexColor()</text><ellipse cx="18" cy="413.4922" fill="#84BE84" rx="3" ry="3" style="stroke:#038048;stroke-width:1.0;"/><text fill="#000000" font-family="sans-serif" font-size="14" lengthAdjust="spacing" textLength="145" x="27" y="417.7207">void onEventClick(info)</text><ellipse cx="18" cy="431.1016" fill="#84BE84" rx="3" ry="3" style="stroke:#038048;stroke-width:1.0;"/><text fill="#000000" font-family="sans-serif" font-size="14" lengthAdjust="spacing" textLength="263" x="27" y="435.3301">void importFromArrays(subjects, courses)</text></g><!--SRC=[hLF1ReCm3BttAtoa6ls8gjsqxa2bjT8EqmufSTki4ACuqA5f_xw4G0SgxMbSC7xFZjzpI3F13FEYWEy9kES1NZRh1B12RTc7_IoZjKeVkCdD-in9cz9blaC31xG9dZVbxXDJkvBHT0nUK6aO7Sg1DssFgaX945AsvL5A4cFG8iS1ms1E5NOa9GTWMKXXUw2hzmSsZV2Sk5vj9YCJWwqB72i_qhdVWjrtfsJfSA_3lzVxxL7n6-A9bwAEfAYJox0ps15bA3GeNYekCb7ZHN4CQUF1DNLn96BKjuZ1klSFlv4Gyz35MT3XuT0fi3hIIdOTVNGbtva_nlVkUMuCIhCrPMgzUHcbmYhICJZXpYGhZDqgRp1g6G9D5dbaURU76jd6FGN_EjlVykyT-NSPXcNjBnA5OPg_8uPAPELbUMuyn_2NvrLeIVapVZNtC1gq8_teQnUPIa-HqdiQe2eloDWdG_dS655Vji_TY4xIp-GN]--></g></svg>