<?xml version="1.0" encoding="us-ascii" standalone="no"?><svg xmlns="http://www.w3.org/2000/svg" xmlns:xlink="http://www.w3.org/1999/xlink" contentStyleType="text/css" height="841px" preserveAspectRatio="none" style="width:1379px;height:841px;background:#FFFFFF;" version="1.1" viewBox="0 0 1379 841" width="1379px" zoomAndPan="magnify"><defs/><g><!--class Menu--><g id="elem_Menu"><rect codeLine="2" fill="#F1F1F1" height="218.4844" id="Menu" rx="2.5" ry="2.5" style="stroke:#181818;stroke-width:0.5;" width="248" x="623" y="7"/><ellipse cx="725.25" cy="23" fill="#ADD1B2" rx="11" ry="11" style="stroke:#181818;stroke-width:1.0;"/><path d="M728.0156,18.875 Q728.1719,18.6563 728.3594,18.5469 Q728.5469,18.4375 728.7656,18.4375 Q729.1406,18.4375 729.375,18.7031 Q729.6094,18.9531 729.6094,19.5625 L729.6094,21.0156 Q729.6094,21.625 729.375,21.8906 Q729.1406,22.1563 728.7656,22.1563 Q728.4219,22.1563 728.2188,21.9531 Q728.0156,21.7656 727.9063,21.25 Q727.8594,20.8906 727.6719,20.7031 Q727.3438,20.3281 726.7344,20.1094 Q726.125,19.8906 725.5,19.8906 Q724.7344,19.8906 724.0938,20.2188 Q723.4688,20.5469 722.9688,21.2969 Q722.4844,22.0469 722.4844,23.0781 L722.4844,24.1719 Q722.4844,25.4063 723.375,26.2344 Q724.2656,27.0469 725.8594,27.0469 Q726.7969,27.0469 727.4531,26.7969 Q727.8438,26.6406 728.2656,26.2031 Q728.5313,25.9375 728.6719,25.8594 Q728.8281,25.7813 729.0313,25.7813 Q729.3594,25.7813 729.6094,26.0469 Q729.875,26.2969 729.875,26.6406 Q729.875,26.9844 729.5313,27.3906 Q729.0313,27.9688 728.2344,28.2969 Q727.1563,28.75 725.8594,28.75 Q724.3438,28.75 723.1406,28.125 Q722.1563,27.625 721.4688,26.5625 Q720.7813,25.4844 720.7813,24.2031 L720.7813,23.0469 Q720.7813,21.7188 721.3906,20.5781 Q722.0156,19.4219 723.1094,18.8125 Q724.2031,18.1875 725.4375,18.1875 Q726.1719,18.1875 726.8125,18.3594 Q727.4688,18.5156 728.0156,18.875 Z " fill="#000000"/><text fill="#000000" font-family="sans-serif" font-size="14" lengthAdjust="spacing" textLength="35" x="745.75" y="28.7285">Menu</text><line style="stroke:#181818;stroke-width:0.5;" x1="624" x2="870" y1="39" y2="39"/><ellipse cx="634" cy="74.9141" fill="#84BE84" rx="3" ry="3" style="stroke:#038048;stroke-width:1.0;"/><text fill="#000000" font-family="sans-serif" font-size="14" lengthAdjust="spacing" textLength="151" x="643" y="79.1426">void adder(code, name)</text><ellipse cx="634" cy="92.5234" fill="none" rx="3" ry="3" style="stroke:#038048;stroke-width:1.0;"/><text fill="#000000" font-family="sans-serif" font-size="14" lengthAdjust="spacing" textLength="81" x="643" y="96.752">JSON events</text><ellipse cx="634" cy="110.1328" fill="#84BE84" rx="3" ry="3" style="stroke:#038048;stroke-width:1.0;"/><text fill="#000000" font-family="sans-serif" font-size="14" lengthAdjust="spacing" textLength="76" x="643" y="114.3613">void setter()</text><ellipse cx="634" cy="127.7422" fill="none" rx="3" ry="3" style="stroke:#038048;stroke-width:1.0;"/><text fill="#000000" font-family="sans-serif" font-size="14" lengthAdjust="spacing" textLength="88" x="643" y="131.9707">JSON settings</text><ellipse cx="634" cy="145.3516" fill="#84BE84" rx="3" ry="3" style="stroke:#038048;stroke-width:1.0;"/><text fill="#000000" font-family="sans-serif" font-size="14" lengthAdjust="spacing" textLength="222" x="643" y="149.5801">void setSettings(type, event, value)</text><ellipse cx="634" cy="162.9609" fill="#84BE84" rx="3" ry="3" style="stroke:#038048;stroke-width:1.0;"/><text fill="#000000" font-family="sans-serif" font-size="14" lengthAdjust="spacing" textLength="202" x="643" y="167.1895">void importer(subjects, courses)</text><line style="stroke:#181818;stroke-width:1.0;stroke-dasharray:1.0,2.0;" x1="624" x2="729" y1="55.8047" y2="55.8047"/><text fill="#000000" font-family="sans-serif" font-size="14" lengthAdjust="spacing" textLength="36" x="729" y="61.0332">props</text><line style="stroke:#181818;stroke-width:1.0;stroke-dasharray:1.0,2.0;" x1="765" x2="870" y1="55.8047" y2="55.8047"/><line style="stroke:#181818;stroke-width:0.5;" x1="624" x2="870" y1="174.2656" y2="174.2656"/><ellipse cx="634" cy="188.5703" fill="none" rx="3" ry="3" style="stroke:#038048;stroke-width:1.0;"/><text fill="#000000" font-family="sans-serif" font-size="14" lengthAdjust="spacing" textLength="74" x="643" y="192.7988">string mode</text><line style="stroke:#181818;stroke-width:0.5;" x1="624" x2="870" y1="199.875" y2="199.875"/><rect fill="#F24D5C" height="6" style="stroke:#C82930;stroke-width:1.0;" width="6" x="631" y="211.1797"/><text fill="#000000" font-family="sans-serif" font-size="14" lengthAdjust="spacing" textLength="202" x="643" y="218.4082">Component modeSwitch(param)</text></g><!--class Button--><g id="elem_Button"><rect codeLine="16" fill="#F1F1F1" height="149.6563" id="Button" rx="2.5" ry="2.5" style="stroke:#181818;stroke-width:0.5;" width="146" x="7" y="328"/><ellipse cx="55.25" cy="344" fill="#ADD1B2" rx="11" ry="11" style="stroke:#181818;stroke-width:1.0;"/><path d="M58.0156,339.875 Q58.1719,339.6563 58.3594,339.5469 Q58.5469,339.4375 58.7656,339.4375 Q59.1406,339.4375 59.375,339.7031 Q59.6094,339.9531 59.6094,340.5625 L59.6094,342.0156 Q59.6094,342.625 59.375,342.8906 Q59.1406,343.1563 58.7656,343.1563 Q58.4219,343.1563 58.2188,342.9531 Q58.0156,342.7656 57.9063,342.25 Q57.8594,341.8906 57.6719,341.7031 Q57.3438,341.3281 56.7344,341.1094 Q56.125,340.8906 55.5,340.8906 Q54.7344,340.8906 54.0938,341.2188 Q53.4688,341.5469 52.9688,342.2969 Q52.4844,343.0469 52.4844,344.0781 L52.4844,345.1719 Q52.4844,346.4063 53.375,347.2344 Q54.2656,348.0469 55.8594,348.0469 Q56.7969,348.0469 57.4531,347.7969 Q57.8438,347.6406 58.2656,347.2031 Q58.5313,346.9375 58.6719,346.8594 Q58.8281,346.7813 59.0313,346.7813 Q59.3594,346.7813 59.6094,347.0469 Q59.875,347.2969 59.875,347.6406 Q59.875,347.9844 59.5313,348.3906 Q59.0313,348.9688 58.2344,349.2969 Q57.1563,349.75 55.8594,349.75 Q54.3438,349.75 53.1406,349.125 Q52.1563,348.625 51.4688,347.5625 Q50.7813,346.4844 50.7813,345.2031 L50.7813,344.0469 Q50.7813,342.7188 51.3906,341.5781 Q52.0156,340.4219 53.1094,339.8125 Q54.2031,339.1875 55.4375,339.1875 Q56.1719,339.1875 56.8125,339.3594 Q57.4688,339.5156 58.0156,339.875 Z " fill="#000000"/><text fill="#000000" font-family="sans-serif" font-size="14" lengthAdjust="spacing" textLength="41" x="75.75" y="349.7285">Button</text><line style="stroke:#181818;stroke-width:0.5;" x1="8" x2="152" y1="360" y2="360"/><rect fill="none" height="6" style="stroke:#C82930;stroke-width:1.0;" width="6" x="15" y="392.9141"/><text fill="#000000" font-family="sans-serif" font-size="14" lengthAdjust="spacing" textLength="61" x="27" y="400.1426">string text</text><rect fill="none" height="6" style="stroke:#C82930;stroke-width:1.0;" width="6" x="15" y="410.5234"/><text fill="#000000" font-family="sans-serif" font-size="14" lengthAdjust="spacing" textLength="65" x="27" y="417.752">string icon</text><rect fill="none" height="6" style="stroke:#C82930;stroke-width:1.0;" width="6" x="15" y="428.1328"/><text fill="#000000" font-family="sans-serif" font-size="14" lengthAdjust="spacing" textLength="74" x="27" y="435.3613">string mode</text><rect fill="#F24D5C" height="6" style="stroke:#C82930;stroke-width:1.0;" width="6" x="15" y="445.7422"/><text fill="#000000" font-family="sans-serif" font-size="14" lengthAdjust="spacing" textLength="94" x="27" y="452.9707">void set(mode)</text><rect fill="none" height="6" style="stroke:#C82930;stroke-width:1.0;" width="6" x="15" y="463.3516"/><text fill="#000000" font-family="sans-serif" font-size="14" lengthAdjust="spacing" textLength="120" x="27" y="470.5801">boolean isDisabled</text><line style="stroke:#181818;stroke-width:1.0;stroke-dasharray:1.0,2.0;" x1="8" x2="62" y1="376.8047" y2="376.8047"/><text fill="#000000" font-family="sans-serif" font-size="14" lengthAdjust="spacing" textLength="36" x="62" y="382.0332">props</text><line style="stroke:#181818;stroke-width:1.0;stroke-dasharray:1.0,2.0;" x1="98" x2="152" y1="376.8047" y2="376.8047"/></g><!--class SubjectAdder--><g id="elem_SubjectAdder"><rect codeLine="25" fill="#F1F1F1" height="148.0469" id="SubjectAdder" rx="2.5" ry="2.5" style="stroke:#181818;stroke-width:0.5;" width="177" x="188.5" y="329"/><ellipse cx="230.5" cy="345" fill="#ADD1B2" rx="11" ry="11" style="stroke:#181818;stroke-width:1.0;"/><path d="M233.2656,340.875 Q233.4219,340.6563 233.6094,340.5469 Q233.7969,340.4375 234.0156,340.4375 Q234.3906,340.4375 234.625,340.7031 Q234.8594,340.9531 234.8594,341.5625 L234.8594,343.0156 Q234.8594,343.625 234.625,343.8906 Q234.3906,344.1563 234.0156,344.1563 Q233.6719,344.1563 233.4688,343.9531 Q233.2656,343.7656 233.1563,343.25 Q233.1094,342.8906 232.9219,342.7031 Q232.5938,342.3281 231.9844,342.1094 Q231.375,341.8906 230.75,341.8906 Q229.9844,341.8906 229.3438,342.2188 Q228.7188,342.5469 228.2188,343.2969 Q227.7344,344.0469 227.7344,345.0781 L227.7344,346.1719 Q227.7344,347.4063 228.625,348.2344 Q229.5156,349.0469 231.1094,349.0469 Q232.0469,349.0469 232.7031,348.7969 Q233.0938,348.6406 233.5156,348.2031 Q233.7813,347.9375 233.9219,347.8594 Q234.0781,347.7813 234.2813,347.7813 Q234.6094,347.7813 234.8594,348.0469 Q235.125,348.2969 235.125,348.6406 Q235.125,348.9844 234.7813,349.3906 Q234.2813,349.9688 233.4844,350.2969 Q232.4063,350.75 231.1094,350.75 Q229.5938,350.75 228.3906,350.125 Q227.4063,349.625 226.7188,348.5625 Q226.0313,347.4844 226.0313,346.2031 L226.0313,345.0469 Q226.0313,343.7188 226.6406,342.5781 Q227.2656,341.4219 228.3594,340.8125 Q229.4531,340.1875 230.6875,340.1875 Q231.4219,340.1875 232.0625,340.3594 Q232.7188,340.5156 233.2656,340.875 Z " fill="#000000"/><text fill="#000000" font-family="sans-serif" font-size="14" lengthAdjust="spacing" textLength="85" x="250.5" y="350.7285">SubjectAdder</text><line style="stroke:#181818;stroke-width:0.5;" x1="189.5" x2="364.5" y1="361" y2="361"/><ellipse cx="199.5" cy="396.9141" fill="#84BE84" rx="3" ry="3" style="stroke:#038048;stroke-width:1.0;"/><text fill="#000000" font-family="sans-serif" font-size="14" lengthAdjust="spacing" textLength="151" x="208.5" y="401.1426">void adder(code, name)</text><line style="stroke:#181818;stroke-width:1.0;stroke-dasharray:1.0,2.0;" x1="189.5" x2="259" y1="377.8047" y2="377.8047"/><text fill="#000000" font-family="sans-serif" font-size="14" lengthAdjust="spacing" textLength="36" x="259" y="383.0332">props</text><line style="stroke:#181818;stroke-width:1.0;stroke-dasharray:1.0,2.0;" x1="295" x2="364.5" y1="377.8047" y2="377.8047"/><line style="stroke:#181818;stroke-width:0.5;" x1="189.5" x2="364.5" y1="408.2188" y2="408.2188"/><rect fill="none" height="6" style="stroke:#C82930;stroke-width:1.0;" width="6" x="196.5" y="419.5234"/><text fill="#000000" font-family="sans-serif" font-size="14" lengthAdjust="spacing" textLength="120" x="208.5" y="426.752">string subjectName</text><rect fill="none" height="6" style="stroke:#C82930;stroke-width:1.0;" width="6" x="196.5" y="437.1328"/><text fill="#000000" font-family="sans-serif" font-size="14" lengthAdjust="spacing" textLength="118" x="208.5" y="444.3613">string subjectCode</text><line style="stroke:#181818;stroke-width:0.5;" x1="189.5" x2="364.5" y1="451.4375" y2="451.4375"/><rect fill="#F24D5C" height="6" style="stroke:#C82930;stroke-width:1.0;" width="6" x="196.5" y="462.7422"/><text fill="#000000" font-family="sans-serif" font-size="14" lengthAdjust="spacing" textLength="121" x="208.5" y="469.9707">void onClick(event)</text></g><!--class ServerQuerry--><g id="elem_ServerQuerry"><rect codeLine="35" fill="#F1F1F1" height="236.0938" id="ServerQuerry" rx="2.5" ry="2.5" style="stroke:#181818;stroke-width:0.5;" width="379" x="400.5" y="285"/><ellipse cx="542.75" cy="301" fill="#ADD1B2" rx="11" ry="11" style="stroke:#181818;stroke-width:1.0;"/><path d="M545.5156,296.875 Q545.6719,296.6563 545.8594,296.5469 Q546.0469,296.4375 546.2656,296.4375 Q546.6406,296.4375 546.875,296.7031 Q547.1094,296.9531 547.1094,297.5625 L547.1094,299.0156 Q547.1094,299.625 546.875,299.8906 Q546.6406,300.1563 546.2656,300.1563 Q545.9219,300.1563 545.7188,299.9531 Q545.5156,299.7656 545.4063,299.25 Q545.3594,298.8906 545.1719,298.7031 Q544.8438,298.3281 544.2344,298.1094 Q543.625,297.8906 543,297.8906 Q542.2344,297.8906 541.5938,298.2188 Q540.9688,298.5469 540.4688,299.2969 Q539.9844,300.0469 539.9844,301.0781 L539.9844,302.1719 Q539.9844,303.4063 540.875,304.2344 Q541.7656,305.0469 543.3594,305.0469 Q544.2969,305.0469 544.9531,304.7969 Q545.3438,304.6406 545.7656,304.2031 Q546.0313,303.9375 546.1719,303.8594 Q546.3281,303.7813 546.5313,303.7813 Q546.8594,303.7813 547.1094,304.0469 Q547.375,304.2969 547.375,304.6406 Q547.375,304.9844 547.0313,305.3906 Q546.5313,305.9688 545.7344,306.2969 Q544.6563,306.75 543.3594,306.75 Q541.8438,306.75 540.6406,306.125 Q539.6563,305.625 538.9688,304.5625 Q538.2813,303.4844 538.2813,302.2031 L538.2813,301.0469 Q538.2813,299.7188 538.8906,298.5781 Q539.5156,297.4219 540.6094,296.8125 Q541.7031,296.1875 542.9375,296.1875 Q543.6719,296.1875 544.3125,296.3594 Q544.9688,296.5156 545.5156,296.875 Z " fill="#000000"/><text fill="#000000" font-family="sans-serif" font-size="14" lengthAdjust="spacing" textLength="86" x="563.25" y="306.7285">ServerQuerry</text><line style="stroke:#181818;stroke-width:0.5;" x1="401.5" x2="778.5" y1="317" y2="317"/><ellipse cx="411.5" cy="352.9141" fill="#84BE84" rx="3" ry="3" style="stroke:#038048;stroke-width:1.0;"/><text fill="#000000" font-family="sans-serif" font-size="14" lengthAdjust="spacing" textLength="202" x="420.5" y="357.1426">void importer(subjects, courses)</text><line style="stroke:#181818;stroke-width:1.0;stroke-dasharray:1.0,2.0;" x1="401.5" x2="572" y1="333.8047" y2="333.8047"/><text fill="#000000" font-family="sans-serif" font-size="14" lengthAdjust="spacing" textLength="36" x="572" y="339.0332">props</text><line style="stroke:#181818;stroke-width:1.0;stroke-dasharray:1.0,2.0;" x1="608" x2="778.5" y1="333.8047" y2="333.8047"/><line style="stroke:#181818;stroke-width:0.5;" x1="401.5" x2="778.5" y1="364.2188" y2="364.2188"/><rect fill="none" height="6" style="stroke:#C82930;stroke-width:1.0;" width="6" x="408.5" y="375.5234"/><text fill="#000000" font-family="sans-serif" font-size="14" lengthAdjust="spacing" textLength="154" x="420.5" y="382.752">string subjectNameCode</text><rect fill="none" height="6" style="stroke:#C82930;stroke-width:1.0;" width="6" x="408.5" y="393.1328"/><text fill="#000000" font-family="sans-serif" font-size="14" lengthAdjust="spacing" textLength="143" x="420.5" y="400.3613">string subjectInstructor</text><ellipse cx="411.5" cy="413.7422" fill="none" rx="3" ry="3" style="stroke:#038048;stroke-width:1.0;"/><text fill="#000000" font-family="sans-serif" font-size="14" lengthAdjust="spacing" textLength="108" x="420.5" y="417.9707">Course[] courses</text><ellipse cx="411.5" cy="431.3516" fill="none" rx="3" ry="3" style="stroke:#038048;stroke-width:1.0;"/><text fill="#000000" font-family="sans-serif" font-size="14" lengthAdjust="spacing" textLength="111" x="420.5" y="435.5801">Subject[] subjects</text><ellipse cx="411.5" cy="448.9609" fill="none" rx="3" ry="3" style="stroke:#038048;stroke-width:1.0;"/><text fill="#000000" font-family="sans-serif" font-size="14" lengthAdjust="spacing" textLength="141" x="420.5" y="453.1895">boolean dataIsLoaded</text><line style="stroke:#181818;stroke-width:0.5;" x1="401.5" x2="778.5" y1="460.2656" y2="460.2656"/><rect fill="#F24D5C" height="6" style="stroke:#C82930;stroke-width:1.0;" width="6" x="408.5" y="471.5703"/><text fill="#000000" font-family="sans-serif" font-size="14" lengthAdjust="spacing" textLength="353" x="420.5" y="478.7988">Courses[] parseCourseData(data, subjectsAccumulator)</text><rect fill="#F24D5C" height="6" style="stroke:#C82930;stroke-width:1.0;" width="6" x="408.5" y="489.1797"/><text fill="#000000" font-family="sans-serif" font-size="14" lengthAdjust="spacing" textLength="101" x="420.5" y="496.4082">void fetchData()</text><rect fill="#F24D5C" height="6" style="stroke:#C82930;stroke-width:1.0;" width="6" x="408.5" y="506.7891"/><text fill="#000000" font-family="sans-serif" font-size="14" lengthAdjust="spacing" textLength="121" x="420.5" y="514.0176">void onClick(event)</text></g><!--class ImportExport--><g id="elem_ImportExport"><rect codeLine="50" fill="#F1F1F1" height="140.0469" id="ImportExport" rx="2.5" ry="2.5" style="stroke:#181818;stroke-width:0.5;" width="179" x="814.5" y="333"/><ellipse cx="860.25" cy="349" fill="#ADD1B2" rx="11" ry="11" style="stroke:#181818;stroke-width:1.0;"/><path d="M863.0156,344.875 Q863.1719,344.6563 863.3594,344.5469 Q863.5469,344.4375 863.7656,344.4375 Q864.1406,344.4375 864.375,344.7031 Q864.6094,344.9531 864.6094,345.5625 L864.6094,347.0156 Q864.6094,347.625 864.375,347.8906 Q864.1406,348.1563 863.7656,348.1563 Q863.4219,348.1563 863.2188,347.9531 Q863.0156,347.7656 862.9063,347.25 Q862.8594,346.8906 862.6719,346.7031 Q862.3438,346.3281 861.7344,346.1094 Q861.125,345.8906 860.5,345.8906 Q859.7344,345.8906 859.0938,346.2188 Q858.4688,346.5469 857.9688,347.2969 Q857.4844,348.0469 857.4844,349.0781 L857.4844,350.1719 Q857.4844,351.4063 858.375,352.2344 Q859.2656,353.0469 860.8594,353.0469 Q861.7969,353.0469 862.4531,352.7969 Q862.8438,352.6406 863.2656,352.2031 Q863.5313,351.9375 863.6719,351.8594 Q863.8281,351.7813 864.0313,351.7813 Q864.3594,351.7813 864.6094,352.0469 Q864.875,352.2969 864.875,352.6406 Q864.875,352.9844 864.5313,353.3906 Q864.0313,353.9688 863.2344,354.2969 Q862.1563,354.75 860.8594,354.75 Q859.3438,354.75 858.1406,354.125 Q857.1563,353.625 856.4688,352.5625 Q855.7813,351.4844 855.7813,350.2031 L855.7813,349.0469 Q855.7813,347.7188 856.3906,346.5781 Q857.0156,345.4219 858.1094,344.8125 Q859.2031,344.1875 860.4375,344.1875 Q861.1719,344.1875 861.8125,344.3594 Q862.4688,344.5156 863.0156,344.875 Z " fill="#000000"/><text fill="#000000" font-family="sans-serif" font-size="14" lengthAdjust="spacing" textLength="79" x="880.75" y="354.7285">ImportExport</text><line style="stroke:#181818;stroke-width:0.5;" x1="815.5" x2="992.5" y1="365" y2="365"/><rect fill="none" height="6" style="stroke:#C82930;stroke-width:1.0;" width="6" x="822.5" y="397.9141"/><text fill="#000000" font-family="sans-serif" font-size="14" lengthAdjust="spacing" textLength="57" x="834.5" y="405.1426">JSON file</text><rect fill="#F24D5C" height="6" style="stroke:#C82930;stroke-width:1.0;" width="6" x="822.5" y="415.5234"/><text fill="#000000" font-family="sans-serif" font-size="14" lengthAdjust="spacing" textLength="76" x="834.5" y="422.752">void setter()</text><line style="stroke:#181818;stroke-width:1.0;stroke-dasharray:1.0,2.0;" x1="815.5" x2="886" y1="381.8047" y2="381.8047"/><text fill="#000000" font-family="sans-serif" font-size="14" lengthAdjust="spacing" textLength="36" x="886" y="387.0332">props</text><line style="stroke:#181818;stroke-width:1.0;stroke-dasharray:1.0,2.0;" x1="922" x2="992.5" y1="381.8047" y2="381.8047"/><line style="stroke:#181818;stroke-width:0.5;" x1="815.5" x2="992.5" y1="429.8281" y2="429.8281"/><rect fill="#F24D5C" height="6" style="stroke:#C82930;stroke-width:1.0;" width="6" x="822.5" y="441.1328"/><text fill="#000000" font-family="sans-serif" font-size="14" lengthAdjust="spacing" textLength="135" x="834.5" y="448.3613">void downloadJSON()</text><rect fill="#F24D5C" height="6" style="stroke:#C82930;stroke-width:1.0;" width="6" x="822.5" y="458.7422"/><text fill="#000000" font-family="sans-serif" font-size="14" lengthAdjust="spacing" textLength="153" x="834.5" y="465.9707">void uploadJSON(event)</text></g><!--class Settings--><g id="elem_Settings"><rect codeLine="59" fill="#F1F1F1" height="236.0938" id="Settings" rx="2.5" ry="2.5" style="stroke:#181818;stroke-width:0.5;" width="248" x="1029" y="285"/><ellipse cx="1123.25" cy="301" fill="#ADD1B2" rx="11" ry="11" style="stroke:#181818;stroke-width:1.0;"/><path d="M1126.0156,296.875 Q1126.1719,296.6563 1126.3594,296.5469 Q1126.5469,296.4375 1126.7656,296.4375 Q1127.1406,296.4375 1127.375,296.7031 Q1127.6094,296.9531 1127.6094,297.5625 L1127.6094,299.0156 Q1127.6094,299.625 1127.375,299.8906 Q1127.1406,300.1563 1126.7656,300.1563 Q1126.4219,300.1563 1126.2188,299.9531 Q1126.0156,299.7656 1125.9063,299.25 Q1125.8594,298.8906 1125.6719,298.7031 Q1125.3438,298.3281 1124.7344,298.1094 Q1124.125,297.8906 1123.5,297.8906 Q1122.7344,297.8906 1122.0938,298.2188 Q1121.4688,298.5469 1120.9688,299.2969 Q1120.4844,300.0469 1120.4844,301.0781 L1120.4844,302.1719 Q1120.4844,303.4063 1121.375,304.2344 Q1122.2656,305.0469 1123.8594,305.0469 Q1124.7969,305.0469 1125.4531,304.7969 Q1125.8438,304.6406 1126.2656,304.2031 Q1126.5313,303.9375 1126.6719,303.8594 Q1126.8281,303.7813 1127.0313,303.7813 Q1127.3594,303.7813 1127.6094,304.0469 Q1127.875,304.2969 1127.875,304.6406 Q1127.875,304.9844 1127.5313,305.3906 Q1127.0313,305.9688 1126.2344,306.2969 Q1125.1563,306.75 1123.8594,306.75 Q1122.3438,306.75 1121.1406,306.125 Q1120.1563,305.625 1119.4688,304.5625 Q1118.7813,303.4844 1118.7813,302.2031 L1118.7813,301.0469 Q1118.7813,299.7188 1119.3906,298.5781 Q1120.0156,297.4219 1121.1094,296.8125 Q1122.2031,296.1875 1123.4375,296.1875 Q1124.1719,296.1875 1124.8125,296.3594 Q1125.4688,296.5156 1126.0156,296.875 Z " fill="#000000"/><text fill="#000000" font-family="sans-serif" font-size="14" lengthAdjust="spacing" textLength="51" x="1143.75" y="306.7285">Settings</text><line style="stroke:#181818;stroke-width:0.5;" x1="1030" x2="1276" y1="317" y2="317"/><rect fill="none" height="6" style="stroke:#C82930;stroke-width:1.0;" width="6" x="1037" y="349.9141"/><text fill="#000000" font-family="sans-serif" font-size="14" lengthAdjust="spacing" textLength="88" x="1049" y="357.1426">JSON settings</text><rect fill="#F24D5C" height="6" style="stroke:#C82930;stroke-width:1.0;" width="6" x="1037" y="367.5234"/><text fill="#000000" font-family="sans-serif" font-size="14" lengthAdjust="spacing" textLength="222" x="1049" y="374.752">void setSettings(type, event, value)</text><line style="stroke:#181818;stroke-width:1.0;stroke-dasharray:1.0,2.0;" x1="1030" x2="1135" y1="333.8047" y2="333.8047"/><text fill="#000000" font-family="sans-serif" font-size="14" lengthAdjust="spacing" textLength="36" x="1135" y="339.0332">props</text><line style="stroke:#181818;stroke-width:1.0;stroke-dasharray:1.0,2.0;" x1="1171" x2="1276" y1="333.8047" y2="333.8047"/><line style="stroke:#181818;stroke-width:0.5;" x1="1030" x2="1276" y1="381.8281" y2="381.8281"/><rect fill="none" height="6" style="stroke:#C82930;stroke-width:1.0;" width="6" x="1037" y="393.1328"/><text fill="#000000" font-family="sans-serif" font-size="14" lengthAdjust="spacing" textLength="86" x="1049" y="400.3613">boolean code</text><rect fill="none" height="6" style="stroke:#C82930;stroke-width:1.0;" width="6" x="1037" y="410.7422"/><text fill="#000000" font-family="sans-serif" font-size="14" lengthAdjust="spacing" textLength="81" x="1049" y="417.9707">boolean time</text><rect fill="none" height="6" style="stroke:#C82930;stroke-width:1.0;" width="6" x="1037" y="428.3516"/><text fill="#000000" font-family="sans-serif" font-size="14" lengthAdjust="spacing" textLength="82" x="1049" y="435.5801">boolean type</text><rect fill="none" height="6" style="stroke:#C82930;stroke-width:1.0;" width="6" x="1037" y="445.9609"/><text fill="#000000" font-family="sans-serif" font-size="14" lengthAdjust="spacing" textLength="114" x="1049" y="453.1895">boolean instructor</text><rect fill="none" height="6" style="stroke:#C82930;stroke-width:1.0;" width="6" x="1037" y="463.5703"/><text fill="#000000" font-family="sans-serif" font-size="14" lengthAdjust="spacing" textLength="104" x="1049" y="470.7988">boolean location</text><rect fill="none" height="6" style="stroke:#C82930;stroke-width:1.0;" width="6" x="1037" y="481.1797"/><text fill="#000000" font-family="sans-serif" font-size="14" lengthAdjust="spacing" textLength="90" x="1049" y="488.4082">boolean notes</text><line style="stroke:#181818;stroke-width:0.5;" x1="1030" x2="1276" y1="495.4844" y2="495.4844"/><rect fill="#F24D5C" height="6" style="stroke:#C82930;stroke-width:1.0;" width="6" x="1037" y="506.7891"/><text fill="#000000" font-family="sans-serif" font-size="14" lengthAdjust="spacing" textLength="221" x="1049" y="514.0176">void setShowSettings(event, value)</text></g><!--class Help--><g id="elem_Help"><rect codeLine="74" fill="#F1F1F1" height="48" id="Help" rx="2.5" ry="2.5" style="stroke:#181818;stroke-width:0.5;" width="60" x="1312" y="379"/><ellipse cx="1327" cy="395" fill="#ADD1B2" rx="11" ry="11" style="stroke:#181818;stroke-width:1.0;"/><path d="M1329.7656,390.875 Q1329.9219,390.6563 1330.1094,390.5469 Q1330.2969,390.4375 1330.5156,390.4375 Q1330.8906,390.4375 1331.125,390.7031 Q1331.3594,390.9531 1331.3594,391.5625 L1331.3594,393.0156 Q1331.3594,393.625 1331.125,393.8906 Q1330.8906,394.1563 1330.5156,394.1563 Q1330.1719,394.1563 1329.9688,393.9531 Q1329.7656,393.7656 1329.6563,393.25 Q1329.6094,392.8906 1329.4219,392.7031 Q1329.0938,392.3281 1328.4844,392.1094 Q1327.875,391.8906 1327.25,391.8906 Q1326.4844,391.8906 1325.8438,392.2188 Q1325.2188,392.5469 1324.7188,393.2969 Q1324.2344,394.0469 1324.2344,395.0781 L1324.2344,396.1719 Q1324.2344,397.4063 1325.125,398.2344 Q1326.0156,399.0469 1327.6094,399.0469 Q1328.5469,399.0469 1329.2031,398.7969 Q1329.5938,398.6406 1330.0156,398.2031 Q1330.2813,397.9375 1330.4219,397.8594 Q1330.5781,397.7813 1330.7813,397.7813 Q1331.1094,397.7813 1331.3594,398.0469 Q1331.625,398.2969 1331.625,398.6406 Q1331.625,398.9844 1331.2813,399.3906 Q1330.7813,399.9688 1329.9844,400.2969 Q1328.9063,400.75 1327.6094,400.75 Q1326.0938,400.75 1324.8906,400.125 Q1323.9063,399.625 1323.2188,398.5625 Q1322.5313,397.4844 1322.5313,396.2031 L1322.5313,395.0469 Q1322.5313,393.7188 1323.1406,392.5781 Q1323.7656,391.4219 1324.8594,390.8125 Q1325.9531,390.1875 1327.1875,390.1875 Q1327.9219,390.1875 1328.5625,390.3594 Q1329.2188,390.5156 1329.7656,390.875 Z " fill="#000000"/><text fill="#000000" font-family="sans-serif" font-size="14" lengthAdjust="spacing" textLength="28" x="1341" y="400.7285">Help</text><line style="stroke:#181818;stroke-width:0.5;" x1="1313" x2="1371" y1="411" y2="411"/><line style="stroke:#181818;stroke-width:0.5;" x1="1313" x2="1371" y1="419" y2="419"/></g><!--class Modal--><g id="elem_Modal"><rect codeLine="76" fill="#F1F1F1" height="253.7031" id="Modal" rx="2.5" ry="2.5" style="stroke:#181818;stroke-width:0.5;" width="471" x="354.5" y="581"/><ellipse cx="566.75" cy="597" fill="#ADD1B2" rx="11" ry="11" style="stroke:#181818;stroke-width:1.0;"/><path d="M569.5156,592.875 Q569.6719,592.6563 569.8594,592.5469 Q570.0469,592.4375 570.2656,592.4375 Q570.6406,592.4375 570.875,592.7031 Q571.1094,592.9531 571.1094,593.5625 L571.1094,595.0156 Q571.1094,595.625 570.875,595.8906 Q570.6406,596.1563 570.2656,596.1563 Q569.9219,596.1563 569.7188,595.9531 Q569.5156,595.7656 569.4063,595.25 Q569.3594,594.8906 569.1719,594.7031 Q568.8438,594.3281 568.2344,594.1094 Q567.625,593.8906 567,593.8906 Q566.2344,593.8906 565.5938,594.2188 Q564.9688,594.5469 564.4688,595.2969 Q563.9844,596.0469 563.9844,597.0781 L563.9844,598.1719 Q563.9844,599.4063 564.875,600.2344 Q565.7656,601.0469 567.3594,601.0469 Q568.2969,601.0469 568.9531,600.7969 Q569.3438,600.6406 569.7656,600.2031 Q570.0313,599.9375 570.1719,599.8594 Q570.3281,599.7813 570.5313,599.7813 Q570.8594,599.7813 571.1094,600.0469 Q571.375,600.2969 571.375,600.6406 Q571.375,600.9844 571.0313,601.3906 Q570.5313,601.9688 569.7344,602.2969 Q568.6563,602.75 567.3594,602.75 Q565.8438,602.75 564.6406,602.125 Q563.6563,601.625 562.9688,600.5625 Q562.2813,599.4844 562.2813,598.2031 L562.2813,597.0469 Q562.2813,595.7188 562.8906,594.5781 Q563.5156,593.4219 564.6094,592.8125 Q565.7031,592.1875 566.9375,592.1875 Q567.6719,592.1875 568.3125,592.3594 Q568.9688,592.5156 569.5156,592.875 Z " fill="#000000"/><text fill="#000000" font-family="sans-serif" font-size="14" lengthAdjust="spacing" textLength="38" x="587.25" y="602.7285">Modal</text><line style="stroke:#181818;stroke-width:0.5;" x1="355.5" x2="824.5" y1="613" y2="613"/><rect fill="none" height="6" style="stroke:#C82930;stroke-width:1.0;" width="6" x="362.5" y="645.9141"/><text fill="#000000" font-family="sans-serif" font-size="14" lengthAdjust="spacing" textLength="108" x="374.5" y="653.1426">Course[] courses</text><rect fill="none" height="6" style="stroke:#C82930;stroke-width:1.0;" width="6" x="362.5" y="663.5234"/><text fill="#000000" font-family="sans-serif" font-size="14" lengthAdjust="spacing" textLength="111" x="374.5" y="670.752">Subject[] subjects</text><rect fill="none" height="6" style="stroke:#C82930;stroke-width:1.0;" width="6" x="362.5" y="681.1328"/><text fill="#000000" font-family="sans-serif" font-size="14" lengthAdjust="spacing" textLength="141" x="374.5" y="688.3613">boolean dataIsLoaded</text><rect fill="#F24D5C" height="6" style="stroke:#C82930;stroke-width:1.0;" width="6" x="362.5" y="698.7422"/><text fill="#000000" font-family="sans-serif" font-size="14" lengthAdjust="spacing" textLength="202" x="374.5" y="705.9707">void importer(subjects, courses)</text><line style="stroke:#181818;stroke-width:1.0;stroke-dasharray:1.0,2.0;" x1="355.5" x2="572" y1="629.8047" y2="629.8047"/><text fill="#000000" font-family="sans-serif" font-size="14" lengthAdjust="spacing" textLength="36" x="572" y="635.0332">props</text><line style="stroke:#181818;stroke-width:1.0;stroke-dasharray:1.0,2.0;" x1="608" x2="824.5" y1="629.8047" y2="629.8047"/><line style="stroke:#181818;stroke-width:0.5;" x1="355.5" x2="824.5" y1="713.0469" y2="713.0469"/><rect fill="none" height="6" style="stroke:#C82930;stroke-width:1.0;" width="6" x="362.5" y="724.3516"/><text fill="#000000" font-family="sans-serif" font-size="14" lengthAdjust="spacing" textLength="166" x="374.5" y="731.5801">Subject[] selectedSubjects</text><rect fill="none" height="6" style="stroke:#C82930;stroke-width:1.0;" width="6" x="362.5" y="741.9609"/><text fill="#000000" font-family="sans-serif" font-size="14" lengthAdjust="spacing" textLength="164" x="374.5" y="749.1895">Course[] selectedCourses</text><line style="stroke:#181818;stroke-width:0.5;" x1="355.5" x2="824.5" y1="756.2656" y2="756.2656"/><rect fill="#F24D5C" height="6" style="stroke:#C82930;stroke-width:1.0;" width="6" x="362.5" y="767.5703"/><text fill="#000000" font-family="sans-serif" font-size="14" lengthAdjust="spacing" textLength="272" x="374.5" y="774.7988">void getCourseIdsForSubject(subjectCode)</text><rect fill="#F24D5C" height="6" style="stroke:#C82930;stroke-width:1.0;" width="6" x="362.5" y="785.1797"/><text fill="#000000" font-family="sans-serif" font-size="14" lengthAdjust="spacing" textLength="384" x="374.5" y="792.4082">void handleSubjectChange(subjectId, subjectCode, checked)</text><rect fill="#F24D5C" height="6" style="stroke:#C82930;stroke-width:1.0;" width="6" x="362.5" y="802.7891"/><text fill="#000000" font-family="sans-serif" font-size="14" lengthAdjust="spacing" textLength="445" x="374.5" y="810.0176">void handleCourseChange(courseId, subjectId, subjectCode, checked)</text><rect fill="#F24D5C" height="6" style="stroke:#C82930;stroke-width:1.0;" width="6" x="362.5" y="820.3984"/><text fill="#000000" font-family="sans-serif" font-size="14" lengthAdjust="spacing" textLength="122" x="374.5" y="827.627">void handleImport()</text></g><!--reverse link Menu to Button--><g id="link_Menu_Button"><path codeLine="92" d="M611.0422,132.4165 C487.5222,150.9065 308.86,191.34 171,285 C154.18,296.42 139.08,311.94 126.24,327.93 " fill="none" id="Menu-backto-Button" style="stroke:#181818;stroke-width:1.0;"/><polygon fill="none" points="622.91,130.64,616.3839,127.5723,611.0422,132.4165,617.5683,135.4842,622.91,130.64" style="stroke:#181818;stroke-width:1.0;"/><text fill="#000000" font-family="sans-serif" font-size="13" lengthAdjust="spacing" textLength="32" x="97.3585" y="316.8944">many</text></g><!--reverse link Menu to SubjectAdder--><g id="link_Menu_SubjectAdder"><path codeLine="93" d="M611.5158,164.3147 C537.8258,193.1647 456.06,231.33 383,285 C365.99,297.49 349.62,313.06 335.05,328.71 " fill="none" id="Menu-backto-SubjectAdder" style="stroke:#181818;stroke-width:1.0;"/><polygon fill="none" points="622.69,159.94,615.6447,158.4027,611.5158,164.3147,618.5612,165.8521,622.69,159.94" style="stroke:#181818;stroke-width:1.0;"/></g><!--reverse link Menu to ServerQuerry--><g id="link_Menu_ServerQuerry"><path codeLine="94" d="M681.6293,235.6604 C670.8693,255.1904 665.4,265.12 654.51,284.89 " fill="none" id="Menu-backto-ServerQuerry" style="stroke:#181818;stroke-width:1.0;"/><polygon fill="none" points="687.42,225.15,681.0212,228.475,681.6293,235.6604,688.0281,232.3354,687.42,225.15" style="stroke:#181818;stroke-width:1.0;"/></g><!--reverse link Menu to ImportExport--><g id="link_Menu_ImportExport"><path codeLine="95" d="M812.3691,235.6613 C832.2291,271.7213 848.03,300.39 865.82,332.69 " fill="none" id="Menu-backto-ImportExport" style="stroke:#181818;stroke-width:1.0;"/><polygon fill="none" points="806.58,225.15,805.9708,232.3353,812.3691,235.6613,812.9783,228.4759,806.58,225.15" style="stroke:#181818;stroke-width:1.0;"/></g><!--reverse link Menu to Settings--><g id="link_Menu_Settings"><path codeLine="96" d="M881.4797,198.1 C926.3097,226.18 966.6,252.76 1011,285 C1016.82,289.22 1022.71,293.61 1028.61,298.09 " fill="none" id="Menu-backto-Settings" style="stroke:#181818;stroke-width:1.0;"/><polygon fill="none" points="871.31,191.73,874.2715,198.3049,881.4797,198.1,878.5182,191.5251,871.31,191.73" style="stroke:#181818;stroke-width:1.0;"/></g><!--reverse link Menu to Help--><g id="link_Menu_Help"><path codeLine="97" d="M883.143,126.0975 C1005.223,139.9975 1177.85,177.36 1295,285 C1322.08,309.88 1333.86,352.49 1338.76,378.85 " fill="none" id="Menu-backto-Help" style="stroke:#181818;stroke-width:1.0;"/><polygon fill="none" points="871.22,124.74,876.729,129.3931,883.143,126.0975,877.634,121.4445,871.22,124.74" style="stroke:#181818;stroke-width:1.0;"/></g><!--reverse link ServerQuerry to Modal--><g id="link_ServerQuerry_Modal"><path codeLine="98" d="M590,533.15 C590,552.72 590,561.09 590,580.87 " fill="none" id="ServerQuerry-backto-Modal" style="stroke:#181818;stroke-width:1.0;"/><polygon fill="none" points="590,521.15,586,527.15,590,533.15,594,527.15,590,521.15" style="stroke:#181818;stroke-width:1.0;"/></g><!--SRC=[dLLTRziW57tthq1zShIu_w5pDpNJscdoupHL56uJLWmMuAHHjV- -QumnvADAbuSed7iv7Cwzbp19hINte7hoLX3yN5-JpkZEuW-__aIsMd12EGTJCirXIHHjOH62tveV3mIse9nDqoquX_bPre09jJxCQm9Skds7v9vhIRPKzl4GdohQJfk1rFPFVu0vkoHCzyQ27TCU7qEsTGRvI8jQqq15QeqK2kbzhDa9npPbHmrj5yNVec3UYi-zSrgTCQEQo1sykXmHJAiSYGAgUDTom1O1VD9Q0bL4s5jXwPC4FgjenZlU3Ax_Js7YdOEMuDa39fmCr4TcUNAjQYdOI-cBafZKWDc2-Tc3CVltvLrOjLD2wzc_FBXIkEwPqoQSL7l6NxydwW074n6V3W-1oNbE7LtPxvfozFwWLJmHRiN-i30kRp6z7FOi8-4DOttRIufQ5gbnpu2zvVCNb_YvyYvzUHs-pxQU7w9d8G-RQXwql7XSxvJ4kmtxSXbz5_7ZoexJ-BwAR9IhoqSv2fmgmEOQJv0JxH64T8T3a_V0792QKIVYB4wmqYxqHMxIe7gZTr5vhZdQSWUo8sznUQyvbMSjEjcErRbshCwtO_N16KfE08a_W3VvIL7P5AyJXRanQt1ZSCNjLsq2KPcy5rbBRQZY4a9MZQirJBahlaoV6HI_0VO2_CJ-ySImdONZu-uF48q3LVeA-ZytNLNaggLgVnLU-1bEtze4JPwu6Kq7DSqDun2HeL-Ax9KSKDysnJy0]--></g></svg>