<?xml version="1.0" encoding="us-ascii" standalone="no"?><svg xmlns="http://www.w3.org/2000/svg" xmlns:xlink="http://www.w3.org/1999/xlink" contentStyleType="text/css" height="925px" preserveAspectRatio="none" style="width:1919px;height:925px;background:#FFFFFF;" version="1.1" viewBox="0 0 1919 925" width="1919px" zoomAndPan="magnify"><defs/><g><!--class Menu--><g id="elem_Menu"><rect codeLine="2" fill="#F1F1F1" height="218.4844" id="Menu" rx="2.5" ry="2.5" style="stroke:#181818;stroke-width:0.5;" width="254" x="1109.5" y="7"/><ellipse cx="1214.75" cy="23" fill="#ADD1B2" rx="11" ry="11" style="stroke:#181818;stroke-width:1.0;"/><path d="M1217.5156,18.875 Q1217.6719,18.6563 1217.8594,18.5469 Q1218.0469,18.4375 1218.2656,18.4375 Q1218.6406,18.4375 1218.875,18.7031 Q1219.1094,18.9531 1219.1094,19.5625 L1219.1094,21.0156 Q1219.1094,21.625 1218.875,21.8906 Q1218.6406,22.1563 1218.2656,22.1563 Q1217.9219,22.1563 1217.7188,21.9531 Q1217.5156,21.7656 1217.4063,21.25 Q1217.3594,20.8906 1217.1719,20.7031 Q1216.8438,20.3281 1216.2344,20.1094 Q1215.625,19.8906 1215,19.8906 Q1214.2344,19.8906 1213.5938,20.2188 Q1212.9688,20.5469 1212.4688,21.2969 Q1211.9844,22.0469 1211.9844,23.0781 L1211.9844,24.1719 Q1211.9844,25.4063 1212.875,26.2344 Q1213.7656,27.0469 1215.3594,27.0469 Q1216.2969,27.0469 1216.9531,26.7969 Q1217.3438,26.6406 1217.7656,26.2031 Q1218.0313,25.9375 1218.1719,25.8594 Q1218.3281,25.7813 1218.5313,25.7813 Q1218.8594,25.7813 1219.1094,26.0469 Q1219.375,26.2969 1219.375,26.6406 Q1219.375,26.9844 1219.0313,27.3906 Q1218.5313,27.9688 1217.7344,28.2969 Q1216.6563,28.75 1215.3594,28.75 Q1213.8438,28.75 1212.6406,28.125 Q1211.6563,27.625 1210.9688,26.5625 Q1210.2813,25.4844 1210.2813,24.2031 L1210.2813,23.0469 Q1210.2813,21.7188 1210.8906,20.5781 Q1211.5156,19.4219 1212.6094,18.8125 Q1213.7031,18.1875 1214.9375,18.1875 Q1215.6719,18.1875 1216.3125,18.3594 Q1216.9688,18.5156 1217.5156,18.875 Z " fill="#000000"/><text fill="#000000" font-family="sans-serif" font-size="14" lengthAdjust="spacing" textLength="35" x="1235.25" y="28.7285">Menu</text><line style="stroke:#181818;stroke-width:0.5;" x1="1110.5" x2="1362.5" y1="39" y2="39"/><ellipse cx="1120.5" cy="74.9141" fill="none" rx="3" ry="3" style="stroke:#038048;stroke-width:1.0;"/><text fill="#000000" font-family="sans-serif" font-size="14" lengthAdjust="spacing" textLength="155" x="1129.5" y="79.1426">function exportTimetable</text><line style="stroke:#181818;stroke-width:1.0;stroke-dasharray:1.0,2.0;" x1="1110.5" x2="1218.5" y1="55.8047" y2="55.8047"/><text fill="#000000" font-family="sans-serif" font-size="14" lengthAdjust="spacing" textLength="36" x="1218.5" y="61.0332">props</text><line style="stroke:#181818;stroke-width:1.0;stroke-dasharray:1.0,2.0;" x1="1254.5" x2="1362.5" y1="55.8047" y2="55.8047"/><ellipse cx="1120.5" cy="114.1328" fill="#84BE84" rx="3" ry="3" style="stroke:#038048;stroke-width:1.0;"/><text fill="#000000" font-family="sans-serif" font-size="14" lengthAdjust="spacing" textLength="119" x="1129.5" y="118.3613">useSettings() hook</text><line style="stroke:#181818;stroke-width:1.0;stroke-dasharray:1.0,2.0;" x1="1110.5" x2="1190.5" y1="95.0234" y2="95.0234"/><text fill="#000000" font-family="sans-serif" font-size="14" lengthAdjust="spacing" textLength="92" x="1190.5" y="100.252">Context Usage</text><line style="stroke:#181818;stroke-width:1.0;stroke-dasharray:1.0,2.0;" x1="1282.5" x2="1362.5" y1="95.0234" y2="95.0234"/><ellipse cx="1120.5" cy="153.3516" fill="none" rx="3" ry="3" style="stroke:#038048;stroke-width:1.0;"/><text fill="#000000" font-family="sans-serif" font-size="14" lengthAdjust="spacing" textLength="74" x="1129.5" y="157.5801">string mode</text><line style="stroke:#181818;stroke-width:1.0;stroke-dasharray:1.0,2.0;" x1="1110.5" x2="1221" y1="134.2422" y2="134.2422"/><text fill="#000000" font-family="sans-serif" font-size="14" lengthAdjust="spacing" textLength="31" x="1221" y="139.4707">state</text><line style="stroke:#181818;stroke-width:1.0;stroke-dasharray:1.0,2.0;" x1="1252" x2="1362.5" y1="134.2422" y2="134.2422"/><line style="stroke:#181818;stroke-width:0.5;" x1="1110.5" x2="1362.5" y1="164.6563" y2="164.6563"/><ellipse cx="1120.5" cy="178.9609" fill="#84BE84" rx="3" ry="3" style="stroke:#038048;stroke-width:1.0;"/><text fill="#000000" font-family="sans-serif" font-size="14" lengthAdjust="spacing" textLength="228" x="1129.5" y="183.1895">void handleModeChange(newMode)</text><ellipse cx="1120.5" cy="196.5703" fill="#84BE84" rx="3" ry="3" style="stroke:#038048;stroke-width:1.0;"/><text fill="#000000" font-family="sans-serif" font-size="14" lengthAdjust="spacing" textLength="202" x="1129.5" y="200.7988">Component modeSwitch(param)</text><ellipse cx="1120.5" cy="214.1797" fill="#84BE84" rx="3" ry="3" style="stroke:#038048;stroke-width:1.0;"/><text fill="#000000" font-family="sans-serif" font-size="14" lengthAdjust="spacing" textLength="134" x="1129.5" y="218.4082">JSX.Element render()</text></g><!--class Button--><g id="elem_Button"><rect codeLine="15" fill="#F1F1F1" height="157.6563" id="Button" rx="2.5" ry="2.5" style="stroke:#181818;stroke-width:0.5;" width="160" x="1052.5" y="339.5"/><ellipse cx="1107.75" cy="355.5" fill="#ADD1B2" rx="11" ry="11" style="stroke:#181818;stroke-width:1.0;"/><path d="M1110.5156,351.375 Q1110.6719,351.1563 1110.8594,351.0469 Q1111.0469,350.9375 1111.2656,350.9375 Q1111.6406,350.9375 1111.875,351.2031 Q1112.1094,351.4531 1112.1094,352.0625 L1112.1094,353.5156 Q1112.1094,354.125 1111.875,354.3906 Q1111.6406,354.6563 1111.2656,354.6563 Q1110.9219,354.6563 1110.7188,354.4531 Q1110.5156,354.2656 1110.4063,353.75 Q1110.3594,353.3906 1110.1719,353.2031 Q1109.8438,352.8281 1109.2344,352.6094 Q1108.625,352.3906 1108,352.3906 Q1107.2344,352.3906 1106.5938,352.7188 Q1105.9688,353.0469 1105.4688,353.7969 Q1104.9844,354.5469 1104.9844,355.5781 L1104.9844,356.6719 Q1104.9844,357.9063 1105.875,358.7344 Q1106.7656,359.5469 1108.3594,359.5469 Q1109.2969,359.5469 1109.9531,359.2969 Q1110.3438,359.1406 1110.7656,358.7031 Q1111.0313,358.4375 1111.1719,358.3594 Q1111.3281,358.2813 1111.5313,358.2813 Q1111.8594,358.2813 1112.1094,358.5469 Q1112.375,358.7969 1112.375,359.1406 Q1112.375,359.4844 1112.0313,359.8906 Q1111.5313,360.4688 1110.7344,360.7969 Q1109.6563,361.25 1108.3594,361.25 Q1106.8438,361.25 1105.6406,360.625 Q1104.6563,360.125 1103.9688,359.0625 Q1103.2813,357.9844 1103.2813,356.7031 L1103.2813,355.5469 Q1103.2813,354.2188 1103.8906,353.0781 Q1104.5156,351.9219 1105.6094,351.3125 Q1106.7031,350.6875 1107.9375,350.6875 Q1108.6719,350.6875 1109.3125,350.8594 Q1109.9688,351.0156 1110.5156,351.375 Z " fill="#000000"/><text fill="#000000" font-family="sans-serif" font-size="14" lengthAdjust="spacing" textLength="41" x="1128.25" y="361.2285">Button</text><line style="stroke:#181818;stroke-width:0.5;" x1="1053.5" x2="1211.5" y1="371.5" y2="371.5"/><ellipse cx="1063.5" cy="407.4141" fill="none" rx="3" ry="3" style="stroke:#038048;stroke-width:1.0;"/><text fill="#000000" font-family="sans-serif" font-size="14" lengthAdjust="spacing" textLength="61" x="1072.5" y="411.6426">string text</text><ellipse cx="1063.5" cy="425.0234" fill="none" rx="3" ry="3" style="stroke:#038048;stroke-width:1.0;"/><text fill="#000000" font-family="sans-serif" font-size="14" lengthAdjust="spacing" textLength="65" x="1072.5" y="429.252">string icon</text><ellipse cx="1063.5" cy="442.6328" fill="none" rx="3" ry="3" style="stroke:#038048;stroke-width:1.0;"/><text fill="#000000" font-family="sans-serif" font-size="14" lengthAdjust="spacing" textLength="74" x="1072.5" y="446.8613">string mode</text><ellipse cx="1063.5" cy="460.2422" fill="none" rx="3" ry="3" style="stroke:#038048;stroke-width:1.0;"/><text fill="#000000" font-family="sans-serif" font-size="14" lengthAdjust="spacing" textLength="73" x="1072.5" y="464.4707">function set</text><line style="stroke:#181818;stroke-width:1.0;stroke-dasharray:1.0,2.0;" x1="1053.5" x2="1114.5" y1="388.3047" y2="388.3047"/><text fill="#000000" font-family="sans-serif" font-size="14" lengthAdjust="spacing" textLength="36" x="1114.5" y="393.5332">props</text><line style="stroke:#181818;stroke-width:1.0;stroke-dasharray:1.0,2.0;" x1="1150.5" x2="1211.5" y1="388.3047" y2="388.3047"/><line style="stroke:#181818;stroke-width:0.5;" x1="1053.5" x2="1211.5" y1="471.5469" y2="471.5469"/><ellipse cx="1063.5" cy="485.8516" fill="#84BE84" rx="3" ry="3" style="stroke:#038048;stroke-width:1.0;"/><text fill="#000000" font-family="sans-serif" font-size="14" lengthAdjust="spacing" textLength="134" x="1072.5" y="490.0801">JSX.Element render()</text></g><!--class SubjectAdder--><g id="elem_SubjectAdder"><rect codeLine="25" fill="#F1F1F1" height="179.2656" id="SubjectAdder" rx="2.5" ry="2.5" style="stroke:#181818;stroke-width:0.5;" width="187" x="1248" y="329"/><ellipse cx="1294.75" cy="345" fill="#ADD1B2" rx="11" ry="11" style="stroke:#181818;stroke-width:1.0;"/><path d="M1297.5156,340.875 Q1297.6719,340.6563 1297.8594,340.5469 Q1298.0469,340.4375 1298.2656,340.4375 Q1298.6406,340.4375 1298.875,340.7031 Q1299.1094,340.9531 1299.1094,341.5625 L1299.1094,343.0156 Q1299.1094,343.625 1298.875,343.8906 Q1298.6406,344.1563 1298.2656,344.1563 Q1297.9219,344.1563 1297.7188,343.9531 Q1297.5156,343.7656 1297.4063,343.25 Q1297.3594,342.8906 1297.1719,342.7031 Q1296.8438,342.3281 1296.2344,342.1094 Q1295.625,341.8906 1295,341.8906 Q1294.2344,341.8906 1293.5938,342.2188 Q1292.9688,342.5469 1292.4688,343.2969 Q1291.9844,344.0469 1291.9844,345.0781 L1291.9844,346.1719 Q1291.9844,347.4063 1292.875,348.2344 Q1293.7656,349.0469 1295.3594,349.0469 Q1296.2969,349.0469 1296.9531,348.7969 Q1297.3438,348.6406 1297.7656,348.2031 Q1298.0313,347.9375 1298.1719,347.8594 Q1298.3281,347.7813 1298.5313,347.7813 Q1298.8594,347.7813 1299.1094,348.0469 Q1299.375,348.2969 1299.375,348.6406 Q1299.375,348.9844 1299.0313,349.3906 Q1298.5313,349.9688 1297.7344,350.2969 Q1296.6563,350.75 1295.3594,350.75 Q1293.8438,350.75 1292.6406,350.125 Q1291.6563,349.625 1290.9688,348.5625 Q1290.2813,347.4844 1290.2813,346.2031 L1290.2813,345.0469 Q1290.2813,343.7188 1290.8906,342.5781 Q1291.5156,341.4219 1292.6094,340.8125 Q1293.7031,340.1875 1294.9375,340.1875 Q1295.6719,340.1875 1296.3125,340.3594 Q1296.9688,340.5156 1297.5156,340.875 Z " fill="#000000"/><text fill="#000000" font-family="sans-serif" font-size="14" lengthAdjust="spacing" textLength="85" x="1315.25" y="350.7285">SubjectAdder</text><line style="stroke:#181818;stroke-width:0.5;" x1="1249" x2="1434" y1="361" y2="361"/><ellipse cx="1259" cy="396.9141" fill="#84BE84" rx="3" ry="3" style="stroke:#038048;stroke-width:1.0;"/><text fill="#000000" font-family="sans-serif" font-size="14" lengthAdjust="spacing" textLength="130" x="1268" y="401.1426">useTimetable() hook</text><line style="stroke:#181818;stroke-width:1.0;stroke-dasharray:1.0,2.0;" x1="1249" x2="1295.5" y1="377.8047" y2="377.8047"/><text fill="#000000" font-family="sans-serif" font-size="14" lengthAdjust="spacing" textLength="92" x="1295.5" y="383.0332">Context Usage</text><line style="stroke:#181818;stroke-width:1.0;stroke-dasharray:1.0,2.0;" x1="1387.5" x2="1434" y1="377.8047" y2="377.8047"/><ellipse cx="1259" cy="436.1328" fill="none" rx="3" ry="3" style="stroke:#038048;stroke-width:1.0;"/><text fill="#000000" font-family="sans-serif" font-size="14" lengthAdjust="spacing" textLength="120" x="1268" y="440.3613">string subjectName</text><ellipse cx="1259" cy="453.7422" fill="none" rx="3" ry="3" style="stroke:#038048;stroke-width:1.0;"/><text fill="#000000" font-family="sans-serif" font-size="14" lengthAdjust="spacing" textLength="118" x="1268" y="457.9707">string subjectCode</text><line style="stroke:#181818;stroke-width:1.0;stroke-dasharray:1.0,2.0;" x1="1249" x2="1326" y1="417.0234" y2="417.0234"/><text fill="#000000" font-family="sans-serif" font-size="14" lengthAdjust="spacing" textLength="31" x="1326" y="422.252">state</text><line style="stroke:#181818;stroke-width:1.0;stroke-dasharray:1.0,2.0;" x1="1357" x2="1434" y1="417.0234" y2="417.0234"/><line style="stroke:#181818;stroke-width:0.5;" x1="1249" x2="1434" y1="465.0469" y2="465.0469"/><ellipse cx="1259" cy="479.3516" fill="#84BE84" rx="3" ry="3" style="stroke:#038048;stroke-width:1.0;"/><text fill="#000000" font-family="sans-serif" font-size="14" lengthAdjust="spacing" textLength="161" x="1268" y="483.5801">void handleSubmit(event)</text><ellipse cx="1259" cy="496.9609" fill="#84BE84" rx="3" ry="3" style="stroke:#038048;stroke-width:1.0;"/><text fill="#000000" font-family="sans-serif" font-size="14" lengthAdjust="spacing" textLength="134" x="1268" y="501.1895">JSX.Element render()</text></g><!--class ServerQuery--><g id="elem_ServerQuery"><rect codeLine="36" fill="#F1F1F1" height="267.3125" id="ServerQuery" rx="2.5" ry="2.5" style="stroke:#181818;stroke-width:0.5;" width="187" x="149" y="285"/><ellipse cx="197.75" cy="301" fill="#ADD1B2" rx="11" ry="11" style="stroke:#181818;stroke-width:1.0;"/><path d="M200.5156,296.875 Q200.6719,296.6563 200.8594,296.5469 Q201.0469,296.4375 201.2656,296.4375 Q201.6406,296.4375 201.875,296.7031 Q202.1094,296.9531 202.1094,297.5625 L202.1094,299.0156 Q202.1094,299.625 201.875,299.8906 Q201.6406,300.1563 201.2656,300.1563 Q200.9219,300.1563 200.7188,299.9531 Q200.5156,299.7656 200.4063,299.25 Q200.3594,298.8906 200.1719,298.7031 Q199.8438,298.3281 199.2344,298.1094 Q198.625,297.8906 198,297.8906 Q197.2344,297.8906 196.5938,298.2188 Q195.9688,298.5469 195.4688,299.2969 Q194.9844,300.0469 194.9844,301.0781 L194.9844,302.1719 Q194.9844,303.4063 195.875,304.2344 Q196.7656,305.0469 198.3594,305.0469 Q199.2969,305.0469 199.9531,304.7969 Q200.3438,304.6406 200.7656,304.2031 Q201.0313,303.9375 201.1719,303.8594 Q201.3281,303.7813 201.5313,303.7813 Q201.8594,303.7813 202.1094,304.0469 Q202.375,304.2969 202.375,304.6406 Q202.375,304.9844 202.0313,305.3906 Q201.5313,305.9688 200.7344,306.2969 Q199.6563,306.75 198.3594,306.75 Q196.8438,306.75 195.6406,306.125 Q194.6563,305.625 193.9688,304.5625 Q193.2813,303.4844 193.2813,302.2031 L193.2813,301.0469 Q193.2813,299.7188 193.8906,298.5781 Q194.5156,297.4219 195.6094,296.8125 Q196.7031,296.1875 197.9375,296.1875 Q198.6719,296.1875 199.3125,296.3594 Q199.9688,296.5156 200.5156,296.875 Z " fill="#000000"/><text fill="#000000" font-family="sans-serif" font-size="14" lengthAdjust="spacing" textLength="81" x="218.25" y="306.7285">ServerQuery</text><line style="stroke:#181818;stroke-width:0.5;" x1="150" x2="335" y1="317" y2="317"/><ellipse cx="160" cy="352.9141" fill="#84BE84" rx="3" ry="3" style="stroke:#038048;stroke-width:1.0;"/><text fill="#000000" font-family="sans-serif" font-size="14" lengthAdjust="spacing" textLength="130" x="169" y="357.1426">useTimetable() hook</text><line style="stroke:#181818;stroke-width:1.0;stroke-dasharray:1.0,2.0;" x1="150" x2="196.5" y1="333.8047" y2="333.8047"/><text fill="#000000" font-family="sans-serif" font-size="14" lengthAdjust="spacing" textLength="92" x="196.5" y="339.0332">Context Usage</text><line style="stroke:#181818;stroke-width:1.0;stroke-dasharray:1.0,2.0;" x1="288.5" x2="335" y1="333.8047" y2="333.8047"/><ellipse cx="160" cy="392.1328" fill="none" rx="3" ry="3" style="stroke:#038048;stroke-width:1.0;"/><text fill="#000000" font-family="sans-serif" font-size="14" lengthAdjust="spacing" textLength="154" x="169" y="396.3613">string subjectNameCode</text><ellipse cx="160" cy="409.7422" fill="none" rx="3" ry="3" style="stroke:#038048;stroke-width:1.0;"/><text fill="#000000" font-family="sans-serif" font-size="14" lengthAdjust="spacing" textLength="134" x="169" y="413.9707">string instructorName</text><ellipse cx="160" cy="427.3516" fill="none" rx="3" ry="3" style="stroke:#038048;stroke-width:1.0;"/><text fill="#000000" font-family="sans-serif" font-size="14" lengthAdjust="spacing" textLength="88" x="169" y="431.5801">Array courses</text><ellipse cx="160" cy="444.9609" fill="none" rx="3" ry="3" style="stroke:#038048;stroke-width:1.0;"/><text fill="#000000" font-family="sans-serif" font-size="14" lengthAdjust="spacing" textLength="90" x="169" y="449.1895">Array subjects</text><ellipse cx="160" cy="462.5703" fill="none" rx="3" ry="3" style="stroke:#038048;stroke-width:1.0;"/><text fill="#000000" font-family="sans-serif" font-size="14" lengthAdjust="spacing" textLength="141" x="169" y="466.7988">boolean dataIsLoaded</text><ellipse cx="160" cy="480.1797" fill="none" rx="3" ry="3" style="stroke:#038048;stroke-width:1.0;"/><text fill="#000000" font-family="sans-serif" font-size="14" lengthAdjust="spacing" textLength="97" x="169" y="484.4082">string semester</text><line style="stroke:#181818;stroke-width:1.0;stroke-dasharray:1.0,2.0;" x1="150" x2="227" y1="373.0234" y2="373.0234"/><text fill="#000000" font-family="sans-serif" font-size="14" lengthAdjust="spacing" textLength="31" x="227" y="378.252">state</text><line style="stroke:#181818;stroke-width:1.0;stroke-dasharray:1.0,2.0;" x1="258" x2="335" y1="373.0234" y2="373.0234"/><line style="stroke:#181818;stroke-width:0.5;" x1="150" x2="335" y1="491.4844" y2="491.4844"/><ellipse cx="160" cy="505.7891" fill="#84BE84" rx="3" ry="3" style="stroke:#038048;stroke-width:1.0;"/><text fill="#000000" font-family="sans-serif" font-size="14" lengthAdjust="spacing" textLength="112" x="169" y="510.0176">async fetchData()</text><ellipse cx="160" cy="523.3984" fill="#84BE84" rx="3" ry="3" style="stroke:#038048;stroke-width:1.0;"/><text fill="#000000" font-family="sans-serif" font-size="14" lengthAdjust="spacing" textLength="161" x="169" y="527.627">void handleSubmit(event)</text><ellipse cx="160" cy="541.0078" fill="#84BE84" rx="3" ry="3" style="stroke:#038048;stroke-width:1.0;"/><text fill="#000000" font-family="sans-serif" font-size="14" lengthAdjust="spacing" textLength="134" x="169" y="545.2363">JSX.Element render()</text></g><!--class ImportExport--><g id="elem_ImportExport"><rect codeLine="52" fill="#F1F1F1" height="179.2656" id="ImportExport" rx="2.5" ry="2.5" style="stroke:#181818;stroke-width:0.5;" width="181" x="631" y="329"/><ellipse cx="677.75" cy="345" fill="#ADD1B2" rx="11" ry="11" style="stroke:#181818;stroke-width:1.0;"/><path d="M680.5156,340.875 Q680.6719,340.6563 680.8594,340.5469 Q681.0469,340.4375 681.2656,340.4375 Q681.6406,340.4375 681.875,340.7031 Q682.1094,340.9531 682.1094,341.5625 L682.1094,343.0156 Q682.1094,343.625 681.875,343.8906 Q681.6406,344.1563 681.2656,344.1563 Q680.9219,344.1563 680.7188,343.9531 Q680.5156,343.7656 680.4063,343.25 Q680.3594,342.8906 680.1719,342.7031 Q679.8438,342.3281 679.2344,342.1094 Q678.625,341.8906 678,341.8906 Q677.2344,341.8906 676.5938,342.2188 Q675.9688,342.5469 675.4688,343.2969 Q674.9844,344.0469 674.9844,345.0781 L674.9844,346.1719 Q674.9844,347.4063 675.875,348.2344 Q676.7656,349.0469 678.3594,349.0469 Q679.2969,349.0469 679.9531,348.7969 Q680.3438,348.6406 680.7656,348.2031 Q681.0313,347.9375 681.1719,347.8594 Q681.3281,347.7813 681.5313,347.7813 Q681.8594,347.7813 682.1094,348.0469 Q682.375,348.2969 682.375,348.6406 Q682.375,348.9844 682.0313,349.3906 Q681.5313,349.9688 680.7344,350.2969 Q679.6563,350.75 678.3594,350.75 Q676.8438,350.75 675.6406,350.125 Q674.6563,349.625 673.9688,348.5625 Q673.2813,347.4844 673.2813,346.2031 L673.2813,345.0469 Q673.2813,343.7188 673.8906,342.5781 Q674.5156,341.4219 675.6094,340.8125 Q676.7031,340.1875 677.9375,340.1875 Q678.6719,340.1875 679.3125,340.3594 Q679.9688,340.5156 680.5156,340.875 Z " fill="#000000"/><text fill="#000000" font-family="sans-serif" font-size="14" lengthAdjust="spacing" textLength="79" x="698.25" y="350.7285">ImportExport</text><line style="stroke:#181818;stroke-width:0.5;" x1="632" x2="811" y1="361" y2="361"/><ellipse cx="642" cy="396.9141" fill="none" rx="3" ry="3" style="stroke:#038048;stroke-width:1.0;"/><text fill="#000000" font-family="sans-serif" font-size="14" lengthAdjust="spacing" textLength="155" x="651" y="401.1426">function exportTimetable</text><line style="stroke:#181818;stroke-width:1.0;stroke-dasharray:1.0,2.0;" x1="632" x2="703.5" y1="377.8047" y2="377.8047"/><text fill="#000000" font-family="sans-serif" font-size="14" lengthAdjust="spacing" textLength="36" x="703.5" y="383.0332">props</text><line style="stroke:#181818;stroke-width:1.0;stroke-dasharray:1.0,2.0;" x1="739.5" x2="811" y1="377.8047" y2="377.8047"/><ellipse cx="642" cy="436.1328" fill="#84BE84" rx="3" ry="3" style="stroke:#038048;stroke-width:1.0;"/><text fill="#000000" font-family="sans-serif" font-size="14" lengthAdjust="spacing" textLength="130" x="651" y="440.3613">useTimetable() hook</text><line style="stroke:#181818;stroke-width:1.0;stroke-dasharray:1.0,2.0;" x1="632" x2="675.5" y1="417.0234" y2="417.0234"/><text fill="#000000" font-family="sans-serif" font-size="14" lengthAdjust="spacing" textLength="92" x="675.5" y="422.252">Context Usage</text><line style="stroke:#181818;stroke-width:1.0;stroke-dasharray:1.0,2.0;" x1="767.5" x2="811" y1="417.0234" y2="417.0234"/><line style="stroke:#181818;stroke-width:0.5;" x1="632" x2="811" y1="447.4375" y2="447.4375"/><ellipse cx="642" cy="461.7422" fill="#84BE84" rx="3" ry="3" style="stroke:#038048;stroke-width:1.0;"/><text fill="#000000" font-family="sans-serif" font-size="14" lengthAdjust="spacing" textLength="135" x="651" y="465.9707">void downloadJSON()</text><ellipse cx="642" cy="479.3516" fill="#84BE84" rx="3" ry="3" style="stroke:#038048;stroke-width:1.0;"/><text fill="#000000" font-family="sans-serif" font-size="14" lengthAdjust="spacing" textLength="153" x="651" y="483.5801">void uploadJSON(event)</text><ellipse cx="642" cy="496.9609" fill="#84BE84" rx="3" ry="3" style="stroke:#038048;stroke-width:1.0;"/><text fill="#000000" font-family="sans-serif" font-size="14" lengthAdjust="spacing" textLength="134" x="651" y="501.1895">JSX.Element render()</text></g><!--class ImportModal--><g id="elem_ImportModal"><rect codeLine="63" fill="#F1F1F1" height="306.5313" id="ImportModal" rx="2.5" ry="2.5" style="stroke:#181818;stroke-width:0.5;" width="471" x="7" y="612"/><ellipse cx="199.75" cy="628" fill="#ADD1B2" rx="11" ry="11" style="stroke:#181818;stroke-width:1.0;"/><path d="M202.5156,623.875 Q202.6719,623.6563 202.8594,623.5469 Q203.0469,623.4375 203.2656,623.4375 Q203.6406,623.4375 203.875,623.7031 Q204.1094,623.9531 204.1094,624.5625 L204.1094,626.0156 Q204.1094,626.625 203.875,626.8906 Q203.6406,627.1563 203.2656,627.1563 Q202.9219,627.1563 202.7188,626.9531 Q202.5156,626.7656 202.4063,626.25 Q202.3594,625.8906 202.1719,625.7031 Q201.8438,625.3281 201.2344,625.1094 Q200.625,624.8906 200,624.8906 Q199.2344,624.8906 198.5938,625.2188 Q197.9688,625.5469 197.4688,626.2969 Q196.9844,627.0469 196.9844,628.0781 L196.9844,629.1719 Q196.9844,630.4063 197.875,631.2344 Q198.7656,632.0469 200.3594,632.0469 Q201.2969,632.0469 201.9531,631.7969 Q202.3438,631.6406 202.7656,631.2031 Q203.0313,630.9375 203.1719,630.8594 Q203.3281,630.7813 203.5313,630.7813 Q203.8594,630.7813 204.1094,631.0469 Q204.375,631.2969 204.375,631.6406 Q204.375,631.9844 204.0313,632.3906 Q203.5313,632.9688 202.7344,633.2969 Q201.6563,633.75 200.3594,633.75 Q198.8438,633.75 197.6406,633.125 Q196.6563,632.625 195.9688,631.5625 Q195.2813,630.4844 195.2813,629.2031 L195.2813,628.0469 Q195.2813,626.7188 195.8906,625.5781 Q196.5156,624.4219 197.6094,623.8125 Q198.7031,623.1875 199.9375,623.1875 Q200.6719,623.1875 201.3125,623.3594 Q201.9688,623.5156 202.5156,623.875 Z " fill="#000000"/><text fill="#000000" font-family="sans-serif" font-size="14" lengthAdjust="spacing" textLength="77" x="220.25" y="633.7285">ImportModal</text><line style="stroke:#181818;stroke-width:0.5;" x1="8" x2="477" y1="644" y2="644"/><ellipse cx="18" cy="679.9141" fill="none" rx="3" ry="3" style="stroke:#038048;stroke-width:1.0;"/><text fill="#000000" font-family="sans-serif" font-size="14" lengthAdjust="spacing" textLength="88" x="27" y="684.1426">Array courses</text><ellipse cx="18" cy="697.5234" fill="none" rx="3" ry="3" style="stroke:#038048;stroke-width:1.0;"/><text fill="#000000" font-family="sans-serif" font-size="14" lengthAdjust="spacing" textLength="90" x="27" y="701.752">Array subjects</text><ellipse cx="18" cy="715.1328" fill="none" rx="3" ry="3" style="stroke:#038048;stroke-width:1.0;"/><text fill="#000000" font-family="sans-serif" font-size="14" lengthAdjust="spacing" textLength="141" x="27" y="719.3613">boolean dataIsLoaded</text><line style="stroke:#181818;stroke-width:1.0;stroke-dasharray:1.0,2.0;" x1="8" x2="224.5" y1="660.8047" y2="660.8047"/><text fill="#000000" font-family="sans-serif" font-size="14" lengthAdjust="spacing" textLength="36" x="224.5" y="666.0332">props</text><line style="stroke:#181818;stroke-width:1.0;stroke-dasharray:1.0,2.0;" x1="260.5" x2="477" y1="660.8047" y2="660.8047"/><ellipse cx="18" cy="754.3516" fill="#84BE84" rx="3" ry="3" style="stroke:#038048;stroke-width:1.0;"/><text fill="#000000" font-family="sans-serif" font-size="14" lengthAdjust="spacing" textLength="130" x="27" y="758.5801">useTimetable() hook</text><line style="stroke:#181818;stroke-width:1.0;stroke-dasharray:1.0,2.0;" x1="8" x2="196.5" y1="735.2422" y2="735.2422"/><text fill="#000000" font-family="sans-serif" font-size="14" lengthAdjust="spacing" textLength="92" x="196.5" y="740.4707">Context Usage</text><line style="stroke:#181818;stroke-width:1.0;stroke-dasharray:1.0,2.0;" x1="288.5" x2="477" y1="735.2422" y2="735.2422"/><ellipse cx="18" cy="793.5703" fill="none" rx="3" ry="3" style="stroke:#038048;stroke-width:1.0;"/><text fill="#000000" font-family="sans-serif" font-size="14" lengthAdjust="spacing" textLength="145" x="27" y="797.7988">Array selectedSubjects</text><ellipse cx="18" cy="811.1797" fill="none" rx="3" ry="3" style="stroke:#038048;stroke-width:1.0;"/><text fill="#000000" font-family="sans-serif" font-size="14" lengthAdjust="spacing" textLength="151" x="27" y="815.4082">Object selectedCourses</text><line style="stroke:#181818;stroke-width:1.0;stroke-dasharray:1.0,2.0;" x1="8" x2="227" y1="774.4609" y2="774.4609"/><text fill="#000000" font-family="sans-serif" font-size="14" lengthAdjust="spacing" textLength="31" x="227" y="779.6895">state</text><line style="stroke:#181818;stroke-width:1.0;stroke-dasharray:1.0,2.0;" x1="258" x2="477" y1="774.4609" y2="774.4609"/><line style="stroke:#181818;stroke-width:0.5;" x1="8" x2="477" y1="822.4844" y2="822.4844"/><ellipse cx="18" cy="836.7891" fill="#84BE84" rx="3" ry="3" style="stroke:#038048;stroke-width:1.0;"/><text fill="#000000" font-family="sans-serif" font-size="14" lengthAdjust="spacing" textLength="280" x="27" y="841.0176">Array getCourseIdsForSubject(subjectCode)</text><ellipse cx="18" cy="854.3984" fill="#84BE84" rx="3" ry="3" style="stroke:#038048;stroke-width:1.0;"/><text fill="#000000" font-family="sans-serif" font-size="14" lengthAdjust="spacing" textLength="384" x="27" y="858.627">void handleSubjectChange(subjectId, subjectCode, checked)</text><ellipse cx="18" cy="872.0078" fill="#84BE84" rx="3" ry="3" style="stroke:#038048;stroke-width:1.0;"/><text fill="#000000" font-family="sans-serif" font-size="14" lengthAdjust="spacing" textLength="445" x="27" y="876.2363">void handleCourseChange(courseId, subjectId, subjectCode, checked)</text><ellipse cx="18" cy="889.6172" fill="#84BE84" rx="3" ry="3" style="stroke:#038048;stroke-width:1.0;"/><text fill="#000000" font-family="sans-serif" font-size="14" lengthAdjust="spacing" textLength="122" x="27" y="893.8457">void handleImport()</text><ellipse cx="18" cy="907.2266" fill="#84BE84" rx="3" ry="3" style="stroke:#038048;stroke-width:1.0;"/><text fill="#000000" font-family="sans-serif" font-size="14" lengthAdjust="spacing" textLength="134" x="27" y="911.4551">JSX.Element render()</text></g><!--class Settings--><g id="elem_Settings"><rect codeLine="81" fill="#F1F1F1" height="196.875" id="Settings" rx="2.5" ry="2.5" style="stroke:#181818;stroke-width:0.5;" width="247" x="1470" y="320"/><ellipse cx="1563.75" cy="336" fill="#ADD1B2" rx="11" ry="11" style="stroke:#181818;stroke-width:1.0;"/><path d="M1566.5156,331.875 Q1566.6719,331.6563 1566.8594,331.5469 Q1567.0469,331.4375 1567.2656,331.4375 Q1567.6406,331.4375 1567.875,331.7031 Q1568.1094,331.9531 1568.1094,332.5625 L1568.1094,334.0156 Q1568.1094,334.625 1567.875,334.8906 Q1567.6406,335.1563 1567.2656,335.1563 Q1566.9219,335.1563 1566.7188,334.9531 Q1566.5156,334.7656 1566.4063,334.25 Q1566.3594,333.8906 1566.1719,333.7031 Q1565.8438,333.3281 1565.2344,333.1094 Q1564.625,332.8906 1564,332.8906 Q1563.2344,332.8906 1562.5938,333.2188 Q1561.9688,333.5469 1561.4688,334.2969 Q1560.9844,335.0469 1560.9844,336.0781 L1560.9844,337.1719 Q1560.9844,338.4063 1561.875,339.2344 Q1562.7656,340.0469 1564.3594,340.0469 Q1565.2969,340.0469 1565.9531,339.7969 Q1566.3438,339.6406 1566.7656,339.2031 Q1567.0313,338.9375 1567.1719,338.8594 Q1567.3281,338.7813 1567.5313,338.7813 Q1567.8594,338.7813 1568.1094,339.0469 Q1568.375,339.2969 1568.375,339.6406 Q1568.375,339.9844 1568.0313,340.3906 Q1567.5313,340.9688 1566.7344,341.2969 Q1565.6563,341.75 1564.3594,341.75 Q1562.8438,341.75 1561.6406,341.125 Q1560.6563,340.625 1559.9688,339.5625 Q1559.2813,338.4844 1559.2813,337.2031 L1559.2813,336.0469 Q1559.2813,334.7188 1559.8906,333.5781 Q1560.5156,332.4219 1561.6094,331.8125 Q1562.7031,331.1875 1563.9375,331.1875 Q1564.6719,331.1875 1565.3125,331.3594 Q1565.9688,331.5156 1566.5156,331.875 Z " fill="#000000"/><text fill="#000000" font-family="sans-serif" font-size="14" lengthAdjust="spacing" textLength="51" x="1584.25" y="341.7285">Settings</text><line style="stroke:#181818;stroke-width:0.5;" x1="1471" x2="1716" y1="352" y2="352"/><ellipse cx="1481" cy="387.9141" fill="#84BE84" rx="3" ry="3" style="stroke:#038048;stroke-width:1.0;"/><text fill="#000000" font-family="sans-serif" font-size="14" lengthAdjust="spacing" textLength="119" x="1490" y="392.1426">useSettings() hook</text><line style="stroke:#181818;stroke-width:1.0;stroke-dasharray:1.0,2.0;" x1="1471" x2="1547.5" y1="368.8047" y2="368.8047"/><text fill="#000000" font-family="sans-serif" font-size="14" lengthAdjust="spacing" textLength="92" x="1547.5" y="374.0332">Context Usage</text><line style="stroke:#181818;stroke-width:1.0;stroke-dasharray:1.0,2.0;" x1="1639.5" x2="1716" y1="368.8047" y2="368.8047"/><ellipse cx="1481" cy="427.1328" fill="none" rx="3" ry="3" style="stroke:#038048;stroke-width:1.0;"/><text fill="#000000" font-family="sans-serif" font-size="14" lengthAdjust="spacing" textLength="77" x="1490" y="431.3613">Object show</text><ellipse cx="1481" cy="444.7422" fill="none" rx="3" ry="3" style="stroke:#038048;stroke-width:1.0;"/><text fill="#000000" font-family="sans-serif" font-size="14" lengthAdjust="spacing" textLength="110" x="1490" y="448.9707">boolean saturday</text><ellipse cx="1481" cy="462.3516" fill="none" rx="3" ry="3" style="stroke:#038048;stroke-width:1.0;"/><text fill="#000000" font-family="sans-serif" font-size="14" lengthAdjust="spacing" textLength="74" x="1490" y="466.5801">number slot</text><line style="stroke:#181818;stroke-width:1.0;stroke-dasharray:1.0,2.0;" x1="1471" x2="1522" y1="408.0234" y2="408.0234"/><text fill="#000000" font-family="sans-serif" font-size="14" lengthAdjust="spacing" textLength="143" x="1522" y="413.252">computed from context</text><line style="stroke:#181818;stroke-width:1.0;stroke-dasharray:1.0,2.0;" x1="1665" x2="1716" y1="408.0234" y2="408.0234"/><line style="stroke:#181818;stroke-width:0.5;" x1="1471" x2="1716" y1="473.6563" y2="473.6563"/><ellipse cx="1481" cy="487.9609" fill="#84BE84" rx="3" ry="3" style="stroke:#038048;stroke-width:1.0;"/><text fill="#000000" font-family="sans-serif" font-size="14" lengthAdjust="spacing" textLength="221" x="1490" y="492.1895">void setShowSettings(event, value)</text><ellipse cx="1481" cy="505.5703" fill="#84BE84" rx="3" ry="3" style="stroke:#038048;stroke-width:1.0;"/><text fill="#000000" font-family="sans-serif" font-size="14" lengthAdjust="spacing" textLength="134" x="1490" y="509.7988">JSX.Element render()</text></g><!--class Help--><g id="elem_Help"><rect codeLine="93" fill="#F1F1F1" height="65.6094" id="Help" rx="2.5" ry="2.5" style="stroke:#181818;stroke-width:0.5;" width="160" x="1752.5" y="385.5"/><ellipse cx="1814.25" cy="401.5" fill="#ADD1B2" rx="11" ry="11" style="stroke:#181818;stroke-width:1.0;"/><path d="M1817.0156,397.375 Q1817.1719,397.1563 1817.3594,397.0469 Q1817.5469,396.9375 1817.7656,396.9375 Q1818.1406,396.9375 1818.375,397.2031 Q1818.6094,397.4531 1818.6094,398.0625 L1818.6094,399.5156 Q1818.6094,400.125 1818.375,400.3906 Q1818.1406,400.6563 1817.7656,400.6563 Q1817.4219,400.6563 1817.2188,400.4531 Q1817.0156,400.2656 1816.9063,399.75 Q1816.8594,399.3906 1816.6719,399.2031 Q1816.3438,398.8281 1815.7344,398.6094 Q1815.125,398.3906 1814.5,398.3906 Q1813.7344,398.3906 1813.0938,398.7188 Q1812.4688,399.0469 1811.9688,399.7969 Q1811.4844,400.5469 1811.4844,401.5781 L1811.4844,402.6719 Q1811.4844,403.9063 1812.375,404.7344 Q1813.2656,405.5469 1814.8594,405.5469 Q1815.7969,405.5469 1816.4531,405.2969 Q1816.8438,405.1406 1817.2656,404.7031 Q1817.5313,404.4375 1817.6719,404.3594 Q1817.8281,404.2813 1818.0313,404.2813 Q1818.3594,404.2813 1818.6094,404.5469 Q1818.875,404.7969 1818.875,405.1406 Q1818.875,405.4844 1818.5313,405.8906 Q1818.0313,406.4688 1817.2344,406.7969 Q1816.1563,407.25 1814.8594,407.25 Q1813.3438,407.25 1812.1406,406.625 Q1811.1563,406.125 1810.4688,405.0625 Q1809.7813,403.9844 1809.7813,402.7031 L1809.7813,401.5469 Q1809.7813,400.2188 1810.3906,399.0781 Q1811.0156,397.9219 1812.1094,397.3125 Q1813.2031,396.6875 1814.4375,396.6875 Q1815.1719,396.6875 1815.8125,396.8594 Q1816.4688,397.0156 1817.0156,397.375 Z " fill="#000000"/><text fill="#000000" font-family="sans-serif" font-size="14" lengthAdjust="spacing" textLength="28" x="1834.75" y="407.2285">Help</text><line style="stroke:#181818;stroke-width:0.5;" x1="1753.5" x2="1911.5" y1="417.5" y2="417.5"/><line style="stroke:#181818;stroke-width:0.5;" x1="1753.5" x2="1911.5" y1="425.5" y2="425.5"/><ellipse cx="1763.5" cy="439.8047" fill="#84BE84" rx="3" ry="3" style="stroke:#038048;stroke-width:1.0;"/><text fill="#000000" font-family="sans-serif" font-size="14" lengthAdjust="spacing" textLength="134" x="1772.5" y="444.0332">JSX.Element render()</text></g><g id="elem_GMN17"><path d="M1399,86.5 L1399,112 L1363.53,116 L1399,120 L1399,145.5547 A0,0 0 0 0 1399,145.5547 L1606,145.5547 A0,0 0 0 0 1606,145.5547 L1606,96.5 L1596,86.5 L1399,86.5 A0,0 0 0 0 1399,86.5 " fill="#FEFFDD" style="stroke:#181818;stroke-width:0.5;"/><path d="M1596,86.5 L1596,96.5 L1606,96.5 L1596,86.5 " fill="#FEFFDD" style="stroke:#181818;stroke-width:0.5;"/><text fill="#000000" font-family="sans-serif" font-size="13" lengthAdjust="spacing" textLength="186" x="1405" y="104.9951">Modern funkcion&#225;lis komponens</text><text fill="#000000" font-family="sans-serif" font-size="13" lengthAdjust="spacing" textLength="130" x="1405" y="121.3467">Context API integr&#225;ci&#243;</text><text fill="#000000" font-family="sans-serif" font-size="13" lengthAdjust="spacing" textLength="156" x="1405" y="137.6982">&#193;llapot kezel&#233;s hook-okkal</text></g><g id="elem_GMN20"><path d="M371,389 L371,414.5 L336.17,418.5 L371,422.5 L371,448.0547 A0,0 0 0 0 371,448.0547 L596,448.0547 A0,0 0 0 0 596,448.0547 L596,399 L586,389 L371,389 A0,0 0 0 0 371,389 " fill="#FEFFDD" style="stroke:#181818;stroke-width:0.5;"/><path d="M586,389 L586,399 L596,399 L586,389 " fill="#FEFFDD" style="stroke:#181818;stroke-width:0.5;"/><text fill="#000000" font-family="sans-serif" font-size="13" lengthAdjust="spacing" textLength="204" x="377" y="407.4951">Kib&#337;v&#237;tve szemeszter t&#225;mogat&#225;ssal</text><text fill="#000000" font-family="sans-serif" font-size="13" lengthAdjust="spacing" textLength="110" x="377" y="423.8467">T&#246;bb keres&#233;si m&#243;d</text><text fill="#000000" font-family="sans-serif" font-size="13" lengthAdjust="spacing" textLength="71" x="377" y="440.1982">Hibakezel&#233;s</text></g><g id="elem_GMN23"><path d="M847.5,397 L847.5,414.5 L812.16,418.5 L847.5,422.5 L847.5,439.7031 A0,0 0 0 0 847.5,439.7031 L1017.5,439.7031 A0,0 0 0 0 1017.5,439.7031 L1017.5,407 L1007.5,397 L847.5,397 A0,0 0 0 0 847.5,397 " fill="#FEFFDD" style="stroke:#181818;stroke-width:0.5;"/><path d="M1007.5,397 L1007.5,407 L1017.5,407 L1007.5,397 " fill="#FEFFDD" style="stroke:#181818;stroke-width:0.5;"/><text fill="#000000" font-family="sans-serif" font-size="13" lengthAdjust="spacing" textLength="149" x="853.5" y="415.4951">Canvas-alap&#250; PNG export</text><text fill="#000000" font-family="sans-serif" font-size="13" lengthAdjust="spacing" textLength="114" x="853.5" y="431.8467">JSON import/export</text></g><!--reverse link Menu to Button--><g id="link_Menu_Button"><path codeLine="97" d="M1195.1764,236.4004 C1182.1364,274.0904 1171.68,304.3 1159.63,339.11 " fill="none" id="Menu-backto-Button" style="stroke:#181818;stroke-width:1.0;"/><polygon fill="none" points="1199.1,225.06,1193.3581,229.4224,1195.1764,236.4004,1200.9184,232.0381,1199.1,225.06" style="stroke:#181818;stroke-width:1.0;"/><text fill="#000000" font-family="sans-serif" font-size="13" lengthAdjust="spacing" textLength="32" x="1128.656" y="328.5809">many</text></g><!--reverse link Menu to SubjectAdder--><g id="link_Menu_SubjectAdder"><path codeLine="98" d="M1278.2193,236.388 C1290.0993,270.378 1299.11,296.18 1310.46,328.67 " fill="none" id="Menu-backto-SubjectAdder" style="stroke:#181818;stroke-width:1.0;"/><polygon fill="none" points="1274.26,225.06,1272.4636,232.0438,1278.2193,236.388,1280.0157,229.4042,1274.26,225.06" style="stroke:#181818;stroke-width:1.0;"/></g><!--reverse link Menu to ServerQuery--><g id="link_Menu_ServerQuery"><path codeLine="99" d="M1097.5483,131.9185 C884.9883,156.3185 480.01,210.75 353.5,285 C347.55,288.49 341.77,292.43 336.18,296.7 " fill="none" id="Menu-backto-ServerQuery" style="stroke:#181818;stroke-width:1.0;"/><polygon fill="none" points="1109.47,130.55,1103.053,127.2603,1097.5483,131.9185,1103.9653,135.2082,1109.47,130.55" style="stroke:#181818;stroke-width:1.0;"/></g><!--reverse link Menu to ImportExport--><g id="link_Menu_ImportExport"><path codeLine="100" d="M1097.8989,155.5222 C1013.4389,182.7522 914.49,222.81 830.5,285 C813.74,297.41 798,312.94 783.97,328.95 " fill="none" id="Menu-backto-ImportExport" style="stroke:#181818;stroke-width:1.0;"/><polygon fill="none" points="1109.32,151.84,1102.3821,149.8741,1097.8989,155.5222,1104.8368,157.4881,1109.32,151.84" style="stroke:#181818;stroke-width:1.0;"/></g><!--reverse link Menu to Settings--><g id="link_Menu_Settings"><path codeLine="101" d="M1373.1734,220.1714 C1402.7434,243.2914 1424.34,260.91 1452.5,285 C1465.39,296.03 1478.68,307.86 1491.71,319.75 " fill="none" id="Menu-backto-Settings" style="stroke:#181818;stroke-width:1.0;"/><polygon fill="none" points="1363.72,212.78,1365.9829,219.6268,1373.1734,220.1714,1370.9105,213.3246,1363.72,212.78" style="stroke:#181818;stroke-width:1.0;"/></g><!--reverse link Menu to Help--><g id="link_Menu_Help"><path codeLine="102" d="M1374.4881,222.1434 C1380.3381,225.1834 1375.58,222.47 1381.5,225 C1527.81,287.6 1598.93,201.66 1734.5,285 C1773.38,308.9 1801.85,354.45 1817.8,385.4 " fill="none" id="Menu-backto-Help" style="stroke:#181818;stroke-width:1.0;"/><polygon fill="none" points="1363.84,216.61,1367.3196,222.926,1374.4881,222.1434,1371.0085,215.8273,1363.84,216.61" style="stroke:#181818;stroke-width:1.0;"/></g><!--reverse link ServerQuery to ImportModal--><g id="link_ServerQuery_ImportModal"><path codeLine="103" d="M242.5,564.39 C242.5,583.85 242.5,592.02 242.5,611.83 " fill="none" id="ServerQuery-backto-ImportModal" style="stroke:#181818;stroke-width:1.0;"/><polygon fill="none" points="242.5,552.39,238.5,558.39,242.5,564.39,246.5,558.39,242.5,552.39" style="stroke:#181818;stroke-width:1.0;"/></g><!--SRC=[jLLBRjim4Dtx54HMCXgdPqZTj77QV0gbG7S1HOrbLHGfa9GSf-YYH-WHikmYgm1TT2lqNXrHr2-m0WTDlB4u_pV3UMISQarEGUJasuJWx-20P4fc6Z_i-HLPveAPM0e2rvbKvZ9EmT20GsC-byB0jI6VDOsWSyir-61CB2BjJSbAogHnq8QQdg4s2er8AiCwvDMLKnGo3icAYf33AIhd-1c19s1TdQREQ2xJJ0eGnWRmrx5XAo-ZYgQDnOd_vU28GrhPA10XA6yw-JwPC0lzJMuCOXi3xugh00ubCPDY142lPHhC4DFZnVXvy1MOEGnHtfKqtk1s5ZjrMDVHpsWAMnNpnoQ0fQMnyQ30odVhh0-g0FKf1xLvKIpphk_DR0H-vCn8rSDwg1JT42PpfK4FP2vM8moav4052QcX2_rHqX321yaHiZQWXisYUYCOMG9UmBVewasVeucBjDgv8xjvBx2XMvi-77yeru9Z4qxyyxCXfZnhvKz6X2jC-IYW_v_LSrmrbn4u9eJG7sO-jwTME-_LslQl3X21gRMBKB-JoiNnUakt_QPORSrvpdOHxlTtTP-m5R04mYt-TKRdpbpwrli9WUfnURkkV4tuk-pxoEF0aCzpR2XPAfdYgNPl7Pksh-JwmHNGrEGgf1id5daQ88bgBisMIusyx6E8jWPxV_T9GNaEkq4z1fuvcEEczbsLindPIwdOxBd7fXFt-RudxOYp4_Q9e6zQ0-WaLLsJFlLspdRd9XCXyPAhE5eP8fVswRSegaTLYOfB4ePSKjxoM9F4lQxrnMw6UNYnG8ur4AdobiNblLMMFpYdcJGaWHlWvIzjnpgJIO99iIUaolimUnzg5UH37FpzMPHtfW2YRogQlK6U9QQyJML4yKzhZ5PPNfQ_Wm1pAT2OAoPfULzl_d4SqAQ4qRo3RbfeL1HKpoX2AF-GYxFtZakjig8u4bkNrqxS1lu7]--></g></svg>