<?xml version="1.0" encoding="us-ascii" standalone="no"?><svg xmlns="http://www.w3.org/2000/svg" xmlns:xlink="http://www.w3.org/1999/xlink" contentStyleType="text/css" height="604px" preserveAspectRatio="none" style="width:1574px;height:604px;background:#FFFFFF;" version="1.1" viewBox="0 0 1574 604" width="1574px" zoomAndPan="magnify"><defs/><g><!--cluster Context Layer--><g id="cluster_Context Layer"><path d="M771.5,251 L881.5,251 A3.75,3.75 0 0 1 884,253.5 L891,274.0146 L1133.5,274.0146 A2.5,2.5 0 0 1 1136,276.5146 L1136,495.5 A2.5,2.5 0 0 1 1133.5,498 L771.5,498 A2.5,2.5 0 0 1 769,495.5 L769,253.5 A2.5,2.5 0 0 1 771.5,251 " fill="#FFFFFF" style="stroke:#000000;stroke-width:1.0;"/><line style="stroke:#000000;stroke-width:1.0;" x1="769" x2="891" y1="274.0146" y2="274.0146"/><text fill="#000000" font-family="Verdana" font-size="14" font-weight="bold" lengthAdjust="spacing" textLength="109" x="773" y="267.0752">Context Layer</text></g><!--cluster Application Layer--><g id="cluster_Application Layer"><path d="M527.5,11 L662.5,11 A3.75,3.75 0 0 1 665,13.5 L672,34.0146 L690.5,34.0146 A2.5,2.5 0 0 1 693,36.5146 L693,215.5 A2.5,2.5 0 0 1 690.5,218 L527.5,218 A2.5,2.5 0 0 1 525,215.5 L525,13.5 A2.5,2.5 0 0 1 527.5,11 " fill="#FFFFFF" style="stroke:#000000;stroke-width:1.0;"/><line style="stroke:#000000;stroke-width:1.0;" x1="525" x2="672" y1="34.0146" y2="34.0146"/><text fill="#000000" font-family="Verdana" font-size="14" font-weight="bold" lengthAdjust="spacing" textLength="134" x="529" y="27.0752">Application Layer</text></g><!--cluster Core UI Components--><g id="cluster_Core UI Components"><path d="M236.5,251 L401.5,251 A3.75,3.75 0 0 1 404,253.5 L411,274.0146 L742.5,274.0146 A2.5,2.5 0 0 1 745,276.5146 L745,347.5 A2.5,2.5 0 0 1 742.5,350 L236.5,350 A2.5,2.5 0 0 1 234,347.5 L234,253.5 A2.5,2.5 0 0 1 236.5,251 " fill="#FFFFFF" style="stroke:#000000;stroke-width:1.0;"/><line style="stroke:#000000;stroke-width:1.0;" x1="234" x2="411" y1="274.0146" y2="274.0146"/><text fill="#000000" font-family="Verdana" font-size="14" font-weight="bold" lengthAdjust="spacing" textLength="164" x="238" y="267.0752">Core UI Components</text></g><!--cluster Utils & Hooks--><g id="cluster_Utils &amp; Hooks"><path d="M13.5,399 L117.5,399 A3.75,3.75 0 0 1 120,401.5 L127,422.0146 L727.5,422.0146 A2.5,2.5 0 0 1 730,424.5146 L730,495.5 A2.5,2.5 0 0 1 727.5,498 L13.5,498 A2.5,2.5 0 0 1 11,495.5 L11,401.5 A2.5,2.5 0 0 1 13.5,399 " fill="#FFFFFF" style="stroke:#000000;stroke-width:1.0;"/><line style="stroke:#000000;stroke-width:1.0;" x1="11" x2="127" y1="422.0146" y2="422.0146"/><text fill="#000000" font-family="Verdana" font-size="14" font-weight="bold" lengthAdjust="spacing" textLength="103" x="15" y="415.0752">Utils &amp; Hooks</text></g><!--entity TimetableContext--><g id="elem_TimetableContext"><rect fill="#ADD8E6" height="47.0146" rx="2.5" ry="2.5" style="stroke:#000000;stroke-width:1.0;" width="164" x="785" y="435"/><rect fill="#ADD8E6" height="10" style="stroke:#000000;stroke-width:1.0;" width="15" x="929" y="440"/><rect fill="#ADD8E6" height="2" style="stroke:#000000;stroke-width:1.0;" width="4" x="927" y="442"/><rect fill="#ADD8E6" height="2" style="stroke:#000000;stroke-width:1.0;" width="4" x="927" y="446"/><text fill="#000000" font-family="Verdana" font-size="14" lengthAdjust="spacing" textLength="124" x="800" y="469.0752">TimetableContext</text></g><!--entity StateContext--><g id="elem_StateContext"><rect fill="#ADD8E6" height="47.0146" rx="2.5" ry="2.5" style="stroke:#000000;stroke-width:1.0;" width="135" x="984.5" y="435"/><rect fill="#ADD8E6" height="10" style="stroke:#000000;stroke-width:1.0;" width="15" x="1099.5" y="440"/><rect fill="#ADD8E6" height="2" style="stroke:#000000;stroke-width:1.0;" width="4" x="1097.5" y="442"/><rect fill="#ADD8E6" height="2" style="stroke:#000000;stroke-width:1.0;" width="4" x="1097.5" y="446"/><text fill="#000000" font-family="Verdana" font-size="14" lengthAdjust="spacing" textLength="95" x="999.5" y="469.0752">StateContext</text></g><!--entity AppProviders--><g id="elem_AppProviders"><rect fill="#ADD8E6" height="47.0146" rx="2.5" ry="2.5" style="stroke:#000000;stroke-width:1.0;" width="133" x="985.5" y="287"/><rect fill="#ADD8E6" height="10" style="stroke:#000000;stroke-width:1.0;" width="15" x="1098.5" y="292"/><rect fill="#ADD8E6" height="2" style="stroke:#000000;stroke-width:1.0;" width="4" x="1096.5" y="294"/><rect fill="#ADD8E6" height="2" style="stroke:#000000;stroke-width:1.0;" width="4" x="1096.5" y="298"/><text fill="#000000" font-family="Verdana" font-size="14" lengthAdjust="spacing" textLength="93" x="1000.5" y="321.0752">AppProviders</text></g><!--entity App--><g id="elem_App"><rect fill="#90EE90" height="47.0146" rx="2.5" ry="2.5" style="stroke:#000000;stroke-width:1.0;" width="68" x="592" y="47"/><rect fill="#90EE90" height="10" style="stroke:#000000;stroke-width:1.0;" width="15" x="640" y="52"/><rect fill="#90EE90" height="2" style="stroke:#000000;stroke-width:1.0;" width="4" x="638" y="54"/><rect fill="#90EE90" height="2" style="stroke:#000000;stroke-width:1.0;" width="4" x="638" y="58"/><text fill="#000000" font-family="Verdana" font-size="14" lengthAdjust="spacing" textLength="28" x="607" y="81.0752">App</text></g><!--entity TimetableApp--><g id="elem_TimetableApp"><rect fill="#90EE90" height="47.0146" rx="2.5" ry="2.5" style="stroke:#000000;stroke-width:1.0;" width="135" x="541.5" y="155"/><rect fill="#90EE90" height="10" style="stroke:#000000;stroke-width:1.0;" width="15" x="656.5" y="160"/><rect fill="#90EE90" height="2" style="stroke:#000000;stroke-width:1.0;" width="4" x="654.5" y="162"/><rect fill="#90EE90" height="2" style="stroke:#000000;stroke-width:1.0;" width="4" x="654.5" y="166"/><text fill="#000000" font-family="Verdana" font-size="14" lengthAdjust="spacing" textLength="95" x="556.5" y="189.0752">TimetableApp</text></g><!--entity Menu--><g id="elem_Menu"><rect fill="#FFFF00" height="47.0146" rx="2.5" ry="2.5" style="stroke:#000000;stroke-width:1.0;" width="77" x="371.5" y="287"/><rect fill="#FFFF00" height="10" style="stroke:#000000;stroke-width:1.0;" width="15" x="428.5" y="292"/><rect fill="#FFFF00" height="2" style="stroke:#000000;stroke-width:1.0;" width="4" x="426.5" y="294"/><rect fill="#FFFF00" height="2" style="stroke:#000000;stroke-width:1.0;" width="4" x="426.5" y="298"/><text fill="#000000" font-family="Verdana" font-size="14" lengthAdjust="spacing" textLength="37" x="386.5" y="321.0752">Menu</text></g><!--entity Subjects--><g id="elem_Subjects"><rect fill="#FFFF00" height="47.0146" rx="2.5" ry="2.5" style="stroke:#000000;stroke-width:1.0;" width="102" x="484" y="287"/><rect fill="#FFFF00" height="10" style="stroke:#000000;stroke-width:1.0;" width="15" x="566" y="292"/><rect fill="#FFFF00" height="2" style="stroke:#000000;stroke-width:1.0;" width="4" x="564" y="294"/><rect fill="#FFFF00" height="2" style="stroke:#000000;stroke-width:1.0;" width="4" x="564" y="298"/><text fill="#000000" font-family="Verdana" font-size="14" lengthAdjust="spacing" textLength="62" x="499" y="321.0752">Subjects</text></g><!--entity Timetable--><g id="elem_Timetable"><rect fill="#FFFF00" height="47.0146" rx="2.5" ry="2.5" style="stroke:#000000;stroke-width:1.0;" width="107" x="621.5" y="287"/><rect fill="#FFFF00" height="10" style="stroke:#000000;stroke-width:1.0;" width="15" x="708.5" y="292"/><rect fill="#FFFF00" height="2" style="stroke:#000000;stroke-width:1.0;" width="4" x="706.5" y="294"/><rect fill="#FFFF00" height="2" style="stroke:#000000;stroke-width:1.0;" width="4" x="706.5" y="298"/><text fill="#000000" font-family="Verdana" font-size="14" lengthAdjust="spacing" textLength="67" x="636.5" y="321.0752">Timetable</text></g><!--entity Footer--><g id="elem_Footer"><rect fill="#FFFF00" height="47.0146" rx="2.5" ry="2.5" style="stroke:#000000;stroke-width:1.0;" width="86" x="250" y="287"/><rect fill="#FFFF00" height="10" style="stroke:#000000;stroke-width:1.0;" width="15" x="316" y="292"/><rect fill="#FFFF00" height="2" style="stroke:#000000;stroke-width:1.0;" width="4" x="314" y="294"/><rect fill="#FFFF00" height="2" style="stroke:#000000;stroke-width:1.0;" width="4" x="314" y="298"/><text fill="#000000" font-family="Verdana" font-size="14" lengthAdjust="spacing" textLength="46" x="265" y="321.0752">Footer</text></g><!--entity useKeyboardShortcuts--><g id="elem_useKeyboardShortcuts"><rect fill="#D3D3D3" height="47.0146" rx="2.5" ry="2.5" style="stroke:#000000;stroke-width:1.0;" width="202" x="27" y="435"/><rect fill="#D3D3D3" height="10" style="stroke:#000000;stroke-width:1.0;" width="15" x="209" y="440"/><rect fill="#D3D3D3" height="2" style="stroke:#000000;stroke-width:1.0;" width="4" x="207" y="442"/><rect fill="#D3D3D3" height="2" style="stroke:#000000;stroke-width:1.0;" width="4" x="207" y="446"/><text fill="#000000" font-family="Verdana" font-size="14" lengthAdjust="spacing" textLength="162" x="42" y="469.0752">useKeyboardShortcuts</text></g><!--entity serverApi--><g id="elem_serverApi"><rect fill="#D3D3D3" height="47.0146" rx="2.5" ry="2.5" style="stroke:#000000;stroke-width:1.0;" width="106" x="439" y="435"/><rect fill="#D3D3D3" height="10" style="stroke:#000000;stroke-width:1.0;" width="15" x="525" y="440"/><rect fill="#D3D3D3" height="2" style="stroke:#000000;stroke-width:1.0;" width="4" x="523" y="442"/><rect fill="#D3D3D3" height="2" style="stroke:#000000;stroke-width:1.0;" width="4" x="523" y="446"/><text fill="#000000" font-family="Verdana" font-size="14" lengthAdjust="spacing" textLength="66" x="454" y="469.0752">serverApi</text></g><!--entity timetableUtils--><g id="elem_timetableUtils"><rect fill="#D3D3D3" height="47.0146" rx="2.5" ry="2.5" style="stroke:#000000;stroke-width:1.0;" width="134" x="580" y="435"/><rect fill="#D3D3D3" height="10" style="stroke:#000000;stroke-width:1.0;" width="15" x="694" y="440"/><rect fill="#D3D3D3" height="2" style="stroke:#000000;stroke-width:1.0;" width="4" x="692" y="442"/><rect fill="#D3D3D3" height="2" style="stroke:#000000;stroke-width:1.0;" width="4" x="692" y="446"/><text fill="#000000" font-family="Verdana" font-size="14" lengthAdjust="spacing" textLength="94" x="595" y="469.0752">timetableUtils</text></g><!--entity CanvasExport--><g id="elem_CanvasExport"><rect fill="#D3D3D3" height="47.0146" rx="2.5" ry="2.5" style="stroke:#000000;stroke-width:1.0;" width="139" x="264.5" y="435"/><rect fill="#D3D3D3" height="10" style="stroke:#000000;stroke-width:1.0;" width="15" x="383.5" y="440"/><rect fill="#D3D3D3" height="2" style="stroke:#000000;stroke-width:1.0;" width="4" x="381.5" y="442"/><rect fill="#D3D3D3" height="2" style="stroke:#000000;stroke-width:1.0;" width="4" x="381.5" y="446"/><text fill="#000000" font-family="Verdana" font-size="14" lengthAdjust="spacing" textLength="99" x="279.5" y="469.0752">CanvasExport</text></g><g id="elem_GMN37"><path d="M1155,422 L1155,495.1973 L1347,495.1973 L1347,432 L1337,422 L1155,422 " fill="#FFFFFF" style="stroke:#000000;stroke-width:1.0;"/><path d="M1337,422 L1337,432 L1347,432 L1337,422 " fill="#FFFFFF" style="stroke:#000000;stroke-width:1.0;"/><text fill="#000000" font-family="Verdana" font-size="13" lengthAdjust="spacing" textLength="43" x="1161" y="440.0698">Kezeli:</text><text fill="#000000" font-family="Verdana" font-size="13" lengthAdjust="spacing" textLength="91" x="1161" y="455.8691">- eventsJSON</text><text fill="#000000" font-family="Verdana" font-size="13" lengthAdjust="spacing" textLength="171" x="1161" y="471.6685">- T&#225;rgy/Kurzus m&#369;veletek</text><text fill="#000000" font-family="Verdana" font-size="13" lengthAdjust="spacing" textLength="164" x="1161" y="487.4678">- localStorage integr&#225;ci&#243;</text></g><g id="elem_GMN40"><path d="M1382.5,422 L1382.5,495.1973 L1567.5,495.1973 L1567.5,432 L1557.5,422 L1382.5,422 " fill="#FFFFFF" style="stroke:#000000;stroke-width:1.0;"/><path d="M1557.5,422 L1557.5,432 L1567.5,432 L1557.5,422 " fill="#FFFFFF" style="stroke:#000000;stroke-width:1.0;"/><text fill="#000000" font-family="Verdana" font-size="13" lengthAdjust="spacing" textLength="43" x="1388.5" y="440.0698">Kezeli:</text><text fill="#000000" font-family="Verdana" font-size="13" lengthAdjust="spacing" textLength="157" x="1388.5" y="455.8691">- Alkalmaz&#225;s be&#225;ll&#237;t&#225;sok</text><text fill="#000000" font-family="Verdana" font-size="13" lengthAdjust="spacing" textLength="135" x="1388.5" y="471.6685">- Jelenlegi UI &#225;llapot</text><text fill="#000000" font-family="Verdana" font-size="13" lengthAdjust="spacing" textLength="164" x="1388.5" y="487.4678">- localStorage integr&#225;ci&#243;</text></g><g id="elem_GMN43"><path d="M30,556 L30,597.5986 A0,0 0 0 0 30,597.5986 L226,597.5986 A0,0 0 0 0 226,597.5986 L226,566 L216,556 L132,556 L128,482.24 L124,556 L30,556 A0,0 0 0 0 30,556 " fill="#FFFFFF" style="stroke:#000000;stroke-width:1.0;"/><path d="M216,556 L216,566 L226,566 L216,556 " fill="#FFFFFF" style="stroke:#000000;stroke-width:1.0;"/><text fill="#000000" font-family="Verdana" font-size="13" lengthAdjust="spacing" textLength="92" x="36" y="574.0698">Egyedi hook a</text><text fill="#000000" font-family="Verdana" font-size="13" lengthAdjust="spacing" textLength="175" x="36" y="589.8691">Ctrl+K billenty&#369;parancshoz</text></g><!--link AppProviders to TimetableContext--><g id="link_AppProviders_TimetableContext"><path d="M1023.09,334.31 C988.34,361.74 935.08,403.7731 900.41,431.1331 " fill="none" id="AppProviders-to-TimetableContext" style="stroke:#000000;stroke-width:1.0;"/><polygon fill="#000000" points="895.7,434.85,905.243,432.4146,899.625,431.7525,900.2871,426.1346,895.7,434.85" style="stroke:#000000;stroke-width:1.0;"/></g><!--link AppProviders to StateContext--><g id="link_AppProviders_StateContext"><path d="M1052,334.31 C1052,361.74 1052,401.49 1052,428.85 " fill="none" id="AppProviders-to-StateContext" style="stroke:#000000;stroke-width:1.0;"/><polygon fill="#000000" points="1052,434.85,1056,425.85,1052,429.85,1048,425.85,1052,434.85" style="stroke:#000000;stroke-width:1.0;"/></g><!--link App to AppProviders--><g id="link_App_AppProviders"><path d="M660.45,86.07 C722.43,112.98 855.82,174.06 958,243 C979.21,257.31 997.8327,270.4455 1016.0327,283.4855 " fill="none" id="App-to-AppProviders" style="stroke:#000000;stroke-width:1.0;"/><polygon fill="#000000" points="1020.91,286.98,1015.9237,278.4867,1016.8456,284.0679,1011.2643,284.9898,1020.91,286.98" style="stroke:#000000;stroke-width:1.0;"/></g><!--link App to TimetableApp--><g id="link_App_TimetableApp"><path d="M622.35,94.24 C619.48,112.12 616.4609,130.9958 613.5909,148.8758 " fill="none" id="App-to-TimetableApp" style="stroke:#000000;stroke-width:1.0;"/><polygon fill="#000000" points="612.64,154.8,618.0158,146.5477,613.4324,149.8632,610.1169,145.2798,612.64,154.8" style="stroke:#000000;stroke-width:1.0;"/></g><!--link TimetableApp to Menu--><g id="link_TimetableApp_Menu"><path d="M542.78,202.01 C517.69,212.3 489.72,226.04 467,243 C450.67,255.19 439.4008,268.0256 428.9508,282.0756 " fill="none" id="TimetableApp-to-Menu" style="stroke:#000000;stroke-width:1.0;"/><polygon fill="#000000" points="425.37,286.89,433.9507,282.0557,428.354,282.878,427.5316,277.2813,425.37,286.89" style="stroke:#000000;stroke-width:1.0;"/></g><!--link TimetableApp to Subjects--><g id="link_TimetableApp_Subjects"><path d="M596.11,202.14 C582.61,225.86 564.4988,257.686 550.9588,281.466 " fill="none" id="TimetableApp-to-Subjects" style="stroke:#000000;stroke-width:1.0;"/><polygon fill="#000000" points="547.99,286.68,555.9192,280.8381,550.464,282.335,548.9672,276.8797,547.99,286.68" style="stroke:#000000;stroke-width:1.0;"/></g><!--link TimetableApp to Timetable--><g id="link_TimetableApp_Timetable"><path d="M620.5,202.14 C632.54,225.86 648.6244,257.5497 660.6944,281.3297 " fill="none" id="TimetableApp-to-Timetable" style="stroke:#000000;stroke-width:1.0;"/><polygon fill="#000000" points="663.41,286.68,662.9034,276.8442,661.147,282.2214,655.7697,280.465,663.41,286.68" style="stroke:#000000;stroke-width:1.0;"/></g><!--link TimetableApp to Footer--><g id="link_TimetableApp_Footer"><path d="M541.31,185.56 C487.43,192.83 411.75,208.68 354,243 C335.55,253.97 322.9978,267.4534 311.9478,282.0734 " fill="none" id="TimetableApp-to-Footer" style="stroke:#000000;stroke-width:1.0;"/><polygon fill="#000000" points="308.33,286.86,316.9478,282.0919,311.3448,282.8712,310.5656,277.2682,308.33,286.86" style="stroke:#000000;stroke-width:1.0;"/></g><!--link TimetableApp to useKeyboardShortcuts--><g id="link_TimetableApp_useKeyboardShortcuts"><path d="M541.29,183.64 C446.78,190.63 281.54,207.62 234,243 C169.19,291.23 142.9156,384.1207 133.4356,428.7907 " fill="none" id="TimetableApp-to-useKeyboardShortcuts" style="stroke:#000000;stroke-width:1.0;"/><polygon fill="#000000" points="132.19,434.66,137.9713,426.6865,133.228,429.7689,130.1455,425.0257,132.19,434.66" style="stroke:#000000;stroke-width:1.0;"/></g><!--link Menu to serverApi--><g id="link_Menu_serverApi"><path d="M421.72,334.18 C429.11,348.31 438.93,366.81 448,383 C457.84,400.56 466.3525,415.0054 475.1625,429.6854 " fill="none" id="Menu-to-serverApi" style="stroke:#000000;stroke-width:1.0;"/><polygon fill="#000000" points="478.25,434.83,477.0485,425.0547,475.6771,430.5428,470.189,429.1714,478.25,434.83" style="stroke:#000000;stroke-width:1.0;"/></g><!--link Menu to CanvasExport--><g id="link_Menu_CanvasExport"><path d="M398.12,334.31 C383.85,361.74 362.8001,402.1677 348.5601,429.5277 " fill="none" id="Menu-to-CanvasExport" style="stroke:#000000;stroke-width:1.0;"/><polygon fill="#000000" points="345.79,434.85,353.4933,428.7133,348.0984,430.4148,346.3969,425.0199,345.79,434.85" style="stroke:#000000;stroke-width:1.0;"/></g><!--link Timetable to timetableUtils--><g id="link_Timetable_timetableUtils"><path d="M664.02,334.05 C659.83,343.67 655.48,355.16 653,366 C647.75,388.97 646.5925,409.96 646.5225,428.65 " fill="none" id="Timetable-to-timetableUtils" style="stroke:#000000;stroke-width:1.0;"/><polygon fill="#000000" points="646.5,434.65,650.5337,425.665,646.5187,429.65,642.5337,425.6351,646.5,434.65" style="stroke:#000000;stroke-width:1.0;"/></g><!--link TimetableApp to TimetableContext--><g id="link_TimetableApp_TimetableContext"><path d="M676.58,201.37 C700.16,211.37 725.56,225.06 745,243 C805.61,298.93 842.0235,386.3826 857.3635,429.1326 " fill="none" id="TimetableApp-to-TimetableContext" style="stroke:#000000;stroke-width:1.0;stroke-dasharray:7.0,7.0;"/><polygon fill="#000000" points="859.39,434.78,860.1152,424.9579,857.7013,430.0738,852.5853,427.6598,859.39,434.78" style="stroke:#000000;stroke-width:1.0;"/><text fill="#000000" font-family="Verdana" font-size="13" lengthAdjust="spacing" textLength="30" x="826" y="316.0698">uses</text></g><!--link TimetableApp to StateContext--><g id="link_TimetableApp_StateContext"><path d="M676.59,195.94 C751.78,214.28 863.04,241.57 865,243 C913.52,278.41 896.96,312.35 936,358 C961.35,387.64 991.0518,412.4211 1015.8318,431.2411 " fill="none" id="TimetableApp-to-StateContext" style="stroke:#000000;stroke-width:1.0;stroke-dasharray:7.0,7.0;"/><polygon fill="#000000" points="1020.61,434.87,1015.862,426.2412,1016.6282,431.8459,1011.0235,432.612,1020.61,434.87" style="stroke:#000000;stroke-width:1.0;"/><text fill="#000000" font-family="Verdana" font-size="13" lengthAdjust="spacing" textLength="30" x="937" y="316.0698">uses</text></g><!--link Menu to StateContext--><g id="link_Menu_StateContext"><path d="M433.07,334.12 C442.87,342.66 454.82,351.8 467,358 C505.91,377.8 518.76,376.97 562,383 C606.58,389.22 924.6,375.91 967,391 C992.07,399.92 1011.1984,415.1966 1027.0784,430.7866 " fill="none" id="Menu-to-StateContext" style="stroke:#000000;stroke-width:1.0;stroke-dasharray:7.0,7.0;"/><polygon fill="#000000" points="1031.36,434.99,1027.7399,425.8306,1027.792,431.4872,1022.1354,431.5393,1031.36,434.99" style="stroke:#000000;stroke-width:1.0;"/><text fill="#000000" font-family="Verdana" font-size="13" lengthAdjust="spacing" textLength="30" x="563" y="380.0698">uses</text></g><!--link Subjects to TimetableContext--><g id="link_Subjects_TimetableContext"><path d="M559,334.14 C578.23,350.79 606.74,372.3 636,383 C675.38,397.4 689.57,379.88 730,391 C765.69,400.82 798.1007,416.8204 824.8707,432.0004 " fill="none" id="Subjects-to-TimetableContext" style="stroke:#000000;stroke-width:1.0;stroke-dasharray:7.0,7.0;"/><polygon fill="#000000" points="830.09,434.96,824.2342,427.0411,825.7406,432.4937,820.288,434.0001,830.09,434.96" style="stroke:#000000;stroke-width:1.0;"/><text fill="#000000" font-family="Verdana" font-size="13" lengthAdjust="spacing" textLength="30" x="637" y="380.0698">uses</text></g><!--link Timetable to TimetableContext--><g id="link_Timetable_TimetableContext"><path d="M672.19,334.14 C671.57,349.91 673.65,370.31 686,383 C699.86,397.24 711.11,384.83 730,391 C764.3,402.21 795.7063,417.5085 822.4663,432.0285 " fill="none" id="Timetable-to-TimetableContext" style="stroke:#000000;stroke-width:1.0;stroke-dasharray:7.0,7.0;"/><polygon fill="#000000" points="827.74,434.89,821.7371,427.0819,823.3453,432.5054,817.9218,434.1135,827.74,434.89" style="stroke:#000000;stroke-width:1.0;"/><text fill="#000000" font-family="Verdana" font-size="13" lengthAdjust="spacing" textLength="30" x="687" y="380.0698">uses</text></g><!--link Timetable to StateContext--><g id="link_Timetable_StateContext"><path d="M716.35,334.09 C732.47,342.33 751.3,351.26 769,358 C808.2,372.92 818.67,375.85 860,383 C906.99,391.13 922.53,373.79 967,391 C991.46,400.47 1010.2573,415.3194 1026.1973,430.5894 " fill="none" id="Timetable-to-StateContext" style="stroke:#000000;stroke-width:1.0;stroke-dasharray:7.0,7.0;"/><polygon fill="#000000" points="1030.53,434.74,1026.798,425.6256,1026.9194,431.2812,1021.2638,431.4026,1030.53,434.74" style="stroke:#000000;stroke-width:1.0;"/><text fill="#000000" font-family="Verdana" font-size="13" lengthAdjust="spacing" textLength="30" x="861" y="380.0698">uses</text></g><!--link TimetableContext to GMN37--><g id="link_TimetableContext_GMN37"><path d="M890.58,434.74 C912.68,414.29 947.73,386.29 984.5,374.5 C1041.21,356.31 1061.31,357.9 1118.5,374.5 C1150.8,383.88 1182.78,403.76 1207.22,421.82 " fill="none" id="TimetableContext-GMN37" style="stroke:#000000;stroke-width:1.0;stroke-dasharray:7.0,7.0;"/></g><!--link StateContext to GMN40--><g id="link_StateContext_GMN40"><path d="M1072.2,434.8 C1091.28,414.39 1121.91,386.41 1155.5,374.5 C1195.71,360.24 1306.63,362.25 1347.5,374.5 C1378.86,383.9 1409.63,403.78 1433.09,421.84 " fill="none" id="StateContext-GMN40" style="stroke:#000000;stroke-width:1.0;stroke-dasharray:7.0,7.0;"/></g><!--SRC=[bPHDRjim48NtEiKq1Vg3mka-YmA6aQADcxQ0arNH1ILD9DOKIP13DtAHm_W0NGGvWf1xbQ9bovBPel76Dj_ZpAE-ePvHYHM25epB9D4iMx82uMIc9E4jmITMepc1NmdupxShNY6nL60dVuVdWXSbfSBXrh4WHdzNfrf_DMh5SpHseDuTjFOcmJD6NCbHUw_iTXK6KOv27SbtWmCPXEkFC5ELLX8bsNtPIvJERwnH2FMpEuPBVs16ThIyRpLQVwyKeUaN3njV4nSMNi07fPPzJsTnZdMgcCaNfJAKER9zU5PlNHRD2irKysE9Tb52_MDznkIAsVDRxOiFL9_j9Upm6XJXGTkIQvkC-4mcxoB8ewu1zcGBAWW3RzlvqiyPCAt1ad4PEOE7zW7BP8GsE0AigB9d5bLxT56v8zWcR441apau_sGvrU2i1ndT5QMOT0CL73t1mVA0Jd8uLq4UmJqa5iB0gvpP4dCGNAA56sKWwtJ_RLsbMwYlnvbFJsD0uSmNHHir3w_pphWzo3yC_VNvtvPFTaOR9z9J1DFEEgYRsF2sTsEEQnJyBFoU0AxQby75uildRk6gsPYYVZjtPkqiL8_tAnH8kEnaeJ8c5gHCou7xieLfDXbl7XBqCzC6E8enl1t74QPYoKJ5rit6GehDHeZcD_a_QjVpmYUG0WlUli5QdMb5JysJAY9LXK3nkMthdHSrvXpAS0V2oeoCU3E7b0kVWUh7UyqCavajrRhly0S0]--></g></svg>