<?xml version="1.0" encoding="us-ascii" standalone="no"?><svg xmlns="http://www.w3.org/2000/svg" xmlns:xlink="http://www.w3.org/1999/xlink" contentStyleType="text/css" height="465px" preserveAspectRatio="none" style="width:2056px;height:465px;background:#FFFFFF;" version="1.1" viewBox="0 0 2056 465" width="2056px" zoomAndPan="magnify"><defs/><g><!--cluster Custom Hooks--><g id="cluster_Custom Hooks"><path d="M8.5,65.7 L110.5,65.7 A3.75,3.75 0 0 1 113,68.2 L120,89.3094 L239.5,89.3094 A2.5,2.5 0 0 1 242,91.8094 L242,237.2 A2.5,2.5 0 0 1 239.5,239.7 L8.5,239.7 A2.5,2.5 0 0 1 6,237.2 L6,68.2 A2.5,2.5 0 0 1 8.5,65.7 " fill="none" style="stroke:#000000;stroke-width:1.5;"/><line style="stroke:#000000;stroke-width:1.5;" x1="6" x2="120" y1="89.3094" y2="89.3094"/><text fill="#000000" font-family="sans-serif" font-size="14" font-weight="bold" lengthAdjust="spacing" textLength="101" x="10" y="82.2332">Custom Hooks</text></g><!--cluster Utility Functions--><g id="cluster_Utility Functions"><path d="M500.5,49.7 L614.5,49.7 A3.75,3.75 0 0 1 617,52.2 L624,73.3094 L1684.5,73.3094 A2.5,2.5 0 0 1 1687,75.8094 L1687,253.2 A2.5,2.5 0 0 1 1684.5,255.7 L500.5,255.7 A2.5,2.5 0 0 1 498,253.2 L498,52.2 A2.5,2.5 0 0 1 500.5,49.7 " fill="none" style="stroke:#000000;stroke-width:1.5;"/><line style="stroke:#000000;stroke-width:1.5;" x1="498" x2="624" y1="73.3094" y2="73.3094"/><text fill="#000000" font-family="sans-serif" font-size="14" font-weight="bold" lengthAdjust="spacing" textLength="113" x="502" y="66.2332">Utility Functions</text></g><!--cluster Context Hooks--><g id="cluster_Context Hooks"><path d="M35.5,305.7 L139.5,305.7 A3.75,3.75 0 0 1 142,308.2 L149,329.3094 L609.5,329.3094 A2.5,2.5 0 0 1 612,331.8094 L612,456.2 A2.5,2.5 0 0 1 609.5,458.7 L35.5,458.7 A2.5,2.5 0 0 1 33,456.2 L33,308.2 A2.5,2.5 0 0 1 35.5,305.7 " fill="none" style="stroke:#000000;stroke-width:1.5;"/><line style="stroke:#000000;stroke-width:1.5;" x1="33" x2="149" y1="329.3094" y2="329.3094"/><text fill="#000000" font-family="sans-serif" font-size="14" font-weight="bold" lengthAdjust="spacing" textLength="103" x="37" y="322.2332">Context Hooks</text></g><!--class useKeyboardShortcuts--><g id="elem_useKeyboardShortcuts"><rect codeLine="3" fill="#F1F1F1" height="122.4375" id="useKeyboardShortcuts" rx="2.5" ry="2.5" style="stroke:#181818;stroke-width:0.5;" width="204" x="22" y="101.7"/><ellipse cx="49.6" cy="117.7" fill="#ADD1B2" rx="11" ry="11" style="stroke:#181818;stroke-width:1.0;"/><path d="M52.3656,113.575 Q52.5219,113.3562 52.7094,113.2469 Q52.8969,113.1375 53.1156,113.1375 Q53.4906,113.1375 53.725,113.4031 Q53.9594,113.6531 53.9594,114.2625 L53.9594,115.7156 Q53.9594,116.325 53.725,116.5906 Q53.4906,116.8562 53.1156,116.8562 Q52.7719,116.8562 52.5688,116.6531 Q52.3656,116.4656 52.2563,115.95 Q52.2094,115.5906 52.0219,115.4031 Q51.6938,115.0281 51.0844,114.8094 Q50.475,114.5906 49.85,114.5906 Q49.0844,114.5906 48.4438,114.9187 Q47.8188,115.2469 47.3188,115.9969 Q46.8344,116.7469 46.8344,117.7781 L46.8344,118.8719 Q46.8344,120.1062 47.725,120.9344 Q48.6156,121.7469 50.2094,121.7469 Q51.1469,121.7469 51.8031,121.4969 Q52.1938,121.3406 52.6156,120.9031 Q52.8813,120.6375 53.0219,120.5594 Q53.1781,120.4812 53.3813,120.4812 Q53.7094,120.4812 53.9594,120.7469 Q54.225,120.9969 54.225,121.3406 Q54.225,121.6844 53.8813,122.0906 Q53.3813,122.6687 52.5844,122.9969 Q51.5063,123.45 50.2094,123.45 Q48.6938,123.45 47.4906,122.825 Q46.5063,122.325 45.8188,121.2625 Q45.1313,120.1844 45.1313,118.9031 L45.1313,117.7469 Q45.1313,116.4187 45.7406,115.2781 Q46.3656,114.1219 47.4594,113.5125 Q48.5531,112.8875 49.7875,112.8875 Q50.5219,112.8875 51.1625,113.0594 Q51.8188,113.2156 52.3656,113.575 Z " fill="#000000"/><text fill="#000000" font-family="sans-serif" font-size="14" lengthAdjust="spacing" textLength="144" x="66.4" y="123.4285">useKeyboardShortcuts</text><line style="stroke:#181818;stroke-width:0.5;" x1="23" x2="225" y1="133.7" y2="133.7"/><ellipse cx="33" cy="169.6141" fill="#84BE84" rx="3" ry="3" style="stroke:#038048;stroke-width:1.0;"/><text fill="#000000" font-family="sans-serif" font-size="14" lengthAdjust="spacing" textLength="119" x="42" y="173.8426">useSettings() hook</text><line style="stroke:#181818;stroke-width:1.0;stroke-dasharray:1.0,2.0;" x1="23" x2="79.5" y1="150.5047" y2="150.5047"/><text fill="#000000" font-family="sans-serif" font-size="14" lengthAdjust="spacing" textLength="89" x="79.5" y="155.7332">dependencies</text><line style="stroke:#181818;stroke-width:1.0;stroke-dasharray:1.0,2.0;" x1="168.5" x2="225" y1="150.5047" y2="150.5047"/><line style="stroke:#181818;stroke-width:0.5;" x1="23" x2="225" y1="180.9188" y2="180.9188"/><ellipse cx="33" cy="195.2234" fill="#84BE84" rx="3" ry="3" style="stroke:#038048;stroke-width:1.0;"/><text fill="#000000" font-family="sans-serif" font-size="14" lengthAdjust="spacing" textLength="99" x="42" y="199.452">void useEffect()</text><ellipse cx="33" cy="212.8328" fill="#84BE84" rx="3" ry="3" style="stroke:#038048;stroke-width:1.0;"/><text fill="#000000" font-family="sans-serif" font-size="14" lengthAdjust="spacing" textLength="178" x="42" y="217.0613">void handleKeyPress(event)</text></g><!--class serverApi--><g id="elem_serverApi"><rect codeLine="13" fill="#F1F1F1" height="153.6563" id="serverApi" rx="2.5" ry="2.5" style="stroke:#181818;stroke-width:0.5;" width="423" x="514.5" y="85.7"/><ellipse cx="691.75" cy="101.7" fill="#ADD1B2" rx="11" ry="11" style="stroke:#181818;stroke-width:1.0;"/><path d="M694.5156,97.575 Q694.6719,97.3562 694.8594,97.2469 Q695.0469,97.1375 695.2656,97.1375 Q695.6406,97.1375 695.875,97.4031 Q696.1094,97.6531 696.1094,98.2625 L696.1094,99.7156 Q696.1094,100.325 695.875,100.5906 Q695.6406,100.8562 695.2656,100.8562 Q694.9219,100.8562 694.7188,100.6531 Q694.5156,100.4656 694.4063,99.95 Q694.3594,99.5906 694.1719,99.4031 Q693.8438,99.0281 693.2344,98.8094 Q692.625,98.5906 692,98.5906 Q691.2344,98.5906 690.5938,98.9187 Q689.9688,99.2469 689.4688,99.9969 Q688.9844,100.7469 688.9844,101.7781 L688.9844,102.8719 Q688.9844,104.1062 689.875,104.9344 Q690.7656,105.7469 692.3594,105.7469 Q693.2969,105.7469 693.9531,105.4969 Q694.3438,105.3406 694.7656,104.9031 Q695.0313,104.6375 695.1719,104.5594 Q695.3281,104.4812 695.5313,104.4812 Q695.8594,104.4812 696.1094,104.7469 Q696.375,104.9969 696.375,105.3406 Q696.375,105.6844 696.0313,106.0906 Q695.5313,106.6687 694.7344,106.9969 Q693.6563,107.45 692.3594,107.45 Q690.8438,107.45 689.6406,106.825 Q688.6563,106.325 687.9688,105.2625 Q687.2813,104.1844 687.2813,102.9031 L687.2813,101.7469 Q687.2813,100.4187 687.8906,99.2781 Q688.5156,98.1219 689.6094,97.5125 Q690.7031,96.8875 691.9375,96.8875 Q692.6719,96.8875 693.3125,97.0594 Q693.9688,97.2156 694.5156,97.575 Z " fill="#000000"/><text fill="#000000" font-family="sans-serif" font-size="14" lengthAdjust="spacing" textLength="60" x="712.25" y="107.4285">serverApi</text><line style="stroke:#181818;stroke-width:0.5;" x1="515.5" x2="936.5" y1="117.7" y2="117.7"/><line style="stroke:#181818;stroke-width:0.5;" x1="515.5" x2="936.5" y1="125.7" y2="125.7"/><ellipse cx="525.5" cy="140.0047" fill="#84BE84" rx="3" ry="3" style="stroke:#038048;stroke-width:1.0;"/><text fill="#000000" font-family="sans-serif" font-size="14" lengthAdjust="spacing" textLength="333" x="534.5" y="144.2332">Object parseCourseData(data, subjectsAccumulator)</text><ellipse cx="525.5" cy="157.6141" fill="#84BE84" rx="3" ry="3" style="stroke:#038048;stroke-width:1.0;"/><text fill="#000000" font-family="sans-serif" font-size="14" lengthAdjust="spacing" textLength="135" x="534.5" y="161.8426">Array getSemesters()</text><ellipse cx="525.5" cy="175.2234" fill="#84BE84" rx="3" ry="3" style="stroke:#038048;stroke-width:1.0;"/><text fill="#000000" font-family="sans-serif" font-size="14" lengthAdjust="spacing" textLength="177" x="534.5" y="179.452">string getCurrentSemester()</text><ellipse cx="525.5" cy="192.8328" fill="#84BE84" rx="3" ry="3" style="stroke:#038048;stroke-width:1.0;"/><text fill="#000000" font-family="sans-serif" font-size="14" lengthAdjust="spacing" textLength="341" x="534.5" y="197.0613">Promise fetchSubjectCourses(subjectCode, semester)</text><ellipse cx="525.5" cy="210.4422" fill="#84BE84" rx="3" ry="3" style="stroke:#038048;stroke-width:1.0;"/><text fill="#000000" font-family="sans-serif" font-size="14" lengthAdjust="spacing" textLength="366" x="534.5" y="214.6707">Promise searchCoursesBySubject(searchTerm, semester)</text><ellipse cx="525.5" cy="228.0516" fill="#84BE84" rx="3" ry="3" style="stroke:#038048;stroke-width:1.0;"/><text fill="#000000" font-family="sans-serif" font-size="14" lengthAdjust="spacing" textLength="397" x="534.5" y="232.2801">Promise searchCoursesByInstructor(instructorName, semester)</text></g><!--class timetableUtils--><g id="elem_timetableUtils"><rect codeLine="22" fill="#F1F1F1" height="118.4375" id="timetableUtils" rx="2.5" ry="2.5" style="stroke:#181818;stroke-width:0.5;" width="289" x="972.5" y="103.7"/><ellipse cx="1071.25" cy="119.7" fill="#ADD1B2" rx="11" ry="11" style="stroke:#181818;stroke-width:1.0;"/><path d="M1074.0156,115.575 Q1074.1719,115.3562 1074.3594,115.2469 Q1074.5469,115.1375 1074.7656,115.1375 Q1075.1406,115.1375 1075.375,115.4031 Q1075.6094,115.6531 1075.6094,116.2625 L1075.6094,117.7156 Q1075.6094,118.325 1075.375,118.5906 Q1075.1406,118.8562 1074.7656,118.8562 Q1074.4219,118.8562 1074.2188,118.6531 Q1074.0156,118.4656 1073.9063,117.95 Q1073.8594,117.5906 1073.6719,117.4031 Q1073.3438,117.0281 1072.7344,116.8094 Q1072.125,116.5906 1071.5,116.5906 Q1070.7344,116.5906 1070.0938,116.9187 Q1069.4688,117.2469 1068.9688,117.9969 Q1068.4844,118.7469 1068.4844,119.7781 L1068.4844,120.8719 Q1068.4844,122.1062 1069.375,122.9344 Q1070.2656,123.7469 1071.8594,123.7469 Q1072.7969,123.7469 1073.4531,123.4969 Q1073.8438,123.3406 1074.2656,122.9031 Q1074.5313,122.6375 1074.6719,122.5594 Q1074.8281,122.4812 1075.0313,122.4812 Q1075.3594,122.4812 1075.6094,122.7469 Q1075.875,122.9969 1075.875,123.3406 Q1075.875,123.6844 1075.5313,124.0906 Q1075.0313,124.6687 1074.2344,124.9969 Q1073.1563,125.45 1071.8594,125.45 Q1070.3438,125.45 1069.1406,124.825 Q1068.1563,124.325 1067.4688,123.2625 Q1066.7813,122.1844 1066.7813,120.9031 L1066.7813,119.7469 Q1066.7813,118.4187 1067.3906,117.2781 Q1068.0156,116.1219 1069.1094,115.5125 Q1070.2031,114.8875 1071.4375,114.8875 Q1072.1719,114.8875 1072.8125,115.0594 Q1073.4688,115.2156 1074.0156,115.575 Z " fill="#000000"/><text fill="#000000" font-family="sans-serif" font-size="14" lengthAdjust="spacing" textLength="83" x="1091.75" y="125.4285">timetableUtils</text><line style="stroke:#181818;stroke-width:0.5;" x1="973.5" x2="1260.5" y1="135.7" y2="135.7"/><line style="stroke:#181818;stroke-width:0.5;" x1="973.5" x2="1260.5" y1="143.7" y2="143.7"/><ellipse cx="983.5" cy="158.0047" fill="#84BE84" rx="3" ry="3" style="stroke:#038048;stroke-width:1.0;"/><text fill="#000000" font-family="sans-serif" font-size="14" lengthAdjust="spacing" textLength="263" x="992.5" y="162.2332">Date getDateOfThisWeeksDay(dayName)</text><ellipse cx="983.5" cy="175.6141" fill="#84BE84" rx="3" ry="3" style="stroke:#038048;stroke-width:1.0;"/><text fill="#000000" font-family="sans-serif" font-size="14" lengthAdjust="spacing" textLength="233" x="992.5" y="179.8426">boolean isDisplayed(subject, course)</text><ellipse cx="983.5" cy="193.2234" fill="#84BE84" rx="3" ry="3" style="stroke:#038048;stroke-width:1.0;"/><text fill="#000000" font-family="sans-serif" font-size="14" lengthAdjust="spacing" textLength="228" x="992.5" y="197.452">boolean isChoosen(subject, course)</text><ellipse cx="983.5" cy="210.8328" fill="#84BE84" rx="3" ry="3" style="stroke:#038048;stroke-width:1.0;"/><text fill="#000000" font-family="sans-serif" font-size="14" lengthAdjust="spacing" textLength="248" x="992.5" y="215.0613">boolean isColorDark(backgroundColor)</text></g><!--class CanvasExport--><g id="elem_CanvasExport"><rect codeLine="29" fill="#F1F1F1" height="65.6094" id="CanvasExport" rx="2.5" ry="2.5" style="stroke:#181818;stroke-width:0.5;" width="374" x="1297" y="129.7"/><ellipse cx="1435.75" cy="145.7" fill="#ADD1B2" rx="11" ry="11" style="stroke:#181818;stroke-width:1.0;"/><path d="M1438.5156,141.575 Q1438.6719,141.3563 1438.8594,141.2469 Q1439.0469,141.1375 1439.2656,141.1375 Q1439.6406,141.1375 1439.875,141.4031 Q1440.1094,141.6531 1440.1094,142.2625 L1440.1094,143.7156 Q1440.1094,144.325 1439.875,144.5906 Q1439.6406,144.8563 1439.2656,144.8563 Q1438.9219,144.8563 1438.7188,144.6531 Q1438.5156,144.4656 1438.4063,143.95 Q1438.3594,143.5906 1438.1719,143.4031 Q1437.8438,143.0281 1437.2344,142.8094 Q1436.625,142.5906 1436,142.5906 Q1435.2344,142.5906 1434.5938,142.9188 Q1433.9688,143.2469 1433.4688,143.9969 Q1432.9844,144.7469 1432.9844,145.7781 L1432.9844,146.8719 Q1432.9844,148.1063 1433.875,148.9344 Q1434.7656,149.7469 1436.3594,149.7469 Q1437.2969,149.7469 1437.9531,149.4969 Q1438.3438,149.3406 1438.7656,148.9031 Q1439.0313,148.6375 1439.1719,148.5594 Q1439.3281,148.4813 1439.5313,148.4813 Q1439.8594,148.4813 1440.1094,148.7469 Q1440.375,148.9969 1440.375,149.3406 Q1440.375,149.6844 1440.0313,150.0906 Q1439.5313,150.6688 1438.7344,150.9969 Q1437.6563,151.45 1436.3594,151.45 Q1434.8438,151.45 1433.6406,150.825 Q1432.6563,150.325 1431.9688,149.2625 Q1431.2813,148.1844 1431.2813,146.9031 L1431.2813,145.7469 Q1431.2813,144.4188 1431.8906,143.2781 Q1432.5156,142.1219 1433.6094,141.5125 Q1434.7031,140.8875 1435.9375,140.8875 Q1436.6719,140.8875 1437.3125,141.0594 Q1437.9688,141.2156 1438.5156,141.575 Z " fill="#000000"/><text fill="#000000" font-family="sans-serif" font-size="14" lengthAdjust="spacing" textLength="88" x="1456.25" y="151.4285">CanvasExport</text><line style="stroke:#181818;stroke-width:0.5;" x1="1298" x2="1670" y1="161.7" y2="161.7"/><line style="stroke:#181818;stroke-width:0.5;" x1="1298" x2="1670" y1="169.7" y2="169.7"/><ellipse cx="1308" cy="184.0047" fill="#84BE84" rx="3" ry="3" style="stroke:#038048;stroke-width:1.0;"/><text fill="#000000" font-family="sans-serif" font-size="14" lengthAdjust="spacing" textLength="348" x="1317" y="188.2332">Promise exportTimetableWithCanvas(calendarElement)</text></g><!--class useTimetable--><g id="elem_useTimetable"><rect codeLine="35" fill="#F1F1F1" height="100.8281" id="useTimetable" rx="2.5" ry="2.5" style="stroke:#181818;stroke-width:0.5;" width="178" x="418" y="341.7"/><ellipse cx="460.45" cy="357.7" fill="#ADD1B2" rx="11" ry="11" style="stroke:#181818;stroke-width:1.0;"/><path d="M463.2156,353.575 Q463.3719,353.3563 463.5594,353.2469 Q463.7469,353.1375 463.9656,353.1375 Q464.3406,353.1375 464.575,353.4031 Q464.8094,353.6531 464.8094,354.2625 L464.8094,355.7156 Q464.8094,356.325 464.575,356.5906 Q464.3406,356.8563 463.9656,356.8563 Q463.6219,356.8563 463.4188,356.6531 Q463.2156,356.4656 463.1063,355.95 Q463.0594,355.5906 462.8719,355.4031 Q462.5438,355.0281 461.9344,354.8094 Q461.325,354.5906 460.7,354.5906 Q459.9344,354.5906 459.2938,354.9188 Q458.6688,355.2469 458.1688,355.9969 Q457.6844,356.7469 457.6844,357.7781 L457.6844,358.8719 Q457.6844,360.1063 458.575,360.9344 Q459.4656,361.7469 461.0594,361.7469 Q461.9969,361.7469 462.6531,361.4969 Q463.0438,361.3406 463.4656,360.9031 Q463.7313,360.6375 463.8719,360.5594 Q464.0281,360.4813 464.2313,360.4813 Q464.5594,360.4813 464.8094,360.7469 Q465.075,360.9969 465.075,361.3406 Q465.075,361.6844 464.7313,362.0906 Q464.2313,362.6688 463.4344,362.9969 Q462.3563,363.45 461.0594,363.45 Q459.5438,363.45 458.3406,362.825 Q457.3563,362.325 456.6688,361.2625 Q455.9813,360.1844 455.9813,358.9031 L455.9813,357.7469 Q455.9813,356.4188 456.5906,355.2781 Q457.2156,354.1219 458.3094,353.5125 Q459.4031,352.8875 460.6375,352.8875 Q461.3719,352.8875 462.0125,353.0594 Q462.6688,353.2156 463.2156,353.575 Z " fill="#000000"/><text fill="#000000" font-family="sans-serif" font-size="14" lengthAdjust="spacing" textLength="85" x="480.55" y="363.4285">useTimetable</text><line style="stroke:#181818;stroke-width:0.5;" x1="419" x2="595" y1="373.7" y2="373.7"/><ellipse cx="429" cy="388.0047" fill="none" rx="3" ry="3" style="stroke:#038048;stroke-width:1.0;"/><text fill="#000000" font-family="sans-serif" font-size="14" lengthAdjust="spacing" textLength="90" x="438" y="392.2332">Object context</text><ellipse cx="429" cy="405.6141" fill="none" rx="3" ry="3" style="stroke:#038048;stroke-width:1.0;"/><text fill="#000000" font-family="sans-serif" font-size="14" lengthAdjust="spacing" textLength="91" x="438" y="409.8426">error checking</text><ellipse cx="429" cy="423.2234" fill="none" rx="3" ry="3" style="stroke:#038048;stroke-width:1.0;"/><text fill="#000000" font-family="sans-serif" font-size="14" lengthAdjust="spacing" textLength="152" x="438" y="427.452">return TimetableContext</text><line style="stroke:#181818;stroke-width:0.5;" x1="419" x2="595" y1="434.5281" y2="434.5281"/></g><!--class useAppState--><g id="elem_useAppState"><rect codeLine="41" fill="#F1F1F1" height="100.8281" id="useAppState" rx="2.5" ry="2.5" style="stroke:#181818;stroke-width:0.5;" width="149" x="233.5" y="341.7"/><ellipse cx="264.7" cy="357.7" fill="#ADD1B2" rx="11" ry="11" style="stroke:#181818;stroke-width:1.0;"/><path d="M267.4656,353.575 Q267.6219,353.3563 267.8094,353.2469 Q267.9969,353.1375 268.2156,353.1375 Q268.5906,353.1375 268.825,353.4031 Q269.0594,353.6531 269.0594,354.2625 L269.0594,355.7156 Q269.0594,356.325 268.825,356.5906 Q268.5906,356.8563 268.2156,356.8563 Q267.8719,356.8563 267.6688,356.6531 Q267.4656,356.4656 267.3563,355.95 Q267.3094,355.5906 267.1219,355.4031 Q266.7938,355.0281 266.1844,354.8094 Q265.575,354.5906 264.95,354.5906 Q264.1844,354.5906 263.5438,354.9188 Q262.9188,355.2469 262.4188,355.9969 Q261.9344,356.7469 261.9344,357.7781 L261.9344,358.8719 Q261.9344,360.1063 262.825,360.9344 Q263.7156,361.7469 265.3094,361.7469 Q266.2469,361.7469 266.9031,361.4969 Q267.2938,361.3406 267.7156,360.9031 Q267.9813,360.6375 268.1219,360.5594 Q268.2781,360.4813 268.4813,360.4813 Q268.8094,360.4813 269.0594,360.7469 Q269.325,360.9969 269.325,361.3406 Q269.325,361.6844 268.9813,362.0906 Q268.4813,362.6688 267.6844,362.9969 Q266.6063,363.45 265.3094,363.45 Q263.7938,363.45 262.5906,362.825 Q261.6063,362.325 260.9188,361.2625 Q260.2313,360.1844 260.2313,358.9031 L260.2313,357.7469 Q260.2313,356.4188 260.8406,355.2781 Q261.4656,354.1219 262.5594,353.5125 Q263.6531,352.8875 264.8875,352.8875 Q265.6219,352.8875 266.2625,353.0594 Q266.9188,353.2156 267.4656,353.575 Z " fill="#000000"/><text fill="#000000" font-family="sans-serif" font-size="14" lengthAdjust="spacing" textLength="81" x="282.3" y="363.4285">useAppState</text><line style="stroke:#181818;stroke-width:0.5;" x1="234.5" x2="381.5" y1="373.7" y2="373.7"/><ellipse cx="244.5" cy="388.0047" fill="none" rx="3" ry="3" style="stroke:#038048;stroke-width:1.0;"/><text fill="#000000" font-family="sans-serif" font-size="14" lengthAdjust="spacing" textLength="90" x="253.5" y="392.2332">Object context</text><ellipse cx="244.5" cy="405.6141" fill="none" rx="3" ry="3" style="stroke:#038048;stroke-width:1.0;"/><text fill="#000000" font-family="sans-serif" font-size="14" lengthAdjust="spacing" textLength="91" x="253.5" y="409.8426">error checking</text><ellipse cx="244.5" cy="423.2234" fill="none" rx="3" ry="3" style="stroke:#038048;stroke-width:1.0;"/><text fill="#000000" font-family="sans-serif" font-size="14" lengthAdjust="spacing" textLength="123" x="253.5" y="427.452">return StateContext</text><line style="stroke:#181818;stroke-width:0.5;" x1="234.5" x2="381.5" y1="434.5281" y2="434.5281"/></g><!--class useSettings--><g id="elem_useSettings"><rect codeLine="47" fill="#F1F1F1" height="100.8281" id="useSettings" rx="2.5" ry="2.5" style="stroke:#181818;stroke-width:0.5;" width="149" x="49.5" y="341.7"/><ellipse cx="83.85" cy="357.7" fill="#ADD1B2" rx="11" ry="11" style="stroke:#181818;stroke-width:1.0;"/><path d="M86.6156,353.575 Q86.7719,353.3563 86.9594,353.2469 Q87.1469,353.1375 87.3656,353.1375 Q87.7406,353.1375 87.975,353.4031 Q88.2094,353.6531 88.2094,354.2625 L88.2094,355.7156 Q88.2094,356.325 87.975,356.5906 Q87.7406,356.8563 87.3656,356.8563 Q87.0219,356.8563 86.8188,356.6531 Q86.6156,356.4656 86.5063,355.95 Q86.4594,355.5906 86.2719,355.4031 Q85.9438,355.0281 85.3344,354.8094 Q84.725,354.5906 84.1,354.5906 Q83.3344,354.5906 82.6938,354.9188 Q82.0688,355.2469 81.5688,355.9969 Q81.0844,356.7469 81.0844,357.7781 L81.0844,358.8719 Q81.0844,360.1063 81.975,360.9344 Q82.8656,361.7469 84.4594,361.7469 Q85.3969,361.7469 86.0531,361.4969 Q86.4438,361.3406 86.8656,360.9031 Q87.1313,360.6375 87.2719,360.5594 Q87.4281,360.4813 87.6313,360.4813 Q87.9594,360.4813 88.2094,360.7469 Q88.475,360.9969 88.475,361.3406 Q88.475,361.6844 88.1313,362.0906 Q87.6313,362.6688 86.8344,362.9969 Q85.7563,363.45 84.4594,363.45 Q82.9438,363.45 81.7406,362.825 Q80.7563,362.325 80.0688,361.2625 Q79.3813,360.1844 79.3813,358.9031 L79.3813,357.7469 Q79.3813,356.4188 79.9906,355.2781 Q80.6156,354.1219 81.7094,353.5125 Q82.8031,352.8875 84.0375,352.8875 Q84.7719,352.8875 85.4125,353.0594 Q86.0688,353.2156 86.6156,353.575 Z " fill="#000000"/><text fill="#000000" font-family="sans-serif" font-size="14" lengthAdjust="spacing" textLength="74" x="102.15" y="363.4285">useSettings</text><line style="stroke:#181818;stroke-width:0.5;" x1="50.5" x2="197.5" y1="373.7" y2="373.7"/><ellipse cx="60.5" cy="388.0047" fill="none" rx="3" ry="3" style="stroke:#038048;stroke-width:1.0;"/><text fill="#000000" font-family="sans-serif" font-size="14" lengthAdjust="spacing" textLength="90" x="69.5" y="392.2332">Object context</text><ellipse cx="60.5" cy="405.6141" fill="none" rx="3" ry="3" style="stroke:#038048;stroke-width:1.0;"/><text fill="#000000" font-family="sans-serif" font-size="14" lengthAdjust="spacing" textLength="91" x="69.5" y="409.8426">error checking</text><ellipse cx="60.5" cy="423.2234" fill="none" rx="3" ry="3" style="stroke:#038048;stroke-width:1.0;"/><text fill="#000000" font-family="sans-serif" font-size="14" lengthAdjust="spacing" textLength="123" x="69.5" y="427.452">return StateContext</text><line style="stroke:#181818;stroke-width:0.5;" x1="50.5" x2="197.5" y1="434.5281" y2="434.5281"/></g><!--class ELTE API--><g id="elem_ELTE API"><rect fill="#F1F1F1" height="48" id="ELTE API" rx="2.5" ry="2.5" style="stroke:#181818;stroke-width:0.5;" width="92" x="680" y="368.2"/><ellipse cx="695" cy="384.2" fill="#ADD1B2" rx="11" ry="11" style="stroke:#181818;stroke-width:1.0;"/><path d="M697.7656,380.075 Q697.9219,379.8563 698.1094,379.7469 Q698.2969,379.6375 698.5156,379.6375 Q698.8906,379.6375 699.125,379.9031 Q699.3594,380.1531 699.3594,380.7625 L699.3594,382.2156 Q699.3594,382.825 699.125,383.0906 Q698.8906,383.3563 698.5156,383.3563 Q698.1719,383.3563 697.9688,383.1531 Q697.7656,382.9656 697.6563,382.45 Q697.6094,382.0906 697.4219,381.9031 Q697.0938,381.5281 696.4844,381.3094 Q695.875,381.0906 695.25,381.0906 Q694.4844,381.0906 693.8438,381.4188 Q693.2188,381.7469 692.7188,382.4969 Q692.2344,383.2469 692.2344,384.2781 L692.2344,385.3719 Q692.2344,386.6063 693.125,387.4344 Q694.0156,388.2469 695.6094,388.2469 Q696.5469,388.2469 697.2031,387.9969 Q697.5938,387.8406 698.0156,387.4031 Q698.2813,387.1375 698.4219,387.0594 Q698.5781,386.9813 698.7813,386.9813 Q699.1094,386.9813 699.3594,387.2469 Q699.625,387.4969 699.625,387.8406 Q699.625,388.1844 699.2813,388.5906 Q698.7813,389.1688 697.9844,389.4969 Q696.9063,389.95 695.6094,389.95 Q694.0938,389.95 692.8906,389.325 Q691.9063,388.825 691.2188,387.7625 Q690.5313,386.6844 690.5313,385.4031 L690.5313,384.2469 Q690.5313,382.9188 691.1406,381.7781 Q691.7656,380.6219 692.8594,380.0125 Q693.9531,379.3875 695.1875,379.3875 Q695.9219,379.3875 696.5625,379.5594 Q697.2188,379.7156 697.7656,380.075 Z " fill="#000000"/><text fill="#000000" font-family="sans-serif" font-size="14" lengthAdjust="spacing" textLength="60" x="709" y="389.9285">ELTE API</text><line style="stroke:#181818;stroke-width:0.5;" x1="681" x2="771" y1="400.2" y2="400.2"/><line style="stroke:#181818;stroke-width:0.5;" x1="681" x2="771" y1="408.2" y2="408.2"/></g><!--class HTML5 Canvas--><g id="elem_HTML5 Canvas"><rect fill="#F1F1F1" height="48" id="HTML5 Canvas" rx="2.5" ry="2.5" style="stroke:#181818;stroke-width:0.5;" width="129" x="1419.5" y="368.2"/><ellipse cx="1434.5" cy="384.2" fill="#ADD1B2" rx="11" ry="11" style="stroke:#181818;stroke-width:1.0;"/><path d="M1437.2656,380.075 Q1437.4219,379.8563 1437.6094,379.7469 Q1437.7969,379.6375 1438.0156,379.6375 Q1438.3906,379.6375 1438.625,379.9031 Q1438.8594,380.1531 1438.8594,380.7625 L1438.8594,382.2156 Q1438.8594,382.825 1438.625,383.0906 Q1438.3906,383.3563 1438.0156,383.3563 Q1437.6719,383.3563 1437.4688,383.1531 Q1437.2656,382.9656 1437.1563,382.45 Q1437.1094,382.0906 1436.9219,381.9031 Q1436.5938,381.5281 1435.9844,381.3094 Q1435.375,381.0906 1434.75,381.0906 Q1433.9844,381.0906 1433.3438,381.4188 Q1432.7188,381.7469 1432.2188,382.4969 Q1431.7344,383.2469 1431.7344,384.2781 L1431.7344,385.3719 Q1431.7344,386.6063 1432.625,387.4344 Q1433.5156,388.2469 1435.1094,388.2469 Q1436.0469,388.2469 1436.7031,387.9969 Q1437.0938,387.8406 1437.5156,387.4031 Q1437.7813,387.1375 1437.9219,387.0594 Q1438.0781,386.9813 1438.2813,386.9813 Q1438.6094,386.9813 1438.8594,387.2469 Q1439.125,387.4969 1439.125,387.8406 Q1439.125,388.1844 1438.7813,388.5906 Q1438.2813,389.1688 1437.4844,389.4969 Q1436.4063,389.95 1435.1094,389.95 Q1433.5938,389.95 1432.3906,389.325 Q1431.4063,388.825 1430.7188,387.7625 Q1430.0313,386.6844 1430.0313,385.4031 L1430.0313,384.2469 Q1430.0313,382.9188 1430.6406,381.7781 Q1431.2656,380.6219 1432.3594,380.0125 Q1433.4531,379.3875 1434.6875,379.3875 Q1435.4219,379.3875 1436.0625,379.5594 Q1436.7188,379.7156 1437.2656,380.075 Z " fill="#000000"/><text fill="#000000" font-family="sans-serif" font-size="14" lengthAdjust="spacing" textLength="97" x="1448.5" y="389.9285">HTML5 Canvas</text><line style="stroke:#181818;stroke-width:0.5;" x1="1420.5" x2="1547.5" y1="400.2" y2="400.2"/><line style="stroke:#181818;stroke-width:0.5;" x1="1420.5" x2="1547.5" y1="408.2" y2="408.2"/></g><g id="elem_GMN17"><path d="M261,141.2 L261,158.7 L226.34,162.7 L261,166.7 L261,183.9031 A0,0 0 0 0 261,183.9031 L479,183.9031 A0,0 0 0 0 479,183.9031 L479,151.2 L469,141.2 L261,141.2 A0,0 0 0 0 261,141.2 " fill="#FEFFDD" style="stroke:#181818;stroke-width:0.5;"/><path d="M469,141.2 L469,151.2 L479,151.2 L469,141.2 " fill="#FEFFDD" style="stroke:#181818;stroke-width:0.5;"/><text fill="#000000" font-family="sans-serif" font-size="13" lengthAdjust="spacing" textLength="197" x="267" y="159.6951">Kezeli a Ctrl+K billenty&#369;parancsot</text><text fill="#000000" font-family="sans-serif" font-size="13" lengthAdjust="spacing" textLength="101" x="267" y="176.0467">a n&#233;zet v&#225;lt&#225;shoz</text></g><g id="elem_GMN20"><path d="M1706,133.2 L1706,192.2547 L1834,192.2547 L1834,143.2 L1824,133.2 L1706,133.2 " fill="#FEFFDD" style="stroke:#181818;stroke-width:0.5;"/><path d="M1824,133.2 L1824,143.2 L1834,143.2 L1824,133.2 " fill="#FEFFDD" style="stroke:#181818;stroke-width:1.0;"/><text fill="#000000" font-family="sans-serif" font-size="13" lengthAdjust="spacing" textLength="107" x="1712" y="151.6951">ELTE Tanrend API</text><text fill="#000000" font-family="sans-serif" font-size="13" lengthAdjust="spacing" textLength="74" x="1712" y="168.0467">integr&#225;ci&#243; &#233;s</text><text fill="#000000" font-family="sans-serif" font-size="13" lengthAdjust="spacing" textLength="90" x="1712" y="184.3982">adatfeldolgoz&#225;s</text></g><g id="elem_GMN23"><path d="M1869,133.2 L1869,192.2547 L2049,192.2547 L2049,143.2 L2039,133.2 L1869,133.2 " fill="#FEFFDD" style="stroke:#181818;stroke-width:0.5;"/><path d="M2039,133.2 L2039,143.2 L2049,143.2 L2039,133.2 " fill="#FEFFDD" style="stroke:#181818;stroke-width:1.0;"/><text fill="#000000" font-family="sans-serif" font-size="13" lengthAdjust="spacing" textLength="109" x="1875" y="151.6951">D&#225;tum sz&#225;m&#237;t&#225;sok</text><text fill="#000000" font-family="sans-serif" font-size="13" lengthAdjust="spacing" textLength="159" x="1875" y="168.0467">Kurzus megjelen&#237;t&#233;si logika</text><text fill="#000000" font-family="sans-serif" font-size="13" lengthAdjust="spacing" textLength="129" x="1875" y="184.3982">Sz&#237;n seg&#233;df&#252;ggv&#233;nyek</text></g><!--link useKeyboardShortcuts to useSettings--><g id="link_useKeyboardShortcuts_useSettings"><path codeLine="54" d="M124,223.77 C124,260.5 124,300.92 124,335.56 " fill="none" id="useKeyboardShortcuts-to-useSettings" style="stroke:#181818;stroke-width:1.0;stroke-dasharray:7.0,7.0;"/><polygon fill="#181818" points="124,341.56,128,332.56,124,336.56,120,332.56,124,341.56" style="stroke:#181818;stroke-width:1.0;"/><text fill="#000000" font-family="sans-serif" font-size="13" lengthAdjust="spacing" textLength="28" x="125" y="286.1951">uses</text></g><!--link serverApi to ELTE API--><g id="link_serverApi_ELTE API"><path codeLine="55" d="M726,239.77 C726,284.59 726,332.22 726,362.12 " fill="none" id="serverApi-to-ELTE API" style="stroke:#181818;stroke-width:1.0;stroke-dasharray:7.0,7.0;"/><polygon fill="#181818" points="726,368.12,730,359.12,726,363.12,722,359.12,726,368.12" style="stroke:#181818;stroke-width:1.0;"/><text fill="#000000" font-family="sans-serif" font-size="13" lengthAdjust="spacing" textLength="71" x="727" y="286.1951">fetches data</text></g><!--link CanvasExport to HTML5 Canvas--><g id="link_CanvasExport_HTML5 Canvas"><path codeLine="56" d="M1484,195.81 C1484,242.23 1484,320.99 1484,361.89 " fill="none" id="CanvasExport-to-HTML5 Canvas" style="stroke:#181818;stroke-width:1.0;stroke-dasharray:7.0,7.0;"/><polygon fill="#181818" points="1484,367.89,1488,358.89,1484,362.89,1480,358.89,1484,367.89" style="stroke:#181818;stroke-width:1.0;"/><text fill="#000000" font-family="sans-serif" font-size="13" lengthAdjust="spacing" textLength="28" x="1485" y="286.1951">uses</text></g><!--link serverApi to GMN20--><g id="link_serverApi_GMN20"><path d="M837.55,85.6 C878.16,61.84 925.64,38.77 972.5,26.7 C1010,17.04 1633.18,13.27 1669.5,26.7 C1716.45,44.07 1745.44,98.63 1759.57,133.13 " fill="none" id="serverApi-GMN20" style="stroke:#181818;stroke-width:1.0;stroke-dasharray:7.0,7.0;"/></g><!--link timetableUtils to GMN23--><g id="link_timetableUtils_GMN23"><path d="M1175.08,103.47 C1207.92,74.27 1251.55,42.07 1297.5,26.7 C1354.08,7.77 1778.54,6 1834.5,26.7 C1885.39,45.52 1923.47,99.04 1943.39,133.06 " fill="none" id="timetableUtils-GMN23" style="stroke:#181818;stroke-width:1.0;stroke-dasharray:7.0,7.0;"/></g><!--SRC=[jLMnRjim4Dtr5OGd1GcyTUbGm9LT94ZQ1B2BZ0LDdIN652dmI2DoaO_nw253qRMRqF_gKR8SEN7G5cWrq2RltTrxf-Efv6B9Cs23nACp1JitPea3zZLYz0Z54Pb7k8HgRhXDfxcnJdY7Eq1uXaEMGWaw1Iqa8EttfjFWEmNdfCumFc4v1TyRltpfuLP6fW4yMIn0kFZakIddEbM1neq5n1XMe5qBUeWUegZiL7nsKabNiGzU2oUDVYO5mQx0ZahPut_AhkTtb9ILt28anjCwvex7AIrd37rZnP4Gll2AEsFxx4RMyefbuAPG03gmU40UdINjmPvuQubq1pj0tLXJI0Is02VoQPkm9O8nTjiKYCpE-vWp0hSYtxczhtPXulPu1hRuA_SBJTIz8BMntF_zn8iN91wQjLTZ9mjmVAuWl0iyA3IL5K8jmk_rOfPBl0LOufXNLEmgHEypcnkZW6icSIonLBo2jAl66HCDqUFmXFeCGVyXs2XZnzmkuparKMQDrsbpzegyXEiLnybzIJVXG5nNI6XCiwuAjzBbhKyikA9hmkr4KGMFzszYj8Dxzyert0SzrhwYTUqPm5fZcSX1BAa9UmOBpblDzk6IdkiBmPHtL9PJ5zxTFqdRXFfTocvg_BUKLFMZWsquV7UG_stOOVGqEG9WCBcQJTZevc90zkRMqk0Byo8wQ8y6UZxxUFLcrpQ3Bboa3PNJoYntp2oEZjY6voMiGKd6MUAiEhraSwceXrprynjDAwu5cbOFPxhUhi6nLRrHhjvWRjOHDHiBUPvdssjfN1ifCwvjW9Eavb1IgJ9RRuIilxDwsvBXf701AZKgCslAyMg2mn7G-8xhZVC5G_8hwiV0SFSfkFHsxP4LaDq1IGksBKgcJ2QNl45Cr_MZ9j9PlKqNzOyiMzLRNS7oAVql]--></g></svg>