<?xml version="1.0" encoding="us-ascii" standalone="no"?><svg xmlns="http://www.w3.org/2000/svg" xmlns:xlink="http://www.w3.org/1999/xlink" contentStyleType="text/css" height="746px" preserveAspectRatio="none" style="width:1345px;height:746px;background:#FFFFFF;" version="1.1" viewBox="0 0 1345 746" width="1345px" zoomAndPan="magnify"><defs/><g><!--class Timetable--><g id="elem_Timetable"><rect codeLine="2" fill="#F1F1F1" height="249.7031" id="Timetable" rx="2.5" ry="2.5" style="stroke:#181818;stroke-width:0.5;" width="202" x="615.5" y="7"/><ellipse cx="681.25" cy="23" fill="#ADD1B2" rx="11" ry="11" style="stroke:#181818;stroke-width:1.0;"/><path d="M684.0156,18.875 Q684.1719,18.6563 684.3594,18.5469 Q684.5469,18.4375 684.7656,18.4375 Q685.1406,18.4375 685.375,18.7031 Q685.6094,18.9531 685.6094,19.5625 L685.6094,21.0156 Q685.6094,21.625 685.375,21.8906 Q685.1406,22.1563 684.7656,22.1563 Q684.4219,22.1563 684.2188,21.9531 Q684.0156,21.7656 683.9063,21.25 Q683.8594,20.8906 683.6719,20.7031 Q683.3438,20.3281 682.7344,20.1094 Q682.125,19.8906 681.5,19.8906 Q680.7344,19.8906 680.0938,20.2188 Q679.4688,20.5469 678.9688,21.2969 Q678.4844,22.0469 678.4844,23.0781 L678.4844,24.1719 Q678.4844,25.4063 679.375,26.2344 Q680.2656,27.0469 681.8594,27.0469 Q682.7969,27.0469 683.4531,26.7969 Q683.8438,26.6406 684.2656,26.2031 Q684.5313,25.9375 684.6719,25.8594 Q684.8281,25.7813 685.0313,25.7813 Q685.3594,25.7813 685.6094,26.0469 Q685.875,26.2969 685.875,26.6406 Q685.875,26.9844 685.5313,27.3906 Q685.0313,27.9688 684.2344,28.2969 Q683.1563,28.75 681.8594,28.75 Q680.3438,28.75 679.1406,28.125 Q678.1563,27.625 677.4688,26.5625 Q676.7813,25.4844 676.7813,24.2031 L676.7813,23.0469 Q676.7813,21.7188 677.3906,20.5781 Q678.0156,19.4219 679.1094,18.8125 Q680.2031,18.1875 681.4375,18.1875 Q682.1719,18.1875 682.8125,18.3594 Q683.4688,18.5156 684.0156,18.875 Z " fill="#000000"/><text fill="#000000" font-family="sans-serif" font-size="14" lengthAdjust="spacing" textLength="62" x="701.75" y="28.7285">Timetable</text><line style="stroke:#181818;stroke-width:0.5;" x1="616.5" x2="816.5" y1="39" y2="39"/><ellipse cx="626.5" cy="74.9141" fill="#84BE84" rx="3" ry="3" style="stroke:#038048;stroke-width:1.0;"/><text fill="#000000" font-family="sans-serif" font-size="14" lengthAdjust="spacing" textLength="130" x="635.5" y="79.1426">useTimetable() hook</text><ellipse cx="626.5" cy="92.5234" fill="#84BE84" rx="3" ry="3" style="stroke:#038048;stroke-width:1.0;"/><text fill="#000000" font-family="sans-serif" font-size="14" lengthAdjust="spacing" textLength="119" x="635.5" y="96.752">useSettings() hook</text><line style="stroke:#181818;stroke-width:1.0;stroke-dasharray:1.0,2.0;" x1="616.5" x2="670.5" y1="55.8047" y2="55.8047"/><text fill="#000000" font-family="sans-serif" font-size="14" lengthAdjust="spacing" textLength="92" x="670.5" y="61.0332">Context Usage</text><line style="stroke:#181818;stroke-width:1.0;stroke-dasharray:1.0,2.0;" x1="762.5" x2="816.5" y1="55.8047" y2="55.8047"/><ellipse cx="626.5" cy="131.7422" fill="none" rx="3" ry="3" style="stroke:#038048;stroke-width:1.0;"/><text fill="#000000" font-family="sans-serif" font-size="14" lengthAdjust="spacing" textLength="115" x="635.5" y="135.9707">Array eventsJSON</text><ellipse cx="626.5" cy="149.3516" fill="none" rx="3" ry="3" style="stroke:#038048;stroke-width:1.0;"/><text fill="#000000" font-family="sans-serif" font-size="14" lengthAdjust="spacing" textLength="105" x="635.5" y="153.5801">Ref timetableRef</text><ellipse cx="626.5" cy="166.9609" fill="none" rx="3" ry="3" style="stroke:#038048;stroke-width:1.0;"/><text fill="#000000" font-family="sans-serif" font-size="14" lengthAdjust="spacing" textLength="176" x="635.5" y="171.1895">function setChoosenCourse</text><ellipse cx="626.5" cy="184.5703" fill="none" rx="3" ry="3" style="stroke:#038048;stroke-width:1.0;"/><text fill="#000000" font-family="sans-serif" font-size="14" lengthAdjust="spacing" textLength="94" x="635.5" y="188.7988">Object settings</text><line style="stroke:#181818;stroke-width:1.0;stroke-dasharray:1.0,2.0;" x1="616.5" x2="645" y1="112.6328" y2="112.6328"/><text fill="#000000" font-family="sans-serif" font-size="14" lengthAdjust="spacing" textLength="143" x="645" y="117.8613">computed from context</text><line style="stroke:#181818;stroke-width:1.0;stroke-dasharray:1.0,2.0;" x1="788" x2="816.5" y1="112.6328" y2="112.6328"/><line style="stroke:#181818;stroke-width:0.5;" x1="616.5" x2="816.5" y1="195.875" y2="195.875"/><ellipse cx="626.5" cy="210.1797" fill="#84BE84" rx="3" ry="3" style="stroke:#038048;stroke-width:1.0;"/><text fill="#000000" font-family="sans-serif" font-size="14" lengthAdjust="spacing" textLength="165" x="635.5" y="214.4082">Array setCourses(subject)</text><ellipse cx="626.5" cy="227.7891" fill="#84BE84" rx="3" ry="3" style="stroke:#038048;stroke-width:1.0;"/><text fill="#000000" font-family="sans-serif" font-size="14" lengthAdjust="spacing" textLength="145" x="635.5" y="232.0176">void onEventClick(info)</text><ellipse cx="626.5" cy="245.3984" fill="#84BE84" rx="3" ry="3" style="stroke:#038048;stroke-width:1.0;"/><text fill="#000000" font-family="sans-serif" font-size="14" lengthAdjust="spacing" textLength="134" x="635.5" y="249.627">JSX.Element render()</text></g><!--class SubjectTimetable--><g id="elem_SubjectTimetable"><rect codeLine="17" fill="#F1F1F1" height="144.0469" id="SubjectTimetable" rx="2.5" ry="2.5" style="stroke:#181818;stroke-width:0.5;" width="160" x="1158.5" y="60"/><ellipse cx="1182.05" cy="76" fill="#ADD1B2" rx="11" ry="11" style="stroke:#181818;stroke-width:1.0;"/><path d="M1184.8156,71.875 Q1184.9719,71.6563 1185.1594,71.5469 Q1185.3469,71.4375 1185.5656,71.4375 Q1185.9406,71.4375 1186.175,71.7031 Q1186.4094,71.9531 1186.4094,72.5625 L1186.4094,74.0156 Q1186.4094,74.625 1186.175,74.8906 Q1185.9406,75.1563 1185.5656,75.1563 Q1185.2219,75.1563 1185.0188,74.9531 Q1184.8156,74.7656 1184.7063,74.25 Q1184.6594,73.8906 1184.4719,73.7031 Q1184.1438,73.3281 1183.5344,73.1094 Q1182.925,72.8906 1182.3,72.8906 Q1181.5344,72.8906 1180.8938,73.2188 Q1180.2688,73.5469 1179.7688,74.2969 Q1179.2844,75.0469 1179.2844,76.0781 L1179.2844,77.1719 Q1179.2844,78.4063 1180.175,79.2344 Q1181.0656,80.0469 1182.6594,80.0469 Q1183.5969,80.0469 1184.2531,79.7969 Q1184.6438,79.6406 1185.0656,79.2031 Q1185.3313,78.9375 1185.4719,78.8594 Q1185.6281,78.7813 1185.8313,78.7813 Q1186.1594,78.7813 1186.4094,79.0469 Q1186.675,79.2969 1186.675,79.6406 Q1186.675,79.9844 1186.3313,80.3906 Q1185.8313,80.9688 1185.0344,81.2969 Q1183.9563,81.75 1182.6594,81.75 Q1181.1438,81.75 1179.9406,81.125 Q1178.9563,80.625 1178.2688,79.5625 Q1177.5813,78.4844 1177.5813,77.2031 L1177.5813,76.0469 Q1177.5813,74.7188 1178.1906,73.5781 Q1178.8156,72.4219 1179.9094,71.8125 Q1181.0031,71.1875 1182.2375,71.1875 Q1182.9719,71.1875 1183.6125,71.3594 Q1184.2688,71.5156 1184.8156,71.875 Z " fill="#000000"/><text fill="#000000" font-family="sans-serif" font-size="14" lengthAdjust="spacing" textLength="109" x="1197.95" y="81.7285">SubjectTimetable</text><line style="stroke:#181818;stroke-width:0.5;" x1="1159.5" x2="1317.5" y1="92" y2="92"/><ellipse cx="1169.5" cy="127.9141" fill="none" rx="3" ry="3" style="stroke:#038048;stroke-width:1.0;"/><text fill="#000000" font-family="sans-serif" font-size="14" lengthAdjust="spacing" textLength="96" x="1178.5" y="132.1426">Subject subject</text><line style="stroke:#181818;stroke-width:1.0;stroke-dasharray:1.0,2.0;" x1="1159.5" x2="1220.5" y1="108.8047" y2="108.8047"/><text fill="#000000" font-family="sans-serif" font-size="14" lengthAdjust="spacing" textLength="36" x="1220.5" y="114.0332">props</text><line style="stroke:#181818;stroke-width:1.0;stroke-dasharray:1.0,2.0;" x1="1256.5" x2="1317.5" y1="108.8047" y2="108.8047"/><ellipse cx="1169.5" cy="167.1328" fill="#84BE84" rx="3" ry="3" style="stroke:#038048;stroke-width:1.0;"/><text fill="#000000" font-family="sans-serif" font-size="14" lengthAdjust="spacing" textLength="119" x="1178.5" y="171.3613">useSettings() hook</text><line style="stroke:#181818;stroke-width:1.0;stroke-dasharray:1.0,2.0;" x1="1159.5" x2="1192.5" y1="148.0234" y2="148.0234"/><text fill="#000000" font-family="sans-serif" font-size="14" lengthAdjust="spacing" textLength="92" x="1192.5" y="153.252">Context Usage</text><line style="stroke:#181818;stroke-width:1.0;stroke-dasharray:1.0,2.0;" x1="1284.5" x2="1317.5" y1="148.0234" y2="148.0234"/><line style="stroke:#181818;stroke-width:0.5;" x1="1159.5" x2="1317.5" y1="178.4375" y2="178.4375"/><ellipse cx="1169.5" cy="192.7422" fill="#84BE84" rx="3" ry="3" style="stroke:#038048;stroke-width:1.0;"/><text fill="#000000" font-family="sans-serif" font-size="14" lengthAdjust="spacing" textLength="134" x="1178.5" y="196.9707">JSX.Element render()</text></g><!--class FullCalendar--><g id="elem_FullCalendar"><rect codeLine="26" fill="#F1F1F1" height="404.1875" id="FullCalendar" rx="2.5" ry="2.5" style="stroke:#181818;stroke-width:0.5;" width="199" x="1139" y="335"/><ellipse cx="1193.75" cy="351" fill="#ADD1B2" rx="11" ry="11" style="stroke:#181818;stroke-width:1.0;"/><path d="M1196.5156,346.875 Q1196.6719,346.6563 1196.8594,346.5469 Q1197.0469,346.4375 1197.2656,346.4375 Q1197.6406,346.4375 1197.875,346.7031 Q1198.1094,346.9531 1198.1094,347.5625 L1198.1094,349.0156 Q1198.1094,349.625 1197.875,349.8906 Q1197.6406,350.1563 1197.2656,350.1563 Q1196.9219,350.1563 1196.7188,349.9531 Q1196.5156,349.7656 1196.4063,349.25 Q1196.3594,348.8906 1196.1719,348.7031 Q1195.8438,348.3281 1195.2344,348.1094 Q1194.625,347.8906 1194,347.8906 Q1193.2344,347.8906 1192.5938,348.2188 Q1191.9688,348.5469 1191.4688,349.2969 Q1190.9844,350.0469 1190.9844,351.0781 L1190.9844,352.1719 Q1190.9844,353.4063 1191.875,354.2344 Q1192.7656,355.0469 1194.3594,355.0469 Q1195.2969,355.0469 1195.9531,354.7969 Q1196.3438,354.6406 1196.7656,354.2031 Q1197.0313,353.9375 1197.1719,353.8594 Q1197.3281,353.7813 1197.5313,353.7813 Q1197.8594,353.7813 1198.1094,354.0469 Q1198.375,354.2969 1198.375,354.6406 Q1198.375,354.9844 1198.0313,355.3906 Q1197.5313,355.9688 1196.7344,356.2969 Q1195.6563,356.75 1194.3594,356.75 Q1192.8438,356.75 1191.6406,356.125 Q1190.6563,355.625 1189.9688,354.5625 Q1189.2813,353.4844 1189.2813,352.2031 L1189.2813,351.0469 Q1189.2813,349.7188 1189.8906,348.5781 Q1190.5156,347.4219 1191.6094,346.8125 Q1192.7031,346.1875 1193.9375,346.1875 Q1194.6719,346.1875 1195.3125,346.3594 Q1195.9688,346.5156 1196.5156,346.875 Z " fill="#000000"/><text fill="#000000" font-family="sans-serif" font-size="14" lengthAdjust="spacing" textLength="81" x="1214.25" y="356.7285">FullCalendar</text><line style="stroke:#181818;stroke-width:0.5;" x1="1140" x2="1337" y1="367" y2="367"/><ellipse cx="1150" cy="402.9141" fill="none" rx="3" ry="3" style="stroke:#038048;stroke-width:1.0;"/><text fill="#000000" font-family="sans-serif" font-size="14" lengthAdjust="spacing" textLength="83" x="1159" y="407.1426">Array plugins</text><ellipse cx="1150" cy="420.5234" fill="none" rx="3" ry="3" style="stroke:#038048;stroke-width:1.0;"/><text fill="#000000" font-family="sans-serif" font-size="14" lengthAdjust="spacing" textLength="100" x="1159" y="424.752">string initialView</text><ellipse cx="1150" cy="438.1328" fill="none" rx="3" ry="3" style="stroke:#038048;stroke-width:1.0;"/><text fill="#000000" font-family="sans-serif" font-size="14" lengthAdjust="spacing" textLength="113" x="1159" y="442.3613">Array hiddenDays</text><ellipse cx="1150" cy="455.7422" fill="none" rx="3" ry="3" style="stroke:#038048;stroke-width:1.0;"/><text fill="#000000" font-family="sans-serif" font-size="14" lengthAdjust="spacing" textLength="80" x="1159" y="459.9707">Array events</text><ellipse cx="1150" cy="473.3516" fill="none" rx="3" ry="3" style="stroke:#038048;stroke-width:1.0;"/><text fill="#000000" font-family="sans-serif" font-size="14" lengthAdjust="spacing" textLength="114" x="1159" y="477.5801">string slotMinTime</text><ellipse cx="1150" cy="490.9609" fill="none" rx="3" ry="3" style="stroke:#038048;stroke-width:1.0;"/><text fill="#000000" font-family="sans-serif" font-size="14" lengthAdjust="spacing" textLength="117" x="1159" y="495.1895">string slotMaxTime</text><ellipse cx="1150" cy="508.5703" fill="none" rx="3" ry="3" style="stroke:#038048;stroke-width:1.0;"/><text fill="#000000" font-family="sans-serif" font-size="14" lengthAdjust="spacing" textLength="147" x="1159" y="512.7988">Object slotLabelFormat</text><ellipse cx="1150" cy="526.1797" fill="none" rx="3" ry="3" style="stroke:#038048;stroke-width:1.0;"/><text fill="#000000" font-family="sans-serif" font-size="14" lengthAdjust="spacing" textLength="115" x="1159" y="530.4082">string slotDuration</text><ellipse cx="1150" cy="543.7891" fill="none" rx="3" ry="3" style="stroke:#038048;stroke-width:1.0;"/><text fill="#000000" font-family="sans-serif" font-size="14" lengthAdjust="spacing" textLength="78" x="1159" y="548.0176">string height</text><ellipse cx="1150" cy="561.3984" fill="none" rx="3" ry="3" style="stroke:#038048;stroke-width:1.0;"/><text fill="#000000" font-family="sans-serif" font-size="14" lengthAdjust="spacing" textLength="149" x="1159" y="565.627">boolean headerToolbar</text><ellipse cx="1150" cy="579.0078" fill="none" rx="3" ry="3" style="stroke:#038048;stroke-width:1.0;"/><text fill="#000000" font-family="sans-serif" font-size="14" lengthAdjust="spacing" textLength="173" x="1159" y="583.2363">boolean stickyHeaderDates</text><ellipse cx="1150" cy="596.6172" fill="none" rx="3" ry="3" style="stroke:#038048;stroke-width:1.0;"/><text fill="#000000" font-family="sans-serif" font-size="14" lengthAdjust="spacing" textLength="118" x="1159" y="600.8457">boolean allDaySlot</text><ellipse cx="1150" cy="614.2266" fill="none" rx="3" ry="3" style="stroke:#038048;stroke-width:1.0;"/><text fill="#000000" font-family="sans-serif" font-size="14" lengthAdjust="spacing" textLength="159" x="1159" y="618.4551">Object dayHeaderFormat</text><ellipse cx="1150" cy="631.8359" fill="none" rx="3" ry="3" style="stroke:#038048;stroke-width:1.0;"/><text fill="#000000" font-family="sans-serif" font-size="14" lengthAdjust="spacing" textLength="82" x="1159" y="636.0645">Object locale</text><ellipse cx="1150" cy="649.4453" fill="none" rx="3" ry="3" style="stroke:#038048;stroke-width:1.0;"/><text fill="#000000" font-family="sans-serif" font-size="14" lengthAdjust="spacing" textLength="97" x="1159" y="653.6738">string timeZone</text><ellipse cx="1150" cy="667.0547" fill="none" rx="3" ry="3" style="stroke:#038048;stroke-width:1.0;"/><text fill="#000000" font-family="sans-serif" font-size="14" lengthAdjust="spacing" textLength="100" x="1159" y="671.2832">number firstDay</text><ellipse cx="1150" cy="684.6641" fill="none" rx="3" ry="3" style="stroke:#038048;stroke-width:1.0;"/><text fill="#000000" font-family="sans-serif" font-size="14" lengthAdjust="spacing" textLength="119" x="1159" y="688.8926">function eventClick</text><ellipse cx="1150" cy="702.2734" fill="none" rx="3" ry="3" style="stroke:#038048;stroke-width:1.0;"/><text fill="#000000" font-family="sans-serif" font-size="14" lengthAdjust="spacing" textLength="139" x="1159" y="706.502">function eventContent</text><line style="stroke:#181818;stroke-width:1.0;stroke-dasharray:1.0,2.0;" x1="1140" x2="1220.5" y1="383.8047" y2="383.8047"/><text fill="#000000" font-family="sans-serif" font-size="14" lengthAdjust="spacing" textLength="36" x="1220.5" y="389.0332">props</text><line style="stroke:#181818;stroke-width:1.0;stroke-dasharray:1.0,2.0;" x1="1256.5" x2="1337" y1="383.8047" y2="383.8047"/><line style="stroke:#181818;stroke-width:0.5;" x1="1140" x2="1337" y1="713.5781" y2="713.5781"/><ellipse cx="1150" cy="727.8828" fill="#84BE84" rx="3" ry="3" style="stroke:#038048;stroke-width:1.0;"/><text fill="#000000" font-family="sans-serif" font-size="14" lengthAdjust="spacing" textLength="134" x="1159" y="732.1113">JSX.Element render()</text></g><!--class timetableUtils--><g id="elem_timetableUtils"><rect codeLine="50" fill="#F1F1F1" height="118.4375" id="timetableUtils" rx="2.5" ry="2.5" style="stroke:#181818;stroke-width:0.5;" width="289" x="7" y="478"/><ellipse cx="105.75" cy="494" fill="#ADD1B2" rx="11" ry="11" style="stroke:#181818;stroke-width:1.0;"/><path d="M108.5156,489.875 Q108.6719,489.6563 108.8594,489.5469 Q109.0469,489.4375 109.2656,489.4375 Q109.6406,489.4375 109.875,489.7031 Q110.1094,489.9531 110.1094,490.5625 L110.1094,492.0156 Q110.1094,492.625 109.875,492.8906 Q109.6406,493.1563 109.2656,493.1563 Q108.9219,493.1563 108.7188,492.9531 Q108.5156,492.7656 108.4063,492.25 Q108.3594,491.8906 108.1719,491.7031 Q107.8438,491.3281 107.2344,491.1094 Q106.625,490.8906 106,490.8906 Q105.2344,490.8906 104.5938,491.2188 Q103.9688,491.5469 103.4688,492.2969 Q102.9844,493.0469 102.9844,494.0781 L102.9844,495.1719 Q102.9844,496.4063 103.875,497.2344 Q104.7656,498.0469 106.3594,498.0469 Q107.2969,498.0469 107.9531,497.7969 Q108.3438,497.6406 108.7656,497.2031 Q109.0313,496.9375 109.1719,496.8594 Q109.3281,496.7813 109.5313,496.7813 Q109.8594,496.7813 110.1094,497.0469 Q110.375,497.2969 110.375,497.6406 Q110.375,497.9844 110.0313,498.3906 Q109.5313,498.9688 108.7344,499.2969 Q107.6563,499.75 106.3594,499.75 Q104.8438,499.75 103.6406,499.125 Q102.6563,498.625 101.9688,497.5625 Q101.2813,496.4844 101.2813,495.2031 L101.2813,494.0469 Q101.2813,492.7188 101.8906,491.5781 Q102.5156,490.4219 103.6094,489.8125 Q104.7031,489.1875 105.9375,489.1875 Q106.6719,489.1875 107.3125,489.3594 Q107.9688,489.5156 108.5156,489.875 Z " fill="#000000"/><text fill="#000000" font-family="sans-serif" font-size="14" lengthAdjust="spacing" textLength="83" x="126.25" y="499.7285">timetableUtils</text><line style="stroke:#181818;stroke-width:0.5;" x1="8" x2="295" y1="510" y2="510"/><line style="stroke:#181818;stroke-width:0.5;" x1="8" x2="295" y1="518" y2="518"/><ellipse cx="18" cy="532.3047" fill="#84BE84" rx="3" ry="3" style="stroke:#038048;stroke-width:1.0;"/><text fill="#000000" font-family="sans-serif" font-size="14" lengthAdjust="spacing" textLength="263" x="27" y="536.5332">Date getDateOfThisWeeksDay(dayName)</text><ellipse cx="18" cy="549.9141" fill="#84BE84" rx="3" ry="3" style="stroke:#038048;stroke-width:1.0;"/><text fill="#000000" font-family="sans-serif" font-size="14" lengthAdjust="spacing" textLength="233" x="27" y="554.1426">boolean isDisplayed(subject, course)</text><ellipse cx="18" cy="567.5234" fill="#84BE84" rx="3" ry="3" style="stroke:#038048;stroke-width:1.0;"/><text fill="#000000" font-family="sans-serif" font-size="14" lengthAdjust="spacing" textLength="228" x="27" y="571.752">boolean isChoosen(subject, course)</text><ellipse cx="18" cy="585.1328" fill="#84BE84" rx="3" ry="3" style="stroke:#038048;stroke-width:1.0;"/><text fill="#000000" font-family="sans-serif" font-size="14" lengthAdjust="spacing" textLength="248" x="27" y="589.3613">boolean isColorDark(backgroundColor)</text></g><!--class CanvasExport--><g id="elem_CanvasExport"><rect codeLine="57" fill="#F1F1F1" height="65.6094" id="CanvasExport" rx="2.5" ry="2.5" style="stroke:#181818;stroke-width:0.5;" width="360" x="536.5" y="504"/><ellipse cx="668.25" cy="520" fill="#ADD1B2" rx="11" ry="11" style="stroke:#181818;stroke-width:1.0;"/><path d="M671.0156,515.875 Q671.1719,515.6563 671.3594,515.5469 Q671.5469,515.4375 671.7656,515.4375 Q672.1406,515.4375 672.375,515.7031 Q672.6094,515.9531 672.6094,516.5625 L672.6094,518.0156 Q672.6094,518.625 672.375,518.8906 Q672.1406,519.1563 671.7656,519.1563 Q671.4219,519.1563 671.2188,518.9531 Q671.0156,518.7656 670.9063,518.25 Q670.8594,517.8906 670.6719,517.7031 Q670.3438,517.3281 669.7344,517.1094 Q669.125,516.8906 668.5,516.8906 Q667.7344,516.8906 667.0938,517.2188 Q666.4688,517.5469 665.9688,518.2969 Q665.4844,519.0469 665.4844,520.0781 L665.4844,521.1719 Q665.4844,522.4063 666.375,523.2344 Q667.2656,524.0469 668.8594,524.0469 Q669.7969,524.0469 670.4531,523.7969 Q670.8438,523.6406 671.2656,523.2031 Q671.5313,522.9375 671.6719,522.8594 Q671.8281,522.7813 672.0313,522.7813 Q672.3594,522.7813 672.6094,523.0469 Q672.875,523.2969 672.875,523.6406 Q672.875,523.9844 672.5313,524.3906 Q672.0313,524.9688 671.2344,525.2969 Q670.1563,525.75 668.8594,525.75 Q667.3438,525.75 666.1406,525.125 Q665.1563,524.625 664.4688,523.5625 Q663.7813,522.4844 663.7813,521.2031 L663.7813,520.0469 Q663.7813,518.7188 664.3906,517.5781 Q665.0156,516.4219 666.1094,515.8125 Q667.2031,515.1875 668.4375,515.1875 Q669.1719,515.1875 669.8125,515.3594 Q670.4688,515.5156 671.0156,515.875 Z " fill="#000000"/><text fill="#000000" font-family="sans-serif" font-size="14" lengthAdjust="spacing" textLength="88" x="688.75" y="525.7285">CanvasExport</text><line style="stroke:#181818;stroke-width:0.5;" x1="537.5" x2="895.5" y1="536" y2="536"/><line style="stroke:#181818;stroke-width:0.5;" x1="537.5" x2="895.5" y1="544" y2="544"/><ellipse cx="547.5" cy="558.3047" fill="#84BE84" rx="3" ry="3" style="stroke:#038048;stroke-width:1.0;"/><text fill="#000000" font-family="sans-serif" font-size="14" lengthAdjust="spacing" textLength="334" x="556.5" y="562.5332">async exportTimetableWithCanvas(calendarElement)</text></g><g id="elem_GMN11"><path d="M853,102.5 L853,128 L817.56,132 L853,136 L853,161.5547 A0,0 0 0 0 853,161.5547 L1104,161.5547 A0,0 0 0 0 1104,161.5547 L1104,112.5 L1094,102.5 L853,102.5 A0,0 0 0 0 853,102.5 " fill="#FEFFDD" style="stroke:#181818;stroke-width:0.5;"/><path d="M1094,102.5 L1094,112.5 L1104,112.5 L1094,102.5 " fill="#FEFFDD" style="stroke:#181818;stroke-width:0.5;"/><text fill="#000000" font-family="sans-serif" font-size="13" lengthAdjust="spacing" textLength="126" x="859" y="120.9951">F&#337; napt&#225;r komponens</text><text fill="#000000" font-family="sans-serif" font-size="13" lengthAdjust="spacing" textLength="230" x="859" y="137.3467">FullCalendar React wrapper komponens</text><text fill="#000000" font-family="sans-serif" font-size="13" lengthAdjust="spacing" textLength="199" x="859" y="153.6982">Esem&#233;ny kezel&#233;s &#233;s megjelen&#237;t&#233;s</text></g><g id="elem_GMN14"><path d="M331.5,507.5 L331.5,533 L296.16,537 L331.5,541 L331.5,566.5547 A0,0 0 0 0 331.5,566.5547 L501.5,566.5547 A0,0 0 0 0 501.5,566.5547 L501.5,517.5 L491.5,507.5 L331.5,507.5 A0,0 0 0 0 331.5,507.5 " fill="#FEFFDD" style="stroke:#181818;stroke-width:0.5;"/><path d="M491.5,507.5 L491.5,517.5 L501.5,517.5 L491.5,507.5 " fill="#FEFFDD" style="stroke:#181818;stroke-width:0.5;"/><text fill="#000000" font-family="sans-serif" font-size="13" lengthAdjust="spacing" textLength="141" x="337.5" y="525.9951">Seg&#233;df&#252;ggv&#233;nyek d&#225;tum</text><text fill="#000000" font-family="sans-serif" font-size="13" lengthAdjust="spacing" textLength="149" x="337.5" y="542.3467">sz&#225;m&#237;t&#225;sokhoz &#233;s kurzus</text><text fill="#000000" font-family="sans-serif" font-size="13" lengthAdjust="spacing" textLength="135" x="337.5" y="558.6982">megjelen&#237;t&#233;si logik&#225;hoz</text></g><g id="elem_GMN17"><path d="M931.5,515.5 L931.5,533 L896.69,537 L931.5,541 L931.5,558.2031 A0,0 0 0 0 931.5,558.2031 L1103.5,558.2031 A0,0 0 0 0 1103.5,558.2031 L1103.5,525.5 L1093.5,515.5 L931.5,515.5 A0,0 0 0 0 931.5,515.5 " fill="#FEFFDD" style="stroke:#181818;stroke-width:0.5;"/><path d="M1093.5,515.5 L1093.5,525.5 L1103.5,525.5 L1093.5,515.5 " fill="#FEFFDD" style="stroke:#181818;stroke-width:0.5;"/><text fill="#000000" font-family="sans-serif" font-size="13" lengthAdjust="spacing" textLength="122" x="937.5" y="533.9951">HTML5 Canvas alap&#250;</text><text fill="#000000" font-family="sans-serif" font-size="13" lengthAdjust="spacing" textLength="151" x="937.5" y="550.3467">PNG export funkcionalit&#225;s</text></g><!--link Timetable to FullCalendar--><g id="link_Timetable_FullCalendar"><path codeLine="61" d="M817.76,245.19 C823.55,249.44 829.47,253.42 835.5,257 C948.37,324.13 1016.24,255.15 1120.5,335 C1126.93,339.92 1128.78,341.1052 1134.64,346.8352 " fill="none" id="Timetable-to-FullCalendar" style="stroke:#181818;stroke-width:1.0;"/><polygon fill="#181818" points="1138.93,351.03,1135.2916,341.8778,1135.355,347.5343,1129.6985,347.5978,1138.93,351.03" style="stroke:#181818;stroke-width:1.0;"/></g><!--link Timetable to timetableUtils--><g id="link_Timetable_timetableUtils"><path codeLine="62" d="M615.16,169.64 C529.18,203.88 405.5,260.83 313.5,335 C263.08,375.65 221.3558,429.4966 191.6158,473.0066 " fill="none" id="Timetable-to-timetableUtils" style="stroke:#181818;stroke-width:1.0;"/><polygon fill="#181818" points="188.23,477.96,196.611,472.787,191.0515,473.8321,190.0064,468.2727,188.23,477.96" style="stroke:#181818;stroke-width:1.0;"/></g><!--link SubjectTimetable to FullCalendar--><g id="link_SubjectTimetable_FullCalendar"><path codeLine="63" d="M1238.5,204.12 C1238.5,240.95 1238.5,281.97 1238.5,328.95 " fill="none" id="SubjectTimetable-to-FullCalendar" style="stroke:#181818;stroke-width:1.0;"/><polygon fill="#181818" points="1238.5,334.95,1242.5,325.95,1238.5,329.95,1234.5,325.95,1238.5,334.95" style="stroke:#181818;stroke-width:1.0;"/></g><!--link Timetable to CanvasExport--><g id="link_Timetable_CanvasExport"><path codeLine="64" d="M716.5,257.2 C716.5,343 716.5,444.85 716.5,497.74 " fill="none" id="Timetable-to-CanvasExport" style="stroke:#181818;stroke-width:1.0;stroke-dasharray:7.0,7.0;"/><polygon fill="#181818" points="716.5,503.74,720.5,494.74,716.5,498.74,712.5,494.74,716.5,503.74" style="stroke:#181818;stroke-width:1.0;"/><text fill="#000000" font-family="sans-serif" font-size="13" lengthAdjust="spacing" textLength="86" x="717.5" y="301.4951">uses for export</text></g><!--SRC=[bLHBRjim4Dth55pQIEDTDrq4AFnf4EHJn4vJT1FGqaXcH942Xt9Y5pr4Z-1b5hr0qPtGUtL8qnyfJjeQC0pE6ywyUPpdM794DX45M3wLmBv6Z3wz7kjhPU7HiXla6L30nuzOXR1DxdJPJEjyXup1Mg4ot0UeLAoBihAGiDJeWaxhmjkIxutX2mPpK1RFnbUN8NmDARERLdG8uRHIiHLQCGJRfou8ggyhWn3mg-aznDQXdegFtjqrMhcR_WfsiFBftO3FjKYOLaF7fIz5d7U4IlK6FHj_xWqb50Go0oe1q-b6tw8ezXgErwKEI5aQNU9ktf38Gk-_2tv8rkr8hvCQLLBskQGuDoyIMgjIoYeJ2aCChQ6MJ2XX1PUV13mqacSYIK0D-08FF6Ap14fjBuHokXm0-ECUi7ax0ixv5EH8cuBRvxS6bU5k1vh834GsssHFjPR05GKvIJAXqvIR5eQMNdXnwZC6t0AsS2ubJJYcXar-2G-N6lm2A7LCUZUPkJN-ejKcggfY2eQbmg2b1kt5Xkts7KRSdYZxFrkmjT6D5HB37XmnDpFBmBhVgtGo4tWBa2DHwj28bxo0RaiHWGE1fUGBI3RMUKE6TbvwdXhS-G-9Mcfw09DtfZpECwChbVZOtWXzhkOSXu-bDdOx0CU5YXduuDPtjyBErjcTE6n-KCQNs_dp-FYauOyMr1GjUcRlLwxtUYTDmk-SZP6bsWIsKQGqYM_SnZATxlw0_MIZtz-PugMjLuRbzET9gnECsV3pDN1Qk0V3onBQYKE4edvI2vR34cJzXCnz2yZkWMxNFomT8oh378ysczRehjuOilefIUjVMJPtTI5dIRsoLU5HNDQhmXLTeSvdUkcRvPLPLklRpRw2J9A9l5vHveiSzlNpDKud5-TlGvYioSlwfuz_lFmGH7L6oMCo2fV2KTdL_WC0]--></g></svg>